<?xml version="1.0" encoding="utf-8"?>
<!-- Generator: Adobe Illustrator 16.0.0, SVG Export Plug-In . SVG Version: 6.00 Build 0)  -->
<!DOCTYPE svg PUBLIC "-//W3C//DTD SVG 1.1//EN" "http://www.w3.org/Graphics/SVG/1.1/DTD/svg11.dtd">
<svg version="1.1" id="Layer_1" xmlns="http://www.w3.org/2000/svg" xmlns:xlink="http://www.w3.org/1999/xlink" x="0px" y="0px"
	 width="224px" height="100.5px" viewBox="0 0 224 100.5" enable-background="new 0 0 224 100.5" xml:space="preserve">
<g>
	<g>
		<path fill="#FFFFFF" d="M119.569,37.5l3.7-8c0.1-0.3,0.3-0.4,0.7-0.4l0,0c0.3,0,0.5,0.2,0.6,0.4l3.7,8c0,0.1,0,0.2,0,0.3
			c0,0.3-0.2,0.5-0.5,0.5s-0.4-0.2-0.5-0.4l-0.9-2.1h-4.899l-0.9,2.1c-0.1,0.2-0.3,0.4-0.5,0.4c-0.3,0-0.4-0.2-0.4-0.4
			C119.47,37.6,119.47,37.5,119.569,37.5z M125.869,34.8l-2-4.6l-2.1,4.6H125.869z"/>
		<path fill="#FFFFFF" d="M131.069,29.6c0-0.3,0.2-0.5,0.5-0.5h3.4c1.1,0,2,0.3,2.6,0.9c0.4,0.4,0.7,1.1,0.7,1.8l0,0
			c0,1.5-1,2.3-2.4,2.6l2.2,2.9c0.1,0.1,0.2,0.2,0.2,0.4c0,0.3-0.3,0.5-0.5,0.5s-0.4-0.1-0.5-0.3l-2.5-3.3h-2.601v3
			c0,0.3-0.199,0.5-0.5,0.5c-0.3,0-0.5-0.2-0.5-0.5L131.069,29.6L131.069,29.6z M134.869,33.7c1.4,0,2.3-0.7,2.3-1.9l0,0
			c0-1.1-0.8-1.8-2.3-1.8h-2.8v3.7H134.869L134.869,33.7z"/>
		<path fill="#FFFFFF" d="M140.97,33.7L140.97,33.7c0-2.5,1.8-4.7,4.5-4.7c1.399,0,2.3,0.3,3,1c0.1,0.1,0.199,0.2,0.199,0.4
			c0,0.3-0.199,0.5-0.5,0.5c-0.1,0-0.199,0-0.3-0.1c-0.7-0.5-1.399-0.8-2.5-0.8c-2,0-3.399,1.7-3.399,3.7l0,0
			c0,2.2,1.399,3.8,3.6,3.8c1,0,2-0.4,2.6-0.9v-2.3h-2.3c-0.3,0-0.399-0.2-0.399-0.4c0-0.3,0.199-0.4,0.399-0.4h2.9
			c0.3,0,0.5,0.2,0.5,0.5v2.7c0,0.3-0.101,0.4-0.4,0.6c-0.8,0.6-1.899,1.1-3.3,1.1C142.669,38.3,140.97,36.2,140.97,33.7z"/>
		<path fill="#FFFFFF" d="M152.369,37.6v-7.9c0-0.3,0.2-0.5,0.5-0.5h5.601c0.3,0,0.399,0.2,0.399,0.4c0,0.3-0.2,0.4-0.399,0.4
			h-5.101v3h4.5c0.3,0,0.4,0.2,0.4,0.4c0,0.3-0.2,0.4-0.4,0.4h-4.5v3.1h5.101c0.3,0,0.399,0.2,0.399,0.4c0,0.2-0.1,0.7-0.399,0.7
			h-5.601C152.669,38.1,152.369,37.9,152.369,37.6z"/>
		<path fill="#FFFFFF" d="M161.97,29.6c0-0.3,0.199-0.5,0.5-0.5h0.1c0.2,0,0.4,0.1,0.5,0.3l5.5,7v-6.8c0-0.3,0.2-0.5,0.5-0.5
			s0.5,0.2,0.5,0.5v8.1c0,0.3-0.2,0.5-0.4,0.5l0,0c-0.199,0-0.399-0.1-0.5-0.3l-5.6-7.1v7c0,0.3-0.2,0.5-0.5,0.5s-0.5-0.2-0.5-0.5
			L161.97,29.6L161.97,29.6z"/>
		<path fill="#FFFFFF" d="M175.47,30.1h-2.601c-0.3,0-0.5-0.2-0.5-0.4c0-0.2,0.2-0.5,0.5-0.5h6.2c0.3,0,0.5,0.2,0.5,0.5
			c0,0.3-0.2,0.4-0.5,0.4h-2.6v7.6c0,0.3-0.2,0.5-0.5,0.5c-0.301,0-0.5-0.2-0.5-0.5V30.1L175.47,30.1z"/>
		<path fill="#FFFFFF" d="M182.47,29.6c0-0.3,0.199-0.5,0.5-0.5c0.3,0,0.5,0.2,0.5,0.5v8.1c0,0.3-0.2,0.5-0.5,0.5
			c-0.301,0-0.5-0.2-0.5-0.5V29.6z"/>
		<path fill="#FFFFFF" d="M187.069,29.6c0-0.3,0.2-0.5,0.5-0.5h0.1c0.2,0,0.4,0.1,0.5,0.3l5.5,7v-6.8c0-0.3,0.2-0.5,0.5-0.5
			c0.301,0,0.5,0.2,0.5,0.5v8.1c0,0.3-0.199,0.5-0.399,0.5l0,0c-0.2,0-0.4-0.1-0.5-0.3l-5.601-7.1v7c0,0.3-0.199,0.5-0.5,0.5
			c-0.3,0-0.5-0.2-0.5-0.5L187.069,29.6L187.069,29.6z"/>
		<path fill="#FFFFFF" d="M197.569,37.5l3.7-8c0.1-0.3,0.3-0.4,0.699-0.4l0,0c0.301,0,0.5,0.2,0.601,0.4l3.7,8c0,0.1,0,0.2,0,0.3
			c0,0.3-0.2,0.5-0.5,0.5c-0.301,0-0.4-0.2-0.5-0.4l-0.9-2.1h-5l-0.899,2.1c-0.101,0.2-0.301,0.4-0.5,0.4c-0.301,0-0.4-0.2-0.4-0.4
			C197.47,37.6,197.569,37.5,197.569,37.5z M203.969,34.8l-2.1-4.6l-2.1,4.6H203.969z"/>
		<path fill="#FFFFFF" d="M113.069,52.6l2.7-2.3c1.2-1.1,1.7-1.6,1.7-2.4c0-0.9-0.601-1.4-1.5-1.4c-0.7,0-1.2,0.4-1.801,1
			c-0.1,0.1-0.3,0.3-0.5,0.3c-0.399,0-0.699-0.3-0.699-0.7c0-0.2,0-0.4,0.199-0.5c0.801-0.9,1.5-1.5,3-1.5c1.801,0,3,1.1,3,2.7l0,0
			c0,1.4-0.8,2.2-2.3,3.5l-2,1.5h3.7c0.4,0,0.7,0.3,0.7,0.7s-0.3,0.7-0.7,0.7h-5.1c-0.5,0-0.801-0.3-0.801-0.8
			C112.669,53.1,112.77,52.8,113.069,52.6z"/>
		<path fill="#FFFFFF" d="M121.669,49.7L121.669,49.7c0-2.6,1.5-4.7,3.9-4.7c2.3,0,3.9,2,3.9,4.6l0,0c0,2.6-1.5,4.6-3.9,4.6
			C123.169,54.3,121.669,52.3,121.669,49.7z M127.869,49.7L127.869,49.7c0-1.8-0.899-3.3-2.3-3.3s-2.3,1.4-2.3,3.2l0,0
			c0,1.8,0.899,3.2,2.3,3.2C126.97,52.9,127.869,51.4,127.869,49.7z"/>
		<path fill="#FFFFFF" d="M131.869,49.7L131.869,49.7c0-2.6,1.5-4.7,3.9-4.7c2.3,0,3.899,2,3.899,4.6l0,0c0,2.6-1.5,4.6-3.899,4.6
			C133.47,54.3,131.869,52.3,131.869,49.7z M138.169,49.7L138.169,49.7c0-1.8-0.899-3.3-2.3-3.3c-1.399,0-2.3,1.4-2.3,3.2l0,0
			c0,1.8,0.9,3.2,2.3,3.2C137.27,52.9,138.169,51.4,138.169,49.7z"/>
		<path fill="#FFFFFF" d="M146.869,53.1l3.4-7.5c0.2-0.4,0.5-0.7,1-0.7h0.1c0.4,0,0.8,0.3,0.9,0.7l3.399,7.5
			c0,0.101,0.101,0.2,0.101,0.4c0,0.4-0.3,0.8-0.8,0.8c-0.4,0-0.601-0.2-0.801-0.5L153.47,52h-4.4l-0.7,1.7
			c-0.1,0.3-0.399,0.5-0.8,0.5s-0.8-0.3-0.8-0.8C146.77,53.4,146.869,53.2,146.869,53.1z M152.77,50.6l-1.601-3.6l-1.6,3.6H152.77z"
			/>
		<path fill="#FFFFFF" d="M158.27,45.9c0-0.4,0.399-0.8,0.8-0.8h0.2c0.399,0,0.6,0.2,0.8,0.4l4.5,5.8v-5.5c0-0.4,0.4-0.8,0.8-0.8
			c0.4,0,0.8,0.4,0.8,0.8V53.4c0,0.399-0.399,0.8-0.8,0.8l0,0c-0.399,0-0.6-0.2-0.8-0.5l-4.6-6v5.7c0,0.399-0.4,0.8-0.801,0.8
			c-0.399,0-0.8-0.4-0.8-0.8L158.27,45.9L158.27,45.9z M160.369,44.6c-0.3,0-0.5-0.2-0.5-0.4c0-0.1,0-0.2,0-0.3
			c0.3-0.8,0.601-1.1,1.3-1.1c0.7,0,1.4,0.5,1.9,0.5c0.3,0,0.4-0.1,0.6-0.4c0.101-0.1,0.2-0.3,0.4-0.3c0.3,0,0.5,0.2,0.5,0.4
			c0,0.1,0,0.2,0,0.3c-0.3,0.8-0.6,1.1-1.3,1.1s-1.4-0.5-1.9-0.5c-0.3,0-0.399,0.1-0.6,0.4C160.669,44.4,160.569,44.6,160.369,44.6z
			"/>
		<path fill="#FFFFFF" d="M168.97,49.7L168.97,49.7c0-2.6,1.899-4.7,4.699-4.7c2.7,0,4.7,2.1,4.7,4.6l0,0c0,2.5-1.899,4.6-4.7,4.6
			C170.869,54.3,168.97,52.2,168.97,49.7z M176.77,49.7L176.77,49.7c0-1.8-1.3-3.2-3-3.2c-1.8,0-3,1.4-3,3.2l0,0
			c0,1.8,1.3,3.2,3,3.2S176.77,51.4,176.77,49.7z"/>
		<path fill="#FFFFFF" d="M180.97,53.1c-0.2-0.1-0.301-0.399-0.301-0.6c0-0.4,0.4-0.8,0.7-0.8c0.2,0,0.4,0,0.4,0.1
			c0.8,0.601,1.6,0.9,2.5,0.9c1,0,1.6-0.4,1.6-1.101l0,0c0-0.699-0.399-1-2-1.399c-1.899-0.4-3-1-3-2.7l0,0c0-1.5,1.3-2.6,3-2.6
			c1.101,0,2,0.3,2.9,0.8c0.2,0.1,0.399,0.3,0.399,0.6c0,0.4-0.399,0.8-0.699,0.8c-0.101,0-0.301,0-0.4-0.1
			c-0.7-0.4-1.4-0.7-2.1-0.7c-0.9,0-1.5,0.5-1.5,1.1l0,0c0,0.7,0.399,1,2.199,1.4c1.9,0.4,2.9,1.1,2.9,2.7l0,0
			c0,1.7-1.3,2.7-3.2,2.7C183.169,54.3,181.97,53.9,180.97,53.1z"/>
		<path fill="#FFFFFF" d="M195.169,45.9c0-0.4,0.4-0.8,0.801-0.8h2.6c2.8,0,4.8,1.9,4.8,4.5l0,0c0,2.5-1.9,4.5-4.8,4.5h-2.6
			c-0.4,0-0.801-0.399-0.801-0.8V45.9z M198.569,52.7c1.899,0,3.1-1.3,3.1-3l0,0c0-1.8-1.2-3-3.1-3h-1.8v6.1L198.569,52.7
			L198.569,52.7z"/>
		<path fill="#FFFFFF" d="M206.169,53.4V46c0-0.4,0.4-0.8,0.8-0.8h5.2c0.4,0,0.7,0.3,0.7,0.7s-0.3,0.7-0.7,0.7h-4.5v2.3h3.8
			c0.4,0,0.7,0.3,0.7,0.7s-0.3,0.7-0.7,0.7h-3.8v2.4h4.5c0.4,0,0.7,0.3,0.7,0.7c0,0.399-0.3,0.699-0.7,0.699h-5.3
			C206.569,54.2,206.169,53.8,206.169,53.4z"/>
		<path fill="#FFFFFF" d="M102.169,61.9c0-0.4,0.4-0.801,0.8-0.801s0.8,0.4,0.8,0.801v7.6c0,0.4-0.4,0.8-0.8,0.8s-0.8-0.399-0.8-0.8
			V61.9z"/>
		<path fill="#FFFFFF" d="M107.069,61.9c0-0.4,0.4-0.801,0.8-0.801h0.2c0.4,0,0.6,0.2,0.8,0.4l4.5,5.8v-5.5c0-0.399,0.4-0.8,0.8-0.8
			c0.4,0,0.801,0.4,0.801,0.8V69.4c0,0.399-0.4,0.8-0.801,0.8l0,0c-0.399,0-0.6-0.2-0.8-0.5l-4.6-6v5.7c0,0.399-0.4,0.8-0.8,0.8
			s-0.8-0.4-0.8-0.8L107.069,61.9L107.069,61.9z"/>
		<path fill="#FFFFFF" d="M118.169,62c0-0.4,0.4-0.8,0.801-0.8h2.6c2.8,0,4.8,1.899,4.8,4.5l0,0c0,2.5-1.899,4.5-4.8,4.5h-2.6
			c-0.4,0-0.801-0.4-0.801-0.8V62z M121.569,68.7c1.9,0,3.1-1.3,3.1-3l0,0c0-1.8-1.199-3-3.1-3h-1.8v6.1L121.569,68.7L121.569,68.7z
			"/>
		<path fill="#FFFFFF" d="M129.169,69.4V62c0-0.4,0.4-0.8,0.801-0.8h5.199c0.4,0,0.7,0.3,0.7,0.7c0,0.399-0.3,0.699-0.7,0.699
			h-4.399V64.9h3.8c0.4,0,0.7,0.3,0.7,0.699c0,0.4-0.3,0.7-0.7,0.7h-3.8v2.4h4.5c0.399,0,0.7,0.3,0.7,0.7
			c0,0.399-0.301,0.699-0.7,0.699h-5.3C129.569,70.2,129.169,69.8,129.169,69.4z"/>
		<path fill="#FFFFFF" d="M138.77,62c0-0.4,0.399-0.8,0.8-0.8h2.7c2.1,0,3.399,1.2,3.399,3l0,0c0,2-1.6,3.1-3.6,3.1h-1.8v2.2
			c0,0.4-0.4,0.8-0.8,0.8c-0.4,0-0.801-0.399-0.801-0.8V62H138.77z M142.169,65.9c1.2,0,1.9-0.7,1.9-1.601l0,0
			c0-1.1-0.8-1.6-1.9-1.6h-1.899v3.2H142.169z"/>
		<path fill="#FFFFFF" d="M148.27,69.4V62c0-0.4,0.3-0.8,0.8-0.8h5.2c0.399,0,0.7,0.3,0.7,0.7c0,0.399-0.301,0.699-0.7,0.699h-4.4
			V64.9h3.8c0.4,0,0.7,0.3,0.7,0.699c0,0.4-0.3,0.7-0.7,0.7h-3.8v2.4h4.5c0.4,0,0.7,0.3,0.7,0.7c0,0.399-0.3,0.699-0.7,0.699h-5.3
			C148.669,70.2,148.27,69.8,148.27,69.4z"/>
		<path fill="#FFFFFF" d="M157.869,61.9c0-0.4,0.4-0.801,0.8-0.801h0.2c0.4,0,0.601,0.2,0.8,0.4l4.5,5.8v-5.5
			c0-0.399,0.4-0.8,0.801-0.8c0.399,0,0.8,0.4,0.8,0.8V69.4c0,0.399-0.4,0.8-0.8,0.8l0,0c-0.4,0-0.601-0.2-0.801-0.5l-4.6-6v5.7
			c0,0.399-0.4,0.8-0.8,0.8c-0.4,0-0.8-0.4-0.8-0.8L157.869,61.9L157.869,61.9z"/>
		<path fill="#FFFFFF" d="M168.97,62c0-0.4,0.399-0.8,0.8-0.8h2.6c2.8,0,4.8,1.899,4.8,4.5l0,0c0,2.5-1.899,4.5-4.8,4.5h-2.6
			c-0.4,0-0.8-0.4-0.8-0.8V62z M172.27,68.7c1.899,0,3.1-1.3,3.1-3l0,0c0-1.8-1.2-3-3.1-3h-1.8v6.1L172.27,68.7L172.27,68.7z"/>
		<path fill="#FFFFFF" d="M179.97,69.4V62c0-0.4,0.399-0.8,0.8-0.8h5.2c0.399,0,0.699,0.3,0.699,0.7c0,0.399-0.3,0.699-0.699,0.699
			h-4.5V64.9h3.8c0.399,0,0.7,0.3,0.7,0.699c0,0.4-0.301,0.7-0.7,0.7h-3.8v2.4h4.5c0.399,0,0.699,0.3,0.699,0.7
			c0,0.399-0.3,0.699-0.699,0.699h-5.301C180.369,70.2,179.97,69.8,179.97,69.4z"/>
		<path fill="#FFFFFF" d="M189.569,61.9c0-0.4,0.3-0.801,0.8-0.801h0.2c0.4,0,0.6,0.2,0.8,0.4l4.5,5.8v-5.5c0-0.399,0.4-0.8,0.8-0.8
			c0.4,0,0.801,0.4,0.801,0.8V69.4c0,0.399-0.4,0.8-0.801,0.8l0,0c-0.399,0-0.6-0.2-0.8-0.5l-4.6-6v5.7c0,0.399-0.4,0.8-0.8,0.8
			c-0.4,0-0.801-0.4-0.801-0.8L189.569,61.9L189.569,61.9z"/>
		<path fill="#FFFFFF" d="M200.27,65.7L200.27,65.7c0-2.601,1.899-4.7,4.6-4.7c1.4,0,2.3,0.4,3.1,1c0.2,0.1,0.301,0.4,0.301,0.6
			c0,0.4-0.301,0.801-0.801,0.801c-0.199,0-0.399-0.101-0.5-0.101c-0.6-0.5-1.3-0.8-2.199-0.8c-1.7,0-3,1.4-3,3.2l0,0
			c0,1.8,1.199,3.2,3,3.2c1,0,1.6-0.301,2.3-0.801c0.1-0.1,0.3-0.199,0.5-0.199c0.399,0,0.8,0.399,0.8,0.8c0,0.3-0.1,0.399-0.3,0.6
			c-0.8,0.8-1.8,1.2-3.3,1.2C202.169,70.3,200.27,68.3,200.27,65.7z"/>
		<path fill="#FFFFFF" d="M211.169,61.9c0-0.4,0.4-0.801,0.8-0.801c0.4,0,0.801,0.4,0.801,0.801v7.6c0,0.4-0.4,0.8-0.801,0.8
			c-0.399,0-0.8-0.399-0.8-0.8V61.9z"/>
		<path fill="#FFFFFF" d="M215.569,69.1l3.399-7.5c0.2-0.399,0.5-0.699,1-0.699h0.101c0.399,0,0.7,0.3,0.899,0.699l3.4,7.5
			c0,0.101,0.1,0.2,0.1,0.301c0,0.399-0.3,0.8-0.699,0.8c-0.4,0-0.601-0.2-0.7-0.5l-0.8-1.7h-4.4l-0.8,1.7
			c-0.101,0.3-0.4,0.5-0.8,0.5c-0.4,0-0.7-0.3-0.7-0.8C215.469,69.4,215.569,69.3,215.569,69.1z M221.469,66.6l-1.6-3.6l-1.6,3.6
			H221.469z"/>
	</g>
	<g>
		<g>
			<path fill="none" stroke="#0069B3" stroke-width="1.4744" stroke-miterlimit="10" d="M44.969,2.7c4.9,0,9,5,13.3,6.4
				c4.6,1.5,10.8-0.1,14.6,2.6c3.8,2.8,4.2,9.2,7,13c2.8,3.8,8.7,6.1,10.2,10.7c1.4,4.4-2,9.8-2,14.7s3.4,10.3,2,14.7
				c-1.5,4.8-7.4,7.101-10.2,10.9s-3.2,10.2-7,13s-10,1.2-14.6,2.6c-4.4,1.4-8.5,6.4-13.3,6.4c-4.9,0-8.9-5-13.3-6.4
				c-4.6-1.5-10.8,0.101-14.6-2.6c-3.8-2.8-4.2-9.2-7-13c-2.8-3.8-8.7-6.101-10.2-10.7c-1.4-4.4,2-9.8,2-14.7c0-4.9-3.4-10.3-2-14.7
				c1.5-4.6,7.5-6.9,10.2-10.7c2.8-3.8,3.2-10.2,7-13c3.8-2.8,10-1.2,14.6-2.6C35.969,7.7,39.969,2.7,44.969,2.7"/>
		</g>
		<path fill="#FFFFFF" stroke="#0D71B7" stroke-width="1.4744" stroke-miterlimit="10" d="M44.969,3.9c4.8,0,8.7,4.9,13,6.2
			c4.5,1.5,10.5-0.1,14.2,2.6c3.8,2.7,4.1,9,6.8,12.7c2.7,3.7,8.5,6,10,10.4c1.4,4.3-1.9,9.5-1.9,14.3s3.4,10,1.9,14.3
			c-1.4,4.6-7.2,6.899-9.9,10.6c-2.7,3.8-3.1,10-6.8,12.7c-3.7,2.7-9.8,1.1-14.2,2.6c-4.3,1.4-8.3,6.2-13,6.2c-4.8,0-8.7-4.9-13-6.2
			c-4.5-1.5-10.5,0.101-14.2-2.6c-3.8-2.7-4.1-9-6.8-12.7c-2.7-3.7-8.5-6-10-10.4c-1.4-4.3,1.9-9.5,1.9-14.3s-3.4-10-1.9-14.3
			c1.5-4.5,7.3-6.7,10-10.4c2.7-3.8,3.1-10,6.8-12.7c3.7-2.7,9.8-1.1,14.2-2.6C36.269,8.7,40.169,3.9,44.969,3.9"/>
		<path fill="#FFFFFF" stroke="#1A78BB" stroke-width="1.4744" stroke-miterlimit="10" d="M44.969,5.1c4.6,0,8.5,4.7,12.7,6.1
			c4.3,1.4,10.2-0.1,13.8,2.5c3.7,2.7,4,8.8,6.7,12.4c2.7,3.6,8.3,5.8,9.7,10.2c1.4,4.2-1.9,9.3-1.9,14c0,4.7,3.2,9.7,1.9,13.9
			c-1.4,4.3-7.1,6.5-9.7,10.2c-2.7,3.699-3,9.699-6.7,12.399c-3.6,2.7-9.5,1.101-13.9,2.5c-4.2,1.4-8,6.101-12.7,6.101
			c-4.6,0-8.5-4.7-12.7-6.101c-4.3-1.399-10.3,0.101-13.8-2.5c-3.7-2.7-4-8.7-6.7-12.399c-2.7-3.601-8.3-5.801-9.7-10.2
			c-1.4-4.2,1.9-9.3,1.9-14s-3.3-9.8-1.9-14c1.4-4.3,7.1-6.5,9.7-10.2c2.7-3.7,3-9.7,6.7-12.4c3.6-2.7,9.5-1.1,13.8-2.5
			C36.469,9.8,40.269,5.1,44.969,5.1"/>
		<path fill="#FFFFFF" stroke="#2680BE" stroke-width="1.4744" stroke-miterlimit="10" d="M44.969,6.3c4.5,0,8.3,4.6,12.4,5.9
			c4.2,1.4,10-0.1,13.5,2.5c3.6,2.6,3.9,8.5,6.5,12.1c2.6,3.5,8.1,5.7,9.5,9.9c1.2,4-2,9-2,13.5s3.2,9.5,1.9,13.6
			c-1.4,4.2-6.9,6.4-9.5,9.9c-2.6,3.6-3,9.5-6.5,12.1c-3.5,2.601-9.2,1.101-13.5,2.5c-4.1,1.3-7.8,5.9-12.4,5.9s-8.3-4.601-12.4-5.9
			c-4.2-1.399-9.9,0.101-13.5-2.5c-3.6-2.6-3.9-8.5-6.5-12.1c-2.6-3.5-8.1-5.7-9.5-9.9c-1.3-4.1,1.9-9.1,1.9-13.6s-3.2-9.5-1.9-13.6
			c1.4-4.2,6.9-6.4,9.5-9.9c2.6-3.6,3-9.5,6.5-12.1s9.2-1.1,13.5-2.5C36.669,10.9,40.369,6.3,44.969,6.3"/>
		<path fill="#FFFFFF" stroke="#3387C2" stroke-width="1.4744" stroke-miterlimit="10" d="M44.969,7.5c4.4,0,8,4.5,12,5.8
			c4.1,1.3,9.7-0.1,13.1,2.4c3.4,2.5,3.8,8.3,6.3,11.8c2.5,3.4,7.9,5.5,9.2,9.6c1.3,4-1.8,8.8-1.8,13.2c0,4.4,3.1,9.2,1.8,13.2
			c-1.3,4.1-6.7,6.2-9.2,9.6c-2.5,3.4-2.9,9.2-6.3,11.7c-3.4,2.5-9,1.101-13.1,2.4c-4,1.3-7.6,5.8-12,5.8s-8-4.5-12-5.8
			c-4.1-1.3-9.7,0.1-13.1-2.4s-3.8-8.3-6.3-11.7c-2.5-3.399-7.9-5.5-9.2-9.6c-1.3-4,1.8-8.8,1.8-13.2c0-4.4-3.1-9.2-1.8-13.2
			c1.3-4.1,6.7-6.2,9.2-9.6s2.9-9.2,6.3-11.8c3.4-2.5,9-1.1,13.1-2.4C36.869,12,40.469,7.5,44.969,7.5"/>
		<path fill="#FFFFFF" stroke="#408FC6" stroke-width="1.4744" stroke-miterlimit="10" d="M44.969,8.7c4.3,0,7.8,4.4,11.7,5.6
			c4,1.3,9.4-0.1,12.8,2.3s3.7,8,6.1,11.4c2.4,3.3,7.6,5.4,9,9.4c1.2,3.9-1.7,8.6-1.7,12.9s3,9,1.7,12.9c-1.3,4-6.5,6.1-9,9.399
			c-2.4,3.4-2.8,9-6.1,11.4c-3.3,2.4-8.7,1-12.8,2.3c-3.8,1.2-7.4,5.601-11.7,5.601c-4.3,0-7.8-4.4-11.7-5.601
			c-4-1.3-9.4,0.101-12.8-2.3s-3.7-8-6.1-11.4c-2.4-3.3-7.7-5.399-9-9.399c-1.2-3.9,1.8-8.601,1.8-12.9s-3-9-1.8-12.9
			c1.3-4,6.5-6.1,9-9.4c2.4-3.4,2.8-9,6.1-11.4c3.3-2.4,8.7-1,12.8-2.3C37.069,13,40.669,8.7,44.969,8.7"/>
		<path fill="#FFFFFF" stroke="#4D96CA" stroke-width="1.4744" stroke-miterlimit="10" d="M44.969,9.8c4.2,0,7.6,4.2,11.4,5.4
			c3.9,1.3,9.1-0.1,12.4,2.3c3.3,2.4,3.6,7.8,6,11.1c2.3,3.2,7.5,5.2,8.7,9.1c1.2,3.8-1.7,8.3-1.7,12.5s2.9,8.8,1.7,12.5
			c-1.3,3.899-6.4,5.899-8.7,9.1c-2.4,3.3-2.7,8.7-6,11.101c-3.2,2.3-8.5,1-12.4,2.3c-3.8,1.2-7.2,5.399-11.4,5.399
			c-4.2,0-7.6-4.199-11.4-5.399c-3.9-1.3-9.1,0.1-12.4-2.3c-3.3-2.4-3.6-7.801-6-11.101c-2.3-3.2-7.5-5.2-8.7-9.1
			c-1.2-3.8,1.7-8.3,1.7-12.5c0-4.1-2.9-8.7-1.7-12.5c1.3-3.9,6.4-5.9,8.7-9.1c2.4-3.3,2.7-8.7,6-11.1c3.2-2.3,8.5-1,12.4-2.3
			C37.369,14.1,40.769,9.8,44.969,9.8"/>
		<path fill="#FFFFFF" stroke="#599ECE" stroke-width="1.4744" stroke-miterlimit="10" d="M44.969,11c4,0,7.4,4.1,11,5.3
			c3.8,1.2,8.9-0.1,12,2.2c3.2,2.3,3.5,7.6,5.8,10.8c2.3,3.1,7.2,5.1,8.4,8.8c1.2,3.7-1.6,8.1-1.6,12.1s2.8,8.5,1.6,12.1
			c-1.2,3.8-6.2,5.7-8.4,8.8c-2.3,3.2-2.6,8.4-5.8,10.801c-3.1,2.3-8.3,1-12,2.199c-3.6,1.2-7,5.301-11,5.301s-7.4-4.101-11-5.301
			c-3.8-1.199-8.9,0.101-12-2.199c-3.2-2.301-3.5-7.601-5.8-10.801c-2.3-3.1-7.2-5.1-8.4-8.8c-1.2-3.7,1.6-8.1,1.6-12.1
			s-2.8-8.5-1.6-12.1c1.2-3.8,6.2-5.7,8.4-8.8c2.3-3.2,2.6-8.4,5.8-10.8c3.1-2.3,8.3-1,12-2.2C37.569,15.2,40.869,11,44.969,11"/>
		<path fill="#FFFFFF" stroke="#66A5D1" stroke-width="1.4744" stroke-miterlimit="10" d="M44.969,12.2c3.9,0,7.2,4,10.7,5.1
			c3.7,1.2,8.6-0.1,11.7,2.1c3.1,2.3,3.4,7.4,5.6,10.4c2.2,3,7,4.9,8.2,8.6c1.1,3.5-1.6,7.8-1.6,11.8c0,3.899,2.7,8.2,1.6,11.8
			c-1.2,3.7-6,5.5-8.2,8.6c-2.3,3.101-2.6,8.2-5.6,10.4s-8,0.9-11.7,2.1c-3.5,1.101-6.8,5.101-10.7,5.101s-7.2-4-10.7-5.101
			c-3.7-1.199-8.6,0.101-11.7-2.1c-3.1-2.3-3.4-7.4-5.6-10.4c-2.2-3-7-4.899-8.2-8.6c-1.1-3.5,1.6-7.8,1.6-11.8
			c0-3.9-2.7-8.2-1.6-11.8c1.2-3.7,6-5.5,8.2-8.6c2.3-3.1,2.6-8.2,5.6-10.4c3-2.2,8-0.9,11.7-2.1
			C37.769,16.2,40.969,12.2,44.969,12.2"/>
		<path fill="#FFFFFF" stroke="#73ADD5" stroke-width="1.4744" stroke-miterlimit="10" d="M44.969,13.4c3.8,0,6.9,3.8,10.3,4.9
			c3.5,1.1,8.3-0.1,11.3,2.1c3,2.2,3.3,7.1,5.4,10.1c2.2,3,6.8,4.8,8,8.3c1.1,3.4-1.5,7.6-1.5,11.4c0,3.8,2.6,8,1.5,11.399
			c-1.2,3.5-5.8,5.301-8,8.301c-2.2,3-2.5,8-5.4,10.1c-3,2.2-7.7,0.9-11.3,2.1c-3.4,1.101-6.6,4.9-10.3,4.9c-3.8,0-6.9-3.8-10.3-4.9
			c-3.5-1.1-8.4,0.101-11.3-2.1c-3-2.2-3.3-7.1-5.4-10.1c-2.2-3-6.8-4.801-8-8.301c-1.1-3.399,1.5-7.6,1.5-11.399
			c0-3.8-2.7-8-1.5-11.4c1.1-3.5,5.8-5.3,8-8.3c2.2-3,2.5-8,5.4-10.1c3-2.2,7.7-0.9,11.3-2.1C37.969,17.3,41.169,13.4,44.969,13.4"
			/>
		<path fill="#FFFFFF" stroke="#7FB4D9" stroke-width="1.4744" stroke-miterlimit="10" d="M44.969,14.6c3.7,0,6.7,3.7,10,4.8
			c3.4,1.1,8.1-0.1,11,2s3.2,6.9,5.3,9.8c2.1,2.9,6.6,4.6,7.7,8c1.1,3.3-1.5,7.3-1.5,11s2.6,7.7,1.5,11c-1.1,3.399-5.6,5.2-7.7,8
			c-2.1,2.899-2.4,7.7-5.3,9.8s-7.5,0.9-11,2c-3.3,1.1-6.4,4.8-10,4.8c-3.7,0-6.7-3.8-10-4.8c-3.4-1.1-8.1,0.1-10.9-2
			c-2.9-2.1-3.2-6.9-5.3-9.8c-2.1-2.9-6.6-4.601-7.7-8c-1.1-3.3,1.5-7.3,1.5-11s-2.6-7.7-1.5-11c1.1-3.4,5.6-5.2,7.7-8
			c2.1-2.9,2.4-7.7,5.3-9.8c2.9-2.1,7.5-0.9,10.9-2C38.169,18.3,41.269,14.6,44.969,14.6"/>
		<path fill="#FFFFFF" stroke="#8CBBDD" stroke-width="1.4744" stroke-miterlimit="10" d="M44.969,15.8c3.5,0,6.5,3.6,9.7,4.6
			c3.3,1.1,7.8-0.1,10.6,1.9c2.8,2,3,6.7,5.1,9.5c2,2.8,6.4,4.5,7.4,7.8c1,3.2-1.5,7.1-1.5,10.7c0,3.601,2.5,7.5,1.5,10.601
			c-1.1,3.3-5.4,5-7.4,7.8s-2.3,7.399-5.1,9.399c-2.7,2-7.2,0.801-10.6,1.9c-3.2,1-6.1,4.6-9.7,4.6c-3.5,0-6.5-3.6-9.7-4.6
			c-3.3-1.1-7.8,0.1-10.6-1.9c-2.8-2-3-6.699-5.1-9.399c-2-2.8-6.4-4.5-7.4-7.8c-1.1-3.2,1.5-7.101,1.5-10.601s-2.5-7.5-1.5-10.7
			c1.1-3.3,5.4-5,7.4-7.8c2-2.8,2.3-7.4,5.1-9.5c2.8-2,7.2-0.8,10.6-1.9C38.469,19.4,41.369,15.8,44.969,15.8"/>
		<path fill="#FFFFFF" stroke="#99C3E1" stroke-width="1.4744" stroke-miterlimit="10" d="M44.969,17c3.4,0,6.3,3.5,9.4,4.5
			c3.2,1.1,7.6-0.1,10.2,1.9c2.7,1.9,3,6.4,4.9,9.1c1.9,2.6,6.1,4.3,7.2,7.5c1,3.1-1.4,6.8-1.4,10.3c0,3.4,2.4,7.2,1.4,10.3
			c-1.1,3.2-5.2,4.801-7.2,7.5c-1.9,2.7-2.2,7.2-4.9,9.101c-2.7,1.899-7,0.8-10.2,1.899c-3.1,1-5.9,4.5-9.4,4.5
			c-3.4,0-6.3-3.5-9.4-4.5c-3.2-1.1-7.6,0.101-10.2-1.899c-2.7-1.9-3-6.4-4.9-9.101c-1.9-2.6-6.1-4.3-7.2-7.5
			c-1-3.1,1.4-6.8,1.4-10.3c0-3.4-2.4-7.2-1.4-10.3c1-3.2,5.2-4.8,7.2-7.5c1.9-2.7,2.2-7.2,4.9-9.1s7-0.8,10.2-1.9
			C38.669,20.5,41.469,17,44.969,17"/>
		<path fill="#FFFFFF" stroke="#A6CAE4" stroke-width="1.4744" stroke-miterlimit="10" d="M44.969,18.2c3.3,0,6.1,3.4,9,4.3
			c3.1,1,7.3-0.1,9.9,1.8c2.6,1.9,2.9,6.2,4.7,8.8c1.9,2.6,5.9,4.2,6.9,7.3c1,3-1.3,6.6-1.3,9.9s2.3,6.9,1.3,9.9
			c-1,3.1-5,4.6-6.9,7.2c-1.9,2.6-2.2,6.899-4.7,8.8c-2.6,1.899-6.8,0.8-9.9,1.8c-3,1-5.7,4.3-9,4.3c-3.3,0-6.1-3.399-9-4.3
			c-3.1-1-7.3,0.1-9.9-1.8c-2.6-1.9-2.9-6.2-4.7-8.8c-1.9-2.601-5.9-4.2-6.9-7.2s1.3-6.601,1.3-9.9s-2.3-6.9-1.3-9.9
			c1-3.1,5-4.6,6.9-7.3c1.9-2.6,2.2-6.9,4.7-8.8c2.6-1.9,6.8-0.8,9.9-1.8C38.869,21.5,41.569,18.2,44.969,18.2"/>
		<path fill="#FFFFFF" stroke="#B2D2E8" stroke-width="1.4744" stroke-miterlimit="10" d="M44.969,19.3c3.2,0,5.8,3.2,8.7,4.2
			c3,1,7-0.1,9.5,1.7c2.5,1.8,2.7,6,4.5,8.5c1.8,2.5,5.7,4,6.7,7c0.9,2.9-1.3,6.4-1.3,9.5c0,3.2,2.2,6.7,1.3,9.5c-1,3-4.9,4.5-6.7,7
			c-1.8,2.5-2.1,6.7-4.5,8.5c-2.5,1.8-6.5,0.7-9.5,1.7c-2.9,0.899-5.5,4.199-8.7,4.199c-3.2,0-5.8-3.199-8.7-4.199
			c-3-1-7,0.1-9.5-1.7s-2.7-6-4.5-8.5c-1.8-2.5-5.7-4-6.7-7c-0.9-2.9,1.3-6.4,1.3-9.5c0-3.2-2.2-6.7-1.3-9.5c1-3,4.9-4.5,6.7-7
			c1.8-2.5,2.1-6.7,4.5-8.5c2.5-1.8,6.5-0.7,9.5-1.7C39.069,22.6,41.769,19.3,44.969,19.3"/>
		<path fill="#FFFFFF" stroke="#BFD9EC" stroke-width="1.4744" stroke-miterlimit="10" d="M44.969,20.5c3,0,5.6,3.1,8.3,4
			c2.9,0.9,6.7-0.1,9.1,1.7c2.4,1.8,2.6,5.7,4.4,8.2c1.7,2.4,5.5,3.8,6.4,6.7c0.9,2.8-1.2,6.1-1.2,9.2c0,3,2.1,6.4,1.2,9.2
			c-0.9,2.9-4.7,4.3-6.4,6.7c-1.8,2.399-2,6.399-4.4,8.2c-2.4,1.699-6.2,0.8-9.1,1.699c-2.7,0.9-5.3,4-8.3,4s-5.6-3.1-8.3-4
			c-2.9-0.899-6.7,0.101-9.1-1.699c-2.4-1.801-2.7-5.7-4.4-8.2c-1.7-2.4-5.5-3.8-6.4-6.7c-0.9-2.8,1.2-6.1,1.2-9.2
			c0-3-2.2-6.4-1.2-9.2c0.9-2.9,4.7-4.3,6.4-6.7c1.8-2.4,2-6.4,4.4-8.2c2.4-1.7,6.3-0.7,9.1-1.7
			C39.369,23.6,41.869,20.5,44.969,20.5"/>
		<path fill="#FFFFFF" stroke="#CCE1F0" stroke-width="1.4744" stroke-miterlimit="10" d="M44.969,21.7c2.9,0,5.3,3,8,3.8
			c2.7,0.9,6.4,0,8.7,1.6c2.3,1.7,2.6,5.5,4.2,7.8c1.7,2.3,5.3,3.7,6.1,6.5c0.8,2.6-1.2,5.9-1.2,8.8c0,2.899,2.1,6.2,1.2,8.8
			c-0.9,2.7-4.5,4.2-6.1,6.4c-1.7,2.3-1.9,6.1-4.2,7.8c-2.3,1.7-6,0.7-8.7,1.6c-2.7,0.8-5.1,3.8-8,3.8s-5.3-3-8-3.8
			c-2.7-0.899-6.5,0-8.7-1.6c-2.3-1.7-2.5-5.5-4.2-7.8c-1.7-2.301-5.3-3.7-6.1-6.4c-0.8-2.7,1.2-5.9,1.2-8.8c0-2.9-2.1-6.2-1.2-8.8
			c0.9-2.7,4.5-4.2,6.1-6.5c1.7-2.3,1.9-6.1,4.2-7.8c2.3-1.7,6-0.7,8.7-1.6C39.569,24.7,41.969,21.7,44.969,21.7"/>
		<path fill="#FFFFFF" stroke="#D9E8F4" stroke-width="1.4744" stroke-miterlimit="10" d="M44.969,22.9c2.8,0,5.1,2.9,7.7,3.7
			c2.7,0.8,6.2,0,8.4,1.5c2.2,1.6,2.4,5.3,4.1,7.5c1.6,2.2,5,3.5,5.9,6.1c0.8,2.6-1.1,5.7-1.1,8.4c0,2.8,2,5.9,1.1,8.4
			c-0.8,2.7-4.3,4-5.9,6.1c-1.6,2.2-1.8,5.9-4.1,7.5c-2.2,1.601-5.7,0.7-8.4,1.5c-2.5,0.801-4.9,3.7-7.7,3.7
			c-2.8,0-5.1-2.899-7.7-3.7c-2.7-0.8-6.2,0-8.4-1.5s-2.4-5.3-4.1-7.5c-1.6-2.199-5-3.5-5.9-6.1c-0.8-2.6,1.1-5.7,1.1-8.4
			c0-2.8-2-5.9-1.1-8.4c0.8-2.6,4.3-4,5.9-6.1c1.6-2.2,1.8-5.9,4.1-7.5c2.2-1.6,5.7-0.7,8.4-1.5
			C39.769,25.8,42.069,22.9,44.969,22.9"/>
		<path fill="#FFFFFF" stroke="#E5F0F7" stroke-width="1.4744" stroke-miterlimit="10" d="M44.969,24.1c2.7,0,4.9,2.7,7.3,3.5
			c2.5,0.8,5.9,0,8,1.5s2.3,5,3.9,7.2c1.5,2.1,4.8,3.4,5.7,5.9c0.8,2.4-1.1,5.4-1.1,8.1c0,2.7,1.9,5.7,1.1,8.101
			c-0.8,2.5-4.1,3.8-5.7,5.899c-1.5,2.101-1.8,5.7-3.9,7.2s-5.5,0.7-8,1.5c-2.4,0.8-4.6,3.5-7.3,3.5c-2.7,0-4.9-2.7-7.3-3.5
			c-2.5-0.8-5.9,0-8-1.5c-2.1-1.5-2.3-5.1-3.9-7.2c-1.5-2.1-4.8-3.399-5.7-5.899c-0.8-2.4,1.1-5.4,1.1-8.101c0-2.7-1.9-5.7-1.1-8.1
			c0.8-2.5,4.1-3.8,5.7-5.9c1.5-2.1,1.8-5.7,3.9-7.2c2.1-1.5,5.5-0.7,8-1.5C39.969,26.9,42.269,24.1,44.969,24.1"/>
		<path fill="#FFFFFF" stroke="#F2F7FB" stroke-width="1.4744" stroke-miterlimit="10" d="M44.969,25.3c2.6,0,4.7,2.6,7,3.4
			c2.4,0.8,5.7,0,7.6,1.4c2,1.5,2.2,4.8,3.7,6.8s4.6,3.2,5.4,5.6c0.8,2.3-1.1,5.1-1.1,7.7c0,2.6,1.8,5.399,1.1,7.7
			c-0.8,2.399-3.9,3.6-5.4,5.6s-1.7,5.4-3.7,6.8c-2,1.5-5.3,0.601-7.6,1.4c-2.3,0.8-4.5,3.399-7,3.399s-4.7-2.6-7-3.399
			c-2.4-0.8-5.7,0-7.6-1.4c-2-1.5-2.2-4.8-3.7-6.8s-4.6-3.2-5.4-5.6c-0.8-2.301,1.1-5.101,1.1-7.7c0-2.6-1.8-5.4-1.1-7.7
			c0.8-2.4,3.9-3.6,5.4-5.6s1.7-5.4,3.7-6.8c2-1.5,5.3-0.6,7.6-1.4C40.269,27.9,42.369,25.3,44.969,25.3"/>
		<g>
			<path fill="#FFFFFF" stroke="#FFFFFF" stroke-width="1.4744" stroke-miterlimit="10" d="M44.969,26.5c2.4,0,4.5,2.5,6.7,3.2
				c2.3,0.8,5.4,0,7.3,1.3c1.9,1.4,2.1,4.6,3.5,6.5s4.4,3.1,5.1,5.3c0.7,2.2-1,4.9-1,7.3s1.7,5.1,1,7.3c-0.8,2.3-3.8,3.399-5.1,5.3
				c-1.4,1.899-1.6,5.1-3.5,6.5c-1.9,1.399-5,0.6-7.3,1.3c-2.2,0.7-4.2,3.2-6.7,3.2c-2.4,0-4.5-2.5-6.7-3.2c-2.3-0.8-5.4,0-7.3-1.3
				c-1.9-1.4-2.1-4.601-3.5-6.5c-1.4-1.9-4.4-3-5.1-5.3c-0.7-2.2,1-4.9,1-7.3s-1.7-5.1-1-7.3c0.8-2.3,3.8-3.4,5.1-5.3
				c1.4-1.9,1.6-5.1,3.5-6.5s5-0.6,7.3-1.3C40.469,29,42.469,26.5,44.969,26.5"/>
		</g>
	</g>
</g>
</svg>
