<?xml version="1.0" encoding="utf-8"?>
<!-- Generator: Adobe Illustrator 16.0.0, SVG Export Plug-In . SVG Version: 6.00 Build 0)  -->
<!DOCTYPE svg PUBLIC "-//W3C//DTD SVG 1.1//EN" "http://www.w3.org/Graphics/SVG/1.1/DTD/svg11.dtd">
<svg version="1.1" id="Capa_1" xmlns="http://www.w3.org/2000/svg" xmlns:xlink="http://www.w3.org/1999/xlink" x="0px" y="0px"
	 width="79px" height="42px" viewBox="0 0 79 42" style="enable-background:new 0 0 79 42;" xml:space="preserve">
<style type="text/css">
<![CDATA[
	.st0{fill-rule:evenodd;clip-rule:evenodd;fill:#44C4E1;}
	.st1{fill-rule:evenodd;clip-rule:evenodd;fill:#20155B;}
	.st2{fill-rule:evenodd;clip-rule:evenodd;fill:url(#SVGID_1_);}
	.st3{fill-rule:evenodd;clip-rule:evenodd;fill:url(#SVGID_2_);}
	.st4{fill-rule:evenodd;clip-rule:evenodd;fill:url(#SVGID_3_);}
	.st5{fill-rule:evenodd;clip-rule:evenodd;fill:url(#SVGID_4_);}
	.st6{fill-rule:evenodd;clip-rule:evenodd;fill:url(#SVGID_5_);}
]]>
</style>
<g>
	<g>
		<path class="st1" d="M32.5,18.8c-0.4,0-0.8-0.1-1.1-0.2c-0.3-0.1-0.6-0.3-0.9-0.6s-0.5-0.5-0.6-0.9c-0.1-0.3-0.2-0.7-0.2-1.1v0
			c0-0.4,0.1-0.7,0.2-1.1c0.1-0.3,0.3-0.6,0.6-0.9c0.3-0.3,0.6-0.5,0.9-0.6c0.3-0.1,0.7-0.2,1.2-0.2c0.3,0,0.5,0,0.7,0.1
			c0.2,0,0.4,0.1,0.6,0.2c0.2,0.1,0.3,0.2,0.5,0.3c0.1,0.1,0.3,0.2,0.4,0.3l-0.6,0.7c-0.2-0.2-0.5-0.4-0.7-0.5
			c-0.2-0.1-0.5-0.2-0.8-0.2c-0.3,0-0.5,0-0.7,0.1c-0.2,0.1-0.4,0.2-0.6,0.4c-0.2,0.2-0.3,0.4-0.4,0.6c-0.1,0.2-0.1,0.5-0.1,0.7v0
			c0,0.3,0,0.5,0.1,0.7c0.1,0.2,0.2,0.4,0.4,0.6c0.2,0.2,0.4,0.3,0.6,0.4c0.2,0.1,0.5,0.2,0.7,0.2c0.3,0,0.6-0.1,0.9-0.2
			c0.2-0.1,0.5-0.3,0.7-0.5l0.6,0.6c-0.1,0.2-0.3,0.3-0.4,0.4c-0.2,0.1-0.3,0.2-0.5,0.3c-0.2,0.1-0.4,0.1-0.6,0.2
			C33,18.8,32.7,18.8,32.5,18.8L32.5,18.8z M38,17.9c0.3,0,0.5-0.1,0.8-0.2c0.2-0.1,0.4-0.2,0.6-0.4c0.2-0.2,0.3-0.4,0.4-0.6
			c0.1-0.2,0.1-0.5,0.1-0.7v0c0-0.3,0-0.5-0.1-0.7c-0.1-0.2-0.2-0.4-0.4-0.6c-0.2-0.2-0.4-0.3-0.6-0.4c-0.2-0.1-0.5-0.2-0.8-0.2
			c-0.3,0-0.5,0-0.8,0.1c-0.2,0.1-0.4,0.2-0.6,0.4c-0.2,0.2-0.3,0.4-0.4,0.6c-0.1,0.2-0.1,0.5-0.1,0.7v0c0,0.3,0,0.5,0.1,0.7
			c0.1,0.2,0.2,0.4,0.4,0.6c0.2,0.2,0.4,0.3,0.6,0.4C37.5,17.9,37.8,17.9,38,17.9L38,17.9z M38,18.8c-0.4,0-0.8-0.1-1.2-0.2
			c-0.4-0.1-0.7-0.3-0.9-0.6c-0.3-0.3-0.5-0.5-0.6-0.9s-0.2-0.7-0.2-1.1v0c0-0.4,0.1-0.7,0.2-1.1c0.1-0.3,0.3-0.6,0.6-0.9
			c0.3-0.3,0.6-0.5,0.9-0.6c0.4-0.1,0.7-0.2,1.2-0.2c0.4,0,0.8,0.1,1.2,0.2c0.4,0.1,0.7,0.3,0.9,0.6c0.3,0.3,0.5,0.5,0.6,0.9
			c0.1,0.3,0.2,0.7,0.2,1.1v0c0,0.4-0.1,0.7-0.2,1.1s-0.3,0.6-0.6,0.9c-0.3,0.3-0.6,0.5-0.9,0.6C38.8,18.7,38.4,18.8,38,18.8
			L38,18.8z M44.3,17.9c0.3,0,0.6-0.1,0.8-0.2c0.2-0.1,0.3-0.3,0.3-0.6v0c0-0.2-0.1-0.4-0.3-0.5c-0.2-0.1-0.5-0.2-0.9-0.2h-1.5v1.5
			H44.3L44.3,17.9z M44,15.6c0.3,0,0.6-0.1,0.8-0.2c0.2-0.1,0.3-0.3,0.3-0.6v0c0-0.2-0.1-0.4-0.2-0.5c-0.2-0.1-0.4-0.2-0.7-0.2h-1.4
			v1.4H44L44,15.6z M41.7,13.3h2.5c0.6,0,1.1,0.2,1.4,0.5c0.2,0.2,0.4,0.5,0.4,0.9v0c0,0.2,0,0.3-0.1,0.4c0,0.1-0.1,0.2-0.2,0.3
			c-0.1,0.1-0.2,0.2-0.3,0.3c-0.1,0.1-0.2,0.1-0.3,0.2c0.2,0.1,0.3,0.1,0.4,0.2c0.1,0.1,0.2,0.2,0.3,0.3c0.1,0.1,0.2,0.2,0.2,0.4
			c0.1,0.1,0.1,0.3,0.1,0.5v0c0,0.2,0,0.5-0.1,0.6s-0.2,0.3-0.4,0.5c-0.2,0.1-0.4,0.2-0.6,0.3c-0.3,0.1-0.5,0.1-0.8,0.1h-2.6V13.3
			L41.7,13.3z M47.1,13.3h4.1v0.9h-3.1v1.4h2.8v0.9h-2.8v1.4h3.2v0.9h-4.1V13.3L47.1,13.3z M54.4,16c0.4,0,0.6-0.1,0.8-0.2
			c0.2-0.2,0.3-0.4,0.3-0.7v0c0-0.3-0.1-0.5-0.3-0.7c-0.2-0.2-0.5-0.2-0.9-0.2H53V16H54.4L54.4,16z M52,13.3h2.5
			c0.3,0,0.7,0,0.9,0.1c0.3,0.1,0.5,0.2,0.7,0.4c0.1,0.1,0.3,0.3,0.3,0.5c0.1,0.2,0.1,0.4,0.1,0.6v0c0,0.2,0,0.4-0.1,0.6
			c-0.1,0.2-0.2,0.3-0.3,0.5c-0.1,0.1-0.3,0.3-0.4,0.3c-0.2,0.1-0.3,0.2-0.5,0.2l1.5,2h-1.1l-1.4-1.9h0H53v1.9h-1V13.3L52,13.3z
			 M58.7,14.2H57v-0.9h4.5v0.9h-1.8v4.5h-1V14.2L58.7,14.2z M64.4,18.8c-0.4,0-0.7,0-1-0.1s-0.5-0.2-0.7-0.5
			c-0.2-0.2-0.4-0.4-0.5-0.7c-0.1-0.3-0.2-0.6-0.2-1v-3.1h1v3.1c0,0.5,0.1,0.9,0.4,1.1c0.3,0.3,0.6,0.4,1,0.4c0.4,0,0.8-0.1,1-0.4
			c0.3-0.3,0.4-0.6,0.4-1.1v-3.1h1v3.1c0,0.4-0.1,0.8-0.2,1.1c-0.1,0.3-0.3,0.6-0.5,0.8c-0.2,0.2-0.5,0.4-0.7,0.5
			C65.1,18.7,64.8,18.8,64.4,18.8L64.4,18.8z M70.2,16c0.4,0,0.6-0.1,0.8-0.2c0.2-0.2,0.3-0.4,0.3-0.7v0c0-0.3-0.1-0.5-0.3-0.7
			c-0.2-0.2-0.5-0.2-0.9-0.2h-1.4V16H70.2L70.2,16z M67.8,13.3h2.5c0.3,0,0.7,0,0.9,0.1c0.3,0.1,0.5,0.2,0.7,0.4
			c0.1,0.1,0.3,0.3,0.3,0.5c0.1,0.2,0.1,0.4,0.1,0.6v0c0,0.2,0,0.4-0.1,0.6c-0.1,0.2-0.2,0.3-0.3,0.5c-0.1,0.1-0.3,0.3-0.4,0.3
			c-0.2,0.1-0.3,0.2-0.5,0.2l1.5,2h-1.1L70,16.8h0h-1.2v1.9h-1V13.3L67.8,13.3z M76.5,16.6l-1-2.2l-0.9,2.2H76.5L76.5,16.6z
			 M75.1,13.3H76l2.4,5.4h-1l-0.6-1.3h-2.6l-0.6,1.3h-1L75.1,13.3z"/>
		<path class="st1" d="M32.5,26.4c-0.4,0-0.7-0.1-1.1-0.2c-0.3-0.1-0.6-0.3-0.8-0.5c-0.2-0.2-0.4-0.5-0.5-0.8s-0.2-0.7-0.2-1.1v-3.4
			H31v3.3c0,0.5,0.1,1,0.4,1.2c0.3,0.3,0.6,0.4,1.1,0.4c0.5,0,0.8-0.1,1.1-0.4c0.3-0.3,0.4-0.7,0.4-1.2v-3.4h1.1v3.3
			c0,0.4-0.1,0.8-0.2,1.1c-0.1,0.3-0.3,0.6-0.5,0.8c-0.2,0.2-0.5,0.4-0.8,0.5C33.2,26.4,32.9,26.4,32.5,26.4L32.5,26.4z M36.2,20.5
			h1l3.2,4.1v-4.1h1.1v5.9h-0.9l-3.3-4.2v4.2h-1.1V20.5L36.2,20.5z M42.8,20.5h1.1v5.9h-1.1V20.5L42.8,20.5z M44.6,20.5h1.2l1.8,4.5
			l1.8-4.5h1.1l-2.5,5.9h-0.9L44.6,20.5L44.6,20.5z M51.3,20.5h4.5v0.9h-3.4v1.5h3v0.9h-3v1.6h3.5v0.9h-4.5V20.5L51.3,20.5z
			 M59.4,23.4c0.4,0,0.7-0.1,0.9-0.3c0.2-0.2,0.3-0.4,0.3-0.7v0c0-0.3-0.1-0.6-0.3-0.7c-0.2-0.2-0.5-0.2-0.9-0.2h-1.5v2H59.4
			L59.4,23.4z M56.8,20.5h2.7c0.4,0,0.7,0.1,1,0.2c0.3,0.1,0.5,0.2,0.7,0.4c0.2,0.2,0.3,0.3,0.4,0.6c0.1,0.2,0.1,0.4,0.1,0.7v0
			c0,0.2,0,0.5-0.1,0.6c-0.1,0.2-0.2,0.4-0.3,0.5c-0.1,0.1-0.3,0.3-0.5,0.4c-0.2,0.1-0.4,0.2-0.6,0.2l1.6,2.2h-1.3l-1.5-2h0h-1.3v2
			h-1.1V20.5L56.8,20.5z M64.9,26.4c-0.5,0-0.9-0.1-1.3-0.2c-0.4-0.2-0.8-0.4-1.2-0.7l0.6-0.7c0.3,0.2,0.6,0.4,0.9,0.6
			c0.3,0.1,0.6,0.2,1,0.2c0.3,0,0.6-0.1,0.8-0.2c0.2-0.1,0.3-0.3,0.3-0.5v0c0-0.1,0-0.2-0.1-0.3c0-0.1-0.1-0.2-0.2-0.2
			c-0.1-0.1-0.2-0.1-0.4-0.2c-0.2-0.1-0.4-0.1-0.7-0.2c-0.3-0.1-0.6-0.2-0.9-0.2s-0.5-0.2-0.6-0.3c-0.2-0.1-0.3-0.3-0.4-0.5
			c-0.1-0.2-0.1-0.4-0.1-0.7v0c0-0.3,0.1-0.5,0.2-0.7c0.1-0.2,0.2-0.4,0.4-0.5c0.2-0.1,0.4-0.3,0.6-0.3c0.3-0.1,0.5-0.1,0.8-0.1
			c0.4,0,0.8,0.1,1.2,0.2c0.4,0.1,0.7,0.3,1,0.5l-0.6,0.8c-0.3-0.2-0.5-0.3-0.8-0.5c-0.3-0.1-0.5-0.2-0.8-0.2
			c-0.3,0-0.6,0.1-0.7,0.2c-0.2,0.1-0.3,0.3-0.3,0.5v0c0,0.1,0,0.2,0.1,0.3c0,0.1,0.1,0.2,0.2,0.2c0.1,0.1,0.3,0.1,0.4,0.2
			s0.4,0.1,0.7,0.2c0.3,0.1,0.6,0.2,0.8,0.3c0.2,0.1,0.4,0.2,0.6,0.3c0.2,0.1,0.3,0.3,0.4,0.5c0.1,0.2,0.1,0.4,0.1,0.6v0
			c0,0.3-0.1,0.5-0.2,0.7c-0.1,0.2-0.3,0.4-0.4,0.6c-0.2,0.1-0.4,0.3-0.7,0.3C65.5,26.4,65.2,26.4,64.9,26.4L64.9,26.4z M71.6,24
			l-1-2.3l-1,2.3H71.6L71.6,24z M70.1,20.4h1l2.7,5.9h-1.1L72,24.9h-2.9l-0.6,1.4h-1.1L70.1,20.4L70.1,20.4z M74.5,20.5h1.1v4.9h3.2
			v0.9h-4.2V20.5z"/>
		<path class="st0" d="M32.2,35.1c0.2,0,0.3,0,0.5-0.1c0.2-0.1,0.3-0.2,0.4-0.3c0.1-0.1,0.2-0.3,0.3-0.4c0.1-0.2,0.1-0.4,0.1-0.6v0
			c0-0.2,0-0.4-0.1-0.6c-0.1-0.2-0.2-0.3-0.3-0.4c-0.1-0.1-0.3-0.2-0.4-0.3c-0.2-0.1-0.3-0.1-0.5-0.1c-0.2,0-0.3,0-0.5,0.1
			c-0.2,0.1-0.3,0.2-0.4,0.3c-0.1,0.1-0.2,0.3-0.3,0.4c-0.1,0.2-0.1,0.4-0.1,0.6v0c0,0.2,0,0.4,0.1,0.6c0.1,0.2,0.2,0.3,0.3,0.4
			s0.3,0.2,0.4,0.3C31.8,35.1,32,35.1,32.2,35.1L32.2,35.1z M31.9,36c-0.3,0-0.5,0-0.8-0.2c-0.3-0.1-0.5-0.2-0.7-0.4
			c-0.2-0.2-0.4-0.4-0.5-0.7s-0.2-0.6-0.2-1v0c0-0.4,0.1-0.7,0.2-1c0.1-0.3,0.3-0.5,0.5-0.7c0.2-0.2,0.4-0.3,0.7-0.4
			c0.3-0.1,0.5-0.1,0.8-0.1c0.4,0,0.7,0.1,0.9,0.2c0.2,0.2,0.4,0.3,0.6,0.5v-2.4h1v6.1h-1l0-0.7c-0.2,0.2-0.4,0.4-0.6,0.6
			C32.6,35.9,32.3,36,31.9,36L31.9,36z M38.5,33.4c0-0.2-0.1-0.3-0.1-0.5c-0.1-0.1-0.1-0.3-0.2-0.4c-0.1-0.1-0.2-0.2-0.3-0.2
			c-0.1-0.1-0.3-0.1-0.5-0.1c-0.3,0-0.6,0.1-0.8,0.3c-0.2,0.2-0.3,0.5-0.4,0.8H38.5L38.5,33.4z M37.4,36c-0.3,0-0.6-0.1-0.9-0.2
			c-0.3-0.1-0.5-0.3-0.7-0.5c-0.2-0.2-0.4-0.4-0.5-0.7c-0.1-0.3-0.2-0.6-0.2-0.9v0c0-0.3,0.1-0.6,0.2-0.9c0.1-0.3,0.3-0.5,0.5-0.7
			c0.2-0.2,0.4-0.4,0.7-0.5c0.3-0.1,0.6-0.2,0.9-0.2c0.4,0,0.7,0.1,0.9,0.2c0.3,0.1,0.5,0.3,0.7,0.5c0.2,0.2,0.3,0.5,0.4,0.8
			c0.1,0.3,0.1,0.6,0.1,0.9c0,0,0,0.1,0,0.1c0,0,0,0.1,0,0.1h-3.3c0.1,0.4,0.2,0.6,0.4,0.8c0.2,0.2,0.5,0.3,0.9,0.3
			c0.3,0,0.5,0,0.7-0.1c0.2-0.1,0.4-0.2,0.6-0.4l0.6,0.5c-0.2,0.3-0.5,0.5-0.8,0.6C38.2,35.9,37.9,36,37.4,36L37.4,36z M45.3,36
			c-0.6,0-1.2-0.1-1.7-0.3c-0.5-0.2-1.1-0.5-1.5-0.9l0.8-1c0.4,0.3,0.8,0.6,1.1,0.7c0.4,0.2,0.8,0.3,1.3,0.3c0.4,0,0.8-0.1,1-0.3
			c0.2-0.2,0.4-0.4,0.4-0.7v0c0-0.1,0-0.3-0.1-0.4c0-0.1-0.1-0.2-0.3-0.3c-0.1-0.1-0.3-0.2-0.5-0.3c-0.2-0.1-0.5-0.2-0.9-0.2
			c-0.4-0.1-0.8-0.2-1.1-0.3c-0.3-0.1-0.6-0.3-0.8-0.4c-0.2-0.2-0.4-0.4-0.5-0.6c-0.1-0.2-0.2-0.5-0.2-0.9v0c0-0.3,0.1-0.6,0.2-0.9
			c0.1-0.3,0.3-0.5,0.5-0.7c0.2-0.2,0.5-0.3,0.8-0.4c0.3-0.1,0.7-0.2,1.1-0.2c0.6,0,1.1,0.1,1.5,0.2c0.5,0.2,0.9,0.4,1.3,0.7l-0.7,1
			c-0.4-0.3-0.7-0.4-1.1-0.6c-0.3-0.1-0.7-0.2-1.1-0.2c-0.4,0-0.7,0.1-0.9,0.3c-0.2,0.2-0.3,0.4-0.3,0.6v0c0,0.1,0,0.3,0.1,0.4
			c0.1,0.1,0.1,0.2,0.3,0.3c0.1,0.1,0.3,0.2,0.6,0.3c0.2,0.1,0.5,0.2,0.9,0.2c0.4,0.1,0.8,0.2,1.1,0.3c0.3,0.1,0.6,0.3,0.8,0.5
			c0.2,0.2,0.4,0.4,0.5,0.6c0.1,0.2,0.2,0.5,0.2,0.8v0c0,0.4-0.1,0.7-0.2,1c-0.1,0.3-0.3,0.5-0.6,0.7c-0.2,0.2-0.5,0.3-0.9,0.4
			C46.1,35.9,45.7,36,45.3,36L45.3,36z M53.9,32.9l-1.3-3l-1.3,3H53.9L53.9,32.9z M51.9,28.3h1.3l3.4,7.6h-1.4l-0.8-1.8h-3.7
			l-0.8,1.8h-1.4L51.9,28.3L51.9,28.3z M57.4,28.3h1.4v6.4h4.1v1.2h-5.5V28.3L57.4,28.3z M66.9,36c-0.5,0-1-0.1-1.4-0.2
			c-0.4-0.1-0.8-0.4-1-0.6s-0.5-0.6-0.7-1c-0.2-0.4-0.2-0.9-0.2-1.4v-4.4H65v4.3c0,0.7,0.2,1.2,0.5,1.6c0.4,0.4,0.8,0.6,1.5,0.6
			c0.6,0,1.1-0.2,1.4-0.5c0.4-0.4,0.5-0.9,0.5-1.6v-4.4h1.4v4.3c0,0.6-0.1,1.1-0.2,1.5c-0.2,0.4-0.4,0.8-0.7,1.1
			c-0.3,0.3-0.6,0.5-1.1,0.6C67.9,35.9,67.4,36,66.9,36L66.9,36z M74.5,34.7c0.4,0,0.8-0.1,1.1-0.2c0.3-0.1,0.6-0.3,0.9-0.5
			c0.2-0.2,0.4-0.5,0.5-0.8c0.1-0.3,0.2-0.7,0.2-1v0c0-0.4-0.1-0.7-0.2-1c-0.1-0.3-0.3-0.6-0.5-0.8c-0.2-0.2-0.5-0.4-0.9-0.5
			c-0.3-0.1-0.7-0.2-1.1-0.2H73v5.2H74.5L74.5,34.7z M71.6,28.3h2.9c0.6,0,1.2,0.1,1.7,0.3c0.5,0.2,0.9,0.5,1.3,0.8
			c0.4,0.3,0.7,0.7,0.9,1.2c0.2,0.5,0.3,1,0.3,1.5v0c0,0.5-0.1,1-0.3,1.5c-0.2,0.5-0.5,0.9-0.9,1.2c-0.4,0.3-0.8,0.6-1.3,0.8
			c-0.5,0.2-1.1,0.3-1.7,0.3h-2.9V28.3z"/>
	</g>
	<g>
		<path class="st0" d="M1.3,20.1C-0.7,12.6-1,9.2,4.9,6.4C7,5.4,12.8,4,16.2,3.4C19.4,2.7,22.6,2,25.1,0c0.2,0.6,0.5,1.9,0.5,2.7
			c-1,0.2-1.9,0.4-2.9,0.5c-0.1,0-0.2,0.1-0.2,0.3c0,0.1,0.1,0.2,0.3,0.2c1.3-0.1,2.6-0.4,3.9-0.8c0.9-0.3,1.7-0.6,2.5-1
			c0.1,0.9,0.1,1.8,0.1,2.5c-0.7,0.4-1.5,0.7-2.4,1c-1.3,0.4-2.8,0.7-4.1,0.8c-0.1,0-0.2,0.1-0.2,0.3c0,0.1,0.1,0.2,0.3,0.2
			c1.3-0.1,2.8-0.4,4.2-0.9c0.8-0.2,1.6-0.5,2.2-0.9c-0.1,1.1-0.3,2-0.6,2.8C28,8,27.4,8.2,26.8,8.4c-1.4,0.4-2.9,0.7-4.2,0.8
			c-0.1,0-0.2,0.1-0.2,0.3c0,0.1,0.1,0.2,0.3,0.2c1.3-0.1,2.8-0.4,4.2-0.9c0.5-0.1,0.9-0.3,1.4-0.5c-0.2,0.5-0.5,0.9-0.8,1.3l0,0
			c0,0-0.1,0.1-0.1,0.1l0,0c0,0-0.1,0.1-0.1,0.1l0,0c0,0-0.1,0.1-0.1,0.1l0,0c0,0-0.1,0.1-0.1,0.1l0,0c0,0-0.1,0.1-0.1,0.1l0,0
			c0,0-0.1,0.1-0.1,0.1l0,0c0,0-0.1,0.1-0.1,0.1l0,0c0,0-0.1,0.1-0.1,0.1l0,0c0,0-0.1,0.1-0.1,0.1l0,0c0,0-0.1,0.1-0.1,0.1l0,0
			c-0.1,0-0.1,0.1-0.2,0.1l0,0c-0.1,0-0.1,0.1-0.2,0.1l0,0c-0.1,0-0.1,0.1-0.2,0.1l0,0c-0.1,0-0.1,0.1-0.2,0.1l0,0
			c-0.1,0-0.1,0.1-0.2,0.1l0,0c-0.1,0-0.1,0.1-0.2,0.1l0,0c-0.1,0-0.1,0.1-0.2,0.1l0,0c-0.1,0-0.1,0.1-0.2,0.1l0,0
			c-0.1,0-0.1,0-0.2,0.1l0,0c-0.1,0-0.1,0-0.2,0.1l0,0l0,0c-0.1,0-0.1,0-0.2,0.1l0,0l0,0c-0.1,0-0.1,0-0.2,0.1h0l0,0
			c-0.1,0-0.1,0-0.2,0.1h0l0,0l0,0c-0.1,0-0.1,0-0.2,0.1h0l0,0l0,0c-0.1,0-0.1,0-0.2,0.1h0l0,0c-0.1,0-0.1,0-0.2,0.1l0,0l0,0l0,0
			c-0.1,0-0.1,0-0.2,0h0l0,0c-0.1,0-0.1,0-0.2,0l0,0h0l0,0c-0.1,0-0.1,0-0.2,0l0,0l0,0c-0.1,0-0.2,0-0.2,0l0,0h0c-0.1,0-0.2,0-0.2,0
			l0,0c-0.1,0-0.2,0-0.2,0l-0.1,0l-0.1,0l-0.1,0l0,0l0,0l-0.1,0l-0.1,0l-0.1,0l0,0l-0.1,0l-0.1,0l-0.1,0l0,0l0,0l-0.1,0l-0.1,0
			l-0.1,0l0,0l0,0l-0.1,0l-0.1,0l0,0l0,0l-0.2,0l0,0l-0.1,0l-0.1,0l-0.1,0l0,0l0,0l-0.1,0l-0.1,0l0,0l0,0l-0.1,0l-0.1,0l-0.1,0l0,0
			l-0.1,0l-0.1,0l-0.1,0l-0.1,0l-0.1,0l-0.1,0h0l-0.1,0l-0.1,0L19,13l0,0l0,0l-0.1,0l-0.1,0l-0.1,0l0,0l-0.1,0l-0.1,0l-0.1,0l-0.1,0
			l0,0l-0.1,0l-0.1,0l-0.1,0l-0.1,0l-0.1,0l-0.1,0l-0.1,0l-0.1,0l-0.1,0l-0.1,0l-0.1,0l-0.1,0l-0.1,0c-3.1,0.5-6.3,0.9-8.9,1.6
			C5.7,15.7,2.9,17.3,1.3,20.1z"/>
		<linearGradient id="SVGID_1_" gradientUnits="userSpaceOnUse" x1="4.585" y1="16.0117" x2="22.3331" y2="1.5129">
			<stop  offset="0" style="stop-color:#8DD7F7"/>
			<stop  offset="0.55" style="stop-color:#44C4E1"/>
			<stop  offset="1" style="stop-color:#44C4E1"/>
		</linearGradient>
		<path class="st2" d="M1.3,20.1C-0.7,12.6-1,9.2,4.9,6.4C7,5.4,12.8,4,16.2,3.4C19.4,2.7,22.6,2,25.1,0c0.2,0.6,0.5,1.9,0.5,2.7
			c-1,0.2-1.9,0.4-2.9,0.5c-0.1,0-0.2,0.1-0.2,0.3c0,0.1,0.1,0.2,0.3,0.2c1.3-0.1,2.6-0.4,3.9-0.8c0.9-0.3,1.8-0.6,2.6-1
			c0.2,0.7,0.2,1.6,0.1,2.5c-0.7,0.4-1.6,0.7-2.5,1c-1.3,0.4-2.8,0.7-4.1,0.8c-0.1,0-0.2,0.1-0.2,0.3c0,0.1,0.1,0.2,0.3,0.2
			c1.3-0.1,2.8-0.4,4.2-0.9c0.8-0.3,1.6-0.6,2.3-0.9c0,0.4-0.1,0.7-0.2,0.9c-1.9,1.2-4.6,2-8.9,2.5C16.4,8.8,10.6,9,5.8,11.2
			c-4,1.9-4.8,5.1-4.4,8.6C1.4,19.9,1.3,20,1.3,20.1z"/>
		<linearGradient id="SVGID_2_" gradientUnits="userSpaceOnUse" x1="2.5176" y1="23.96" x2="24.9103" y2="15.8655">
			<stop  offset="0" style="stop-color:#DFE0E1"/>
			<stop  offset="0.58" style="stop-color:#FFFFFF"/>
			<stop  offset="1" style="stop-color:#FFFFFF"/>
		</linearGradient>
		<path class="st3" d="M21.2,22.2c-2.3,1.4-4.5,1.4-7.7,2.4c-3.1,1-8.8,3.2-9.2,5.7c-0.3-0.6-0.8-2.5-1-3.4c0,0,0.1,0,0.1-0.1
			c1.2-0.5,2.4-0.9,3.7-1.2c0.1,0,0.2-0.2,0.2-0.3S7,25.1,6.9,25.2c-1.3,0.3-2.6,0.7-3.8,1.2c-0.8,0.4-1.7,0.8-2.4,1.3
			c-0.2-0.9-0.3-1.7-0.4-2.5c0.7-0.5,1.5-0.9,2.3-1.2c1.3-0.6,2.7-1,3.9-1.3c0.1,0,0.2-0.2,0.2-0.3c0-0.1-0.2-0.2-0.3-0.2
			c-1.3,0.3-2.7,0.7-4,1.3c-0.8,0.3-1.5,0.7-2.1,1.1c0-1.1,0.1-2,0.3-2.9c0.5-0.3,1.1-0.6,1.7-0.8c1.4-0.6,2.8-1,4-1.3
			c0.1,0,0.2-0.2,0.2-0.3c0-0.1-0.2-0.2-0.3-0.2c-1.3,0.3-2.7,0.7-4.1,1.3c-0.5,0.2-0.9,0.4-1.3,0.6c0.1-0.4,0.3-0.7,0.5-1.1
			c3.2-5.5,10.6-6.1,16.3-6.9c1.3-0.2,2.6-0.4,3.9-0.5c1.9-0.2,3.5-0.8,4.8-1.7C25.9,16.3,23.8,20.6,21.2,22.2z"/>
		<linearGradient id="SVGID_3_" gradientUnits="userSpaceOnUse" x1="11.7319" y1="40.8594" x2="10.3725" y2="32.8735">
			<stop  offset="0" style="stop-color:#44C4E1"/>
			<stop  offset="0.32" style="stop-color:#46B5D1"/>
			<stop  offset="1" style="stop-color:#20155B"/>
		</linearGradient>
		<path class="st4" d="M6.7,40.6c0.4,2,3,1.6,3.9,0.1l4.9-8.3l-8.3,0.4l-1,5.4L6.7,40.6z"/>
		<path class="st0" d="M6.5,39.9c-1.3-5.3-2.3-8.3-2.3-9.8c0.7-2.4,6.1-4.5,9.2-5.5c3.2-1,6-1.1,8.3-2.8c0.1,0.9,0.1,1.9,0,2.4
			c-0.8,0.2-1.6,0.4-2.4,0.5c-0.1,0-0.2,0.1-0.2,0.3c0,0.1,0.1,0.2,0.3,0.2c1.1-0.2,2.3-0.4,3.3-0.8c0.6-0.2,1.2-0.4,1.7-0.7
			c0.1,0.7,0.1,1.3,0.1,1.9c-0.5,0.3-1.1,0.5-1.7,0.7c-1.1,0.4-2.4,0.7-3.5,0.8c-0.1,0-0.2,0.1-0.2,0.3c0,0.1,0.1,0.2,0.3,0.2
			c1.1-0.2,2.4-0.4,3.6-0.8c0.5-0.2,1-0.4,1.5-0.6c0,0.7-0.1,1.4-0.3,2c-0.4,0.2-0.9,0.4-1.3,0.5c-1.2,0.4-2.4,0.7-3.5,0.8
			c-0.1,0-0.2,0.1-0.2,0.3c0,0.1,0.1,0.2,0.3,0.2c1.1-0.2,2.4-0.4,3.6-0.8c0.3-0.1,0.7-0.2,1-0.4c-1,2.3-3.2,3.3-5.9,3.6
			c-2.2,0.2-4,0.4-6,0.9C9,34,5.7,35.5,6.5,39.9z"/>
		<linearGradient id="SVGID_4_" gradientUnits="userSpaceOnUse" x1="21.2139" y1="24.2188" x2="7.2318" y2="32.5488">
			<stop  offset="0" style="stop-color:#44C4E1"/>
			<stop  offset="0.48" style="stop-color:#44C4E1"/>
			<stop  offset="0.65" style="stop-color:#85CDEA"/>
			<stop  offset="1" style="stop-color:#8DD7F7"/>
		</linearGradient>
		<path class="st5" d="M5.3,35.3c-0.7-2.5-1.1-4.2-1-5.2c0.7-2.4,6.1-4.5,9.2-5.5c3.2-1,6-1.1,8.3-2.8c0.1,0.9,0.1,1.9,0,2.4
			c-0.8,0.2-1.6,0.4-2.4,0.5c-0.1,0-0.2,0.1-0.2,0.3c0,0.1,0.1,0.2,0.3,0.2c1.1-0.2,2.3-0.4,3.3-0.8c0.6-0.2,1.2-0.4,1.7-0.7
			c0.1,0.7,0.1,1.3,0.1,1.9c-0.5,0.3-1.1,0.5-1.7,0.7c-1.1,0.4-2.4,0.7-3.5,0.8c-0.1,0-0.2,0.1-0.2,0.3c0,0.1,0.1,0.2,0.3,0.2
			c1.1-0.2,2.4-0.4,3.6-0.8c0.5-0.2,1-0.4,1.5-0.6c0,0.5-0.1,1-0.2,1.5c-2.1,0.4-4.7,0.8-7.7,1.1C10.1,29.6,6.1,31.8,5.3,35.3z"/>
		<linearGradient id="SVGID_5_" gradientUnits="userSpaceOnUse" x1="18.3779" y1="19.5786" x2="13.34" y2="14.2424">
			<stop  offset="0" style="stop-color:#DFE0E1"/>
			<stop  offset="0.68" style="stop-color:#FFFFFF"/>
			<stop  offset="1" style="stop-color:#FFFFFF"/>
		</linearGradient>
		<path class="st6" d="M25.7,14.5c-2.7,2.5-7.3,4.1-12,5.1c-2,0.4-4.1,0.8-6.1,1.4C13.8,19.2,21.3,17.1,25.7,14.5z"/>
	</g>
</g>
</svg>
