<?xml version="1.0" encoding="utf-8"?>
<!-- Generator: Adobe Illustrator 16.0.0, SVG Export Plug-In . SVG Version: 6.00 Build 0)  -->
<!DOCTYPE svg PUBLIC "-//W3C//DTD SVG 1.1//EN" "http://www.w3.org/Graphics/SVG/1.1/DTD/svg11.dtd">
<svg version="1.1" id="Capa_1" xmlns="http://www.w3.org/2000/svg" xmlns:xlink="http://www.w3.org/1999/xlink" x="0px" y="0px"
	 width="225px" height="41px" viewBox="0 0 225 41" style="enable-background:new 0 0 225 41;" xml:space="preserve">
<style type="text/css">
<![CDATA[
	.st0{fill:#EDB780;}
	.st1{fill:#231F20;}
	.st2{fill:#F9CB64;}
	.st3{fill:#C7E7F8;}
	.st4{fill:#FFFFFF;}
	.st5{fill:#009CCC;}
	.st6{fill:#059E5E;}
	.st7{fill:#D94026;}
]]>
</style>
<g>
	<polygon class="st3" points="43.1,21 43.1,15.9 40.9,19.2 40.8,19.2 38.7,15.9 38.7,21 37,21 37,13.2 38.8,13.2 40.9,16.5 
		42.9,13.2 44.8,13.2 44.8,21 	"/>
	<path class="st3" d="M46.5,12.9h1.8v1.5h-1.8V12.9z M46.5,15h1.7v6h-1.7V15z"/>
	<path class="st3" d="M53.6,21v-3.3c0-0.8-0.4-1.2-1-1.2c-0.6,0-1.1,0.4-1.1,1.2V21h-1.7v-6h1.7v0.8c0.4-0.5,0.9-1,1.7-1
		c1.3,0,2,0.8,2,2.2V21H53.6z"/>
	<path class="st3" d="M56.8,12.9h1.8v1.5h-1.8V12.9z M56.8,15h1.7v6h-1.7V15z"/>
	<path class="st3" d="M62.2,21.1c-0.8,0-1.8-0.3-2.6-0.9l0.7-1.1c0.6,0.5,1.3,0.7,1.9,0.7c0.5,0,0.7-0.2,0.7-0.4v0
		c0-0.4-0.6-0.5-1.2-0.7c-0.8-0.2-1.8-0.6-1.8-1.8v0c0-1.2,1-1.9,2.2-1.9c0.8,0,1.6,0.3,2.2,0.7l-0.6,1.2c-0.6-0.3-1.2-0.6-1.6-0.6
		c-0.4,0-0.6,0.2-0.6,0.4v0c0,0.3,0.6,0.5,1.2,0.7c0.8,0.3,1.8,0.7,1.8,1.8v0C64.4,20.5,63.5,21.1,62.2,21.1"/>
	<path class="st3" d="M67.7,21.1c-1,0-1.7-0.4-1.7-1.8v-2.8h-0.7V15h0.7v-1.5h1.7V15H69v1.4h-1.4V19c0,0.4,0.2,0.6,0.5,0.6
		c0.3,0,0.6-0.1,0.8-0.2v1.4C68.6,20.9,68.2,21.1,67.7,21.1"/>
	<path class="st3" d="M75.8,18.6h-4.1c0.2,0.8,0.7,1.2,1.5,1.2c0.6,0,1-0.2,1.4-0.6l1,0.9c-0.6,0.7-1.4,1.1-2.4,1.1
		c-1.8,0-3.1-1.3-3.1-3.1v0c0-1.7,1.2-3.1,2.9-3.1c2,0,2.9,1.5,2.9,3.2v0C75.8,18.3,75.8,18.4,75.8,18.6 M72.9,16.3
		c-0.7,0-1.2,0.5-1.3,1.3h2.5C74.1,16.8,73.6,16.3,72.9,16.3"/>
	<path class="st3" d="M80.6,16.7c-1.1,0-1.8,0.7-1.8,2.1V21h-1.7v-6h1.7v1.2c0.3-0.8,0.9-1.4,1.9-1.3L80.6,16.7L80.6,16.7z"/>
	<path class="st3" d="M81.7,12.9h1.8v1.5h-1.8V12.9z M81.8,15h1.7v6h-1.7V15z"/>
	<path class="st3" d="M88,21.1c-1.8,0-3.2-1.4-3.2-3.1v0c0-1.7,1.4-3.1,3.2-3.1c1.8,0,3.2,1.4,3.2,3.1v0
		C91.2,19.7,89.8,21.1,88,21.1 M89.5,18c0-0.9-0.6-1.6-1.6-1.6c-1,0-1.5,0.7-1.5,1.6v0c0,0.9,0.6,1.6,1.6,1.6
		C89,19.7,89.5,18.9,89.5,18L89.5,18z"/>
	<path class="st3" d="M100.1,21v-0.9c-0.4,0.6-1,1-1.9,1c-1.4,0-2.7-1.1-2.7-3.1v0c0-2,1.3-3.1,2.7-3.1c0.9,0,1.5,0.4,1.9,0.9v-2.9
		h1.7V21H100.1z M100.1,18c0-1-0.7-1.6-1.4-1.6c-0.8,0-1.5,0.6-1.5,1.6v0c0,1,0.7,1.6,1.5,1.6C99.4,19.7,100.1,19,100.1,18L100.1,18
		z"/>
	<path class="st3" d="M108.8,18.6h-4.1c0.2,0.8,0.7,1.2,1.5,1.2c0.6,0,1-0.2,1.4-0.6l1,0.9c-0.6,0.7-1.4,1.1-2.4,1.1
		c-1.8,0-3.1-1.3-3.1-3.1v0c0-1.7,1.2-3.1,2.9-3.1c2,0,2.9,1.5,2.9,3.2v0C108.8,18.3,108.8,18.4,108.8,18.6 M105.9,16.3
		c-0.7,0-1.2,0.5-1.3,1.3h2.5C107.1,16.8,106.6,16.3,105.9,16.3"/>
	<path class="st3" d="M116.3,21.1c-1.2,0-2.4-0.4-3.3-1.2l1-1.2c0.7,0.6,1.4,0.9,2.3,0.9c0.7,0,1.1-0.3,1.1-0.7v0
		c0-0.4-0.3-0.7-1.6-1c-1.6-0.4-2.6-0.8-2.6-2.4v0c0-1.4,1.1-2.3,2.7-2.3c1.1,0,2.1,0.4,2.9,1l-0.9,1.3c-0.7-0.5-1.4-0.8-2-0.8
		c-0.7,0-1,0.3-1,0.7v0c0,0.5,0.3,0.7,1.7,1c1.6,0.4,2.5,1,2.5,2.3v0C119.2,20.2,118,21.1,116.3,21.1"/>
	<path class="st3" d="M124,21v-0.6c-0.4,0.5-1,0.8-1.8,0.8c-1.1,0-2-0.6-2-1.8v0c0-1.3,1-1.9,2.4-1.9c0.6,0,1,0.1,1.5,0.2v-0.1
		c0-0.7-0.4-1.1-1.3-1.1c-0.6,0-1.1,0.1-1.6,0.3l-0.4-1.3c0.7-0.3,1.3-0.5,2.3-0.5c1.8,0,2.7,1,2.7,2.6V21H124z M124,18.6
		c-0.3-0.1-0.7-0.2-1.1-0.2c-0.7,0-1.2,0.3-1.2,0.8v0c0,0.5,0.4,0.7,0.9,0.7c0.8,0,1.3-0.4,1.3-1V18.6z"/>
	<rect x="127.2" y="12.9" class="st3" width="1.7" height="8.1"/>
	<path class="st3" d="M134.2,21v-0.8c-0.4,0.5-0.9,1-1.7,1c-1.3,0-2-0.8-2-2.2V15h1.7v3.3c0,0.8,0.4,1.2,1,1.2
		c0.6,0,1.1-0.4,1.1-1.2V15h1.7v6H134.2z"/>
	<path class="st3" d="M141.7,21v-0.9c-0.4,0.6-1,1-1.9,1c-1.4,0-2.7-1.1-2.7-3.1v0c0-2,1.3-3.1,2.7-3.1c0.9,0,1.5,0.4,1.9,0.9v-2.9
		h1.7V21H141.7z M141.7,18c0-1-0.7-1.6-1.4-1.6c-0.8,0-1.5,0.6-1.5,1.6v0c0,1,0.7,1.6,1.5,1.6C141,19.7,141.7,19,141.7,18L141.7,18z
		"/>
	<path class="st4" d="M13.8,36.2C8,36.2,3.5,29.9,3.5,22.5H24C24,29.9,19.6,36.2,13.8,36.2"/>
	<path class="st1" d="M16,5.3l0.2,0c0,0-0.1-0.8-1.4-0.7h-0.3c0,0-0.1,0.4-0.1,0.4L15.2,5C15.2,5,15.8,4.9,16,5.3"/>
	<path class="st1" d="M14.6,5.8c0,0,0.2-0.2,0.2-0.2s0,0,0,0c0,0,0,0.1,0,0.1c0,0.1,0.1,0.3,0.2,0.3c0,0,0.2,0,0.2,0
		c0.1-0.1,0.2-0.2,0.2-0.3c0,0,0-0.1,0-0.1c0.1,0,0.3,0.1,0.3,0.2l0.3,0c0,0-0.2-0.7-1.4-0.5c0,0-0.3,0.5-0.3,0.5
		C14.3,5.8,14.6,5.8,14.6,5.8"/>
	<path class="st1" d="M11.6,5.8l0.3,0c0.1-0.1,0.2-0.2,0.3-0.2c0,0,0,0.1,0,0.1c0,0.2,0.1,0.3,0.2,0.3c0,0,0.2,0,0.2,0
		c0.1-0.1,0.2-0.2,0.2-0.3c0,0,0,0,0,0c0,0,0.1,0,0.1,0s0.2,0.2,0.2,0.2c0,0,0.3,0,0.3,0c0,0-0.3-0.5-0.3-0.5
		C11.8,5,11.6,5.8,11.6,5.8"/>
	<path class="st1" d="M12.4,5L13.4,5c0,0-0.1-0.4-0.1-0.4H13c-1.4-0.1-1.6,0.6-1.6,0.6l0.2,0C11.8,4.9,12.4,5,12.4,5"/>
	<path class="st1" d="M15.2,14.9C15.1,14.8,15.1,14.8,15.2,14.9C15.1,14.9,15.1,14.9,15.2,14.9"/>
	<path class="st1" d="M14.9,38c1-0.1,3.9-1.4,4.9-2.2c1.1,0.1,1.6-0.8,2.4-1.2c0-0.1-0.1-0.1-0.2-0.1c0.5-0.3,0.7-0.7,1.2-1.1
		c-0.1-0.1-0.2-0.1-0.4-0.1c0.8-0.3,0.2-0.6,1-1.1c0,0-0.1-0.1-0.1-0.1c0.5-0.3,0.5-0.8,0.9-1.2c-0.1-0.1-0.3-0.1-0.4-0.1
		c0.8-0.3,0.8-0.8,1.3-1.4c0,0-0.2,0-0.3,0c0.5-0.4,0.3-0.9,0.7-1.4c-0.1-0.1-0.3-0.1-0.5-0.1c0.7-0.3,0.6-1,1.1-1.7
		c-0.1-0.1-0.2-0.1-0.3-0.1c0.6-0.6-0.2-0.4,0.3-1.6c-0.1-0.1-0.3,0-0.5,0c0.6-0.5,0.5-1.1,0.8-1.9c-0.4-0.1-1.3,0.6-1.6,1.1v-0.1
		c0.1-0.2,0.2-0.4,0.5-0.6c0.9-0.7,0.6-1.2,0.8-2.1c-0.4,0-1.2,0.7-1.4,1.2c0-0.1,0-0.1,0-0.2c0.1-0.2,0.2-0.5,0.6-0.8
		c0.8-0.4,0.5-1.2,0.8-2c-0.1,0-0.3,0-0.4,0.1c0.2-0.5-0.2-0.9-0.1-1.6c-0.4,0-1,0.8-1,1.3c0-0.1-0.1-0.1-0.1-0.2
		c0.1-0.2,0.1-0.5,0.5-0.7c0.8-0.9,0.1-1.4,0.2-2.3c-0.1,0-0.2,0-0.2,0.1c0-0.4-0.4-0.7-0.4-1.3c-0.4,0-0.8,0.9-0.8,1.4
		c-0.1-0.1-0.1-0.2-0.2-0.2c0.1-0.2,0.1-0.5,0.4-0.8c0.4-0.9,0-1.3-0.1-2.1c-0.1,0-0.3,0.1-0.4,0.2c0-0.6-0.3-0.8-0.5-1.4
		c-0.3,0-0.5,0.4-0.6,0.8c0-0.2,0-0.4,0.1-0.6c0-1.1-0.4-1.2-0.8-2.1c-0.1,0.1-0.3,0.4-0.3,0.6c-0.1-0.7-0.4-0.9-0.8-1.6
		c-0.3,0.2-0.4,1-0.3,1.5c-0.1-0.2-0.1-0.4,0-0.7c-0.1-0.9-0.5-1.2-1-1.7c0.2,0,0.4-0.1,0.7-0.3c0,0-0.4,0-0.6-0.1
		c-0.2-0.1-0.4-0.3-0.6-0.4c-0.2-0.1-0.5,0-0.9-0.2l2.2-0.5C20.2,6.4,18,6,18,6s0.1-0.1,0.4-0.2c0.2,0,0.5,0,0.7-0.2
		c0.1-0.1,0.4-0.4,1-0.4c-0.5-0.3-0.8-0.2-1.2,0c-0.3,0.2-0.5,0-1,0c0,0,1.8-1.1,1.8-1.2l-2.2,0.5c0.3-0.5,0.7-0.3,0.9-0.9
		c0.1-0.1,0.3-0.4,0.7-0.6c-0.4-0.1-0.8,0.1-1.3,0.6c-0.2,0.1-0.5,0.2-0.7,0.3c0,0,1.2-1.8,1.2-1.8s-1.3,0.9-1.8,1.2v0
		c0.1-0.5,0.4-0.4,0.5-1c0-0.2,0-0.6,0.4-1c-0.5,0.1-0.7,0.5-0.9,1c-0.1,0.2-0.4,0.3-0.6,0.6c0,0,0.4-2.2,0.4-2.2l-1.2,1.8
		c0,0-0.1-0.1-0.1-0.3c0.2-0.4,0.2-0.6,0.1-0.7c-0.1-0.3-0.3-0.7,0-1.1c-0.7,0.4-0.4,1-0.6,1.4c-0.1,0.2-0.2,0.4-0.3,0.6l-0.3-2.1
		l-0.4,2.1c-0.3-0.3-0.1-0.5-0.2-0.8c-0.2-0.4-0.6-0.3-0.6-1.2c-0.1,0.3-0.3,0.5,0.1,1.4c0.1,0.1-0.1,0.5,0,0.8l-1.2-1.8l0.4,2.2
		c-0.3,0-0.3-0.5-0.6-0.7c-0.3-0.2-0.7-0.2-1-0.9c-0.1,0.5,0.1,0.8,0.5,1.2c0.2,0.2,0.3,0.6,0.3,0.8L9.4,2l1.3,1.8
		c-0.4,0.1-0.4-0.5-1.2-0.5C8.9,3.4,8.6,2.9,8.7,3c0.3,0.9,0.9,0.7,1.2,1c0.1,0.1,0.3,0.4,0.4,0.5L8.1,4l1.8,1.2
		C9.6,5.4,9.2,5,8.8,5.2c-0.7,0.4-1,0-1.1,0c0.4,0.5,0.7,0.4,1.1,0.5c0.3,0,0.5,0.2,0.9,0.3L7.6,6.4l2.2,0.4c-0.3,0.2-0.7,0.1-1,0.3
		C8.1,7.9,7.5,7.5,7.7,7.6C8.3,8,8.6,7.9,8.9,7.8C8.7,7.9,8.5,8.1,8.3,8.3c0-0.2-0.1-0.3-0.2-0.4C7.8,8.5,7.2,8.6,7.1,9.4
		C7,9.1,6.9,9,6.8,8.9c-0.4,0.7-0.8,0.8-0.9,1.5C5.9,10.2,5.8,10,5.7,10c-0.4,0.8-0.9,1-0.8,2.1C5,12.4,5,12.6,5,12.7
		c-0.1-0.4-0.3-0.9-0.6-0.9c-0.3,0.5-0.5,0.9-0.6,1.4C3.7,13.1,3.6,13,3.5,13c-0.1,0.8-0.7,1.1-0.1,2.1c0.3,0.3,0.3,0.6,0.3,0.8
		c0,0-0.1,0.1-0.1,0.1c0-0.5-0.4-1.3-0.8-1.4c-0.1,0.6-0.4,0.9-0.3,1.4C2.3,16,2.3,16,2.2,16c0.1,0.9-0.5,1.2,0.3,2.1
		c0.4,0.3,0.4,0.5,0.5,0.7c-0.1,0.1-0.1,0.1-0.1,0.2c-0.1-0.5-0.6-1.3-1-1.3c0.1,0.9-0.4,0.9-0.1,1.6c-0.2-0.1-0.3-0.1-0.4-0.1
		c0.2,0.8,0,1.5,0.8,2c0.5,0.2,0.5,0.6,0.6,0.7c0,0.1,0,0.1,0,0.2c-0.2-0.5-1-1.2-1.4-1.2c0.2,0.7,0.1,1.4,0.5,1.9
		c-0.2-0.1-0.5-0.2-0.7-0.2c0.4,0.8,0.2,1.3,1,2c-0.2-0.1-0.5-0.2-0.7-0.1c0.2,0.6,0.1,1,0.4,1.4c-0.1,0-0.2,0-0.3,0.1
		c0.4,0.7,0.3,1.2,1,1.6c-0.2,0-0.3,0-0.4,0.1c0.3,0.5,0.3,0.9,0.6,1.3c-0.1,0-0.2,0-0.3,0.1c0.5,0.5,0.5,1,1.1,1.4
		c-0.2,0-0.3,0-0.4,0.1c0.4,0.4,0.6,0.8,0.9,1.1c-0.2,0-0.3,0.1-0.4,0.2C4,32.3,4.1,32.8,4.7,33c-0.2,0-0.3,0-0.4,0.1
		c0.8,0.6,0.3,0.8,1,1.1c-0.1,0-0.1,0.1-0.1,0.1c0.8,0.4,0.9,1.4,2.7,1.4h0c0.8,0.9,3.1,2,4.8,2.2L14.9,38z M25.8,25
		c-0.2,0.6,0,0.9-0.5,1.3c-0.3,0.1-0.3,0.2-0.4,0.3c0.1-0.2,0.1-0.4,0.3-0.5c-0.1,0.1-0.3,0.2-0.3,0.3c-0.1-0.1-0.2-0.1-0.4-0.4
		c-0.2-0.5-0.1-0.7-0.1-1.1c0.2,0.4,0.6,0.8,0.7,1.1C25,25.5,25.6,24.9,25.8,25 M24.9,25.2c0.1-0.1,0.2-0.3,0.5-0.4
		c-0.2,0.2-0.4,0.4-0.5,0.6C24.9,25.4,24.9,25.3,24.9,25.2 M26,23.1c-0.3,0.6-0.1,0.9-0.6,1.4c-0.4,0.2-0.3,0.2-0.4,0.4
		c0.1-0.2,0.2-0.4,0.3-0.6c-0.2,0.1-0.3,0.3-0.4,0.4c-0.1,0-0.2,0-0.4-0.3c-0.2-0.4,0-0.6-0.1-1c0.2,0.3,0.6,0.6,0.6,0.9
		C25.2,23.8,25.8,23.1,26,23.1 M25,22.6c0.1-0.4,0.6-1.2,0.8-1.2c-0.2,0.6,0.1,0.9-0.4,1.4c-0.3,0.2-0.3,0.3-0.4,0.4
		c0-0.2,0.1-0.4,0.2-0.6c-0.1,0.1-0.3,0.3-0.3,0.5c-0.1,0-0.2,0-0.4-0.2c-0.3-0.4-0.1-0.6-0.2-1C24.5,22.1,25,22.3,25,22.6
		 M24.4,21.3c0.2,0.3,0.4,0.3,0.4,0.5c-0.1-0.1-0.3-0.2-0.4-0.4C24.4,21.4,24.4,21.4,24.4,21.3 M25.9,19.6c-0.1,0.6,0.1,0.8-0.4,1.4
		c-0.3,0.2-0.3,0.3-0.4,0.4c0-0.2,0.1-0.4,0.2-0.6c-0.1,0.1-0.2,0.3-0.3,0.4c-0.1-0.1-0.2,0-0.5-0.3c-0.3-0.4-0.1-0.6-0.2-1
		c0.3,0.3,0.7,0.5,0.8,0.8C25.1,20.3,25.6,19.6,25.9,19.6 M24.9,19.4c0-0.4,0.4-1.2,0.6-1.2c0,0.6,0.3,0.8-0.1,1.4
		c-0.3,0.2-0.3,0.3-0.3,0.4c0-0.2,0-0.4,0.1-0.6c-0.1,0.1-0.2,0.3-0.3,0.5c-0.1,0-0.2,0-0.5-0.2c-0.4-0.3-0.3-0.5-0.4-0.9
		C24.4,19,24.8,19.2,24.9,19.4 M23.7,27.4c0-0.1,0.1-0.2,0.1-0.3c0,0,0,0,0,0.1c0.2,0.7,0.4,0.8,0.3,1.2c0,0,0,0,0,0.1
		C24.2,28.1,23.9,27.7,23.7,27.4 M22.8,31c0-0.2-0.1-0.5-0.3-0.7c0-0.1,0.1-0.2,0.1-0.2C22.8,30.6,22.9,30.7,22.8,31 M23.6,30.8
		c-0.3,0.1-0.6,0.2-0.8,0.4c0,0,0-0.1,0-0.1C23,31.1,23.2,30.9,23.6,30.8 M22.2,29.8c0,0-1.8,0.3-4.1-1.2c0.2-0.2,0.3-0.8,0.2-1.2
		c-0.1-0.3-0.1,0-0.1,0.1c-0.2,0.5-0.4,0.6-0.6,0.8c-0.7-0.7-0.8-0.7-1.6-1.2c-0.6-0.3-0.7-0.5-1-0.8c-0.6,0.3-1.5,0.8-2,0.5
		c-0.4-0.2,0.4-0.4,0.8-0.9c0.3-0.4,0.6-0.5,1.1-0.4c0.9,0.2,1.4,0.5,2.7,1.1c1.7,0.1,2.9,0.6,4.6,1c0.3,0.1,0.7,0.1,0.9,0.1
		C22.8,28.5,22.6,28.9,22.2,29.8 M14.9,28c0.5,0.6,0.9,0.7,1.3,1.3c-0.1,0.2-0.3,0.2-0.5,0.1c-0.7-0.8-1.4-1-1.2-1.4
		c-0.1,0-0.3,0.2-0.2,0.3c0.1,0.6,0.8,0.8,1,1.3c-0.1,0.4-0.9,0-1.3-1l0,0c-0.1,0.3-0.3,0.4,0.3,1c0.1,0.2,0.2,0.5-0.2,0.4
		c0.1,0.1-0.2,0-0.1,0H14c0,0,0,0-0.1,0c0.2-1-0.8-0.8-0.7-0.8c0.1-0.4-0.4-0.7-0.9-0.5c0.1-0.3-0.5-0.7-1.3-0.4
		c-0.1-0.3-0.8-0.6-1.5,0.3c-1.2,0.1-3.2,1.2-4.3,0.6c0,0-0.7-1.9-0.8-2c1.4-0.1,4.5-0.3,5.6-0.8c0.9-0.6,2.5-0.8,2.9-0.6
		c0,0.3-0.7,0.9-0.4,1.2c0.6,0.6,1.6,0.3,2.3-0.1c0.7,0.7,1.8,0.8,2.2,1.7L16.9,29c-0.2,0.2-0.3,0.2-0.5-0.2
		c-0.7-0.9-1.3-0.7-1.4-1.3C14.7,27.6,14.9,27.9,14.9,28 M11.7,29.8c-0.2,0.1,0.1-0.1,0.2-0.2l0.1-0.1c0.2-0.2,0.5-0.4,0.7-0.1
		c0.1,0.3-0.7,0.7-0.8,0.8c-0.1,0-0.2,0-0.3-0.1C11.5,30,11.5,29.8,11.7,29.8 M10.9,29.7c-0.1,0-0.3,0.1-0.3-0.1
		c-0.1-0.2,0.2-0.4,0.3-0.5C11,29,11.1,29,11.1,29l0.1-0.1c0.3,0,0.3,0,0.3,0.1C11.6,29.1,11.1,29.7,10.9,29.7 M12.9,29.9
		c0,0,0.3-0.4,0.5,0.1c0.1,0.2-0.3,0.4-0.6,0.5C12.6,30.4,12.2,30.4,12.9,29.9 M10.1,29.2C10,29.2,9.8,29,9.9,28.9l0.1-0.3
		c0.2-0.1,0.4-0.2,0.4-0.1C10.5,28.7,10.2,29.1,10.1,29.2 M4.9,30c0,0.1-0.1,0.2-0.1,0.2C4.8,30.2,4.8,30.1,4.9,30
		C4.8,30,4.8,30,4.9,30 M4.6,31c-0.1-0.1-0.3-0.2-0.5-0.3c0.2,0,0.3,0.1,0.4,0.2C4.6,30.9,4.6,30.9,4.6,31 M3.4,28.3
		C3.4,28.2,3.4,28.2,3.4,28.3c-0.1-0.5,0.1-0.6,0.3-1.3c0,0.1,0,0.2,0.1,0.3C3.6,27.6,3.4,27.9,3.4,28.3 M3.5,18.4
		c-0.1,0.1-0.2,0.1-0.3,0.2c0.1-0.1,0.2-0.2,0.4-0.3C3.6,18.3,3.6,18.3,3.5,18.4 M3.6,22.6h9.6v2.8c-0.4-0.1-1.2-0.1-1.8,0
		c-1.8,0.3-1.2,1.2-7.3,1.3C3.6,24.9,3.6,22.6,3.6,22.6 M9.6,8.6c0.1-0.1,0.2-0.1,0.3-0.5c0.2-0.8,0.7-0.7,1.2-1
		c0.2,0.2-0.5,1.1-0.9,1.3c0.2,0,0.6,0.3,1,0.4c-0.4,0.1-0.6,0.3-1,0.2C9.8,8.9,9.8,8.7,9.8,8.7c0.1-0.1,0.2-0.3,0.3-0.5
		C10,8.4,9.8,8.5,9.6,8.6 M16.9,8.4c-0.2,0-0.3-0.1-0.5-0.1c0.2-0.1,0.5-0.2,0.7-0.3c0.4,0.1,0.8,0.3,0.8,0.6
		c-0.3-0.1-0.4,0.1-0.9,0.2c-0.5,0.1-0.7-0.2-1.2-0.3c-0.1-0.1-0.2-0.2-0.2-0.3c0.2,0,0.4,0,0.6,0l0,0.1C16.5,8.4,16.7,8.4,16.9,8.4
		 M15.4,7.7c0.2,0,0.4,0,0.6-0.1c-0.1,0-0.3,0-0.5,0c0.3-0.2,0.5-0.4,0.9-0.4c0.5,0,0.5,0.3,0.9,0.2C17.4,7.6,15.8,8.3,15.4,7.7
		 M14.6,7.6c0.2,0.1,0.5,0.5,0.8,0.8c-0.4-0.1-0.6,0-1-0.3c-0.3-0.2-0.2-0.4-0.3-0.5c0.2-0.1,0.3-0.2,0.4-0.3
		c-0.2,0.1-0.4,0.2-0.6,0.2c0.1-0.1,0.2,0,0.4-0.4c0.5-0.5,0.7-0.2,1.3-0.3C15.7,7.1,15,7.6,14.6,7.6 M13.4,7.8
		c0.3,0,0.6,0.4,0.9,0.6c-0.4,0-0.6,0.1-1-0.1C13,8.1,13,8,12.9,7.9c0.2-0.1,0.3-0.2,0.4-0.4c-0.1,0.1-0.3,0.2-0.5,0.3
		c0.1-0.1,0.2-0.1,0.3-0.4c0.4-0.5,0.6-0.3,1.2-0.6C14.3,7,13.8,7.6,13.4,7.8 M12.5,8.5c-0.4,0-0.6,0.2-1,0
		c-0.3-0.1-0.3-0.3-0.3-0.3c0.1-0.1,0.3-0.3,0.3-0.4C11.4,7.9,11.2,8,11,8.1C11.1,8,11.2,8,11.3,7.6C11.7,7,12,7.2,12.5,6.9
		c0,0.2-0.6,0.9-0.9,1.1C11.8,8,12.2,8.3,12.5,8.5 M19.5,10.5c0.1,0,0.1,0,0.2,0C19.6,10.5,19.5,10.6,19.5,10.5
		C19.5,10.6,19.5,10.5,19.5,10.5 M23,15.4c0.1,0.1,0.2,0.1,0.3,0.2C23.2,15.6,23.1,15.5,23,15.4C23,15.5,23,15.4,23,15.4 M17.9,26.2
		C17,26,15.7,24.9,14.3,25v-2.4h9.6c0,0.3-0.2,2.9-0.7,4.6C21.3,27.2,19.5,26.1,17.9,26.2 M24,18.3c0.2,0.1,0.3,0.2,0.4,0.3
		c-0.1-0.1-0.2-0.1-0.4-0.2C24,18.3,24,18.3,24,18.3 M25.1,16.5c0,0.6,0.3,0.8-0.1,1.4c-0.3,0.2-0.2,0.3-0.3,0.4
		c0-0.2,0-0.4,0.1-0.6c-0.1,0.1-0.2,0.3-0.2,0.4c-0.1,0-0.2,0-0.5-0.2c-0.4-0.3-0.2-0.5-0.4-1c0.3,0.3,0.8,0.5,0.9,0.7
		C24.5,17.2,24.9,16.5,25.1,16.5 M24.1,16.4c-0.1-0.4,0.2-1.2,0.4-1.2c0.1,0.6,0.4,0.8,0.1,1.4c-0.3,0.2-0.2,0.3-0.2,0.4
		c0-0.2-0.1-0.4,0-0.6c-0.1,0.2-0.2,0.3-0.2,0.5c-0.1,0-0.2,0.1-0.5-0.1c-0.4-0.3-0.4-0.5-0.6-0.9C23.5,16,24,16.2,24.1,16.4
		 M23.7,13.5c0.1,0.6,0.4,0.8,0.1,1.4c-0.3,0.2-0.2,0.3-0.2,0.4c0-0.2-0.1-0.4,0-0.6c-0.1,0.1-0.2,0.3-0.2,0.5
		c-0.1,0-0.2,0.1-0.5-0.2c-0.4-0.3-0.4-0.5-0.6-0.9c0.4,0.2,0.9,0.4,1.1,0.6C23.2,14.3,23.5,13.5,23.7,13.5 M22.9,12.2
		c0.2,0.6,0.5,0.7,0.4,1.3c-0.2,0.3-0.1,0.3-0.2,0.5C23,13.8,23,13.6,23,13.4c-0.1,0.2-0.1,0.3-0.1,0.5c-0.1,0-0.2,0.1-0.6-0.1
		c-0.5-0.2-0.5-0.5-0.8-0.8c0.4,0.2,1,0.3,1.2,0.5C22.6,13.1,22.7,12.3,22.9,12.2 M22.5,13.1c-0.1-0.1-0.2-0.2-0.3-0.2
		C22.2,12.9,22.3,13,22.5,13.1C22.4,13.1,22.4,13.1,22.5,13.1 M21.8,10.6c0.3,0.6,0.5,0.5,0.4,1.3c-0.1,0.4-0.1,0.4,0,0.6
		C22.1,12.2,22,12,22,11.8c0,0.2,0,0.4,0,0.6c-0.1,0-0.2,0.2-0.5,0.1c-0.4-0.1-0.5-0.4-0.8-0.7c0.4,0.1,0.9,0,1.1,0.2
		C21.6,11.6,21.6,10.7,21.8,10.6 M20.8,10.9c-0.2-0.3-0.3-1.2-0.1-1.3c0.3,0.5,0.5,0.4,0.6,1.1c-0.1,0.4,0,0.4,0,0.6
		c-0.1-0.2-0.2-0.4-0.3-0.6c0,0.2,0,0.4,0.1,0.6c-0.1,0-0.1,0.2-0.5,0.1c-0.5,0-0.5-0.3-0.9-0.5C20.1,10.9,20.6,10.7,20.8,10.9
		 M19.2,8.3c0.3,0.5,0.7,0.5,0.8,1.2c-0.1,0.4,0,0.4,0,0.5c-0.1-0.2-0.2-0.3-0.3-0.5c0,0.2,0,0.4,0.1,0.5c-0.1,0-0.1,0.2-0.5,0.2
		c-0.5,0-0.5-0.3-0.9-0.5c0.4,0,0.9-0.2,1.1,0C19.3,9.3,19.1,8.5,19.2,8.3 M19,7.9c0,0.1,0,0.1,0,0.2c-0.1-0.1-0.1-0.2-0.2-0.3
		C18.8,7.9,18.9,7.9,19,7.9 M18.9,8.4C18.8,8.8,18.9,8.8,19,9c-0.1,0-0.1,0-0.1,0c-0.1-0.2-0.3-0.3-0.3-0.4c0.1,0.3,0.1,0.4,0.2,0.6
		c0,0.1-0.1,0.1-0.3,0.1c-0.6,0-0.7-0.1-0.9-0.2c0.4-0.2,0.6-0.4,0.9-0.2c0,0,0,0,0-0.1l0,0l0,0c0-0.1-0.2-0.3-0.3-0.4
		c-0.2-0.3-0.3-0.6-0.2-0.7C18.3,7.9,18.7,7.7,18.9,8.4 M18.5,7.4H18c-0.1,0-0.1-0.1-0.2-0.2C18.1,7.3,18.4,7.4,18.5,7.4 M10.2,7
		c0.4-0.2,0.5-0.3,0.5-0.3L9.4,6.3l1.4-0.3c0,0,0-0.1-0.8-0.3c-0.2-0.1,0-0.2-0.7-0.3c0.2,0,0.2,0.1,0.6,0.1c0.3,0,0.6,0.1,1,0
		c0,0-0.8-0.6-1.3-0.9c0,0,0.9,0.2,1.6,0.4c0-0.1-0.6-0.5-0.9-0.9c-0.1-0.1-0.1-0.2-0.2-0.3c0.4,0.1,0.4,0.3,0.6,0.4
		c0.2,0.1,0.7,0.3,0.9,0.3c-0.4-0.6-1-1.4-1-1.4l1.4,0.9c-0.1-0.4-0.3-0.6-0.3-0.8c-0.2-0.6-0.1-0.5-0.2-0.8
		c0.4,0.6,0.5,0.9,1.1,1.2L12.1,2L13,3.5c0.1-0.2,0-0.6,0-0.8C13,2,13,2.4,12.9,1.8C13,2.2,13,2.1,13.1,2.5c0.2,0.3,0.3,0.6,0.5,0.9
		l0.3-1.6c0,0,0.3,1.6,0.2,1.6c0.2-0.3,0.2-0.5,0.3-0.8c0.3-0.4,0.3-0.8,0.3-0.8c-0.1,0.7-0.1,0.4-0.2,0.8c0,0.3,0,0.8,0.1,0.9
		l1-1.4l-0.4,1.7c0.1,0,0.5-0.6,0.9-0.8c0.1-0.1,0.3-0.4,0.3-0.4c-0.2,0.3-0.3,0.5-0.4,0.7c-0.2,0.4-0.1,0.3-0.3,0.8l1.4-1l-1,1.4
		c0,0,0.1,0,0.7-0.3c0.4-0.1,0.7-0.3,0.9-0.4c-0.5,0.4-0.7,0.4-1.3,1.2l1.6-0.3c0,0-1.3,0.8-1.4,0.8c0.1,0.1,0.6-0.1,1.1,0
		c0.4,0,0.4,0,0.7,0c-0.4,0.1-0.5,0.1-1,0.2c-0.2,0.1-0.6,0.3-0.6,0.4l1.6,0.3c0,0-1.6,0.4-1.9,0.5c-0.1,0-0.2,0-0.3,0
		c-0.1,0-0.1,0-0.2,0c0.1-0.1,0.1-0.2,0.1-0.4c-0.5,0.1-1,0-1.5,0.1c0-0.1,0-0.2,0-0.3c-0.7,0.3-1.2,0.2-1.8,0.6
		c0-0.1,0-0.3-0.1-0.4c-0.6,0.3-1.1,0.1-1.5,0.5c0-0.1,0-0.2,0-0.3C10.8,6.9,10.3,7,9.8,7.4c-0.1,0-0.2,0-0.4,0c0,0,0,0,0-0.1
		c0,0,0,0-0.1,0.1c-0.1,0-0.2,0-0.3,0C9.7,7.2,10,7.1,10.2,7 M8.3,8.9c0.2-0.6,0.5-0.6,0.9-1c0.1,0.2-0.2,1-0.5,1.2
		C9,9.1,9.4,9.3,9.9,9.4c-0.4,0.1-0.5,0.3-1,0.3c-0.3,0-0.4-0.2-0.5-0.2C8.5,9.3,8.6,9.2,8.6,9C8.5,9.2,8.4,9.3,8.2,9.4
		C8.3,9.3,8.4,9.3,8.3,8.9 M9.2,9C9.2,9,9.2,9,9.2,9C9.1,9,9.1,9,9.2,9L9.2,9z M7.3,9.8c0.1-0.7,0.4-0.7,0.8-1.2
		c0.1,0.2-0.1,1-0.3,1.3C8,9.8,8.4,10,8.9,10c-0.4,0.2-0.4,0.4-0.9,0.4c-0.3,0-0.4-0.1-0.5-0.2c0.1-0.2,0.1-0.3,0.1-0.5
		c-0.1,0.2-0.2,0.4-0.3,0.5C7.3,10.2,7.4,10.1,7.3,9.8 M7,10.3C7,10.4,7,10.5,7,10.6c0,0,0,0,0,0C7,10.6,7,10.4,7,10.3 M6.1,10.7
		c0.1-0.7,0.3-0.7,0.6-1.2c0.1,0.2,0.1,1-0.1,1.3c0.2-0.1,0.7,0,1.1,0c-0.4,0.2-0.4,0.5-0.9,0.5c-0.3,0-0.4-0.1-0.5-0.1
		c0.1-0.2,0.1-0.4,0.1-0.6c0,0.2-0.1,0.4-0.3,0.6C6.2,11.1,6.2,11.1,6.1,10.7 M5.6,10.7c0.1,0.2,0.1,1,0,1.4
		c0.2-0.2,0.7-0.1,1.1-0.2c-0.3,0.3-0.4,0.5-0.8,0.6c-0.3,0.1-0.4,0-0.5-0.1c0-0.2,0.1-0.4,0-0.6c0,0.2-0.1,0.4-0.2,0.6
		c0-0.2,0.1-0.2,0-0.6C5.2,11.2,5.4,11.2,5.6,10.7 M4.9,13.2C5,13.1,5.1,13.1,5.2,13C5.1,13.1,5,13.1,4.9,13.2
		C4.9,13.2,4.9,13.2,4.9,13.2 M4.5,12.3c0.2,0.1,0.3,0.9,0.1,1.2c0.2-0.2,0.7-0.3,1.1-0.5c-0.3,0.3-0.3,0.6-0.8,0.8
		C4.7,14.1,4.6,14,4.5,14c0-0.2,0-0.3-0.1-0.5c0,0.2,0,0.4-0.1,0.6c0-0.1,0.1-0.2-0.2-0.4C4,13,4.3,12.9,4.5,12.3 M3.6,14.9
		c-0.3-0.6,0.1-0.8,0.1-1.3c0.2,0.1,0.4,0.8,0.4,1.2c0.2-0.2,0.7-0.4,1-0.6C4.9,14.5,5,14.7,4.5,15c-0.3,0.2-0.4,0.1-0.5,0.2
		C4,15,4,14.9,3.9,14.7c0,0.2,0,0.4,0,0.6C3.8,15.2,3.9,15.1,3.6,14.9 M4.5,15.4c0,0.1,0,0.1-0.1,0.1c-0.2,0-0.3,0.1-0.5,0.2
		C4.1,15.6,4.2,15.6,4.5,15.4 M3,15.2c0.2,0.1,0.4,0.8,0.4,1.2c0.2-0.2,0.7-0.4,1-0.6c-0.3,0.4-0.2,0.6-0.6,0.9
		c-0.3,0.2-0.4,0.1-0.5,0.1c0-0.2-0.1-0.3-0.1-0.5c0,0.2,0,0.4,0,0.6c0-0.1,0-0.2-0.2-0.4C2.6,15.9,3,15.8,3,15.2 M2.6,17.8
		c-0.4-0.5-0.1-0.8-0.1-1.3c0.2,0,0.6,0.8,0.6,1.2c0.1-0.2,0.6-0.4,0.9-0.7c-0.2,0.4-0.1,0.6-0.4,0.9c-0.3,0.2-0.4,0.2-0.5,0.2
		c0-0.2-0.1-0.3-0.2-0.4c0.1,0.2,0.1,0.4,0.1,0.6C2.8,18.1,2.9,18,2.6,17.8 M2,18.2c0.2,0,0.6,0.8,0.6,1.2c0.1-0.2,0.6-0.4,0.9-0.7
		c-0.2,0.4-0.1,0.6-0.4,0.9c-0.3,0.2-0.4,0.2-0.5,0.2c0-0.2-0.1-0.3-0.2-0.4c0.1,0.2,0.1,0.4,0.1,0.6c-0.1-0.1,0-0.2-0.3-0.4
		C1.7,19,2,18.8,2,18.2 M2.6,21.1c-0.1-0.2-0.2-0.3-0.3-0.4c0.1,0.2,0.2,0.4,0.2,0.6c-0.1-0.1-0.1-0.2-0.4-0.4
		c-0.5-0.5-0.3-0.6-0.4-1.2c0.2,0,0.8,0.6,0.9,1c0.1-0.2,0.5-0.5,0.8-0.8c-0.1,0.4,0.1,0.6-0.2,1C2.8,21.1,2.7,21.1,2.6,21.1
		 M3.2,21.2v0.2c-0.2,0.1-0.3,0.2-0.4,0.4C2.8,21.5,2.9,21.5,3.2,21.2 M1.7,21.4c0.2,0,0.8,0.7,0.9,1.1C2.6,22.2,3,22,3.3,21.7
		c-0.1,0.4,0.1,0.6-0.2,1c-0.2,0.3-0.4,0.2-0.4,0.2c-0.1-0.2-0.2-0.3-0.3-0.4c0.1,0.2,0.2,0.4,0.2,0.6c-0.1-0.1-0.1-0.2-0.4-0.4
		C1.6,22.2,1.8,22,1.7,21.4 M2.5,23.5L2.5,23.5C2.4,23.4,2.2,23.2,2,23C2.3,23.2,2.4,23.4,2.5,23.5 M1.6,23.1c0.2,0,0.8,0.5,0.9,0.9
		c0-0.3,0.4-0.5,0.6-0.9c0,0.4,0.2,0.7-0.1,1c-0.1,0.3-0.3,0.2-0.4,0.3c-0.1-0.2-0.2-0.3-0.4-0.4c0.1,0.2,0.2,0.4,0.3,0.6
		c-0.1-0.1-0.1-0.2-0.4-0.3C1.3,23.6,2.2,24.6,1.6,23.1 M2.7,25.1c0,0,0,0.1,0,0.1c-0.1-0.2-0.3-0.4-0.5-0.6
		C2.4,24.8,2.5,25,2.7,25.1 M2.6,25.7c0-0.3,0.4-0.7,0.6-1.1c-0.1,0.5,0.1,0.6-0.1,1.1c-0.2,0.3-0.3,0.3-0.4,0.4
		c-0.1-0.2-0.2-0.2-0.3-0.3c0.1,0.1,0.2,0.3,0.3,0.5c-0.1-0.1-0.1-0.2-0.4-0.3C1.8,25.7,2,25.5,1.8,25C2,24.9,2.5,25.4,2.6,25.7
		 M1.9,26.3c0.2-0.1,0.9,0.4,1,0.7c0-0.3,0.3-0.7,0.5-1.1c0,0.4,0.2,0.6,0,1.1c-0.1,0.4-0.3,0.4-0.3,0.5c-0.1-0.1-0.2-0.2-0.4-0.3
		c0.1,0.1,0.2,0.3,0.3,0.5c-0.1-0.1-0.1-0.2-0.5-0.2C2,27.1,2.2,26.8,1.9,26.3 M3.5,28.7c0-0.3,0.3-0.7,0.5-1.1
		C4,28,4.2,28.1,4,28.6C3.9,29,3.8,29,3.7,29.1c-0.1-0.1-0.3-0.2-0.4-0.3c0.1,0.1,0.3,0.3,0.4,0.5c-0.1-0.1-0.1-0.2-0.5-0.2
		c-0.6-0.3-0.4-0.6-0.7-1.1C2.6,27.9,3.3,28.3,3.5,28.7 M2.8,29.3C3,29.2,3.8,29.5,4,29.8c-0.1-0.3,0.2-0.7,0.3-1.1
		c0.1,0.4,0.3,0.5,0.2,1c0,0.4-0.2,0.4-0.2,0.5C4.2,30.1,4,30,3.8,30c0.2,0.1,0.3,0.2,0.4,0.4c-0.1-0.1-0.1-0.2-0.5-0.1
		C3.1,30.1,3.2,29.7,2.8,29.3 M3.5,30.8c0.2-0.1,1,0.3,1.2,0.6c-0.1-0.3,0.2-0.7,0.3-1.1c0.1,0.4,0.3,0.5,0.2,1
		c-0.1,0.3-0.2,0.4-0.3,0.5c-0.1-0.1-0.3-0.2-0.5-0.2c0.2,0.1,0.3,0.2,0.4,0.4c-0.1-0.1-0.1-0.2-0.5-0.1C3.8,31.6,4,31.2,3.5,30.8
		 M4.1,32c0.2-0.1,1,0.1,1.3,0.4c-0.1-0.2,0.1-0.7,0.1-1.1C5.7,31.7,6,31.8,6,32.2c0,0.3-0.2,0.4-0.2,0.5c-0.2-0.1-0.3-0.1-0.5-0.1
		c0.2,0.1,0.4,0.2,0.5,0.3c-0.1,0-0.2-0.1-0.5-0.1C4.6,32.7,4.6,32.4,4.1,32 M6,33.2c0,0.1,0,0.1,0.1,0.2c-0.2-0.1-0.4-0.3-0.7-0.3
		C5.6,33.1,5.8,33.2,6,33.2 M4.9,33.3c0.2-0.1,1,0.2,1.3,0.5c-0.1-0.2,0.1-0.7,0.2-1.1c0.2,0.4,0.4,0.5,0.4,0.9
		c0,0.3-0.2,0.4-0.2,0.5C6.4,34,6.3,34,6.1,34c0.2,0.1,0.4,0.2,0.5,0.4c-0.1,0-0.2-0.1-0.5-0.1C5.3,34.1,5.4,33.7,4.9,33.3 M8,35.5
		c-0.1-0.1-0.3-0.2-0.6-0.2c-0.7-0.1-0.9-0.5-1.5-0.8c0.2-0.1,1.1,0,1.4,0.3c-0.1-0.2,0-0.6,0-1c0.2,0.4,0.5,0.4,0.6,0.9
		c0.1,0.4,0.1,0.6,0.1,0.8c-0.1-0.1-0.3-0.2-0.4-0.3C7.7,35.2,7.9,35.3,8,35.5 M7.1,34.4L7.1,34.4L7.1,34.4L7.1,34.4z M11.8,37.4
		c-1.6-0.5-3-1.3-3.4-1.8c-0.1-0.3-0.2-0.6-0.3-1.1c0,0,0,0,0,0c1.1,1,2.4,1.7,3.7,2h-0.1C11.3,37,11.6,37.3,11.8,37.4 M13.7,36.1
		c-4.4-0.1-7-3.7-8-5.4c-0.2-0.2,2.5-1,3.1-1.2l0.7-0.2c0,0.3,0.6,0.4,0.6,0.3c0.1,0.1,0,0.3,0.3,0.5c0.4,0.3,0.6,0.1,0.6,0
		c-0.2,0.2,0.5,0.6,1,0.4c-0.1,0.2,0.3,0.3,0.4,0.3c0.2,0.1,0.5,0.2,0.8,0v2.4c0,0.5,0.1,0.6,0.3,0.6c1,0.1,0.8-0.2,0.9-0.5
		c0-1-0.1-2.6-0.1-2.5c0.7-0.1,0.5-0.2,0.8-0.3c0.3,0,0.4,0,0.7-0.3c0.4,0,0.7-0.1,0.8-0.4c0.3,0.1,0.7-0.2,1-0.7
		c0.7,0.2,3,1.5,4.1,1.8C21.1,31.7,18.4,36.1,13.7,36.1 M21.4,33.5c0.1,0,0.2-0.1,0.4-0.1c-0.2,0.1-0.3,0.1-0.4,0.2
		C21.4,33.6,21.4,33.6,21.4,33.5 M20.3,34.6L20.3,34.6L20.3,34.6 M19.2,34.7c-0.1,0.4-0.1,0.7-0.2,1c-0.4,0.8-2.4,1.4-3.3,1.7
		c0.3-0.2,0.4-0.7,0-0.9h-0.1C16.9,36.1,18.1,35.5,19.2,34.7C19.2,34.6,19.2,34.7,19.2,34.7 M20.2,35.4c-0.3-0.1-0.5,0.1-0.7,0.2
		c0.1-0.2,0.3-0.4,0.4-0.5c-0.2,0-0.3,0.1-0.4,0.2c0-0.2,0-0.3,0-0.6c0.1-0.4,0.4-0.5,0.6-0.9c0,0.4,0.1,0.9-0.1,1.1
		c0.4-0.2,1.3-0.4,1.5-0.3C20.9,35,20.9,35.4,20.2,35.4 M21.3,34.4c-0.4,0-0.4,0.1-0.6,0.1c0.2-0.1,0.3-0.3,0.5-0.4
		c-0.2,0-0.4,0.1-0.5,0.2c0-0.1-0.2-0.1-0.2-0.5c0-0.5,0.2-0.6,0.4-0.9c0,0.4,0.2,0.8,0.1,1.1c0.3-0.3,1.2-0.6,1.4-0.5
		C22,34,22.1,34.3,21.3,34.4 M22.2,33.1c-0.4-0.1-0.4,0-0.5,0.1c0.2-0.1,0.3-0.3,0.5-0.3c-0.2,0-0.4,0.1-0.5,0.2
		c0-0.1-0.2-0.1-0.2-0.5c0-0.5,0.2-0.5,0.4-0.9c0,0.4,0.2,0.9,0.1,1.1c0.3-0.3,1.2-0.5,1.3-0.4C22.8,32.7,22.9,33,22.2,33.1
		 M22.9,32.1c-0.4,0-0.4,0.1-0.5,0.1c0.1-0.2,0.3-0.3,0.4-0.4c-0.2,0-0.3,0.1-0.5,0.2c-0.1-0.1-0.2-0.1-0.3-0.5
		c-0.1-0.5,0.1-0.6,0.2-1c0.1,0.4,0.4,0.9,0.3,1.1c0.3-0.4,1-0.7,1.2-0.6C23.5,31.5,23.6,31.8,22.9,32.1 M23.8,30.5
		c-0.4,0-0.4,0.1-0.5,0.1c0.1-0.2,0.3-0.3,0.4-0.4c-0.2,0-0.3,0.1-0.5,0.2c-0.1-0.1-0.2-0.1-0.3-0.5c-0.1-0.5,0.2-0.6,0.3-1
		c0.1,0.4,0.3,0.9,0.3,1.2c0.3-0.3,1-0.6,1.2-0.5C24.3,30,24.4,30.3,23.8,30.5 M24.4,29.3c-0.4,0-0.4,0.1-0.5,0.2
		c0.1-0.2,0.2-0.4,0.4-0.5c-0.2,0.1-0.3,0.1-0.4,0.3c-0.1-0.1-0.2-0.1-0.3-0.5c-0.2-0.5,0-0.6,0.1-1.1c0.2,0.4,0.5,0.9,0.5,1.1
		c0.2-0.4,0.9-0.8,1.1-0.7C24.8,28.7,25,29,24.4,29.3 M24.5,28.1c0.1-0.1,0.2-0.1,0.3-0.1C24.7,28,24.6,28.1,24.5,28.1 M25,27.6
		c-0.4,0-0.3,0.1-0.5,0.2c0.1-0.2,0.2-0.3,0.4-0.5c-0.2,0.1-0.3,0.1-0.4,0.3c-0.1-0.1-0.2-0.1-0.3-0.4c-0.2-0.5,0-0.6,0.1-1.1
		c0.2,0.4,0.5,0.9,0.5,1.1c0.2-0.4,0.8-0.8,1-0.8C25.4,26.9,25.6,27.3,25,27.6"/>
	<path class="st2" d="M10.2,7c0.4-0.2,0.5-0.3,0.5-0.3L9.4,6.3l1.4-0.3c0,0,0-0.1-0.8-0.3c-0.2-0.1,0-0.2-0.7-0.3
		c0.2-0.1,0.2,0.1,0.6,0.1c0.3,0,0.6,0.1,1,0c0,0-0.8-0.6-1.3-0.9c0,0,0.9,0.2,1.6,0.4c0-0.1-0.6-0.5-0.9-0.9
		c-0.1-0.1-0.1-0.2-0.2-0.3c0.4,0.1,0.4,0.3,0.6,0.4c0.2,0.1,0.7,0.3,0.9,0.3c-0.4-0.6-1-1.4-1-1.4l1.4,0.9
		c-0.1-0.4-0.3-0.6-0.3-0.8c-0.2-0.6-0.1-0.5-0.2-0.8c0.4,0.6,0.5,0.9,1.1,1.2L12.1,2L13,3.5c0.1-0.2,0-0.6,0-0.8
		C13,2,13,2.4,12.9,1.8C13,2.2,13,2.1,13.1,2.5c0.2,0.3,0.3,0.6,0.5,0.9l0.3-1.6c0,0,0.3,1.6,0.2,1.6c0.2-0.3,0.2-0.5,0.3-0.8
		c0.3-0.4,0.3-0.8,0.3-0.8c-0.1,0.7-0.1,0.4-0.2,0.8c0,0.4,0,0.8,0.1,0.9l1-1.4l-0.4,1.7c0.1,0,0.5-0.6,0.9-0.8
		c0.1-0.1,0.3-0.4,0.3-0.4c-0.2,0.3-0.3,0.5-0.4,0.7c-0.2,0.4-0.1,0.3-0.3,0.8l1.4-1l-1,1.4c0,0,0.1,0,0.7-0.3
		c0.4-0.1,0.7-0.3,0.9-0.4c-0.5,0.4-0.7,0.4-1.3,1.2l1.6-0.3c0,0-1.3,0.8-1.4,0.8c0.1,0.1,0.6-0.1,1.1,0c0.4,0,0.4,0,0.7,0
		c-0.4,0.1-0.5,0.1-1,0.2c-0.2,0.1-0.6,0.3-0.7,0.4l1.6,0.3c0,0-1.6,0.4-1.9,0.5c-0.1,0-0.2,0-0.3,0c-0.1,0-0.1,0-0.2,0
		c0.1-0.1,0.1-0.2,0.1-0.4c-0.5,0.1-1,0-1.5,0.1c0-0.1,0-0.2,0-0.3c-0.7,0.3-1.2,0.2-1.8,0.6c0-0.1,0-0.3-0.1-0.4
		c-0.6,0.3-1.1,0.1-1.5,0.5c0-0.1,0-0.2,0-0.3C10.8,6.9,10.3,7,9.8,7.4c-0.1,0-0.2,0-0.4,0c0,0,0,0,0-0.1c0,0,0,0-0.1,0.1
		c-0.1,0-0.2,0-0.3,0C9.7,7.2,10,7.1,10.2,7"/>
	<path class="st1" d="M16,5.3l0.2,0c0,0-0.1-0.8-1.4-0.7h-0.3c0,0-0.1,0.4-0.1,0.4L15.2,5C15.2,5,15.8,4.9,16,5.3"/>
	<path class="st1" d="M14.6,5.8c0,0,0.2-0.2,0.2-0.2s0,0,0,0c0,0,0,0.1,0,0.1c0,0.1,0.1,0.3,0.2,0.3c0,0,0.2,0,0.2,0
		c0.1-0.1,0.2-0.2,0.2-0.3c0,0,0-0.1,0-0.1c0.1,0,0.3,0.1,0.3,0.2l0.3,0c0,0-0.2-0.7-1.4-0.5c0,0-0.3,0.5-0.3,0.5
		C14.3,5.8,14.6,5.8,14.6,5.8"/>
	<path class="st1" d="M11.6,5.8l0.3,0c0.1-0.1,0.2-0.2,0.3-0.2c0,0,0,0.1,0,0.1c0,0.2,0.1,0.3,0.2,0.3c0,0,0.2,0,0.2,0
		c0.1-0.1,0.2-0.2,0.2-0.3c0,0,0,0,0,0c0,0,0.1,0,0.1,0s0.2,0.2,0.2,0.2c0,0,0.3,0,0.3,0c0,0-0.3-0.5-0.3-0.5
		C11.8,5,11.6,5.8,11.6,5.8"/>
	<path class="st1" d="M12.4,5L13.4,5c0,0-0.1-0.4-0.1-0.4H13c-1.4-0.1-1.6,0.6-1.6,0.6l0.2,0C11.8,4.9,12.4,5,12.4,5"/>
	<path class="st6" d="M25.8,25c-0.2,0.6,0,0.9-0.5,1.3c-0.3,0.1-0.3,0.2-0.4,0.3c0.1-0.2,0.1-0.4,0.2-0.5c-0.1,0.1-0.3,0.2-0.3,0.3
		c-0.1-0.1-0.2-0.1-0.4-0.4c-0.2-0.5-0.1-0.7-0.2-1.1c0.2,0.4,0.6,0.8,0.7,1.1C25,25.5,25.6,24.9,25.8,25"/>
	<path class="st6" d="M26,23.1c-0.2,0.6-0.1,0.9-0.6,1.4c-0.4,0.2-0.3,0.2-0.4,0.4c0.1-0.2,0.2-0.4,0.3-0.6
		c-0.2,0.1-0.3,0.3-0.4,0.4c-0.1,0-0.2,0-0.4-0.3c-0.2-0.4,0-0.6-0.1-1.1c0.2,0.3,0.6,0.6,0.6,0.9C25.2,23.8,25.8,23.1,26,23.1"/>
	<path class="st6" d="M25,22.6c0.1-0.4,0.6-1.2,0.8-1.2c-0.2,0.6,0.1,0.9-0.4,1.4c-0.3,0.2-0.3,0.3-0.4,0.4c0-0.2,0.1-0.4,0.2-0.6
		c-0.1,0.1-0.3,0.3-0.3,0.4c-0.1,0-0.2,0-0.4-0.2c-0.3-0.3-0.1-0.6-0.2-1C24.6,22.1,25,22.3,25,22.6"/>
	<path class="st6" d="M25.9,19.6c-0.2,0.6,0.1,0.8-0.4,1.4c-0.3,0.2-0.3,0.3-0.4,0.4c0-0.2,0.1-0.4,0.2-0.6
		c-0.1,0.1-0.2,0.2-0.3,0.4c-0.1,0-0.2,0-0.5-0.3c-0.3-0.4-0.1-0.6-0.2-1c0.3,0.3,0.7,0.6,0.8,0.8C25.1,20.3,25.7,19.6,25.9,19.6"/>
	<path class="st6" d="M25,19.4c0-0.4,0.4-1.2,0.6-1.2c0,0.6,0.3,0.8-0.1,1.4c-0.3,0.2-0.3,0.3-0.3,0.4c0-0.2,0-0.4,0.1-0.6
		c-0.1,0.1-0.2,0.3-0.3,0.5c-0.1,0-0.2,0-0.5-0.2c-0.4-0.3-0.2-0.5-0.4-0.9C24.4,19,24.8,19.2,25,19.4"/>
	<path class="st6" d="M9.6,8.6c0.1-0.1,0.2-0.1,0.3-0.5c0.2-0.8,0.7-0.7,1.2-1c0.2,0.2-0.5,1.1-0.9,1.3c0.3,0,0.6,0.3,1,0.4
		c-0.4,0.1-0.6,0.3-1,0.1C9.8,8.9,9.8,8.7,9.8,8.7c0.1-0.1,0.2-0.3,0.3-0.5C10,8.4,9.8,8.5,9.6,8.6"/>
	<path class="st6" d="M16.9,8.4c-0.2,0-0.3-0.1-0.5-0.1c0.2-0.1,0.5-0.2,0.6-0.3c0.4,0.1,0.8,0.3,0.8,0.6c-0.4-0.1-0.4,0.1-0.9,0.2
		c-0.5,0.1-0.7-0.2-1.2-0.2c-0.1-0.1-0.2-0.2-0.2-0.3c0.2,0,0.4,0,0.6,0l0,0.1C16.5,8.4,16.7,8.4,16.9,8.4"/>
	<path class="st6" d="M15.4,7.8c0.2,0,0.4-0.1,0.6-0.1c-0.1,0-0.3,0-0.5,0c0.3-0.2,0.5-0.4,0.9-0.4c0.5,0,0.5,0.3,0.9,0.2
		C17.4,7.6,15.8,8.4,15.4,7.8"/>
	<path class="st6" d="M14.6,7.6c0.3,0.1,0.5,0.5,0.8,0.8c-0.4-0.1-0.6,0-1-0.3c-0.3-0.2-0.2-0.4-0.3-0.5c0.2-0.1,0.3-0.2,0.4-0.3
		c-0.2,0.1-0.4,0.2-0.6,0.2c0.1-0.1,0.2,0,0.4-0.4c0.5-0.5,0.7-0.2,1.3-0.3C15.7,7.1,15,7.6,14.6,7.6"/>
	<path class="st6" d="M13.4,7.8c0.3,0,0.6,0.4,0.9,0.6c-0.4,0-0.6,0.1-1-0.1C13,8.1,13,8,13,7.9c0.2-0.1,0.3-0.2,0.4-0.4
		c-0.2,0.1-0.3,0.2-0.5,0.3c0.1-0.1,0.2-0.1,0.3-0.5c0.4-0.5,0.6-0.3,1.2-0.6C14.3,7,13.8,7.6,13.4,7.8"/>
	<path class="st6" d="M12.5,8.5c-0.4,0-0.6,0.2-1,0c-0.3-0.1-0.3-0.3-0.3-0.3c0.2-0.1,0.3-0.2,0.4-0.4C11.4,7.9,11.2,8,11,8.1
		C11.1,8,11.2,8,11.3,7.6C11.7,7,12,7.2,12.5,6.9c0,0.2-0.6,0.9-1,1.1C11.8,8,12.2,8.3,12.5,8.5"/>
	<path class="st6" d="M25.1,16.5c0,0.6,0.3,0.8-0.1,1.4c-0.3,0.2-0.3,0.3-0.3,0.4c0-0.2,0-0.4,0.1-0.6c-0.1,0.1-0.2,0.3-0.2,0.5
		c-0.1-0.1-0.2,0-0.5-0.2c-0.4-0.3-0.3-0.5-0.5-1c0.3,0.3,0.8,0.5,1,0.7C24.5,17.2,24.9,16.5,25.1,16.5"/>
	<path class="st6" d="M24.1,16.4c-0.1-0.4,0.2-1.2,0.4-1.2c0.1,0.6,0.4,0.8,0.1,1.4c-0.3,0.2-0.2,0.3-0.2,0.4c0-0.2-0.1-0.4,0-0.6
		c-0.1,0.1-0.1,0.3-0.2,0.5c-0.1,0-0.2,0.1-0.5-0.1c-0.4-0.3-0.4-0.5-0.6-0.9C23.5,16,24,16.2,24.1,16.4"/>
	<path class="st6" d="M23.7,13.5c0.1,0.6,0.4,0.8,0.1,1.4c-0.3,0.2-0.2,0.3-0.2,0.4c0-0.2-0.1-0.4,0-0.6c-0.1,0.1-0.1,0.3-0.2,0.5
		c-0.1,0-0.2,0.1-0.5-0.2c-0.4-0.3-0.3-0.5-0.6-0.9c0.4,0.2,0.9,0.4,1.1,0.6C23.2,14.3,23.5,13.5,23.7,13.5"/>
	<path class="st6" d="M22.9,12.2c0.2,0.6,0.6,0.7,0.4,1.3c-0.2,0.3-0.1,0.3-0.2,0.5C23,13.8,23,13.6,23,13.4
		c-0.1,0.2-0.1,0.3-0.1,0.5c-0.1,0-0.2,0.1-0.6-0.1c-0.5-0.2-0.5-0.5-0.8-0.8c0.4,0.2,1,0.3,1.2,0.5C22.6,13.1,22.7,12.3,22.9,12.2"
		/>
	<path class="st6" d="M21.8,10.6c0.3,0.6,0.5,0.5,0.4,1.3c-0.1,0.4,0,0.4,0,0.6C22.1,12.2,22,12,22,11.8c0,0.2,0,0.4,0,0.6
		c-0.1,0-0.2,0.2-0.5,0.1c-0.4-0.1-0.5-0.4-0.8-0.7c0.4,0.1,0.9,0,1.1,0.2C21.6,11.6,21.6,10.7,21.8,10.6"/>
	<path class="st6" d="M20.8,10.9c-0.2-0.3-0.3-1.1-0.1-1.3c0.3,0.5,0.5,0.4,0.6,1.2c-0.1,0.4,0,0.4,0,0.6c-0.1-0.2-0.2-0.4-0.3-0.6
		c0,0.2,0,0.4,0.1,0.5c-0.1,0-0.1,0.2-0.5,0.1c-0.5,0-0.5-0.3-0.9-0.5C20.1,10.9,20.6,10.7,20.8,10.9"/>
	<path class="st6" d="M19.2,8.3c0.3,0.5,0.7,0.5,0.8,1.2c-0.1,0.4,0,0.4,0,0.5c-0.1-0.2-0.2-0.3-0.3-0.5c0,0.2,0,0.4,0.1,0.5
		c-0.1,0-0.1,0.2-0.5,0.2c-0.5,0-0.5-0.3-0.9-0.5c0.4,0,0.9-0.2,1.1,0C19.3,9.3,19.1,8.5,19.2,8.3"/>
	<path class="st6" d="M18.9,8.4C18.8,8.8,18.9,8.8,19,9c-0.1,0-0.1,0-0.1,0c-0.1-0.2-0.3-0.3-0.3-0.4c0.1,0.3,0.1,0.4,0.2,0.6
		c0,0.1-0.1,0.1-0.3,0.1c-0.6,0-0.7-0.1-0.9-0.2c0.4-0.2,0.6-0.4,0.9-0.2c0,0,0-0.1,0-0.1h0l0,0c0-0.1-0.2-0.3-0.3-0.4
		c-0.2-0.3-0.3-0.6-0.2-0.7C18.3,7.9,18.7,7.7,18.9,8.4"/>
	<path class="st6" d="M8.3,8.9c0.2-0.7,0.5-0.6,0.9-1c0.1,0.2-0.2,1-0.5,1.2C9,9.1,9.4,9.4,9.9,9.4c-0.4,0.1-0.5,0.4-1,0.3
		c-0.4,0-0.4-0.2-0.5-0.2C8.5,9.3,8.6,9.2,8.6,9C8.5,9.2,8.4,9.3,8.2,9.5C8.3,9.3,8.4,9.3,8.3,8.9"/>
	<path class="st6" d="M7.3,9.8c0.1-0.7,0.4-0.7,0.8-1.2C8.2,8.8,8,9.6,7.8,10C8,9.8,8.4,10,8.9,10c-0.4,0.2-0.4,0.4-0.9,0.4
		c-0.3,0-0.4-0.1-0.5-0.2c0.1-0.2,0.1-0.3,0.1-0.5c0,0.2-0.2,0.4-0.3,0.5C7.3,10.2,7.4,10.1,7.3,9.8"/>
	<path class="st6" d="M6.2,10.7c0.1-0.7,0.2-0.7,0.6-1.2c0.1,0.2,0.1,1-0.1,1.3c0.2-0.1,0.7,0,1.1,0c-0.4,0.2-0.4,0.5-0.9,0.5
		c-0.3,0-0.4-0.1-0.5-0.1c0.1-0.2,0.1-0.4,0.1-0.6c0,0.2-0.1,0.4-0.3,0.6C6.2,11.1,6.3,11.1,6.2,10.7"/>
	<path class="st6" d="M5.6,10.7c0.1,0.2,0.2,1,0,1.4c0.2-0.2,0.7-0.1,1.1-0.2c-0.3,0.3-0.4,0.5-0.8,0.7c-0.3,0.1-0.4-0.1-0.5-0.1
		c0.1-0.2,0.1-0.4,0-0.6c0,0.2-0.1,0.4-0.2,0.6c0-0.1,0.1-0.2,0-0.6C5.2,11.2,5.4,11.2,5.6,10.7"/>
	<path class="st6" d="M4.5,12.3c0.2,0.1,0.3,0.9,0.1,1.2c0.2-0.2,0.7-0.3,1.2-0.5c-0.3,0.3-0.3,0.6-0.8,0.8C4.7,14.1,4.6,14,4.5,14
		c0-0.2,0-0.3-0.1-0.5c0,0.2-0.1,0.4-0.1,0.6c0-0.1,0.1-0.2-0.2-0.5C4,13,4.4,12.9,4.5,12.3"/>
	<path class="st6" d="M3.6,14.9c-0.3-0.6,0.1-0.8,0.1-1.3c0.2,0.1,0.5,0.8,0.4,1.2c0.2-0.2,0.7-0.4,1.1-0.6C4.9,14.5,5,14.7,4.6,15
		c-0.3,0.2-0.4,0.1-0.5,0.2c0-0.2-0.1-0.3-0.2-0.5c0,0.2,0,0.4,0,0.6C3.8,15.2,3.9,15.1,3.6,14.9"/>
	<path class="st6" d="M3,15.2c0.2,0.1,0.4,0.8,0.4,1.2c0.2-0.2,0.7-0.4,1.1-0.6c-0.3,0.4-0.2,0.6-0.6,0.9c-0.3,0.2-0.4,0.1-0.5,0.1
		c0-0.2-0.1-0.3-0.2-0.5c0,0.2,0,0.4,0,0.6c0-0.1,0-0.2-0.2-0.4C2.6,15.9,3,15.8,3,15.2"/>
	<path class="st6" d="M2.6,17.8c-0.4-0.5-0.1-0.8-0.1-1.3c0.2,0,0.6,0.7,0.6,1.2c0.1-0.2,0.6-0.4,0.9-0.7c-0.2,0.4-0.1,0.6-0.4,0.9
		c-0.3,0.2-0.4,0.2-0.5,0.2c0-0.2-0.1-0.3-0.2-0.4c0.1,0.2,0.1,0.4,0.1,0.6C2.9,18.1,2.9,18,2.6,17.8"/>
	<path class="st6" d="M2,18.2c0.2,0,0.6,0.8,0.6,1.2c0.1-0.2,0.6-0.4,0.9-0.7c-0.2,0.4-0.1,0.6-0.4,0.9c-0.3,0.2-0.4,0.2-0.5,0.2
		c0-0.2-0.1-0.3-0.2-0.5c0.1,0.2,0.1,0.4,0.1,0.6c-0.1-0.1,0-0.2-0.3-0.4C1.8,19,2,18.8,2,18.2"/>
	<path class="st6" d="M2.6,21.1c-0.1-0.2-0.2-0.3-0.3-0.4c0.1,0.2,0.2,0.4,0.2,0.6c-0.1-0.1,0-0.2-0.4-0.4c-0.5-0.5-0.3-0.6-0.4-1.2
		c0.2,0,0.8,0.6,0.9,1c0.1-0.2,0.5-0.5,0.8-0.8c-0.1,0.4,0.1,0.6-0.2,1C2.8,21.1,2.7,21.1,2.6,21.1"/>
	<path class="st6" d="M1.7,21.4c0.2,0,0.8,0.7,0.9,1.1C2.6,22.3,3,22,3.3,21.7c-0.1,0.4,0.1,0.6-0.2,1C2.8,23,2.7,22.9,2.6,23
		c-0.1-0.2-0.2-0.3-0.3-0.4c0.1,0.2,0.2,0.4,0.2,0.6c-0.1-0.1-0.1-0.2-0.4-0.4C1.6,22.2,1.8,22,1.7,21.4"/>
	<path class="st6" d="M1.6,23.1c0.2,0,0.8,0.5,0.9,0.9c0-0.2,0.4-0.5,0.6-0.9c0,0.4,0.2,0.7-0.1,1c-0.2,0.3-0.3,0.3-0.4,0.3
		c-0.1-0.2-0.2-0.3-0.4-0.4c0.1,0.1,0.2,0.4,0.3,0.6c-0.1-0.1-0.1-0.2-0.4-0.4C1.3,23.6,2.2,24.6,1.6,23.1"/>
	<path class="st6" d="M2.7,25.7c0-0.3,0.4-0.7,0.6-1.1c-0.1,0.4,0.1,0.6-0.1,1.1c-0.2,0.4-0.3,0.3-0.4,0.4c-0.1-0.1-0.2-0.2-0.4-0.3
		c0.1,0.1,0.2,0.3,0.3,0.5c-0.1-0.1-0.1-0.2-0.4-0.3C1.8,25.7,2,25.5,1.8,25C2,24.9,2.5,25.4,2.7,25.7"/>
	<path class="st6" d="M1.9,26.3c0.2-0.1,0.9,0.4,1,0.8c0-0.3,0.3-0.7,0.5-1.1c0,0.4,0.2,0.6,0,1.1c-0.1,0.4-0.3,0.4-0.3,0.5
		c-0.1-0.1-0.2-0.2-0.4-0.3C2.9,27.2,3,27.4,3,27.6c-0.1-0.1-0.1-0.2-0.4-0.2C2,27.1,2.2,26.8,1.9,26.3"/>
	<path class="st6" d="M3.5,28.7c0-0.3,0.3-0.7,0.5-1.1C4,28,4.2,28.1,4,28.6C3.9,29,3.8,29,3.7,29.1c-0.1-0.1-0.3-0.2-0.4-0.3
		c0.1,0.1,0.3,0.3,0.4,0.5c-0.1-0.1-0.1-0.2-0.5-0.2c-0.6-0.3-0.4-0.6-0.7-1.1C2.7,27.9,3.3,28.3,3.5,28.7"/>
	<path class="st6" d="M2.8,29.3C3,29.2,3.8,29.5,4,29.8c-0.1-0.2,0.2-0.7,0.3-1.1c0.1,0.4,0.3,0.5,0.3,1c-0.1,0.4-0.2,0.4-0.3,0.5
		C4.2,30.1,4,30,3.8,30c0.2,0.1,0.3,0.2,0.4,0.4c-0.1,0-0.1-0.2-0.5-0.1C3.1,30.1,3.2,29.7,2.8,29.3"/>
	<path class="st6" d="M3.6,30.8c0.2-0.1,0.9,0.3,1.2,0.6c-0.1-0.3,0.2-0.7,0.3-1.1c0.1,0.4,0.3,0.5,0.2,1c-0.1,0.3-0.2,0.4-0.3,0.4
		c-0.1-0.1-0.3-0.2-0.5-0.2c0.2,0.1,0.3,0.2,0.4,0.4c-0.1-0.1-0.1-0.2-0.5-0.1C3.8,31.6,3.9,31.2,3.6,30.8"/>
	<path class="st6" d="M4.1,32c0.2-0.1,1,0.1,1.3,0.4c-0.1-0.2,0.1-0.7,0.1-1.1C5.7,31.7,6,31.8,6,32.2c0,0.3-0.2,0.4-0.2,0.5
		c-0.1-0.1-0.3-0.1-0.5-0.1c0.2,0.1,0.3,0.2,0.5,0.3c-0.1,0-0.2-0.1-0.5-0.1C4.6,32.7,4.6,32.4,4.1,32"/>
	<path class="st6" d="M4.9,33.3c0.2-0.1,1,0.2,1.4,0.5c-0.1-0.2,0.1-0.7,0.2-1.1c0.2,0.4,0.4,0.5,0.4,0.9c0,0.3-0.2,0.4-0.2,0.5
		C6.5,34,6.3,34,6.1,34c0.2,0.1,0.4,0.2,0.5,0.4c-0.1,0-0.2-0.1-0.5-0.1C5.3,34.1,5.4,33.7,4.9,33.3"/>
	<path class="st6" d="M8,35.5c-0.1-0.1-0.3-0.2-0.6-0.2c-0.7-0.1-0.9-0.5-1.5-0.8c0.2-0.1,1.1,0.1,1.4,0.3c-0.1-0.2,0-0.6,0-1.1
		c0.2,0.4,0.5,0.4,0.6,0.9c0.1,0.4,0,0.6,0.1,0.8c-0.1-0.1-0.3-0.2-0.4-0.3C7.7,35.2,7.9,35.3,8,35.5"/>
	<path class="st6" d="M20.2,35.4c-0.3-0.1-0.5,0.1-0.7,0.3c0.1-0.2,0.3-0.4,0.4-0.5c-0.1,0-0.3,0.1-0.4,0.2c0-0.2,0-0.3,0-0.6
		c0.1-0.4,0.4-0.5,0.6-0.9c0,0.4,0.1,0.9-0.1,1.1c0.4-0.2,1.3-0.4,1.5-0.3C20.9,35,20.9,35.4,20.2,35.4"/>
	<path class="st6" d="M21.3,34.4c-0.4,0-0.4,0.1-0.6,0.1c0.2-0.1,0.3-0.3,0.5-0.4c-0.2,0-0.4,0.1-0.5,0.2c0-0.1-0.2-0.1-0.2-0.5
		c0-0.5,0.2-0.5,0.4-0.9c0,0.4,0.2,0.9,0.1,1.1c0.3-0.3,1.2-0.6,1.4-0.5C22,34,22.1,34.3,21.3,34.4"/>
	<path class="st6" d="M22.2,33.2c-0.4-0.1-0.4,0-0.5,0.1c0.2-0.1,0.3-0.3,0.5-0.3c-0.2,0-0.4,0.1-0.5,0.2c0-0.1-0.2-0.1-0.2-0.5
		c0-0.5,0.2-0.6,0.4-0.9c0,0.4,0.2,0.9,0.1,1.1c0.3-0.3,1.2-0.5,1.3-0.4C22.8,32.7,22.9,33,22.2,33.2"/>
	<path class="st6" d="M23,32.1c-0.4,0-0.4,0.1-0.5,0.1c0.1-0.2,0.3-0.3,0.4-0.4c-0.2,0-0.3,0.1-0.5,0.2c0-0.1-0.2-0.1-0.3-0.5
		c-0.1-0.5,0.1-0.6,0.2-1c0.1,0.4,0.4,0.9,0.3,1.1c0.3-0.3,1-0.7,1.2-0.6C23.5,31.5,23.6,31.8,23,32.1"/>
	<path class="st6" d="M23.8,30.5c-0.4,0-0.4,0.1-0.5,0.1c0.1-0.2,0.3-0.3,0.4-0.4c-0.2,0-0.3,0.1-0.5,0.2c-0.1-0.1-0.2-0.1-0.3-0.5
		c-0.1-0.5,0.1-0.6,0.3-1c0.1,0.4,0.3,0.9,0.3,1.2c0.3-0.3,1-0.7,1.2-0.6C24.4,30,24.4,30.3,23.8,30.5"/>
	<path class="st6" d="M24.4,29.3c-0.4,0-0.4,0.1-0.5,0.2c0.1-0.2,0.2-0.4,0.3-0.5c-0.2,0.1-0.3,0.1-0.4,0.3
		c-0.1-0.1-0.2-0.1-0.3-0.5c-0.2-0.5,0-0.6,0.1-1.1c0.2,0.4,0.5,0.9,0.5,1.1c0.2-0.4,0.9-0.8,1.1-0.7C24.8,28.7,25,29,24.4,29.3"/>
	<path class="st6" d="M25,27.6c-0.4,0-0.4,0.1-0.5,0.2c0.1-0.2,0.2-0.4,0.3-0.5c-0.2,0.1-0.3,0.1-0.4,0.3c-0.1-0.1-0.2-0.1-0.3-0.5
		c-0.2-0.5,0-0.6,0-1.1c0.2,0.4,0.5,0.9,0.5,1.1c0.2-0.4,0.8-0.8,1-0.7C25.4,26.9,25.6,27.3,25,27.6"/>
	<path class="st0" d="M22.2,29.8c0,0-1.8,0.3-4.1-1.2c0.2-0.2,0.3-0.8,0.2-1.2c0-0.3-0.1,0-0.1,0.1c-0.2,0.5-0.4,0.6-0.6,0.8
		c-0.7-0.7-0.8-0.7-1.6-1.2c-0.6-0.3-0.7-0.5-1-0.8c-0.6,0.3-1.5,0.8-2,0.5c-0.4-0.2,0.5-0.4,0.8-0.9c0.3-0.4,0.6-0.5,1.1-0.4
		c0.9,0.2,1.4,0.5,2.7,1.1c1.7,0.1,2.9,0.6,4.6,1c0.3,0.1,0.7,0.1,0.9,0.1C22.8,28.5,22.6,28.9,22.2,29.8"/>
	<path class="st0" d="M14.9,28c0.5,0.6,0.9,0.7,1.3,1.3c-0.1,0.2-0.3,0.2-0.5,0.1c-0.7-0.8-1.4-1-1.1-1.4c-0.2,0-0.3,0.2-0.3,0.3
		c0.1,0.6,0.8,0.8,1,1.3c-0.1,0.4-0.9,0-1.3-1l0,0c-0.2,0.3-0.3,0.4,0.3,1.1c0.1,0.2,0.2,0.5-0.2,0.4c0.1,0.1-0.2,0-0.1,0H14
		c0,0,0,0-0.1,0c0.2-1-0.8-0.8-0.7-0.8c0.1-0.3-0.4-0.7-0.9-0.5c0.1-0.3-0.5-0.7-1.3-0.4c-0.1-0.3-0.8-0.6-1.5,0.3
		c-1.2,0.1-3.2,1.1-4.4,0.6c0,0.1-0.7-1.9-0.8-2c1.4-0.1,4.5-0.3,5.6-0.8c0.9-0.6,2.5-0.8,2.9-0.6c0,0.3-0.7,0.9-0.4,1.2
		c0.6,0.6,1.6,0.3,2.3-0.1c0.7,0.7,1.8,0.8,2.2,1.7L16.9,29c-0.2,0.1-0.3,0.1-0.5-0.2c-0.7-0.9-1.3-0.7-1.4-1.3
		C14.7,27.6,14.9,27.9,14.9,28"/>
	<path class="st0" d="M11.7,29.8c-0.3,0.1,0.1-0.2,0.2-0.2l0.1-0.1c0.2-0.2,0.5-0.4,0.7,0c0.1,0.2-0.7,0.7-0.8,0.7
		c-0.1,0-0.2,0-0.3-0.1C11.5,30,11.5,29.9,11.7,29.8"/>
	<path class="st0" d="M10.9,29.7c-0.1,0-0.3,0.1-0.3-0.1c-0.1-0.1,0.2-0.4,0.3-0.5C11,29,11.1,29,11.1,29l0.2-0.1
		c0.3,0,0.3,0,0.3,0.1C11.6,29.1,11.1,29.7,10.9,29.7"/>
	<path class="st0" d="M12.9,29.9c0,0,0.3-0.4,0.5,0.1c0.1,0.2-0.3,0.4-0.6,0.5C12.6,30.4,12.2,30.4,12.9,29.9"/>
	<path class="st0" d="M10.1,29.2C10,29.2,9.8,29,9.9,28.9l0.1-0.3c0.2-0.1,0.4-0.2,0.4-0.1C10.5,28.7,10.2,29.1,10.1,29.2"/>
	<path class="st5" d="M13.8,9C8.3,9,3.8,14.8,3.6,22h20.3C23.7,14.8,19.2,9,13.8,9"/>
	<path class="st1" d="M14.3,25l0-5.7c0,0,2,0,2.4,0c0,0,0.7-0.3,0.8-0.9c0.1-0.4-0.3-1.7-0.3-1.9c0,0-0.3-0.3-0.4-0.5
		c0,0-0.2-2.2-0.6-2.8c-0.4-0.6-1.1-1.3-2.6-1.3c-1.5,0-2.2,1-2.3,1.6c-0.1,0.8,0.8,0.8,0.8,0.8s-0.4,0.3-0.5,0.5
		c-0.1,0.2-0.5,0.5-0.9,1.3c-0.4,0.7-0.6,1.9-0.5,2.3c0.2,0.4,0.9,0.9,1.6,1c0.8,0.1,1.3,0,1.3,0v5.7L14.3,25z"/>
	<path class="st7" d="M12.2,17.1c-0.6,0-0.8,0.3-1.3,0.3c0,0,0.1-1.1,1.2-2.3c0.4-0.5,1.4-1,2-1.3l0-0.1c-0.5,0.1-1.7,0.3-2-0.2
		c-0.1-0.5,0.7-1.1,1.7-1.2c0.6,0,1.1,0.2,1.6,0.5c0.6,0.4,0.8,1,0.9,1.6c-0.7,0.3-0.9,0.4-0.9,0.5c0.1,0,0.3,0,0.5,0.1
		c0.3,0,0.4,0,0.5-0.1v0.4c0.1,0,0.1,0.1,0.1,0.2c-1.2,0.5-1.8,0.8-1.9,0.7c0,0,0.2,0.1,0.5,0.1c0.4,0,1-0.2,1.4-0.3
		c0,0.2,0,0.4,0.4,0.6l0,0l0,0c-1.2,0.7-1.7,0.6-1.8,0.5l-0.9-0.2c0.3,0.1,0.7,0.5,1.2,0.6c0.4,0.1,1.2-0.3,1.7-0.4l0.2,0.6
		c-0.7,0-1.5,1.1-2.7,0.7C13.7,17.8,13,17.1,12.2,17.1"/>
	<path class="st7" d="M13.2,18.6c-0.6,0-1.4,0-1.5,0c-0.3-0.1-1-0.5-0.9-0.6c0,0,0.3,0,0.9-0.3C12.5,17.5,13.2,18.4,13.2,18.6"/>
	<path class="st7" d="M17,18.1c0,0.2-0.2,0.5-0.4,0.6c-0.2,0-0.9,0-1.3,0c0.3,0,0.5-0.1,0.7-0.2C17.2,17.9,17,18.1,17,18.1"/>
	<path class="st4" d="M13.2,39.3c0.1-0.2,0-0.4,0-0.4s-0.4,0.6-0.9,0.9c-0.5,0.3-1.3,0.5-1.5,0.5c0.1,0.1,0.2,0.2,0.4,0.3
		c0.1,0,0.8-0.1,1.4-0.5C12.9,39.9,13.2,39.3,13.2,39.3"/>
	<path class="st5" d="M14.4,39.3c-0.1-0.2,0-0.4,0-0.4s0.4,0.6,0.9,0.9c0.5,0.3,1.3,0.5,1.5,0.5c0.2-0.2,0.4-0.4,0.4-0.4
		s-0.8-0.1-1.5-0.3c-0.7-0.2-1.1-0.7-1.1-0.8c-0.1-0.1,0.1-0.5,0.2-0.6c0.1-0.1,1.3-0.2,1.3-1.2c-0.1-1.2-2.1-0.9-2.3-0.8
		c-0.3-0.1-2.3-0.4-2.3,0.8c0,1,1.2,1.1,1.3,1.2c0.1,0.1,0.2,0.4,0.2,0.6c-0.1,0.1-0.4,0.6-1.1,0.8c-0.7,0.2-1.5,0.3-1.5,0.3
		s0.2,0.2,0.4,0.4c0.1,0,1-0.2,1.5-0.5c0.5-0.3,0.9-0.9,0.9-0.9s0.1,0.3,0,0.4c0,0-0.3,0.6-0.7,0.8c-0.6,0.4-1.2,0.5-1.4,0.5
		c0.2,0.1,0.4,0.2,0.6,0.2c1.3,0,1.8-1.5,1.8-1.5s0.2,0.1,0.4,0.1h0h0c0.2,0,0.4-0.1,0.4-0.1s0.5,1.4,1.8,1.5c0.2,0,0.4-0.1,0.6-0.2
		c-0.2,0-0.8-0.1-1.4-0.5C14.7,39.9,14.4,39.3,14.4,39.3"/>
	<path class="st4" d="M16.9,40.2c-0.2,0-1-0.2-1.5-0.5c-0.5-0.3-1-0.9-1-0.9s-0.1,0.3,0,0.4c0,0,0.3,0.6,0.7,0.8
		c0.6,0.4,1.2,0.5,1.4,0.5h0C16.6,40.5,16.8,40.4,16.9,40.2"/>
	<path class="st4" d="M12.8,36.4c0,0-0.3,0.3-0.4,0.5c0,0.3,0.1,0.6,0.1,0.6s-0.7-0.2-0.6-0.7C12,36.3,12.8,36.4,12.8,36.4"/>
	<path class="st4" d="M14.8,36.4c0,0,0.3,0.3,0.3,0.5c0,0.3-0.1,0.6-0.1,0.6s0.7-0.2,0.6-0.7C15.6,36.3,14.8,36.4,14.8,36.4"/>
	<path class="st4" d="M13.8,36.7h-0.1c-1.1,0-0.5,1-0.5,1s0.2-0.1,0.5-0.1h0.1c0.3,0,0.5,0.1,0.5,0.1S15,36.7,13.8,36.7"/>
	<path class="st4" d="M13.9,38.1L13.9,38.1L13.9,38.1h-0.1c-0.3,0-0.3,0.2-0.3,0.3c0,0.2,0.1,0.8,0.3,0.8h0h0c0.3,0,0.3-0.6,0.3-0.8
		C14.1,38.2,14.2,38.1,13.9,38.1"/>
	<path class="st4" d="M40.6,33.4h-2.1v3.5h-1.9V26.1h4.2c2.5,0,4.1,1.4,4.1,3.6C44.9,32.1,42.9,33.4,40.6,33.4 M40.6,27.8h-2.2v3.9
		h2.2c1.4,0,2.3-0.8,2.3-1.9C43,28.5,42.1,27.8,40.6,27.8"/>
	<path class="st4" d="M48.5,36.9h-1.9v-8.1h1.9v1.8c0.5-1.2,1.4-2,2.9-2v2h-0.1c-1.6,0-2.8,1.1-2.8,3.2V36.9z"/>
	<path class="st4" d="M56.7,35.5c0.9,0,1.6-0.3,2.2-1l1.1,1c-0.8,0.9-1.8,1.5-3.3,1.5c-2.4,0-4.2-1.7-4.2-4.2c0-2.3,1.6-4.2,4-4.2
		c2.6,0,3.9,2,3.9,4.4c0,0.2,0,0.3,0,0.5h-6C54.6,34.8,55.5,35.5,56.7,35.5 M58.5,32.2c-0.1-1.2-0.8-2.1-2.1-2.1
		c-1.1,0-1.9,0.9-2.1,2.1H58.5z"/>
	<path class="st4" d="M65,37c-1.2,0-2.4-0.4-3.4-1.2l0.8-1.3c0.9,0.7,1.8,1,2.7,1c0.8,0,1.3-0.3,1.3-0.9v0c0-0.6-0.9-0.8-1.8-1.1
		c-1.2-0.3-2.5-0.8-2.5-2.4v0c0-1.5,1.3-2.5,2.9-2.5c1,0,2.1,0.4,3,0.9l-0.7,1.3c-0.8-0.5-1.6-0.8-2.3-0.8c-0.7,0-1.1,0.3-1.1,0.8v0
		c0,0.6,0.9,0.8,1.8,1.1c1.2,0.4,2.5,0.9,2.5,2.4v0C68,36.2,66.7,37,65,37"/>
	<path class="st4" d="M69.9,25.7h2v1.8h-2V25.7z M70,28.7h1.9v8.1H70V28.7z"/>
	<path class="st4" d="M80.4,36.9v-1.4C79.8,36.3,79,37,77.6,37c-1.9,0-3.8-1.5-3.8-4.2c0-2.7,1.8-4.2,3.8-4.2c1.3,0,2.2,0.7,2.8,1.4
		v-4.4h1.9v11.2H80.4z M78.1,30.2c-1.3,0-2.3,1-2.3,2.6c0,1.6,1.1,2.6,2.3,2.6c1.2,0,2.3-1,2.3-2.6C80.4,31.2,79.3,30.2,78.1,30.2"
		/>
	<path class="st4" d="M88.3,35.5c0.9,0,1.6-0.3,2.2-1l1.1,1c-0.8,0.9-1.8,1.5-3.3,1.5c-2.4,0-4.2-1.7-4.2-4.2c0-2.3,1.6-4.2,4-4.2
		c2.6,0,3.9,2,3.9,4.4c0,0.2,0,0.3,0,0.5h-6C86.2,34.8,87.1,35.5,88.3,35.5 M90.1,32.2c-0.1-1.2-0.8-2.1-2.1-2.1
		c-1.1,0-1.9,0.9-2.1,2.1H90.1z"/>
	<path class="st4" d="M95.7,36.9h-1.9v-8.1h1.9V30c0.5-0.8,1.3-1.4,2.5-1.4c1.8,0,2.9,1.2,2.9,3.1v5.2h-1.9v-4.6c0-1.3-0.6-2-1.7-2
		c-1.1,0-1.8,0.8-1.8,2V36.9z"/>
	<path class="st4" d="M107.1,37c-2.4,0-4.2-1.9-4.2-4.2s1.8-4.3,4.2-4.3c1.5,0,2.5,0.6,3.2,1.4l-1.2,1.2c-0.6-0.6-1.2-1-2.1-1
		c-1.4,0-2.3,1.2-2.3,2.6c0,1.5,1,2.6,2.4,2.6c0.9,0,1.5-0.4,2.1-1l1.1,1.1C109.6,36.4,108.7,37,107.1,37"/>
	<path class="st4" d="M112.2,25.7h2v1.8h-2V25.7z M112.3,28.7h1.9v8.1h-1.9V28.7z"/>
	<path class="st4" d="M121.5,36.9v-1c-0.6,0.7-1.4,1.2-2.6,1.2c-1.5,0-2.9-0.9-2.9-2.5v0c0-1.8,1.4-2.6,3.3-2.6c1,0,1.6,0.1,2.2,0.3
		V32c0-1.1-0.7-1.7-2-1.7c-0.9,0-1.6,0.2-2.3,0.5l-0.5-1.5c0.9-0.4,1.8-0.7,3.1-0.7c2.4,0,3.6,1.3,3.6,3.4v4.8H121.5z M121.5,33.4
		c-0.5-0.2-1.1-0.3-1.9-0.3c-1.2,0-1.9,0.5-1.9,1.3v0c0,0.8,0.7,1.2,1.6,1.2c1.2,0,2.2-0.7,2.2-1.7V33.4z"/>
	<path class="st4" d="M136.3,36.9v-1.4c-0.6,0.8-1.4,1.5-2.8,1.5c-1.9,0-3.8-1.5-3.8-4.2c0-2.7,1.8-4.2,3.8-4.2
		c1.3,0,2.2,0.7,2.8,1.4v-4.4h1.9v11.2H136.3z M134,30.2c-1.3,0-2.3,1-2.3,2.6c0,1.6,1.1,2.6,2.3,2.6c1.2,0,2.3-1,2.3-2.6
		C136.3,31.2,135.2,30.2,134,30.2"/>
	<path class="st4" d="M144.2,35.5c0.9,0,1.6-0.3,2.2-1l1.1,1c-0.8,0.9-1.8,1.5-3.3,1.5c-2.3,0-4.2-1.7-4.2-4.2c0-2.3,1.6-4.2,4-4.2
		c2.6,0,3.9,2,3.9,4.4c0,0.2,0,0.3,0,0.5h-6C142.1,34.8,143,35.5,144.2,35.5 M146,32.2c-0.1-1.2-0.8-2.1-2.1-2.1
		c-1.1,0-1.9,0.9-2.1,2.1H146z"/>
	<rect x="154.4" y="25.6" class="st4" width="1.9" height="11.2"/>
	<path class="st4" d="M163.7,36.9v-1c-0.6,0.7-1.4,1.2-2.6,1.2c-1.5,0-2.9-0.9-2.9-2.5v0c0-1.8,1.4-2.6,3.3-2.6c1,0,1.6,0.1,2.2,0.3
		V32c0-1.1-0.7-1.7-2-1.7c-0.9,0-1.6,0.2-2.3,0.5l-0.5-1.5c0.9-0.4,1.8-0.7,3.1-0.7c2.4,0,3.6,1.3,3.6,3.4v4.8H163.7z M163.7,33.4
		c-0.5-0.2-1.1-0.3-1.9-0.3c-1.2,0-1.9,0.5-1.9,1.3v0c0,0.8,0.7,1.2,1.6,1.2c1.2,0,2.2-0.7,2.2-1.7V33.4z"/>
	<polygon class="st4" points="180.1,26.1 181.9,26.1 181.9,36.9 180.4,36.9 174.4,29.2 174.4,36.9 172.6,36.9 172.6,26.1 
		174.3,26.1 180.1,33.5 	"/>
	<path class="st4" d="M189.4,36.9v-1c-0.6,0.7-1.4,1.2-2.6,1.2c-1.5,0-2.9-0.9-2.9-2.5v0c0-1.8,1.4-2.6,3.3-2.6c1,0,1.6,0.1,2.2,0.3
		V32c0-1.1-0.7-1.7-2-1.7c-0.9,0-1.6,0.2-2.3,0.5l-0.5-1.5c0.9-0.4,1.8-0.7,3.1-0.7c2.4,0,3.6,1.3,3.6,3.4v4.8H189.4z M189.5,33.4
		c-0.5-0.2-1.1-0.3-1.9-0.3c-1.2,0-1.9,0.5-1.9,1.3v0c0,0.8,0.7,1.2,1.6,1.2c1.2,0,2.2-0.7,2.2-1.7V33.4z"/>
	<path class="st4" d="M197.2,37c-2.4,0-4.2-1.9-4.2-4.2s1.8-4.3,4.2-4.3c1.5,0,2.5,0.6,3.2,1.4l-1.2,1.2c-0.6-0.6-1.2-1-2.1-1
		c-1.4,0-2.3,1.2-2.3,2.6c0,1.5,1,2.6,2.4,2.6c0.9,0,1.5-0.4,2.1-1l1.1,1.1C199.8,36.4,198.8,37,197.2,37"/>
	<path class="st4" d="M202.3,25.7h2v1.8h-2V25.7z M202.4,28.7h1.9v8.1h-1.9V28.7z"/>
	<path class="st4" d="M210.5,37c-2.5,0-4.3-1.9-4.3-4.2c0-2.3,1.8-4.3,4.3-4.3s4.3,1.9,4.3,4.2C214.9,35.1,213,37,210.5,37
		 M210.5,30.2c-1.5,0-2.4,1.2-2.4,2.6c0,1.4,1,2.6,2.5,2.6c1.5,0,2.5-1.2,2.5-2.6C213,31.4,212,30.2,210.5,30.2 M209.8,27.7l1.6-2.5
		l1.7,0.8l-1.9,1.8H209.8z"/>
	<path class="st4" d="M218.6,36.9h-1.9v-8.1h1.9V30c0.5-0.8,1.3-1.4,2.5-1.4c1.8,0,2.9,1.2,2.9,3.1v5.2h-1.9v-4.6c0-1.3-0.6-2-1.7-2
		c-1.1,0-1.8,0.8-1.8,2V36.9z"/>
</g>
<g>
</g>
<g>
</g>
<g>
</g>
<g>
</g>
<g>
</g>
<g>
</g>
<g>
</g>
<g>
</g>
<g>
</g>
<g>
</g>
<g>
</g>
<g>
</g>
<g>
</g>
<g>
</g>
<g>
</g>
</svg>
