<?xml version="1.0" encoding="utf-8"?>
<!-- Generator: Adobe Illustrator 19.0.0, SVG Export Plug-In . SVG Version: 6.00 Build 0)  -->
<svg version="1.1" id="Capa_1" xmlns="http://www.w3.org/2000/svg" xmlns:xlink="http://www.w3.org/1999/xlink" x="0px" y="0px"
	 viewBox="-193 372 225 50" style="enable-background:new -193 372 225 50;" xml:space="preserve">
<style type="text/css">
	.st0{fill:#0090D1;}
	.st1{fill:#FFFFFF;}
	.st2{fill:#1D1D1B;}
	.st3{fill:#FCC200;}
	.st4{fill:#289B38;}
	.st5{fill:#E53212;}
	.st6{fill:#F9C081;}
</style>
<g>
	<g>
		<g>
			<g>
				<path class="st0" d="M-76.6,396.3h-2.5c-0.6,0-0.9-0.2-1-0.4c-0.1-0.2-0.2-0.4-0.3-0.6c0,0,0,0,0-0.1c0-0.2,0-0.5,0-0.8
					c0.3-1.7,1-2.8,1.5-3.5c-0.1,0-0.1,0-0.2-0.1c-0.3-0.2-0.5-0.6-0.4-1c0.1-0.5,0.6-1.1,0.7-1.2c0.9-1,2.2-1.1,2.3-1.1
					c0.2,0,1.9-0.1,2.8,1.7c1.1,2.1,1.4,3.9,1.6,5.3l0,0.1c0,0.2,0,0.5,0,0.6c0,0,0,0,0,0.1c-0.1,0.2-0.2,0.3-0.3,0.4
					c-0.2,0.2-0.6,0.4-1,0.5c-0.2,0-0.3,0-0.4,0c0,0-0.1,0-0.1,0h-0.7c0,0,0,0,0,0c0,0,0,0,0,0h-1.2v3.6h11.3c0-2.1-0.3-4.1-0.9-6
					c-0.6-1.8-1.4-3.5-2.5-4.9c-1.1-1.4-2.3-2.5-3.7-3.3c-1.4-0.8-3-1.2-4.5-1.2c-1.6,0-3.1,0.4-4.5,1.2c-1.4,0.8-2.6,1.9-3.7,3.3
					c-1.1,1.4-1.9,3.1-2.5,4.9c-0.6,1.9-0.9,3.9-0.9,6h11.3V396.3z"/>
			</g>
			<g>
				<path class="st1" d="M-87.9,399.9c0,1.6,0.2,3.1,0.5,4.6c5-0.6,8.1-1.2,9-1.8c0.6-0.4,1.1-0.7,1.8-0.7v-2.2H-87.9z"/>
				<path class="st1" d="M-75.8,402.2c0.5,0.1,0.8,0.2,1.2,0.4c0,0,0.1,0,0.1,0c0.6,0,1.2,0.2,2,0.4c0.2,0.1,0.4,0.2,0.7,0.2
					c0.1,0,3.7,1.2,6.8,1.3c0.4-1.5,0.5-3.1,0.5-4.7h-11.3V402.2z"/>
			</g>
			<polygon class="st2" points="-77,382.5 -77,382.5 -77,382.5 			"/>
			<polygon class="st2" points="-79.3,382.8 -79.3,382.8 -79.3,382.8 			"/>
			<polygon class="st2" points="-79.3,382.8 -79.3,382.8 -79.3,382.8 			"/>
			<path class="st1" d="M-71.2,407.1c0,0.1-0.1,0.2-0.2,0.3c-0.2,0.2-0.4,0.3-0.8,0.3c0,0.1-0.1,0.2-0.2,0.3c-0.2,0.2-0.5,0.4-1,0.4
				c0,0.1-0.1,0.2-0.2,0.3c-0.3,0.3-0.6,0.4-1,0.3c-0.1,0.1-0.2,0.2-0.4,0.2c-0.2,0.1-0.5,0.1-0.9,0.1v3c0,0.2-0.2,0.4-0.4,0.4
				c-0.2,0-0.4-0.2-0.4-0.4v-2.9c-0.1,0.1-0.3,0.1-0.5,0.1c-0.1,0-0.1,0-0.2,0c-0.2,0-0.4-0.2-0.5-0.3c-0.3,0-0.7,0.1-1-0.1
				c-0.1-0.1-0.2-0.2-0.3-0.4c-0.1,0-0.2,0-0.4-0.1c-0.3-0.1-0.6-0.3-0.7-0.6c-0.1,0-0.2,0-0.3,0c-0.3,0-0.6-0.2-0.8-0.5
				c0-0.1,0-0.1-0.1-0.2c-1.6,0.8-3.4,1.7-4.3,2c0.3,0.5,0.7,1.1,1,1.6c1.1,1.4,2.3,2.5,3.7,3.3c0.6,0.4,1.3,0.6,2,0.8
				c0.1-0.1,0.2-0.2,0.3-0.3c0.6-0.4,1.9-0.1,2.2,0c0.3-0.1,1.6-0.4,2.2,0c0.1,0.1,0.2,0.2,0.3,0.3c0.7-0.2,1.3-0.5,2-0.8
				c1.4-0.8,2.6-1.9,3.7-3.3c0.4-0.5,0.7-1,1-1.5C-67.9,409-69.9,408.1-71.2,407.1z"/>
			<g>
				<path class="st0" d="M-75.2,417.4c0-0.1,0-0.2,0-0.3c0-0.1,0-0.2,0-0.2c0.4-0.1,1-0.3,1.3-0.7c0.2-0.2,0.3-0.5,0.2-0.9
					c0-0.3-0.2-0.5-0.4-0.7c-0.6-0.4-1.9-0.1-2.2,0c-0.3-0.1-1.6-0.4-2.2,0c-0.2,0.1-0.4,0.4-0.4,0.7c0,0.3,0,0.6,0.2,0.9
					c0.3,0.4,1,0.6,1.3,0.7c0,0.1,0,0.2,0,0.2c0,0.1,0,0.2,0,0.3c-0.3,0.3-1.2,1.1-2.5,1.2v0c0,0.1,0.2,0.2,0.4,0.5
					c1.1-0.2,2-0.8,2.3-1.2c0,0,0.1,0.1,0.1,0.1c-0.1,0.3-0.4,1.1-1.8,1.5c0.2,0.1,0.5,0.2,0.8,0.2c1-0.4,1.3-1.1,1.4-1.5
					c0.1,0,0.1,0,0.2,0c0.1,0,0.1,0,0.2,0c0.1,0.4,0.5,1.1,1.4,1.5c0.3,0,0.6-0.1,0.8-0.2c-1.4-0.4-1.7-1.2-1.8-1.5
					c0,0,0.1-0.1,0.1-0.1c0.4,0.3,1.2,1,2.3,1.2c0.2-0.2,0.3-0.4,0.4-0.5C-74,418.4-74.9,417.6-75.2,417.4z"/>
				<g>
					<g>
						<path class="st1" d="M-74.3,415.1c0.1,0.1,0.2,0.2,0.2,0.3c0,0.2,0,0.3-0.1,0.5c-0.1,0.2-0.4,0.3-0.6,0.4
							c0.1-0.3,0.1-0.5,0-0.7c-0.1-0.2-0.2-0.4-0.4-0.5C-74.9,414.9-74.5,415-74.3,415.1z"/>
						<path class="st1" d="M-77.1,415.7c0.2-0.5,0.9-0.5,0.9-0.5h0c0,0,0.2,0,0.4,0.1c0.3,0.1,0.4,0.2,0.5,0.4
							c0.1,0.2-0.1,0.5-0.2,0.6c-0.2-0.2-0.4-0.3-0.7-0.3c-0.3,0-0.5,0.1-0.7,0.3C-77.1,416.2-77.2,415.9-77.1,415.7z"/>
						<path class="st1" d="M-77.6,416.3c-0.2-0.1-0.5-0.2-0.6-0.4c-0.1-0.1-0.2-0.3-0.1-0.5c0-0.1,0.1-0.2,0.2-0.3
							c0.1-0.1,0.4-0.1,0.6-0.1c0.1,0,0.2,0,0.3,0c-0.2,0.1-0.3,0.3-0.4,0.5C-77.7,415.8-77.7,416-77.6,416.3z"/>
						<circle class="st1" cx="-76.2" cy="417.1" r="0.6"/>
					</g>
					<path class="st1" d="M-73.1,419c-1.1-0.2-2-0.8-2.3-1.2c0,0-0.1,0.1-0.1,0.1c0.1,0.3,0.4,1.1,1.8,1.5
						C-73.5,419.3-73.3,419.1-73.1,419z"/>
					<path class="st1" d="M-77,417.8c-0.4,0.3-1.2,1-2.3,1.2c0.2,0.1,0.4,0.3,0.6,0.4c1.4-0.4,1.7-1.2,1.8-1.5
						C-76.9,417.9-77,417.8-77,417.8z"/>
				</g>
			</g>
			<path class="st2" d="M-62.1,402.9c0-0.1,0-0.2-0.1-0.2c0,0-0.1-0.1-0.2-0.1c0-0.1,0.1-0.2,0.1-0.3c0.2-0.5,0.3-1,0.3-1.6
				c0-0.1,0-0.2-0.1-0.2c0,0-0.1,0-0.2,0c0-0.1,0.1-0.2,0.1-0.3c0.1-0.5,0.2-1.1,0.1-1.7c0-0.1-0.1-0.2-0.1-0.2c-0.1,0-0.1,0-0.2,0
				c0-0.1,0.1-0.2,0.1-0.4c0.1-0.5,0.1-1.1-0.1-1.7c0-0.1-0.1-0.1-0.1-0.2c0,0-0.1,0-0.1,0c0-0.1,0-0.2,0-0.3c0.1-0.5,0-1.1-0.1-1.7
				c0-0.1-0.1-0.1-0.2-0.2c-0.1,0-0.2,0-0.2,0l0,0c0-0.1,0-0.3,0-0.4c0-0.5-0.1-1.1-0.4-1.6c0-0.1-0.1-0.1-0.2-0.1
				c-0.1,0-0.1,0-0.2,0c0-0.1,0-0.2,0-0.4c-0.1-0.5-0.2-1-0.5-1.6c0-0.1-0.1-0.1-0.2-0.1c-0.1,0-0.1,0-0.2,0.1c0-0.1,0-0.2-0.1-0.3
				c-0.1-0.5-0.4-1-0.7-1.5c0-0.1-0.1-0.1-0.2-0.1c-0.1,0-0.2,0-0.2,0.1c0-0.1-0.1-0.3-0.1-0.4c-0.2-0.5-0.5-0.9-0.9-1.4
				c-0.1-0.1-0.1-0.1-0.2-0.1c-0.1,0-0.1,0-0.1,0.1c-0.1-0.1-0.1-0.3-0.2-0.4c-0.3-0.4-0.7-0.8-1.1-1.2c-0.1-0.1-0.1-0.1-0.2,0
				c-0.1,0-0.1,0.1-0.1,0.1c-0.3-0.4-0.8-0.7-1.3-0.9c0.1,0,0.2,0,0.3,0c0.7,0,1.1-0.1,1.2-0.1c0.1,0,0.2-0.2,0.2-0.3
				c0-0.1-0.1-0.3-0.3-0.3c-0.7,0-1-0.2-1.4-0.4c-0.1,0-0.1-0.1-0.2-0.1l1.7-0.3c0.2,0,0.3-0.2,0.3-0.3c0-0.2-0.1-0.3-0.3-0.3
				l-1.7-0.2c0.2-0.1,0.4-0.1,0.7-0.2c0.6-0.2,1-0.5,1-0.5c0.1-0.1,0.1-0.3,0.1-0.4c-0.1-0.1-0.2-0.2-0.4-0.1
				c-0.7,0.2-1,0.2-1.4,0.2c-0.1,0-0.2,0-0.2,0l1.5-0.9c0.1-0.1,0.2-0.2,0.1-0.4c-0.1-0.1-0.2-0.2-0.4-0.2l-1.7,0.4
				c0.2-0.1,0.4-0.3,0.5-0.4c0.5-0.4,0.7-0.9,0.7-0.9c0.1-0.1,0-0.3-0.1-0.4c-0.1-0.1-0.3-0.1-0.4,0c-0.5,0.5-0.8,0.6-1.2,0.7
				c-0.1,0-0.1,0-0.2,0.1l1-1.4c0.1-0.1,0.1-0.3,0-0.4c-0.1-0.1-0.3-0.1-0.4,0l-1.4,1c0.1-0.2,0.2-0.4,0.3-0.6
				c0.3-0.6,0.3-1.1,0.3-1.1c0-0.1-0.1-0.3-0.2-0.3c-0.1,0-0.3,0-0.4,0.2c-0.3,0.7-0.6,0.9-0.9,1.1c-0.1,0-0.1,0.1-0.2,0.1l0.4-1.7
				c0-0.1,0-0.3-0.2-0.4c-0.1-0.1-0.3,0-0.4,0.1l-0.9,1.5c0-0.2,0.1-0.4,0.1-0.7c0-0.7-0.1-1.1-0.1-1.2c0-0.1-0.2-0.2-0.3-0.2
				c-0.1,0-0.3,0.1-0.3,0.3c0,0.7-0.2,1-0.4,1.4c0,0.1-0.1,0.1-0.1,0.2l-0.2-1.7c0-0.2-0.2-0.3-0.3-0.3h0c-0.2,0-0.3,0.1-0.3,0.3
				l-0.2,1.7c-0.1-0.2-0.1-0.4-0.2-0.7c-0.2-0.6-0.5-1-0.5-1c-0.1-0.1-0.3-0.1-0.4-0.1c-0.1,0.1-0.2,0.2-0.1,0.4
				c0.2,0.7,0.2,1,0.2,1.4c0,0.1,0,0.2,0,0.2l-0.9-1.5c-0.1-0.1-0.2-0.2-0.4-0.1c-0.1,0.1-0.2,0.2-0.2,0.4l0.4,1.7
				c-0.1-0.2-0.3-0.3-0.4-0.5c-0.4-0.5-0.9-0.7-0.9-0.7c-0.1-0.1-0.3,0-0.4,0.1c-0.1,0.1-0.1,0.3,0,0.4c0.5,0.5,0.6,0.8,0.7,1.2
				c0,0.1,0,0.1,0.1,0.2l-1.4-1c-0.1-0.1-0.3-0.1-0.4,0c-0.1,0.1-0.1,0.3,0,0.4l1,1.4c-0.2-0.1-0.4-0.2-0.6-0.3
				c-0.6-0.3-1.1-0.3-1.1-0.3c-0.1,0-0.3,0.1-0.3,0.2c0,0.1,0,0.3,0.2,0.4c0.7,0.3,0.9,0.6,1.1,0.9c0,0.1,0.1,0.1,0.1,0.2l-1.7-0.4
				c-0.1,0-0.3,0-0.4,0.2c-0.1,0.1,0,0.3,0.1,0.4l1.5,0.9c-0.2,0-0.4-0.1-0.7-0.1c-0.7,0-1.1,0.1-1.2,0.1c-0.1,0-0.2,0.2-0.2,0.3
				c0,0.1,0.1,0.3,0.3,0.3c0.7,0,1,0.2,1.4,0.4c0.1,0,0.1,0.1,0.2,0.1l-1.7,0.3c-0.2,0-0.3,0.2-0.3,0.3c0,0.2,0.1,0.3,0.3,0.3
				l1.7,0.3c-0.2,0.1-0.4,0.1-0.7,0.2c-0.6,0.2-1,0.5-1,0.5c-0.1,0.1-0.1,0.3-0.1,0.4c0.1,0.1,0.2,0.2,0.4,0.1
				c0.4-0.1,0.7-0.2,0.9-0.2c-0.4,0.3-0.6,0.6-0.8,0.7c-0.1,0.1-0.1,0.2-0.2,0.3c0,0-0.1-0.1-0.1-0.1c-0.1,0-0.2,0-0.2,0
				c-0.5,0.4-0.9,0.8-1.2,1.2c-0.1,0.1-0.2,0.3-0.2,0.4c0-0.1-0.1-0.1-0.2-0.1c-0.1,0-0.2,0-0.2,0.1c-0.4,0.4-0.7,0.9-0.9,1.4
				c-0.1,0.1-0.1,0.3-0.1,0.4c0,0-0.1-0.1-0.2-0.1c-0.1,0-0.2,0-0.2,0.1c-0.4,0.5-0.6,1-0.8,1.5c0,0.1-0.1,0.3-0.1,0.4
				c-0.1-0.1-0.1-0.1-0.2-0.1c-0.1,0-0.2,0.1-0.2,0.1c-0.3,0.5-0.5,1.1-0.5,1.6c0,0.1,0,0.3,0,0.4c-0.1,0-0.1-0.1-0.2,0
				c-0.1,0-0.1,0.1-0.2,0.2c-0.2,0.6-0.3,1.1-0.3,1.6c0,0.1,0,0.2,0,0.4c-0.1,0-0.1,0-0.2,0c-0.1,0-0.1,0.1-0.2,0.2
				c-0.1,0.6-0.2,1.2-0.1,1.7c0,0.1,0,0.2,0,0.3c0,0-0.1,0-0.1,0c-0.1,0-0.1,0.1-0.1,0.2c-0.1,0.6-0.1,1.2-0.1,1.7
				c0,0.1,0,0.3,0.1,0.4c0,0-0.1,0-0.1,0c-0.1,0-0.1,0.1-0.1,0.2c-0.1,0.6-0.1,1.2,0.1,1.7c0,0.1,0.1,0.2,0.1,0.3
				c-0.1,0-0.1,0-0.2,0c-0.1,0-0.1,0.1-0.1,0.2c0,0.6,0.1,1.2,0.2,1.6c0,0.1,0.1,0.3,0.2,0.4c0,0,0,0,0,0c-0.1,0-0.2,0-0.2,0.1
				c-0.1,0.1-0.1,0.1-0.1,0.2c0.1,0.6,0.3,1.1,0.5,1.6c0,0.1,0.1,0.2,0.2,0.3c0,0-0.1,0-0.1,0.1c-0.1,0.1-0.1,0.1-0.1,0.2
				c0.1,0.6,0.4,1.1,0.6,1.5c0.1,0.1,0.1,0.2,0.2,0.3c-0.1,0-0.1,0-0.2,0.1c0,0.1-0.1,0.2,0,0.2c0.2,0.6,0.5,1.1,0.8,1.5
				c0.1,0.1,0.1,0.2,0.2,0.2c-0.1,0-0.1,0.1-0.1,0.1c0,0.1,0,0.2,0,0.2c0.3,0.5,0.6,1,1,1.4c0.1,0.1,0.2,0.1,0.2,0.2
				c-0.1,0-0.1,0.1-0.1,0.1c0,0.1,0,0.2,0,0.2c0.3,0.5,0.7,0.9,1.1,1.3c0.1,0.1,0.2,0.2,0.4,0.3c0,0,0,0-0.1,0
				c-0.1,0-0.1,0.1-0.2,0.2c0,0.1,0,0.2,0.1,0.2c0.4,0.4,0.9,0.8,1.3,1c0.4,0.2,0.7,0.3,1.1,0.4c0.3,0.1,0.6,0.1,0.9,0c0,0,0,0,0,0
				c0.8,0.5,1.6,1,2.4,1.3c0.7,0.3,1.4,0.5,2.1,0.7c0.1,0,0.3,0.1,0.4,0.1c-0.3-0.1-0.6-0.3-0.8-0.5c0,0-0.1-0.1-0.1-0.1
				c-0.5-0.1-1-0.3-1.4-0.5c-0.8-0.3-1.5-0.8-2.3-1.3c0,0,0,0,0,0c0-0.2,0-0.5-0.1-0.7c0.5,0.4,1,0.8,1.5,1c0.7,0.4,1.4,0.7,2.1,0.9
				c0,0,0-0.1,0-0.1c0-0.1,0-0.2,0.1-0.3c-0.7-0.2-1.3-0.5-2-0.8c-1.4-0.8-2.6-1.9-3.7-3.3c-0.4-0.5-0.7-1-1-1.6
				c0.8-0.4,2.7-1.2,4.3-2c0,0.1,0,0.1,0.1,0.2c0.1,0.3,0.5,0.4,0.8,0.5c0.1,0,0.2,0,0.3,0c0.1,0.3,0.3,0.5,0.7,0.6
				c0.1,0,0.3,0.1,0.4,0.1c0.1,0.1,0.2,0.3,0.3,0.4c0.3,0.2,0.8,0.2,1,0.1c0.1,0.2,0.3,0.3,0.5,0.3c0.1,0,0.1,0,0.2,0
				c0.2,0,0.3,0,0.5-0.1v2.9c0,0.2,0.2,0.4,0.4,0.4c0.2,0,0.4-0.2,0.4-0.4v-3c0.4,0.1,0.7,0,0.9-0.1c0.2-0.1,0.3-0.2,0.4-0.2
				c0.4,0.1,0.7,0,1-0.3c0.1-0.1,0.2-0.2,0.2-0.3c0.5,0,0.8-0.2,1-0.4c0.1-0.1,0.1-0.2,0.2-0.3c0.3,0,0.6-0.1,0.8-0.3
				c0.1-0.1,0.2-0.2,0.2-0.3c1.3,1,3.3,1.9,4.2,2.3c-0.3,0.5-0.6,1-1,1.5c-1.1,1.4-2.3,2.5-3.7,3.3c-0.6,0.4-1.3,0.6-2,0.8
				c0.1,0.1,0.1,0.2,0.1,0.3c0,0,0,0.1,0,0.1c0.7-0.2,1.4-0.5,2.1-0.9c0.5-0.3,1-0.7,1.5-1.1c-0.1,0.2-0.1,0.5-0.1,0.7c0,0,0,0,0,0
				c-0.2,0.2-0.8,0.6-1.7,1c-0.6,0.3-1.3,0.6-2,0.7c0,0-0.1,0-0.1,0c0,0-0.1,0.1-0.1,0.1c-0.2,0.3-0.5,0.4-0.8,0.5
				c0.4-0.1,0.7-0.1,1.1-0.2c0.7-0.2,1.4-0.5,2.1-0.8c0.9-0.4,1.5-0.9,1.7-1.1c0,0,0,0,0,0c0.3,0.1,0.6,0,0.9,0
				c0.4-0.1,0.7-0.2,1.1-0.4c0.4-0.2,0.9-0.6,1.3-1c0.1-0.1,0.1-0.1,0.1-0.2c0-0.1-0.1-0.1-0.2-0.2c0,0,0,0,0,0
				c0.1-0.1,0.3-0.2,0.4-0.3c0.4-0.3,0.8-0.7,1.1-1.3c0-0.1,0.1-0.2,0-0.2c0-0.1-0.1-0.1-0.1-0.1c0.1-0.1,0.2-0.1,0.2-0.2
				c0.4-0.4,0.7-0.8,1-1.4c0-0.1,0-0.2,0-0.2c0-0.1-0.1-0.1-0.2-0.1c0.1-0.1,0.2-0.2,0.2-0.3c0.3-0.4,0.6-0.9,0.8-1.5
				c0-0.1,0-0.2,0-0.2c0-0.1-0.1-0.1-0.2-0.1l0,0c0.1-0.1,0.1-0.2,0.2-0.3c0.3-0.4,0.5-0.9,0.7-1.5c0-0.1,0-0.2-0.1-0.2
				c-0.1-0.1-0.1-0.1-0.2-0.1c0.1-0.1,0.1-0.2,0.2-0.3C-62.3,404.1-62.2,403.5-62.1,402.9z M-62.4,401C-62.4,401-62.4,401-62.4,401
				c0,0.4-0.1,0.8-0.2,1.1c-0.1,0.3-0.3,0.6-0.5,0.9c-0.2,0.3-0.5,0.4-0.6,0.5c0,0,0,0,0,0c0,0,0,0,0,0c-0.3-0.5-0.5-1-0.5-1.7
				c0-0.2,0-0.4,0.1-0.6c0,0,0,0,0,0c0,0,0,0,0,0c0.3,0.4,0.5,0.9,0.5,0.9c0,0.1,0.1,0.1,0.2,0.1c0.1,0,0.1,0,0.2-0.1
				C-63.1,401.6-62.7,401.2-62.4,401C-62.4,401-62.4,401-62.4,401z M-62.4,398.9C-62.4,398.8-62.4,398.8-62.4,398.9
				C-62.4,398.9-62.4,398.9-62.4,398.9c0,0.4,0,0.8-0.1,1.2c-0.1,0.4-0.2,0.7-0.4,0.9c-0.2,0.3-0.5,0.5-0.5,0.6c0,0,0,0,0,0
				c0,0,0,0,0,0c-0.6-0.7-0.6-1.7-0.6-2.2c0,0,0,0,0,0c0,0,0,0,0,0c0.3,0.3,0.5,0.8,0.5,0.8c0,0.1,0.1,0.1,0.2,0.1
				c0.1,0,0.1-0.1,0.2-0.1C-63,399.5-62.7,399.1-62.4,398.9z M-62.7,396.6C-62.7,396.6-62.7,396.6-62.7,396.6
				C-62.7,396.6-62.7,396.6-62.7,396.6c0.1,0.4,0.1,0.8,0,1.2c-0.1,0.4-0.2,0.7-0.3,1c-0.2,0.3-0.4,0.5-0.5,0.6c0,0,0,0,0,0
				c0,0,0,0,0,0c-0.6-0.5-0.8-1.5-0.8-2.1c0,0,0,0,0,0c0,0,0,0,0,0c0.3,0.3,0.6,0.7,0.6,0.7c0,0.1,0.1,0.1,0.2,0.1
				c0.1,0,0.1-0.1,0.1-0.1C-63.2,397.3-62.9,396.9-62.7,396.6z M-63,394.6C-63,394.6-63,394.5-63,394.6C-63,394.6-63,394.6-63,394.6
				c0.1,0.4,0.1,0.8,0.1,1.2c0,0.4-0.1,0.7-0.3,1c-0.2,0.3-0.4,0.6-0.5,0.6c0,0,0,0,0,0c0,0,0,0,0,0c-0.5-0.4-0.7-1-0.8-1.5
				c0-0.2-0.1-0.4-0.1-0.6c0,0,0,0,0,0c0,0,0,0,0,0c0.4,0.3,0.6,0.7,0.6,0.7c0,0.1,0.1,0.1,0.2,0.1c0.1,0,0.1-0.1,0.1-0.1
				C-63.5,395.2-63.2,394.8-63,394.6z M-79.7,394.7C-79.7,394.7-79.7,394.6-79.7,394.7c0.3-1.5,0.9-2.5,1.3-3.1
				c0.3-0.4,0.6-0.7,0.7-0.8c0,0,0.1-0.1,0.1-0.1c0.1-0.1,0.2-0.3,0-0.5c-0.1-0.1-0.3-0.2-0.5-0.1c0,0-0.1,0-0.1,0.1
				c-0.3,0.2-0.5,0.2-0.6,0.1c-0.1-0.1-0.1-0.2-0.1-0.4c0.1-0.3,0.4-0.7,0.5-0.9c0,0,0,0,0,0c0.7-0.8,1.8-0.9,1.8-0.9c0,0,0,0,0,0
				c0,0,0.4,0,0.8,0.1c0.6,0.2,1.1,0.6,1.4,1.2c0.4,0.9,0.8,1.7,1,2.7c-0.6-0.2-1.1-0.6-1.1-0.6c-0.1-0.1-0.4-0.1-0.5,0
				c-0.1,0.1-0.1,0.2-0.1,0.3c0,0.1,0.1,0.2,0.1,0.2c0,0,0.8,0.7,1.8,0.9c0.1,0.3,0.1,0.6,0.2,1c-0.3-0.2-0.7-0.2-0.9-0.3
				c-0.2-0.1-0.4-0.1-0.5-0.2c-0.6-0.3-1.2-0.7-1.2-0.7c-0.1-0.1-0.4-0.1-0.5,0.1c-0.1,0.1-0.1,0.4,0.1,0.5c0,0,0.6,0.5,1.4,0.8
				c0.2,0.1,0.4,0.1,0.6,0.2c0.8,0.2,1.2,0.4,1.2,0.8c0,0.1-0.1,0.1-0.1,0.2c-0.3,0.3-0.8,0.3-1,0.3c0,0,0,0,0,0h-0.8
				c-0.2,0-0.9,0-1.6-0.5C-78,394.1-78.8,394.3-79.7,394.7z M-76.8,395.7h-2.3c-0.2,0-0.4-0.1-0.5-0.2c0,0,0-0.1-0.1-0.1
				C-78.7,395-78.2,394.8-76.8,395.7z M-75.8,399.9v-3.6h1.2c0,0,0,0,0,0c0,0,0,0,0,0h0.7c0,0,0.1,0,0.1,0c0.1,0,0.3,0,0.4,0
				c0.4-0.1,0.8-0.2,1-0.5c0.1-0.1,0.2-0.2,0.3-0.4c0,0,0,0,0-0.1c0-0.2,0.1-0.4,0-0.6l0-0.1c-0.2-1.4-0.5-3.2-1.6-5.3
				c-0.9-1.8-2.6-1.7-2.8-1.7c-0.2,0-1.5,0.1-2.3,1.1c-0.1,0.1-0.6,0.7-0.7,1.2c-0.1,0.4,0.1,0.9,0.4,1c0.1,0,0.1,0.1,0.2,0.1
				c-0.5,0.7-1.2,1.8-1.5,3.5c-0.1,0.3-0.1,0.5,0,0.8c0,0,0,0,0,0.1c0,0.2,0.1,0.5,0.3,0.6c0.2,0.2,0.5,0.4,1,0.4h2.5v3.6v2.2
				c-0.7,0-1.2,0.2-1.8,0.7c-0.9,0.6-3.9,1.2-9,1.8c-0.4-1.5-0.5-3-0.5-4.6c0-2.1,0.3-4.1,0.9-6c0.6-1.8,1.4-3.5,2.5-4.9
				c1.1-1.4,2.3-2.5,3.7-3.3c1.4-0.8,3-1.2,4.5-1.2c1.6,0,3.1,0.4,4.5,1.2c1.4,0.8,2.6,1.9,3.7,3.3c1.1,1.4,1.9,3.1,2.5,4.9
				c0.6,1.9,0.9,3.9,0.9,6c0,1.6-0.2,3.2-0.5,4.7c-3.1-0.2-6.7-1.3-6.8-1.3c-0.3-0.1-0.5-0.2-0.7-0.2c-0.8-0.3-1.3-0.5-2-0.4
				c0,0-0.1,0-0.1,0c-0.4-0.2-0.7-0.3-1.2-0.4V399.9z M-71.1,383.8c-0.2,0.1-0.5,0.2-0.8,0.2c-0.2,0-0.4,0.1-0.6,0.1
				c-0.4,0-0.8-0.1-1.1-0.3c0,0,0,0,0,0c0,0,0,0,0,0c0.1-0.1,0.4-0.2,0.7-0.3c0.3-0.1,0.6-0.1,1,0
				C-71.7,383.5-71.4,383.6-71.1,383.8C-71.1,383.7-71.1,383.7-71.1,383.8C-71.1,383.8-71.1,383.8-71.1,383.8z M-70.6,385
				C-70.6,385-70.6,385-70.6,385C-70.6,385-70.6,385-70.6,385c-0.1,0.1-0.3,0.1-0.6,0.1c0,0-0.1,0-0.1,0c-0.5,0-1-0.2-1.5-0.6
				c0,0,0,0,0,0c0,0,0,0,0,0c0.2-0.1,0.4-0.1,0.7-0.1C-71.6,384.4-71,384.6-70.6,385z M-73,383.1c-0.2,0.1-0.6,0.2-1.1,0.3
				c-0.1,0-0.1,0.1-0.2,0.1c0,0.1,0,0.1,0.1,0.2c0,0,0.4,0.3,0.7,0.7c0,0,0,0,0,0c0,0,0,0,0,0h0c-0.5,0-1.4-0.2-2.1-1c0,0,0,0,0,0
				c0.1-0.1,0.3-0.2,0.6-0.4C-74.5,382.8-73.8,382.8-73,383.1C-73,383.1-73,383.1-73,383.1C-73,383.1-73,383.1-73,383.1z
				 M-75.3,382.7c-0.2,0.1-0.5,0.3-1,0.5c-0.1,0-0.1,0.1-0.1,0.2c0,0.1,0,0.1,0.1,0.2c0,0,0.5,0.2,0.8,0.5c0,0,0,0,0,0c0,0,0,0,0,0
				c-0.1,0-0.3,0-0.4,0c-0.5,0-1.3-0.1-1.8-0.5c0,0,0,0,0,0c0.1-0.1,0.2-0.3,0.5-0.5C-76.8,382.8-76.1,382.6-75.3,382.7
				C-75.3,382.7-75.3,382.7-75.3,382.7C-75.3,382.7-75.3,382.7-75.3,382.7z M-77.6,382.7c-0.1,0.2-0.4,0.4-0.9,0.7
				c-0.1,0-0.1,0.1-0.1,0.2c0,0.1,0.1,0.1,0.1,0.2c0,0,0.5,0.1,0.9,0.3c0,0,0,0,0,0c0,0,0,0,0,0c-0.2,0.1-0.4,0.1-0.6,0.2
				c-0.2,0-0.4,0.1-0.6,0.1c-0.3,0-0.7-0.1-1.1-0.2c0,0,0,0,0,0c0.1-0.1,0.2-0.3,0.4-0.6C-79.1,383.1-78.5,382.8-77.6,382.7
				C-77.6,382.7-77.6,382.7-77.6,382.7C-77.6,382.7-77.6,382.7-77.6,382.7z M-80.6,384.2c-0.1,0-0.1,0.1-0.1,0.2
				c0,0.1,0.1,0.1,0.2,0.1h0c0,0,0.2,0,0.5,0c0.2,0,0.3,0.1,0.5,0.1c0,0,0,0,0,0c0,0,0,0,0,0c-0.2,0.1-0.4,0.2-0.6,0.2
				c-0.4,0.1-0.8,0.2-1.1,0.2c-0.3,0-0.5,0-0.6-0.1c0,0,0,0,0,0c0.1-0.4,0.4-1.3,2-1.9c0,0,0,0,0,0c0,0,0,0,0,0
				C-79.9,383.4-80.1,383.7-80.6,384.2z M-64.1,393.8c0-0.6,0.3-1.1,0.4-1.4c0,0,0,0,0,0c0,0,0,0,0,0c0.1,0.4,0.2,0.8,0.2,1.1
				c0,0.4,0,0.7-0.1,1c-0.1,0.4-0.3,0.6-0.4,0.7c0,0,0,0,0,0c0,0,0,0,0,0c-0.5-0.3-0.8-0.7-1-1.3c-0.1-0.2-0.1-0.4-0.2-0.6
				c0,0,0,0,0,0s0,0,0,0c0.4,0.2,0.7,0.6,0.7,0.6c0,0.1,0.1,0.1,0.2,0C-64.2,393.9-64.1,393.9-64.1,393.8z M-64.9,391.8
				c0-0.6,0.1-1.1,0.3-1.4c0,0,0,0,0,0c0,0,0,0,0,0c0.2,0.4,0.3,0.8,0.3,1.1c0.1,0.4,0,0.7,0,1c-0.1,0.4-0.2,0.6-0.3,0.7
				c0,0,0,0,0,0c0,0,0,0,0,0c-0.5-0.2-0.9-0.7-1.2-1.2c-0.1-0.2-0.2-0.4-0.2-0.6c0,0,0,0,0,0c0,0,0,0,0,0c0.4,0.2,0.8,0.5,0.8,0.5
				c0.1,0,0.1,0.1,0.2,0h0C-64.9,392-64.8,391.9-64.9,391.8z M-65.9,390.1L-65.9,390.1c0.1,0,0.1-0.1,0.1-0.2
				c-0.1-0.6,0-1.1,0.1-1.4c0,0,0,0,0,0c0,0,0,0,0,0c0.2,0.4,0.4,0.7,0.5,1.1c0.1,0.4,0.1,0.7,0.1,1c0,0.4-0.2,0.6-0.2,0.7
				c0,0,0,0,0,0c0,0,0,0,0,0c-0.5-0.2-1-0.6-1.4-1.1c-0.1-0.2-0.2-0.4-0.3-0.6c0,0,0,0,0,0c0,0,0,0,0,0c0.5,0.1,0.9,0.4,0.9,0.5
				C-66,390.2-65.9,390.2-65.9,390.1z M-67.2,388.4c0.1,0,0.1,0,0.2,0c0.1,0,0.1-0.1,0.1-0.2c-0.2-0.6-0.1-1.1-0.1-1.4c0,0,0,0,0,0
				c0,0,0,0,0,0c0.3,0.3,0.5,0.6,0.6,1c0.1,0.3,0.2,0.7,0.3,1c0,0.4,0,0.6-0.1,0.8c0,0,0,0,0,0c0,0,0,0,0,0c-0.5-0.1-1-0.4-1.5-0.9
				c-0.1-0.2-0.3-0.3-0.4-0.5c0,0,0,0,0,0c0,0,0,0,0,0C-67.6,388.1-67.2,388.4-67.2,388.4z M-68.6,386.8c0.1,0,0.2,0,0.2,0
				c0.1-0.1,0.1-0.1,0-0.2c-0.3-0.6-0.3-1.1-0.3-1.4c0,0,0,0,0,0c0,0,0,0,0,0c0.3,0.3,0.6,0.6,0.8,0.9c0.2,0.3,0.3,0.6,0.4,0.9
				c0.1,0.4,0.1,0.7,0.1,0.8c0,0,0,0,0,0c0,0,0,0,0,0c-0.6,0-1.2-0.3-1.5-0.6c-0.2-0.1-0.4-0.3-0.5-0.5c0,0,0,0,0,0c0,0,0,0,0,0
				c0,0,0,0,0.1,0C-69,386.7-68.6,386.8-68.6,386.8z M-69.1,385.4c0.1,0.4,0.2,0.7,0.2,0.9c0,0,0,0,0,0c0,0-0.1,0-0.1,0
				c-0.7,0-1.6-0.5-2.1-0.8c0,0,0,0,0,0c0,0,0,0,0,0c0.5-0.1,0.9,0,0.9,0c0.1,0,0.2,0,0.2-0.1c0-0.1,0-0.1,0-0.2
				c-0.3-0.4-0.5-0.8-0.6-1.1c0,0,0,0,0,0c0,0,0,0,0,0C-69.8,384.4-69.3,384.8-69.1,385.4z M-82.6,383.2c0,0,0.1,0,0.1,0
				c0.4-0.2,0.9-0.3,1.1-0.3c0.5-0.1,0.8-0.3,0.8-0.3c0,0,0.1-0.1,0.1-0.1c0-0.1-0.1-0.1-0.1-0.1l-2.1-0.3l2.1-0.3
				c0.1,0,0.1-0.1,0.1-0.1c0-0.1,0-0.1-0.1-0.1c0,0-0.5-0.1-0.9-0.3c-0.1-0.1-0.3-0.1-0.4-0.2c-0.2-0.1-0.4-0.2-0.6-0.3
				c0,0,0.1,0,0.1,0c0.5,0,0.9,0.1,1.1,0.1c0.5,0.1,0.9,0,0.9,0c0.1,0,0.1,0,0.1-0.1c0-0.1,0-0.1-0.1-0.1l-1.9-1.1l2.1,0.5
				c0.1,0,0.1,0,0.1-0.1c0-0.1,0-0.1-0.1-0.2c0,0-0.4-0.2-0.8-0.6c-0.1-0.1-0.2-0.2-0.3-0.3c-0.1-0.2-0.3-0.3-0.5-0.5
				c0,0,0.1,0,0.1,0c0.4,0.2,0.8,0.4,1,0.5c0.4,0.3,0.8,0.4,0.8,0.4c0.1,0,0.1,0,0.1-0.1c0,0,0-0.1,0-0.1l-1.3-1.7l1.7,1.3
				c0,0,0.1,0,0.2,0c0,0,0-0.1,0-0.2c0,0-0.3-0.4-0.5-0.9c-0.1-0.1-0.1-0.3-0.1-0.4c-0.1-0.2-0.1-0.4-0.2-0.6c0,0,0.1,0.1,0.1,0.1
				c0.3,0.3,0.6,0.7,0.7,0.9c0.3,0.4,0.6,0.6,0.6,0.6c0,0,0.1,0,0.1,0c0,0,0.1-0.1,0-0.1l-0.5-2.1l1.1,1.9c0,0.1,0.1,0.1,0.2,0.1
				c0.1,0,0.1-0.1,0.1-0.1c0,0-0.1-0.5-0.1-1c0-0.2,0-0.3,0-0.4c0-0.2,0-0.4,0-0.7c0,0,0,0.1,0,0.1c0.2,0.4,0.3,0.9,0.3,1.1
				c0.1,0.5,0.3,0.8,0.3,0.8c0,0,0.1,0.1,0.1,0.1c0.1,0,0.1-0.1,0.1-0.1l0.3-2.1l0.3,2.1c0,0.1,0.1,0.1,0.1,0.1s0.1,0,0.1-0.1
				c0,0,0.1-0.5,0.3-0.9c0.1-0.1,0.1-0.3,0.2-0.4c0.1-0.2,0.2-0.4,0.3-0.6c0,0,0,0.1,0,0.1c0,0.5-0.1,0.9-0.1,1.1
				c-0.1,0.5,0,0.9,0,0.9c0,0.1,0,0.1,0.1,0.1c0,0,0.1,0,0.1-0.1l1.1-1.9l-0.5,2.1c0,0.1,0,0.1,0.1,0.1c0.1,0,0.1,0,0.2-0.1
				c0,0,0.3-0.4,0.6-0.8c0.1-0.1,0.2-0.2,0.3-0.3c0.2-0.1,0.3-0.3,0.5-0.5c0,0,0,0.1,0,0.1c-0.2,0.4-0.4,0.8-0.5,1
				c-0.3,0.4-0.4,0.8-0.4,0.8c0,0.1,0,0.1,0.1,0.1c0,0,0.1,0,0.1,0l1.7-1.3l-1.3,1.7c0,0,0,0.1,0,0.2c0,0,0.1,0,0.2,0
				c0,0,0.4-0.3,0.9-0.5c0.1-0.1,0.3-0.1,0.4-0.1c0.2-0.1,0.4-0.1,0.6-0.2c0,0-0.1,0.1-0.1,0.1c-0.3,0.3-0.7,0.6-0.9,0.7
				c-0.4,0.3-0.6,0.6-0.6,0.6c0,0,0,0.1,0,0.1c0,0,0.1,0.1,0.1,0l2.1-0.5l-1.9,1.1c-0.1,0-0.1,0.1-0.1,0.2c0,0.1,0.1,0.1,0.1,0.1
				c0,0,0.5-0.1,1-0.1c0.2,0,0.3,0,0.4,0c0.2,0,0.4,0,0.7,0c0,0-0.1,0-0.1,0c-0.4,0.2-0.9,0.3-1.1,0.3c-0.5,0.1-0.8,0.3-0.8,0.3
				c0,0-0.1,0.1-0.1,0.1c0,0.1,0.1,0.1,0.1,0.1l2.1,0.3l-2.1,0.3c-0.1,0-0.1,0.1-0.1,0.1c0,0.1,0,0.1,0.1,0.1c0,0,0.5,0.1,0.9,0.3
				c0.1,0.1,0.3,0.1,0.4,0.2c0.2,0.1,0.4,0.2,0.6,0.3c0,0-0.1,0-0.1,0c-0.5,0-0.9-0.1-1.1-0.1l-0.1,0c-0.4-0.2-0.8-0.3-1.2-0.3
				c0,0,0,0,0,0c0-0.1-0.1-0.1-0.2-0.2c-0.6-0.2-1.1-0.3-1.6-0.3c-0.2,0-0.4,0-0.5,0c0,0,0,0,0-0.1c0-0.1-0.1-0.1-0.2-0.1
				c-0.6-0.1-1.2-0.1-1.6,0c-0.2,0-0.4,0.1-0.5,0.2c0-0.1,0-0.1-0.1-0.1c-0.1-0.1-0.1-0.1-0.2-0.1c-0.6,0.1-1.2,0.2-1.6,0.4
				c-0.1,0.1-0.2,0.1-0.3,0.2c0-0.1,0-0.1-0.1-0.2c-0.1-0.1-0.1-0.1-0.2,0c-0.6,0.2-1.1,0.4-1.5,0.7l0,0c-0.1,0-0.2,0-0.3,0
				c-0.1,0-0.4,0-0.4,0C-82.1,383.2-82.3,383.2-82.6,383.2z M-82,383.9C-82,383.9-82,383.9-82,383.9C-82,383.9-82,383.9-82,383.9
				c0,0.3-0.1,0.8-0.5,1.4c0,0.1,0,0.1,0,0.2c0,0.1,0.1,0.1,0.2,0.1c0,0,0.5-0.1,0.9-0.1c0,0,0,0,0,0c0,0,0,0,0,0
				c-0.4,0.3-1.2,0.8-2,0.8c0,0-0.1,0-0.1,0c0,0,0,0,0,0C-83.5,385.9-83.4,384.9-82,383.9z M-84.9,387c0.1-0.3,0.2-0.6,0.4-0.9
				c0.2-0.3,0.5-0.6,0.8-0.9c0,0,0,0,0,0c0,0,0,0,0,0c0,0.3,0,0.8-0.3,1.4c0,0.1,0,0.1,0,0.2c0,0.1,0.1,0.1,0.2,0.1
				c0,0,0.4-0.1,0.9-0.2c0,0,0,0,0,0c0,0,0,0,0,0c-0.2,0.2-0.4,0.3-0.5,0.5c-0.4,0.3-0.9,0.6-1.4,0.6c0,0,0,0-0.1,0c0,0,0,0,0,0
				C-85,387.7-85,387.4-84.9,387z M-85.4,386.7C-85.4,386.7-85.4,386.7-85.4,386.7C-85.4,386.7-85.4,386.7-85.4,386.7
				c0.1,0.3,0.1,0.8-0.1,1.5c0,0.1,0,0.2,0.1,0.2c0.1,0,0.1,0,0.2,0c0,0,0.4-0.3,0.9-0.3c0,0,0,0,0,0c0,0,0,0,0,0
				c-0.3,0.5-1,1.2-1.9,1.4l0,0c0,0,0,0,0,0C-86.3,389.1-86.5,388-85.4,386.7z M-87.3,389.6c0.1-0.3,0.3-0.7,0.5-1c0,0,0,0,0,0
				c0,0,0,0,0,0c0.1,0.3,0.2,0.8,0.1,1.4c0,0.1,0,0.2,0.1,0.2c0.1,0,0.2,0,0.2,0c0,0,0.4-0.4,0.9-0.4c0,0,0,0,0,0c0,0,0,0,0,0
				c-0.1,0.1-0.2,0.4-0.4,0.6c-0.4,0.5-0.8,0.9-1.4,1c0,0,0,0,0,0c0,0,0,0,0,0c0-0.1-0.2-0.4-0.2-0.8
				C-87.4,390.2-87.4,389.9-87.3,389.6z M-88.3,391.5c0.1-0.4,0.2-0.7,0.3-1.1c0,0,0,0,0,0h0c0,0,0,0,0,0c0.1,0.3,0.3,0.8,0.3,1.4
				c0,0.1,0,0.1,0.1,0.2c0.1,0,0.1,0,0.2,0c0,0,0.4-0.3,0.8-0.5c0,0,0,0,0,0s0,0,0,0c0,0.2-0.1,0.4-0.2,0.5c-0.3,0.6-0.7,1-1.3,1.3
				c0,0,0,0,0,0c0,0,0,0,0,0c-0.1-0.1-0.2-0.4-0.3-0.7C-88.3,392.2-88.3,391.9-88.3,391.5z M-88.8,392.4
				C-88.8,392.4-88.8,392.4-88.8,392.4C-88.8,392.4-88.8,392.4-88.8,392.4c0.2,0.3,0.4,0.7,0.5,1.4c0,0.1,0.1,0.1,0.1,0.2
				c0.1,0,0.1,0,0.2-0.1c0,0,0.3-0.4,0.8-0.6c0,0,0,0,0,0c0,0,0,0,0,0c0,0.2-0.1,0.4-0.1,0.6c-0.2,0.6-0.6,1.1-1.1,1.4c0,0,0,0,0,0
				c0,0,0,0,0,0c-0.1-0.1-0.3-0.3-0.4-0.7c-0.1-0.3-0.2-0.6-0.2-1C-89,393.2-89,392.8-88.8,392.4z M-89.5,394.5
				C-89.5,394.5-89.5,394.5-89.5,394.5C-89.5,394.5-89.4,394.5-89.5,394.5c0.2,0.2,0.5,0.7,0.7,1.3c0,0.1,0.1,0.1,0.1,0.1
				c0.1,0,0.1,0,0.2-0.1c0,0,0.3-0.4,0.7-0.7c0,0,0,0,0,0c0,0,0,0,0,0c0,0.2,0,0.4-0.1,0.6c-0.1,0.6-0.4,1.1-0.9,1.5c0,0,0,0,0,0
				c0,0,0,0,0,0c-0.1-0.1-0.3-0.3-0.5-0.6c-0.1-0.3-0.2-0.6-0.3-1C-89.6,395.3-89.5,394.9-89.5,394.5z M-89.8,396.7
				C-89.8,396.6-89.8,396.6-89.8,396.7C-89.8,396.6-89.8,396.6-89.8,396.7c0.3,0.2,0.6,0.7,0.7,1.3c0,0.1,0.1,0.1,0.2,0.1
				c0.1,0,0.1,0,0.2-0.1c0,0,0.2-0.4,0.6-0.7c0,0,0,0,0,0c0,0,0,0,0,0c0,0.2,0,0.4-0.1,0.6c-0.1,0.6-0.4,1.2-0.8,1.5c0,0,0,0,0,0
				c0,0,0,0,0,0c-0.1-0.1-0.3-0.3-0.5-0.6c-0.2-0.3-0.3-0.6-0.3-1C-89.8,397.5-89.8,397.1-89.8,396.7z M-90,398.9
				C-90,398.9-90,398.9-90,398.9C-90,398.9-89.9,398.9-90,398.9c0.1,0,0.1,0.1,0.2,0.1c0.2,0.2,0.5,0.6,0.6,1.1
				c0,0.1,0.1,0.1,0.2,0.1c0.1,0,0.2-0.1,0.2-0.2l0,0c0,0,0.1-0.5,0.5-0.8c0,0,0,0,0,0c0,0,0,0,0,0c0,0.3,0.1,0.6,0,1.1
				c-0.1,0.5-0.3,0.9-0.6,1.2c0,0,0,0,0,0c0,0,0,0,0,0C-89.3,401.3-90.1,400.6-90,398.9z M-90.1,401C-90,401-90,401-90.1,401
				c0.1,0,0.1,0.1,0.2,0.1c0.2,0.2,0.5,0.5,0.8,1c0,0.1,0.1,0.1,0.2,0.1l0,0h0c0.1,0,0.1,0,0.2-0.1c0,0,0.2-0.5,0.5-0.9c0,0,0,0,0,0
				c0,0,0,0,0,0c0.1,0.5,0.2,1.4-0.5,2.3c0,0,0,0,0,0c0,0,0,0,0,0C-89.2,403.4-90,402.8-90.1,401C-90.1,401.1-90.1,401.1-90.1,401z
				 M-89.9,403.3C-89.9,403.3-89.9,403.3-89.9,403.3C-89.9,403.3-89.9,403.3-89.9,403.3c0.3,0.1,0.7,0.4,1.1,1
				c0,0.1,0.1,0.1,0.2,0.1c0.1,0,0.1-0.1,0.1-0.1l0,0l0,0l0,0c0,0,0.1-0.5,0.4-0.9c0,0,0,0,0,0c0,0,0,0,0,0c0.1,0.2,0.2,0.4,0.2,0.6
				c0.1,0.6,0,1.2-0.3,1.8c0,0,0,0,0,0c0,0,0,0,0,0c-0.1,0-0.4-0.2-0.7-0.4c-0.2-0.2-0.5-0.5-0.6-0.8
				C-89.7,404.1-89.8,403.7-89.9,403.3z M-89.4,405.4C-89.4,405.4-89.4,405.4-89.4,405.4C-89.4,405.4-89.4,405.4-89.4,405.4
				c0.1,0,0.1,0,0.2,0.1c0.3,0.1,0.6,0.4,1,0.8c0,0.1,0.1,0.1,0.2,0.1c0.1,0,0.1-0.1,0.1-0.1c0,0,0.1-0.5,0.3-0.9c0,0,0,0,0,0l0,0
				c0,0,0,0,0,0c0.2,0.5,0.5,1.4,0.1,2.3c0,0,0,0,0,0c0,0,0,0,0,0C-88,407.5-88.9,407-89.4,405.4z M-88.2,408.5
				c-0.2-0.3-0.4-0.6-0.6-1c0,0,0,0,0,0c0,0,0,0,0,0c0.1,0,0.1,0,0.2,0.1c0.3,0.1,0.7,0.3,1.1,0.7c0.1,0.1,0.1,0.1,0.2,0
				c0.1,0,0.1-0.1,0.1-0.2c0,0,0-0.5,0.2-0.9c0,0,0,0,0,0c0,0,0,0,0,0c0.1,0.2,0.2,0.4,0.3,0.6c0.2,0.6,0.3,1.2,0.1,1.7c0,0,0,0,0,0
				l0,0c-0.1,0-0.4-0.1-0.7-0.3C-87.7,409-87.9,408.8-88.2,408.5z M-87.9,409.5C-87.9,409.5-87.9,409.5-87.9,409.5
				C-87.9,409.5-87.9,409.5-87.9,409.5c0.3,0,0.8,0.2,1.3,0.6c0.1,0,0.1,0.1,0.2,0c0.1,0,0.1-0.1,0.1-0.2c0,0-0.1-0.5,0-0.9
				c0,0,0,0,0,0c0,0,0,0,0,0c0.1,0.2,0.2,0.4,0.3,0.5c0.2,0.4,0.4,1,0.3,1.7c0,0,0,0,0,0h0c-0.1,0-0.4,0-0.8-0.2
				c-0.3-0.1-0.6-0.3-0.8-0.6C-87.4,410.2-87.7,409.8-87.9,409.5z M-83.7,413.1c0,0-0.2-0.4-0.2-0.9c0,0,0,0,0,0c0,0,0,0,0,0
				c0.4,0.4,1.1,1.1,1.1,2.1c0,0,0,0,0,0c-0.1,0-0.1,0-0.3,0c-0.1,0-0.3,0-0.4,0c-0.6-0.1-1.2-0.5-1.8-1.1c0,0,0,0,0,0c0,0,0,0,0,0
				c0.3,0,0.8,0,1.5,0.2c0.1,0,0.1,0,0.2,0C-83.7,413.2-83.7,413.2-83.7,413.1z M-85.3,411.8c0.1,0,0.1,0,0.2,0
				c0.1,0,0.1-0.1,0.1-0.2c0,0-0.1-0.4-0.1-0.9c0,0,0,0,0,0c0,0,0,0,0,0c0.3,0.4,0.9,1.2,0.9,2.1c0,0,0,0,0,0c0,0-0.1,0-0.1,0
				c-0.2,0-0.4,0-0.7-0.1c-0.3-0.1-0.6-0.3-0.9-0.5c-0.3-0.2-0.6-0.5-0.8-0.8c0,0,0,0,0,0c0,0,0,0,0,0
				C-86.4,411.3-85.9,411.4-85.3,411.8z M-78.3,407.1c-0.1,0-0.1,0.1-0.2,0.1c-0.4,0.3-0.6,0.6-0.7,0.9c-0.1,0-0.1,0-0.1,0
				c-0.3-0.1-0.3-0.2-0.3-0.3c0-0.2,0.1-0.3,0.3-0.5c0.3-0.3,0.5-0.4,0.7-0.4c0.1,0,0.1,0,0.2,0C-78.4,406.9-78.3,407-78.3,407.1
				C-78.3,407-78.3,407-78.3,407.1z M-77.9,408.5c-0.1,0-0.4,0.1-0.6-0.1c0,0-0.1-0.1-0.1-0.2c0-0.3,0.3-0.5,0.5-0.7
				c0.3-0.2,0.5-0.3,0.7-0.3c0.1,0,0.2,0,0.2,0.1c0.1,0.1,0.1,0.1,0.1,0.1c0,0.1-0.1,0.2-0.2,0.3C-77.6,408.1-77.8,408.3-77.9,408.5
				z M-76.4,408.6c-0.1,0.1-0.5,0.3-0.8,0.3c0,0-0.1,0-0.2-0.1c0.1-0.3,0.4-0.5,0.7-0.6c0.3-0.2,0.5-0.1,0.5-0.1
				c0.1,0.1,0.1,0.2,0.1,0.2C-76.1,408.4-76.3,408.5-76.4,408.6C-76.4,408.6-76.4,408.6-76.4,408.6z M-79.6,406.6
				c0,0-0.1,0.1-0.1,0.1c-0.2,0.2-0.4,0.4-0.4,0.7c0,0-0.1,0-0.1,0c-0.2,0-0.3-0.1-0.3-0.1c0,0-0.1-0.1,0.1-0.3
				c0.2-0.2,0.5-0.4,0.8-0.4c0,0,0,0,0.1,0c0,0,0,0,0,0C-79.7,406.6-79.6,406.6-79.6,406.6z M-71.9,407c-0.1,0.1-0.2,0.1-0.4,0.1
				c-0.3-0.3-0.9-1.1-1.7-1.5c-0.1,0-0.2,0-0.2,0c-0.1,0-0.1,0.1-0.2,0.2c0,0.1,0,0.2,0,0.2c0,0.1,0.1,0.1,0.2,0.2
				c0.7,0.3,1.3,1.1,1.5,1.4c0,0.1-0.1,0.1-0.1,0.1c-0.1,0.1-0.3,0.2-0.5,0.2c-0.1-0.2-0.2-0.4-0.4-0.6c-0.3-0.3-0.8-0.7-0.8-0.7
				c-0.1,0-0.1-0.1-0.2-0.1c-0.1,0-0.1,0.1-0.2,0.1c0,0.1-0.1,0.1-0.1,0.2c0,0.1,0.1,0.1,0.1,0.2c0.1,0.1,0.5,0.4,0.7,0.6
				c0.2,0.2,0.3,0.4,0.3,0.4c0,0.1-0.1,0.1-0.1,0.2c-0.1,0.1-0.2,0.1-0.4,0.1c-0.1-0.2-0.2-0.5-0.5-0.8c-0.1-0.1-0.3-0.1-0.4,0
				c-0.1,0.1-0.1,0.1-0.1,0.2c0,0.1,0,0.2,0.1,0.2c0.2,0.2,0.3,0.5,0.4,0.6c0,0-0.1,0.1-0.2,0.1c-0.2,0.1-0.3,0.1-0.5,0.1
				c0.1-0.1,0.1-0.2,0.1-0.4c0-0.2,0-0.4-0.3-0.7c-0.1-0.1-0.4-0.2-0.7-0.2c0-0.2-0.1-0.4-0.3-0.5c-0.3-0.2-0.6-0.3-0.9-0.2l0,0
				c-0.1-0.1-0.2-0.3-0.5-0.5c-0.2-0.1-0.5-0.1-0.8-0.1c-0.2-0.2-0.6-0.2-0.7-0.3c-0.4-0.1-0.9,0.1-1.3,0.5
				c-1.7,0.9-3.9,1.9-4.8,2.3c-0.5-0.9-0.9-1.8-1.2-2.8c-0.1-0.3-0.2-0.6-0.2-0.8c2.5-0.3,4.6-0.6,6-0.9c1.6-0.3,2.6-0.6,3.1-1
				c0.6-0.4,1-0.6,1.6-0.6c0.1,0,0.3,0,0.4,0c-0.1,0-0.2,0.1-0.3,0.2c-0.2,0.2-0.4,0.3-0.5,0.4c-0.1,0.1-0.2,0.2-0.4,0.3
				c-0.1,0.1-0.3,0.1-0.4,0.2c-0.4,0.2-0.6,0.3-0.7,0.5c-0.1,0.3-0.1,0.5,0.1,0.7c0.3,0.4,0.7,0.4,1.1,0.3c0.4,0,0.9-0.2,1.2-0.4
				c0.1-0.1,0.2-0.1,0.3-0.2c0.2-0.1,0.3-0.2,0.4-0.2c0,0,0,0,0,0c0.3-0.1,0.6,0,1.1,0.1c0.4,0.1,0.7,0.4,1.1,0.6
				c0.8,0.5,1.4,1.2,1.5,1.4C-71.7,406.8-71.8,406.9-71.9,407z M-70.8,406.8c-0.3-0.2-0.4-0.4-0.5-0.5c0,0,0,0,0,0l0,0
				c0,0,0,0,0-0.1c-0.3-0.3-0.8-0.9-1.6-1.4c-0.6-0.4-1.6-1-2.6-0.8c-0.2,0-0.4,0.2-0.6,0.3c-0.1,0.1-0.2,0.1-0.3,0.2
				c-0.3,0.2-0.7,0.3-1,0.3c-0.3,0-0.5,0-0.5-0.1c-0.1-0.1-0.1-0.1-0.1-0.2c0.1-0.1,0.3-0.2,0.4-0.2c0.2-0.1,0.3-0.2,0.5-0.3
				c0.2-0.1,0.3-0.2,0.4-0.3c0.1-0.1,0.3-0.2,0.5-0.4c0.3-0.2,0.6-0.2,1.1-0.2l0,0c0.1,0,0.2,0,0.2,0c0.1,0,0.1,0,0.2,0
				c0.5,0,1,0.1,1.7,0.4c0.2,0.1,0.4,0.2,0.7,0.3c0,0,1,0.3,2.3,0.6c1.2,0.3,2.9,0.6,4.5,0.7c-0.1,0.3-0.1,0.5-0.2,0.8
				c-0.3,1-0.8,2-1.2,2.9C-67.6,408.5-69.5,407.7-70.8,406.8z M-67,413.2c-0.8,0.7-1.4,1-1.8,1.1c-0.2,0-0.3,0-0.4,0
				c-0.1,0-0.2,0-0.3,0c0,0,0,0,0,0c0-0.5,0.2-1.1,0.6-1.6c0.1-0.2,0.3-0.3,0.5-0.4c0,0,0,0,0,0c0,0,0,0,0,0c0,0.5-0.2,0.9-0.2,0.9
				c0,0.1,0,0.1,0,0.2c0.1,0.1,0.1,0.1,0.2,0C-67.9,413.1-67.4,413.1-67,413.2C-67,413.1-67,413.1-67,413.2
				C-67,413.2-67,413.2-67,413.2z M-65.7,411.3c-0.2,0.3-0.5,0.6-0.8,0.8c-0.3,0.2-0.6,0.4-0.9,0.5c-0.3,0.1-0.5,0.1-0.7,0.1
				c0,0-0.1,0-0.1,0c0,0,0,0,0,0c0-0.5,0.1-1.1,0.5-1.6c0.1-0.2,0.2-0.3,0.4-0.5c0,0,0,0,0,0c0,0,0,0,0,0c0,0.5-0.1,0.9-0.1,0.9
				c0,0.1,0,0.1,0.1,0.2c0.1,0,0.1,0,0.2,0C-66.5,411.5-66,411.4-65.7,411.3C-65.7,411.3-65.7,411.3-65.7,411.3
				C-65.7,411.3-65.7,411.3-65.7,411.3z M-65.3,410.4c-0.3,0.3-0.5,0.5-0.8,0.6c-0.4,0.2-0.7,0.2-0.8,0.2h0c0,0,0,0,0,0
				c-0.1-0.5,0-1.1,0.3-1.7c0.1-0.2,0.2-0.4,0.3-0.5c0,0,0,0,0,0c0,0,0,0,0,0c0.1,0.5,0,0.9,0,0.9c0,0.1,0,0.1,0.1,0.2
				c0.1,0,0.1,0,0.2,0c0.5-0.4,1-0.6,1.3-0.6c0,0,0,0,0,0c0,0,0,0,0,0C-64.8,409.8-65,410.2-65.3,410.4z M-64.3,408.5
				c-0.2,0.3-0.5,0.5-0.8,0.7c-0.3,0.2-0.6,0.3-0.7,0.3l0,0c0,0,0,0,0,0c-0.2-0.5-0.1-1.1,0.1-1.7c0.1-0.2,0.2-0.4,0.2-0.5
				c0,0,0,0,0,0c0,0,0,0,0,0c0.1,0.5,0.2,0.9,0.2,0.9c0,0.1,0,0.1,0.1,0.2c0.1,0,0.1,0,0.2,0l0,0c0.4-0.4,0.8-0.6,1.1-0.7
				c0.1,0,0.1,0,0.2-0.1c0,0,0,0,0,0c0,0,0,0,0,0C-63.8,407.8-64,408.2-64.3,408.5z M-63.5,406.4c-0.2,0.3-0.4,0.6-0.7,0.7
				c-0.3,0.2-0.6,0.3-0.7,0.3c0,0,0,0,0,0c0,0,0,0,0,0c-0.3-0.6-0.2-1.3-0.1-1.7c0-0.2,0.1-0.4,0.2-0.6c0,0,0,0,0,0h0c0,0,0,0,0,0
				c0.2,0.4,0.3,0.9,0.3,1c0,0.1,0.1,0.1,0.1,0.2c0.1,0,0.1,0,0.2-0.1c0.4-0.5,0.9-0.8,1.2-0.9c0,0,0,0,0,0c0,0,0,0,0,0
				C-63.1,405.8-63.3,406.1-63.5,406.4z M-62.9,404.3c-0.2,0.3-0.4,0.6-0.6,0.8c-0.3,0.3-0.5,0.4-0.7,0.4c0,0,0,0,0,0c0,0,0,0,0,0
				c-0.3-0.5-0.4-1.1-0.3-1.7c0-0.2,0.1-0.4,0.1-0.6c0,0,0,0,0,0c0,0,0,0,0,0c0.2,0.4,0.4,0.9,0.4,0.9c0,0.1,0.1,0.1,0.1,0.1
				c0.1,0,0.1,0,0.2-0.1c0.3-0.5,0.8-0.9,1.1-1c0,0,0,0,0,0c0,0,0,0,0,0C-62.7,403.6-62.8,404-62.9,404.3z"/>
			<path class="st3" d="M-72.4,383c0.4,0,0.8,0.1,1.2,0.3l0.1,0c0.2,0,0.6,0.1,1.1,0.1c0,0,0.1,0,0.1,0c-0.2-0.1-0.4-0.2-0.6-0.3
				c-0.1-0.1-0.2-0.1-0.4-0.2c-0.5-0.2-0.9-0.3-0.9-0.3c-0.1,0-0.1-0.1-0.1-0.1c0-0.1,0-0.1,0.1-0.1l2.1-0.3l-2.1-0.3
				c-0.1,0-0.1,0-0.1-0.1c0-0.1,0-0.1,0.1-0.1c0,0,0.4-0.2,0.8-0.3c0.2,0,0.6-0.1,1.1-0.3c0,0,0.1,0,0.1,0c-0.3,0-0.5,0-0.7,0
				c-0.1,0-0.3,0-0.4,0c-0.5,0-0.9,0.1-1,0.1c-0.1,0-0.1,0-0.1-0.1c0-0.1,0-0.1,0.1-0.2l1.9-1.1l-2.1,0.5c0,0-0.1,0-0.1,0
				c0,0,0-0.1,0-0.1c0,0,0.2-0.3,0.6-0.6c0.2-0.1,0.5-0.4,0.9-0.7c0,0,0.1-0.1,0.1-0.1c-0.2,0.1-0.4,0.2-0.6,0.2
				c-0.1,0-0.3,0.1-0.4,0.1c-0.5,0.2-0.9,0.5-0.9,0.5c0,0-0.1,0-0.2,0c0,0,0-0.1,0-0.2l1.3-1.7l-1.7,1.3c0,0-0.1,0-0.1,0
				c0,0-0.1-0.1-0.1-0.1c0,0,0.1-0.4,0.4-0.8c0.1-0.2,0.3-0.5,0.5-1c0,0,0-0.1,0-0.1c-0.2,0.2-0.3,0.3-0.5,0.5
				c-0.1,0.1-0.2,0.2-0.3,0.3c-0.4,0.3-0.6,0.7-0.6,0.8c0,0.1-0.1,0.1-0.2,0.1c-0.1,0-0.1-0.1-0.1-0.1l0.5-2.1l-1.1,1.9
				c0,0-0.1,0.1-0.1,0.1c-0.1,0-0.1-0.1-0.1-0.1c0,0-0.1-0.4,0-0.9c0-0.2,0.1-0.6,0.1-1.1c0,0,0-0.1,0-0.1c-0.1,0.2-0.2,0.4-0.3,0.6
				c-0.1,0.1-0.1,0.2-0.2,0.4c-0.2,0.5-0.3,0.9-0.3,0.9c0,0.1-0.1,0.1-0.1,0.1s-0.1,0-0.1-0.1l-0.3-2.1l-0.3,2.1
				c0,0.1,0,0.1-0.1,0.1c-0.1,0-0.1,0-0.1-0.1c0,0-0.2-0.4-0.3-0.8c0-0.2-0.1-0.6-0.3-1.1c0,0,0-0.1,0-0.1c0,0.3,0,0.5,0,0.7
				c0,0.1,0,0.3,0,0.4c0,0.5,0.1,1,0.1,1c0,0.1,0,0.1-0.1,0.1c-0.1,0-0.1,0-0.2-0.1l-1.1-1.9l0.5,2.1c0,0,0,0.1,0,0.1
				c0,0-0.1,0-0.1,0c0,0-0.3-0.3-0.6-0.6c-0.1-0.2-0.4-0.5-0.7-0.9c0,0-0.1-0.1-0.1-0.1c0.1,0.2,0.2,0.4,0.2,0.6
				c0,0.1,0.1,0.3,0.1,0.4c0.2,0.5,0.4,0.8,0.5,0.9c0,0,0,0.1,0,0.2c0,0-0.1,0-0.2,0l-1.7-1.3l1.3,1.7c0,0,0,0.1,0,0.1
				c0,0-0.1,0.1-0.1,0.1c0,0-0.4-0.1-0.8-0.4c-0.2-0.1-0.5-0.3-1-0.5c0,0-0.1,0-0.1,0c0.2,0.2,0.3,0.3,0.5,0.5
				c0.1,0.1,0.2,0.2,0.3,0.3c0.4,0.4,0.8,0.6,0.8,0.6c0.1,0,0.1,0.1,0.1,0.2c0,0.1-0.1,0.1-0.1,0.1l-2.1-0.5l1.9,1.1
				c0,0,0.1,0.1,0.1,0.1c0,0.1,0,0.1-0.1,0.1c0,0-0.4,0.1-0.9,0c-0.2,0-0.6-0.1-1.1-0.1c0,0-0.1,0-0.1,0c0.2,0.1,0.4,0.2,0.6,0.3
				c0.1,0.1,0.2,0.1,0.4,0.2c0.5,0.2,0.9,0.3,0.9,0.3c0.1,0,0.1,0.1,0.1,0.1c0,0.1,0,0.1-0.1,0.1l-2.1,0.3l2.1,0.3
				c0.1,0,0.1,0,0.1,0.1c0,0.1,0,0.1-0.1,0.1c0,0-0.4,0.2-0.8,0.3c-0.2,0-0.6,0.1-1.1,0.3c0,0-0.1,0-0.1,0c0.3,0,0.5,0,0.7,0
				c0,0,0.3,0,0.4,0c0.1,0,0.2,0,0.3,0l0,0c0.4-0.3,0.9-0.5,1.5-0.7c0.1,0,0.2,0,0.2,0c0,0,0.1,0.1,0.1,0.2c0.1-0.1,0.2-0.1,0.3-0.2
				c0.5-0.2,1-0.3,1.6-0.4c0.1,0,0.1,0,0.2,0.1c0,0,0.1,0.1,0.1,0.1c0.2-0.1,0.4-0.1,0.5-0.2c0.5-0.1,1-0.1,1.6,0
				c0.1,0,0.2,0.1,0.2,0.1c0,0,0,0,0,0.1c0.2,0,0.3,0,0.5,0c0.5,0,1,0.1,1.6,0.3C-72.4,382.8-72.4,382.9-72.4,383
				C-72.4,383-72.4,383-72.4,383z"/>
			<g>
				<path class="st2" d="M-75.5,380.3c2.1-0.3,2.3,0.3,2.3,0.3s0.1,0.1,0.2,0.1c0,0,0.1,0,0.1-0.2c0,0-0.2-0.7-1.3-0.8
					c0,0-0.6-0.1-1.2,0c-0.2,0-0.2,0.4-0.2,0.4C-75.7,380.3-75.5,380.3-75.5,380.3z"/>
				<path class="st2" d="M-77.2,380.7c-0.3-0.1-0.8-0.1-0.8-0.1c-0.9,0-1.2,0.6-1.2,0.6c-0.1,0.2,0.1,0.2,0.1,0.2
					c0.2,0,0.3-0.1,0.3-0.1s0.1-0.2,0.4-0.3c0,0.1,0,0.1,0,0.2c0,0.3,0.2,0.5,0.5,0.5c0.3,0,0.5-0.2,0.5-0.5c0-0.1,0-0.1,0-0.2
					c0.1,0.1,0.3,0.1,0.3,0.3c0,0.1,0.1,0.1,0.3,0.1c0.2,0,0.1-0.1,0.1-0.1C-76.9,380.8-77.2,380.7-77.2,380.7z"/>
				<path class="st2" d="M-75.5,381.4c0.2,0,0.3,0,0.3-0.1c0.1-0.2,0.2-0.3,0.3-0.3c0,0.1,0,0.1,0,0.2c0,0.3,0.2,0.5,0.5,0.5
					c0.3,0,0.5-0.2,0.5-0.5c0-0.1,0-0.1,0-0.2c0.4,0.1,0.4,0.3,0.4,0.3s0.1,0.2,0.3,0.1c0,0,0.2,0,0.1-0.2c0,0-0.2-0.6-1.2-0.6
					c0,0-0.6,0-0.8,0.1c0,0-0.3,0.1-0.4,0.6C-75.7,381.3-75.7,381.4-75.5,381.4z"/>
				<path class="st2" d="M-79.5,380.6c0.2,0,0.2-0.1,0.2-0.1s0.2-0.6,2.3-0.3c0,0,0.2,0,0.2-0.1c0,0-0.1-0.4-0.2-0.4
					c-0.6-0.1-1.2,0-1.2,0c-1.1,0.1-1.3,0.8-1.3,0.8C-79.7,380.6-79.5,380.6-79.5,380.6z"/>
			</g>
			<g>
				<path class="st4" d="M-67,413.1c-0.3,0-0.9,0-1.5,0.2c-0.1,0-0.1,0-0.2,0c-0.1-0.1-0.1-0.1,0-0.2c0,0,0.2-0.4,0.2-0.9
					c0,0,0,0,0,0c0,0,0,0,0,0c-0.2,0.1-0.3,0.3-0.5,0.4c-0.4,0.5-0.6,1-0.6,1.6c0,0,0,0,0,0c0.1,0,0.2,0,0.3,0c0.1,0,0.3,0,0.4,0
					C-68.5,414.1-67.8,413.9-67,413.1C-67,413.2-67,413.2-67,413.1C-67,413.1-67,413.1-67,413.1z"/>
				<path class="st4" d="M-83.9,412.2C-83.9,412.2-83.9,412.2-83.9,412.2C-83.9,412.2-83.9,412.2-83.9,412.2c0,0.5,0.2,0.9,0.2,0.9
					c0,0.1,0,0.1,0,0.2c-0.1,0.1-0.1,0.1-0.2,0c-0.6-0.2-1.1-0.2-1.5-0.2c0,0,0,0,0,0c0,0,0,0,0,0c0.6,0.6,1.2,0.9,1.8,1.1
					c0.2,0,0.3,0,0.4,0c0.1,0,0.2,0,0.3,0c0,0,0,0,0,0C-82.8,413.3-83.5,412.5-83.9,412.2z"/>
				<path class="st4" d="M-65.7,411.3c-0.3,0-0.8,0.1-1.4,0.5c-0.1,0-0.1,0-0.2,0c-0.1,0-0.1-0.1-0.1-0.2c0,0,0.1-0.5,0.1-0.9
					c0,0,0,0,0,0c0,0,0,0,0,0c-0.1,0.2-0.3,0.3-0.4,0.5c-0.4,0.6-0.5,1.1-0.5,1.6c0,0,0,0,0,0c0,0,0.1,0,0.1,0c0.2,0,0.4,0,0.7-0.1
					c0.3-0.1,0.6-0.3,0.9-0.5C-66.2,412-65.9,411.7-65.7,411.3C-65.7,411.3-65.7,411.3-65.7,411.3
					C-65.7,411.3-65.7,411.3-65.7,411.3z"/>
				<path class="st4" d="M-64.6,409.5c-0.3,0.1-0.8,0.2-1.3,0.6c-0.1,0-0.1,0.1-0.2,0c-0.1,0-0.1-0.1-0.1-0.2c0,0,0-0.5,0-0.9
					c0,0,0,0,0,0c0,0,0,0,0,0c-0.1,0.2-0.2,0.4-0.3,0.5c-0.3,0.6-0.4,1.1-0.3,1.7c0,0,0,0,0,0h0c0.1,0,0.4,0,0.8-0.2
					c0.3-0.1,0.6-0.3,0.8-0.6C-65,410.2-64.8,409.8-64.6,409.5C-64.5,409.5-64.5,409.5-64.6,409.5
					C-64.6,409.5-64.6,409.5-64.6,409.5z"/>
				<path class="st4" d="M-63.7,407.4c-0.1,0-0.1,0-0.2,0.1c-0.3,0.1-0.7,0.3-1.1,0.7h0c0,0.1-0.1,0.1-0.2,0c-0.1,0-0.1-0.1-0.1-0.2
					c0,0,0-0.5-0.2-0.9c0,0,0,0,0,0c0,0,0,0,0,0c-0.1,0.2-0.2,0.4-0.2,0.5c-0.2,0.6-0.3,1.2-0.1,1.7c0,0,0,0,0,0l0,0
					c0.1,0,0.4-0.1,0.7-0.3c0.3-0.2,0.5-0.4,0.8-0.7C-64,408.2-63.8,407.8-63.7,407.4C-63.7,407.4-63.7,407.4-63.7,407.4
					C-63.7,407.4-63.7,407.4-63.7,407.4z"/>
				<path class="st4" d="M-63,405.4c-0.3,0.1-0.8,0.4-1.2,0.9c0,0.1-0.1,0.1-0.2,0.1c-0.1,0-0.1-0.1-0.1-0.2c0,0-0.1-0.5-0.3-1
					c0,0,0,0,0,0h0c0,0,0,0,0,0c-0.1,0.2-0.1,0.4-0.2,0.6c-0.1,0.4-0.2,1.1,0.1,1.7c0,0,0,0,0,0c0,0,0,0,0,0c0.1,0,0.4-0.1,0.7-0.3
					c0.3-0.2,0.5-0.4,0.7-0.7C-63.3,406.1-63.1,405.8-63,405.4C-63,405.4-63,405.4-63,405.4C-63,405.4-63,405.4-63,405.4z"/>
				<path class="st4" d="M-62.6,403.2c-0.3,0.2-0.7,0.5-1.1,1c0,0.1-0.1,0.1-0.2,0.1c-0.1,0-0.1-0.1-0.1-0.1c0,0-0.1-0.5-0.4-0.9
					c0,0,0,0,0,0c0,0,0,0,0,0c-0.1,0.2-0.1,0.4-0.1,0.6c-0.1,0.7,0,1.2,0.3,1.7c0,0,0,0,0,0c0,0,0,0,0,0c0.1-0.1,0.4-0.2,0.7-0.4
					c0.2-0.2,0.4-0.5,0.6-0.8C-62.8,404-62.7,403.6-62.6,403.2C-62.6,403.2-62.6,403.2-62.6,403.2
					C-62.6,403.2-62.6,403.2-62.6,403.2z"/>
				<path class="st4" d="M-63.3,402.1c0,0.1-0.1,0.1-0.2,0.1c-0.1,0-0.1-0.1-0.2-0.1c0,0-0.2-0.5-0.5-0.9c0,0,0,0,0,0c0,0,0,0,0,0
					c0,0.2-0.1,0.4-0.1,0.6c0,0.6,0.2,1.2,0.5,1.7c0,0,0,0,0,0c0,0,0,0,0,0c0.1-0.1,0.4-0.2,0.6-0.5c0.2-0.2,0.4-0.5,0.5-0.9
					c0.1-0.3,0.2-0.7,0.2-1.1c0,0,0,0,0,0c0,0,0,0,0,0C-62.7,401.2-63.1,401.6-63.3,402.1z"/>
				<path class="st4" d="M-63.4,400.2c-0.1,0-0.1,0-0.2-0.1c0,0-0.2-0.4-0.5-0.8c0,0,0,0,0,0c0,0,0,0,0,0c0,0.5,0,1.5,0.6,2.2
					c0,0,0,0,0,0c0,0,0,0,0,0c0.1-0.1,0.3-0.2,0.6-0.6c0.2-0.3,0.3-0.6,0.4-0.9c0.1-0.3,0.1-0.7,0.1-1.2c0,0,0,0,0,0c0,0,0,0,0,0
					c-0.3,0.2-0.6,0.6-0.8,1.2C-63.3,400.1-63.3,400.2-63.4,400.2z"/>
				<path class="st4" d="M-63.5,398.1c-0.1,0-0.1,0-0.2-0.1c0,0-0.2-0.4-0.6-0.7c0,0,0,0,0,0c0,0,0,0,0,0c0.1,0.6,0.2,1.6,0.8,2.1
					c0,0,0,0,0,0c0,0,0,0,0,0c0.1-0.1,0.3-0.3,0.5-0.6c0.2-0.3,0.3-0.6,0.3-1c0.1-0.4,0.1-0.7,0-1.2c0,0,0,0,0,0c0,0,0,0,0,0
					c-0.2,0.2-0.5,0.7-0.7,1.3C-63.4,398-63.4,398-63.5,398.1z"/>
				<path class="st4" d="M-63.8,396c-0.1,0-0.1,0-0.2-0.1c0,0-0.3-0.4-0.6-0.7c0,0,0,0,0,0c0,0,0,0,0,0c0,0.2,0.1,0.4,0.1,0.6
					c0.1,0.4,0.3,1.1,0.8,1.5c0,0,0,0,0,0c0,0,0,0,0,0c0.1-0.1,0.3-0.3,0.5-0.6c0.1-0.3,0.2-0.6,0.3-1c0-0.4,0-0.7-0.1-1.2
					c0,0,0,0,0,0c0,0,0,0,0,0c-0.2,0.3-0.5,0.7-0.6,1.3C-63.7,395.9-63.7,396-63.8,396z"/>
				<path class="st4" d="M-64.3,394c-0.1,0-0.1,0-0.2,0c0,0-0.3-0.4-0.7-0.6c0,0,0,0,0,0s0,0,0,0c0,0.2,0.1,0.4,0.2,0.6
					c0.2,0.6,0.6,1.1,1,1.3c0,0,0,0,0,0c0,0,0,0,0,0c0.1-0.1,0.3-0.3,0.4-0.7c0.1-0.3,0.1-0.6,0.1-1c0-0.4-0.1-0.7-0.2-1.1
					c0,0,0,0,0,0c0,0,0,0,0,0c-0.2,0.3-0.4,0.7-0.4,1.4C-64.1,393.9-64.2,393.9-64.3,394z"/>
				<path class="st4" d="M-65.2,392c0,0-0.4-0.3-0.8-0.5c0,0,0,0,0,0c0,0,0,0,0,0c0.1,0.2,0.1,0.4,0.2,0.6c0.3,0.6,0.7,1,1.2,1.2
					c0,0,0,0,0,0c0,0,0,0,0,0c0.1-0.1,0.2-0.3,0.3-0.7c0.1-0.3,0.1-0.7,0-1c0-0.4-0.2-0.7-0.3-1.1c0,0,0,0,0,0c0,0,0,0,0,0
					c-0.2,0.3-0.3,0.8-0.3,1.4c0,0.1,0,0.1-0.1,0.2l0,0C-65,392-65.1,392-65.2,392z"/>
				<path class="st4" d="M-66.9,389.7C-66.9,389.7-67,389.7-66.9,389.7c0.1,0.2,0.2,0.4,0.3,0.6c0.4,0.5,0.8,0.9,1.4,1.1
					c0,0,0,0,0,0c0,0,0,0,0,0c0.1-0.1,0.2-0.4,0.2-0.7c0-0.3,0-0.7-0.1-1c-0.1-0.3-0.2-0.7-0.5-1.1c0,0,0,0,0,0c0,0,0,0,0,0
					c-0.1,0.3-0.2,0.8-0.1,1.4c0,0.1,0,0.1-0.1,0.2l0,0c-0.1,0-0.1,0-0.2,0C-66.1,390.1-66.5,389.8-66.9,389.7
					C-66.9,389.7-66.9,389.7-66.9,389.7z"/>
				<path class="st4" d="M-68.1,388.1C-68.1,388.1-68.1,388.1-68.1,388.1c0.1,0.2,0.3,0.4,0.4,0.5c0.5,0.5,0.9,0.8,1.5,0.9l0,0
					c0,0,0,0,0,0c0-0.1,0.1-0.4,0.1-0.8c0-0.3-0.1-0.7-0.3-1c-0.1-0.3-0.3-0.6-0.6-1c0,0,0,0,0,0c0,0,0,0,0,0
					c-0.1,0.3-0.1,0.9,0.1,1.4c0,0.1,0,0.2-0.1,0.2c-0.1,0-0.1,0-0.2,0C-67.2,388.4-67.6,388.1-68.1,388.1
					C-68.1,388.1-68.1,388.1-68.1,388.1z"/>
				<path class="st4" d="M-68.4,386.8c-0.1,0.1-0.1,0.1-0.2,0c0,0-0.4-0.2-0.9-0.2c0,0,0,0-0.1,0c0,0,0,0,0,0c0,0,0,0,0,0
					c0.2,0.2,0.3,0.3,0.5,0.5c0.4,0.3,0.9,0.6,1.5,0.6c0,0,0,0,0,0c0,0,0,0,0,0c0-0.1,0-0.4-0.1-0.8c-0.1-0.3-0.2-0.6-0.4-0.9
					c-0.2-0.3-0.4-0.6-0.8-0.9c0,0,0,0,0,0c0,0,0,0,0,0c0,0.3,0,0.8,0.3,1.4C-68.3,386.7-68.3,386.7-68.4,386.8z"/>
				<path class="st4" d="M-84.3,412.8C-84.3,412.8-84.3,412.8-84.3,412.8C-84.3,412.8-84.2,412.8-84.3,412.8
					c0.2-0.9-0.4-1.7-0.8-2.1c0,0,0,0,0,0c0,0,0,0,0,0c-0.1,0.5,0.1,0.9,0.1,0.9c0,0.1,0,0.1-0.1,0.2c-0.1,0-0.1,0-0.2,0
					c-0.5-0.3-1.1-0.4-1.4-0.5c0,0,0,0,0,0c0,0,0,0,0,0c0.2,0.3,0.5,0.6,0.8,0.8c0.3,0.2,0.6,0.4,0.9,0.5
					C-84.7,412.8-84.5,412.8-84.3,412.8z"/>
				<path class="st4" d="M-85.5,411.2L-85.5,411.2C-85.5,411.2-85.5,411.2-85.5,411.2c0.1-0.6-0.1-1.3-0.3-1.7
					c-0.1-0.2-0.2-0.4-0.3-0.5c0,0,0,0,0,0c0,0,0,0,0,0c-0.1,0.5,0,0.9,0,0.9c0,0.1,0,0.1-0.1,0.2c-0.1,0-0.1,0-0.2,0
					c-0.5-0.4-1-0.6-1.3-0.6c0,0,0,0,0,0c0,0,0,0,0,0c0.2,0.4,0.4,0.7,0.7,0.9c0.3,0.3,0.5,0.4,0.8,0.6
					C-86,411.1-85.7,411.2-85.5,411.2z"/>
				<path class="st4" d="M-86.7,409.4L-86.7,409.4C-86.7,409.4-86.6,409.4-86.7,409.4c0.2-0.5,0.1-1.1-0.1-1.7
					c-0.1-0.2-0.2-0.4-0.3-0.6c0,0,0,0,0,0c0,0,0,0,0,0c-0.1,0.5-0.2,0.9-0.2,0.9c0,0.1,0,0.1-0.1,0.2c-0.1,0-0.1,0-0.2,0
					c-0.4-0.4-0.8-0.6-1.1-0.7c-0.1,0-0.1,0-0.2-0.1c0,0,0,0,0,0c0,0,0,0,0,0c0.2,0.4,0.4,0.7,0.6,1c0.2,0.3,0.5,0.5,0.8,0.7
					C-87.1,409.4-86.8,409.4-86.7,409.4z"/>
				<path class="st4" d="M-87.6,407.6C-87.6,407.6-87.6,407.6-87.6,407.6C-87.6,407.6-87.6,407.6-87.6,407.6
					c0.4-0.9,0.1-1.9-0.1-2.3c0,0,0,0,0,0h0c0,0,0,0,0,0c-0.2,0.4-0.3,0.9-0.3,0.9c0,0.1-0.1,0.1-0.1,0.1c-0.1,0-0.1,0-0.2-0.1
					c-0.3-0.4-0.7-0.7-1-0.8c-0.1,0-0.1-0.1-0.2-0.1c0,0,0,0,0,0s0,0,0,0C-88.9,407-88,407.5-87.6,407.6z"/>
				<path class="st4" d="M-88.9,405.2c0.3,0.3,0.6,0.4,0.7,0.4c0,0,0,0,0,0c0,0,0,0,0,0c0.3-0.6,0.4-1.2,0.3-1.8
					c0-0.2-0.1-0.4-0.2-0.6c0,0,0,0,0,0c0,0,0,0,0,0c-0.2,0.4-0.4,0.9-0.4,0.9l0,0h0l0,0h0l0,0l0,0c0,0.1-0.1,0.1-0.1,0.1
					c-0.1,0-0.1,0-0.2-0.1c-0.4-0.5-0.8-0.8-1.1-1c0,0,0,0,0,0c0,0,0,0,0,0c0.1,0.4,0.2,0.8,0.4,1.1
					C-89.4,404.7-89.2,405-88.9,405.2z"/>
				<path class="st4" d="M-88.8,403.6C-88.8,403.6-88.8,403.6-88.8,403.6C-88.8,403.6-88.8,403.6-88.8,403.6
					c0.7-0.9,0.6-1.8,0.5-2.3c0,0,0,0,0,0c0,0,0,0,0,0c-0.3,0.4-0.5,0.8-0.5,0.9c0,0.1-0.1,0.1-0.2,0.1l0,0l0,0
					c-0.1,0-0.1,0-0.2-0.1c-0.2-0.5-0.5-0.8-0.8-1c0,0-0.1-0.1-0.1-0.1c0,0,0,0,0,0c0,0,0,0,0,0C-90,402.8-89.2,403.4-88.8,403.6z"
					/>
				<path class="st4" d="M-89,401.6C-89,401.6-89,401.6-89,401.6C-89,401.6-89,401.6-89,401.6c0.3-0.3,0.6-0.7,0.6-1.2
					c0.1-0.4,0-0.8,0-1.1c0,0,0,0,0,0c0,0,0,0,0,0c-0.4,0.3-0.5,0.8-0.5,0.8l0,0c0,0.1-0.1,0.1-0.2,0.2c-0.1,0-0.2,0-0.2-0.1
					c-0.2-0.5-0.4-0.9-0.6-1.1c0,0-0.1-0.1-0.1-0.1c0,0,0,0,0,0c0,0,0,0,0,0C-90.1,400.6-89.3,401.3-89,401.6z"/>
				<path class="st4" d="M-89.5,398.8c0.2,0.3,0.4,0.5,0.5,0.6c0,0,0,0,0,0c0,0,0,0,0,0c0.4-0.4,0.6-0.9,0.8-1.5
					c0-0.2,0.1-0.4,0.1-0.6c0,0,0,0,0,0c0,0,0,0,0,0c-0.4,0.3-0.6,0.7-0.6,0.7c0,0.1-0.1,0.1-0.2,0.1c-0.1,0-0.1-0.1-0.2-0.1
					c-0.2-0.6-0.5-1-0.7-1.3c0,0,0,0,0,0c0,0,0,0,0,0c-0.1,0.4-0.1,0.8,0,1.2C-89.7,398.2-89.6,398.5-89.5,398.8z"/>
				<path class="st4" d="M-89.2,396.7c0.2,0.3,0.4,0.5,0.5,0.6c0,0,0,0,0,0c0,0,0,0,0,0c0.5-0.4,0.8-0.9,0.9-1.5
					c0-0.2,0.1-0.4,0.1-0.6c0,0,0,0,0,0c0,0,0,0,0,0c-0.4,0.3-0.7,0.7-0.7,0.7c0,0.1-0.1,0.1-0.2,0.1c-0.1,0-0.1-0.1-0.1-0.1
					c-0.1-0.6-0.4-1.1-0.6-1.3c0,0,0,0,0,0c0,0,0,0,0,0c-0.1,0.4-0.1,0.8-0.1,1.2C-89.5,396-89.4,396.4-89.2,396.7z"/>
				<path class="st4" d="M-88.5,395.2C-88.5,395.3-88.5,395.3-88.5,395.2C-88.5,395.3-88.5,395.3-88.5,395.2
					c0.6-0.3,0.9-0.8,1.1-1.4c0.1-0.2,0.1-0.4,0.1-0.6c0,0,0,0,0,0c0,0,0,0,0,0c-0.4,0.3-0.8,0.6-0.8,0.6c0,0.1-0.1,0.1-0.2,0.1
					c-0.1,0-0.1-0.1-0.1-0.2c-0.1-0.6-0.3-1.1-0.5-1.4c0,0,0,0,0,0c0,0,0,0,0,0c-0.1,0.4-0.2,0.8-0.2,1.1c0,0.4,0,0.7,0.2,1
					C-88.8,394.9-88.6,395.2-88.5,395.2z"/>
				<path class="st4" d="M-88,393.2C-88,393.2-88,393.2-88,393.2C-88,393.2-88,393.2-88,393.2c0.6-0.3,1-0.7,1.3-1.3
					c0.1-0.2,0.1-0.3,0.2-0.5c0,0,0,0,0,0s0,0,0,0c-0.4,0.2-0.8,0.5-0.8,0.5c-0.1,0-0.1,0.1-0.2,0c-0.1,0-0.1-0.1-0.1-0.2
					c0-0.6-0.1-1.1-0.3-1.4c0,0,0,0,0,0h0c0,0,0,0,0,0c-0.2,0.4-0.3,0.8-0.3,1.1c-0.1,0.4,0,0.7,0,1
					C-88.2,392.9-88.1,393.1-88,393.2z"/>
				<path class="st4" d="M-87.2,391.3C-87.2,391.3-87.2,391.3-87.2,391.3C-87.2,391.3-87.2,391.3-87.2,391.3c0.5-0.1,1-0.5,1.4-1
					c0.2-0.2,0.3-0.4,0.4-0.6c0,0,0,0,0,0c0,0,0,0,0,0c-0.5,0.1-0.9,0.4-0.9,0.4c-0.1,0.1-0.1,0.1-0.2,0c-0.1,0-0.1-0.1-0.1-0.2
					c0.1-0.6,0-1.1-0.1-1.4c0,0,0,0,0,0c0,0,0,0,0,0c-0.2,0.4-0.4,0.7-0.5,1c-0.1,0.3-0.2,0.7-0.1,1
					C-87.4,390.9-87.3,391.2-87.2,391.3z"/>
				<path class="st4" d="M-86.2,389.5L-86.2,389.5c0.9-0.1,1.6-0.9,1.9-1.4c0,0,0,0,0,0c0,0,0,0,0,0c-0.5,0-0.9,0.3-0.9,0.3
					c-0.1,0-0.1,0-0.2,0c-0.1,0-0.1-0.1-0.1-0.2c0.2-0.6,0.2-1.1,0.1-1.4c0,0,0,0,0,0c0,0,0,0,0,0C-86.5,388-86.3,389.1-86.2,389.5
					C-86.2,389.5-86.2,389.5-86.2,389.5z"/>
				<path class="st4" d="M-84.9,387.8C-84.9,387.8-84.9,387.8-84.9,387.8c0.6,0,1.1-0.3,1.5-0.6c0.2-0.1,0.4-0.3,0.5-0.5
					c0,0,0,0,0,0c0,0,0,0,0,0c-0.5,0-0.9,0.2-0.9,0.2c-0.1,0-0.1,0-0.2-0.1c0-0.1-0.1-0.1,0-0.2c0.3-0.6,0.3-1.1,0.3-1.4
					c0,0,0,0,0,0c0,0,0,0,0,0c-0.3,0.3-0.6,0.6-0.8,0.9c-0.2,0.3-0.3,0.6-0.4,0.9C-85,387.4-85,387.7-84.9,387.8
					C-85,387.8-84.9,387.8-84.9,387.8z"/>
				<path class="st4" d="M-81.3,385.5c-0.5,0-0.9,0.1-0.9,0.1c-0.1,0-0.1,0-0.2-0.1c0-0.1,0-0.1,0-0.2c0.4-0.5,0.4-1,0.5-1.4
					c0,0,0,0,0,0c0,0,0,0,0,0c-1.4,1-1.5,2-1.5,2.5c0,0,0,0,0,0c0,0,0.1,0,0.1,0C-82.5,386.3-81.7,385.8-81.3,385.5
					C-81.3,385.5-81.3,385.5-81.3,385.5C-81.3,385.5-81.3,385.5-81.3,385.5z"/>
				<path class="st4" d="M-79.5,384.6c-0.1,0-0.3-0.1-0.5-0.1c-0.3,0-0.5,0-0.5,0c0,0,0,0,0,0c-0.1,0-0.1,0-0.2-0.1
					c0-0.1,0-0.2,0.1-0.2c0.5-0.4,0.7-0.8,0.8-1c0,0,0,0,0,0c0,0,0,0,0,0c-1.6,0.5-2,1.5-2,1.9c0,0,0,0,0,0c0.2,0,0.4,0.1,0.6,0.1
					c0.3,0,0.7-0.1,1.1-0.2C-79.9,384.8-79.7,384.7-79.5,384.6C-79.5,384.6-79.5,384.6-79.5,384.6
					C-79.5,384.6-79.5,384.6-79.5,384.6z"/>
				<path class="st4" d="M-77.6,384.1c-0.4-0.2-0.9-0.3-0.9-0.3c-0.1,0-0.1-0.1-0.1-0.2c0-0.1,0-0.2,0.1-0.2
					c0.5-0.3,0.8-0.5,0.9-0.7c0,0,0,0,0,0c0,0,0,0,0,0c-0.8,0.1-1.5,0.4-1.9,0.8c-0.2,0.2-0.3,0.4-0.4,0.6c0,0,0,0,0,0
					c0.4,0.2,0.7,0.2,1.1,0.2c0.2,0,0.4,0,0.6-0.1C-78,384.2-77.8,384.2-77.6,384.1C-77.6,384.1-77.6,384.1-77.6,384.1
					C-77.6,384.1-77.6,384.1-77.6,384.1z"/>
				<path class="st4" d="M-76.3,383.5c-0.1,0-0.1-0.1-0.1-0.2c0-0.1,0.1-0.1,0.1-0.2c0.5-0.2,0.9-0.4,1-0.5c0,0,0,0,0,0c0,0,0,0,0,0
					c-0.8-0.1-1.5,0.1-2,0.4c-0.3,0.2-0.4,0.3-0.5,0.5c0,0,0,0,0,0c0.6,0.4,1.3,0.5,1.8,0.5c0.2,0,0.3,0,0.4,0c0,0,0,0,0,0
					c0,0,0,0,0,0C-75.9,383.7-76.3,383.5-76.3,383.5z"/>
				<path class="st4" d="M-74.2,383.7c-0.1,0-0.1-0.1-0.1-0.2c0-0.1,0.1-0.1,0.2-0.1c0.5-0.1,0.9-0.2,1.1-0.3c0,0,0,0,0,0
					c0,0,0,0,0,0c-0.8-0.2-1.5-0.2-2,0c-0.3,0.1-0.5,0.3-0.6,0.4c0,0,0,0,0,0c0.7,0.8,1.6,1,2.1,1h0c0,0,0,0,0,0c0,0,0,0,0,0
					C-73.8,384-74.2,383.7-74.2,383.7z"/>
				<path class="st4" d="M-69,386.3C-68.9,386.3-68.9,386.3-69,386.3c0-0.2,0-0.5-0.1-0.9c-0.2-0.6-0.7-1.1-1.5-1.3c0,0,0,0,0,0
					c0,0,0,0,0,0c0.1,0.3,0.3,0.7,0.6,1.1c0,0.1,0.1,0.1,0,0.2c0,0.1-0.1,0.1-0.2,0.1c0,0-0.5-0.1-0.9,0c0,0,0,0,0,0c0,0,0,0,0,0
					C-70.7,385.8-69.8,386.3-69,386.3C-69,386.3-69,386.3-69,386.3z"/>
				<path class="st4" d="M-70.6,385C-70.6,385-70.6,385-70.6,385c-0.4-0.4-0.9-0.6-1.5-0.6c-0.2,0-0.4,0.1-0.7,0.1c0,0,0,0,0,0
					c0,0,0,0,0,0c0.5,0.4,1,0.6,1.5,0.6c0,0,0.1,0,0.1,0C-71,385.1-70.8,385.1-70.6,385C-70.6,385-70.6,385-70.6,385z"/>
				<path class="st4" d="M-73.6,383.7C-73.6,383.7-73.6,383.7-73.6,383.7c0.3,0.2,0.7,0.3,1.1,0.3c0.2,0,0.4,0,0.6-0.1
					c0.3-0.1,0.6-0.2,0.8-0.2c0,0,0,0,0,0c0,0,0,0,0,0c-0.3-0.2-0.6-0.3-0.9-0.3c-0.3-0.1-0.6,0-1,0
					C-73.2,383.5-73.5,383.6-73.6,383.7C-73.6,383.7-73.6,383.7-73.6,383.7z"/>
			</g>
			<g>
				<path class="st5" d="M-79.6,395.5c0.1,0.1,0.3,0.2,0.5,0.2h2.3C-78.2,394.8-78.7,395-79.6,395.5
					C-79.7,395.4-79.7,395.5-79.6,395.5z"/>
				<path class="st5" d="M-73.9,394.4c-0.2-0.1-0.4-0.1-0.6-0.2c-0.7-0.3-1.3-0.8-1.4-0.8c-0.1-0.1-0.2-0.3-0.1-0.5
					c0.1-0.1,0.3-0.2,0.5-0.1c0,0,0.6,0.4,1.2,0.7c0.1,0.1,0.3,0.1,0.5,0.2c0.3,0.1,0.6,0.2,0.9,0.3c-0.1-0.4-0.1-0.7-0.2-1
					c-0.9-0.2-1.7-0.8-1.8-0.9c-0.1-0.1-0.1-0.1-0.1-0.2c0-0.1,0-0.2,0.1-0.3c0.1-0.1,0.3-0.2,0.5,0c0,0,0.5,0.4,1.1,0.6
					c-0.2-0.9-0.6-1.8-1-2.7c-0.3-0.6-0.8-1-1.4-1.2c-0.4-0.1-0.8-0.1-0.8-0.1c0,0,0,0,0,0c0,0-1.1,0-1.8,0.9c0,0,0,0,0,0
					c-0.1,0.1-0.5,0.5-0.5,0.9c0,0.2,0,0.3,0.1,0.4c0,0,0.2,0.1,0.6-0.1c0.1-0.1,0.1-0.1,0.1-0.1c0.2-0.1,0.4-0.1,0.5,0.1
					c0.1,0.1,0.1,0.4,0,0.5c0,0-0.1,0.1-0.1,0.1c-0.1,0.1-0.4,0.4-0.7,0.8c-0.4,0.6-1,1.6-1.3,3c0,0,0,0.1,0,0.1
					c1-0.4,1.8-0.6,3.5,0.5c0.7,0.4,1.5,0.5,1.6,0.5h0.8c0,0,0,0,0,0c0.2,0,0.8,0,1-0.3c0,0,0.1-0.1,0.1-0.2
					C-72.7,394.8-73.1,394.6-73.9,394.4z"/>
			</g>
			<g>
				<path class="st6" d="M-77.3,407.8c0.1-0.1,0.2-0.2,0.2-0.3c0,0,0-0.1-0.1-0.1c-0.1-0.1-0.2-0.1-0.2-0.1c-0.2,0-0.4,0.1-0.7,0.3
					c-0.2,0.1-0.5,0.4-0.5,0.7c0,0.1,0.1,0.1,0.1,0.2c0.2,0.1,0.5,0.1,0.6,0.1C-77.8,408.3-77.6,408.1-77.3,407.8z"/>
				<path class="st6" d="M-76.1,408.3c0,0,0-0.1-0.1-0.2c0,0-0.2-0.1-0.5,0.1c-0.3,0.2-0.5,0.3-0.7,0.6c0.1,0.1,0.1,0.1,0.2,0.1
					c0.3,0.1,0.7-0.2,0.8-0.3c0,0,0,0,0,0C-76.3,408.5-76.1,408.4-76.1,408.3z"/>
				<path class="st6" d="M-79.7,406.6C-79.8,406.6-79.8,406.6-79.7,406.6c-0.3,0-0.7,0.2-0.8,0.4c-0.1,0.1-0.1,0.2-0.1,0.3
					c0,0,0.1,0.1,0.3,0.1c0,0,0.1,0,0.1,0c0.1-0.3,0.3-0.5,0.4-0.7c0,0,0.1-0.1,0.1-0.1C-79.6,406.6-79.7,406.6-79.7,406.6
					C-79.7,406.6-79.7,406.6-79.7,406.6z"/>
				<path class="st6" d="M-79.6,407.7c0,0.1,0,0.2,0.3,0.3c0,0,0.1,0,0.1,0c0.1-0.3,0.3-0.6,0.7-0.9c0.1,0,0.1-0.1,0.2-0.1
					c0,0,0,0,0-0.1c0,0-0.1-0.1-0.2-0.1c-0.1,0-0.1,0-0.2,0c-0.2,0-0.4,0.1-0.7,0.4C-79.6,407.4-79.6,407.5-79.6,407.7z"/>
				<path class="st6" d="M-72.3,407.1c0.2,0,0.3,0,0.4-0.1c0.1-0.1,0.1-0.2,0.1-0.3c-0.2-0.2-0.8-0.9-1.5-1.4
					c-0.3-0.2-0.7-0.4-1.1-0.6c-0.4-0.2-0.7-0.2-1.1-0.1c0,0,0,0,0,0c-0.1,0-0.2,0.1-0.4,0.2c-0.1,0.1-0.2,0.1-0.3,0.2
					c-0.4,0.2-0.8,0.3-1.2,0.4c-0.4,0-0.8,0-1.1-0.3c-0.2-0.2-0.2-0.5-0.1-0.7c0.1-0.2,0.4-0.4,0.7-0.5c0.1-0.1,0.3-0.1,0.4-0.2
					c0.2-0.1,0.3-0.2,0.4-0.3c0.1-0.1,0.3-0.2,0.5-0.4c0.1-0.1,0.2-0.1,0.3-0.2c-0.1,0-0.2,0-0.4,0c-0.6,0-1,0.2-1.6,0.6
					c-0.5,0.3-1.5,0.7-3.1,1c-1.5,0.3-3.5,0.6-6,0.9c0.1,0.3,0.2,0.6,0.2,0.8c0.3,1,0.7,2,1.2,2.8c0.9-0.4,3.1-1.4,4.8-2.3
					c0.3-0.3,0.9-0.5,1.3-0.5c0.1,0,0.4,0,0.7,0.3c0.3-0.1,0.6-0.1,0.8,0.1c0.3,0.1,0.4,0.3,0.5,0.5l0,0c0.4-0.1,0.7,0,0.9,0.2
					c0.2,0.1,0.3,0.3,0.3,0.5c0.3-0.1,0.6,0.1,0.7,0.2c0.3,0.2,0.3,0.5,0.3,0.7c0,0.1-0.1,0.2-0.1,0.4c0.2,0,0.3,0,0.5-0.1
					c0.1,0,0.1,0,0.2-0.1c-0.1-0.1-0.2-0.4-0.4-0.6c-0.1-0.1-0.1-0.1-0.1-0.2c0-0.1,0-0.2,0.1-0.2c0.1-0.1,0.3-0.1,0.4,0
					c0.3,0.3,0.5,0.7,0.5,0.8c0.2,0,0.3,0,0.4-0.1c0.1-0.1,0.1-0.1,0.1-0.2c0-0.1-0.1-0.2-0.3-0.4c-0.2-0.2-0.6-0.5-0.7-0.6
					c-0.1,0-0.1-0.1-0.1-0.2c0-0.1,0-0.2,0.1-0.2c0-0.1,0.1-0.1,0.2-0.1c0.1,0,0.2,0,0.2,0.1c0,0,0.5,0.4,0.8,0.7
					c0.2,0.2,0.3,0.4,0.4,0.6c0.2,0,0.4-0.1,0.5-0.2c0,0,0.1-0.1,0.1-0.1c-0.2-0.3-0.8-1-1.5-1.4c-0.1,0-0.1-0.1-0.2-0.2
					c0-0.1,0-0.2,0-0.2c0-0.1,0.1-0.1,0.2-0.2c0.1,0,0.2,0,0.2,0C-73.2,406-72.5,406.8-72.3,407.1z"/>
				<path class="st6" d="M-76.1,404.3c0.2-0.1,0.4-0.2,0.6-0.3c1-0.3,2,0.4,2.6,0.8c0.8,0.5,1.3,1.1,1.6,1.4c0,0,0,0,0,0.1l0,0
					c0,0,0,0,0,0c0.1,0.1,0.3,0.3,0.5,0.5c1.3,0.9,3.2,1.8,4,2.1c0.5-0.9,0.9-1.9,1.2-2.9c0.1-0.2,0.2-0.5,0.2-0.8
					c-1.6-0.1-3.3-0.5-4.5-0.7c-1.3-0.3-2.3-0.6-2.3-0.6c-0.3-0.1-0.5-0.2-0.7-0.3c-0.7-0.3-1.2-0.4-1.7-0.4c-0.1,0-0.1,0-0.2,0
					c-0.1,0-0.2,0-0.2,0l0,0c-0.5,0-0.8,0-1.1,0.2c-0.2,0.2-0.4,0.3-0.5,0.4c-0.1,0.1-0.3,0.2-0.4,0.3c-0.1,0.1-0.3,0.2-0.5,0.3
					c-0.1,0.1-0.4,0.2-0.4,0.2c0,0,0,0.1,0.1,0.2c0.1,0.1,0.2,0.1,0.5,0.1c0.3,0,0.6-0.1,1-0.3C-76.3,404.5-76.2,404.4-76.1,404.3z"
					/>
			</g>
		</g>
		<g>
			<g>
				<path class="st0" d="M-52.2,375.4h1.1l1.8,2.8l1.8-2.8h1.1v6h-1v-4.3l-1.9,2.8h0l-1.9-2.8v4.3h-1V375.4z"/>
				<path class="st0" d="M-45.2,375.2h1.1v1h-1.1V375.2z M-45.2,376.9h1v4.5h-1V376.9z"/>
				<path class="st0" d="M-43.1,376.9h1v0.7c0.3-0.4,0.7-0.8,1.4-0.8c1,0,1.6,0.7,1.6,1.7v2.9h-1v-2.6c0-0.7-0.3-1.1-1-1.1
					c-0.6,0-1,0.4-1,1.1v2.5h-1V376.9z"/>
				<path class="st0" d="M-38.1,375.2h1.1v1h-1.1V375.2z M-38,376.9h1v4.5h-1V376.9z"/>
				<path class="st0" d="M-36.3,380.8l0.5-0.7c0.5,0.4,1,0.6,1.5,0.6c0.4,0,0.7-0.2,0.7-0.5v0c0-0.3-0.5-0.5-1-0.6
					c-0.7-0.2-1.4-0.5-1.4-1.3v0c0-0.9,0.7-1.4,1.6-1.4c0.6,0,1.2,0.2,1.7,0.5l-0.4,0.7c-0.4-0.3-0.9-0.4-1.3-0.4
					c-0.4,0-0.6,0.2-0.6,0.5v0c0,0.3,0.5,0.5,1,0.6c0.7,0.2,1.4,0.5,1.4,1.3v0c0,0.9-0.7,1.4-1.7,1.4
					C-35.1,381.5-35.8,381.2-36.3,380.8z"/>
				<path class="st0" d="M-31.9,380.1v-2.4h-0.6v-0.9h0.6v-1.2h1v1.2h1.2v0.9h-1.2v2.2c0,0.4,0.2,0.6,0.6,0.6c0.2,0,0.4-0.1,0.6-0.2
					v0.8c-0.3,0.1-0.5,0.2-0.9,0.2C-31.3,381.5-31.9,381.1-31.9,380.1z"/>
				<path class="st0" d="M-29.3,379.1L-29.3,379.1c0-1.3,0.9-2.4,2.2-2.4c1.4,0,2.2,1.1,2.2,2.4c0,0.1,0,0.2,0,0.3h-3.3
					c0.1,0.7,0.6,1.1,1.3,1.1c0.5,0,0.9-0.2,1.2-0.5l0.6,0.5c-0.4,0.5-1,0.8-1.8,0.8C-28.3,381.5-29.3,380.5-29.3,379.1z
					 M-25.9,378.8c-0.1-0.7-0.5-1.2-1.1-1.2c-0.6,0-1.1,0.5-1.2,1.2H-25.9z"/>
				<path class="st0" d="M-24.2,376.9h1v1c0.3-0.7,0.8-1.1,1.6-1.1v1.1h-0.1c-0.9,0-1.5,0.6-1.5,1.8v1.7h-1V376.9z"/>
				<path class="st0" d="M-20.9,375.2h1.1v1h-1.1V375.2z M-20.9,376.9h1v4.5h-1V376.9z"/>
				<path class="st0" d="M-19.1,379.2L-19.1,379.2c0-1.3,1-2.4,2.4-2.4c1.4,0,2.4,1,2.4,2.3v0c0,1.3-1,2.3-2.4,2.3
					C-18,381.5-19.1,380.4-19.1,379.2z M-15.3,379.2L-15.3,379.2c0-0.8-0.6-1.5-1.4-1.5c-0.8,0-1.4,0.6-1.4,1.4v0
					c0,0.8,0.6,1.4,1.4,1.4C-15.8,380.6-15.3,379.9-15.3,379.2z"/>
				<path class="st0" d="M-11.5,379.1L-11.5,379.1c0-1.5,1-2.4,2.1-2.4c0.7,0,1.2,0.4,1.5,0.8v-2.4h1v6.2h-1v-0.7
					c-0.3,0.5-0.8,0.8-1.5,0.8C-10.5,381.5-11.5,380.6-11.5,379.1z M-7.8,379.1L-7.8,379.1c0-0.9-0.6-1.5-1.3-1.5
					c-0.7,0-1.3,0.5-1.3,1.4v0c0,0.9,0.6,1.4,1.3,1.4C-8.5,380.6-7.8,380-7.8,379.1z"/>
				<path class="st0" d="M-6.1,379.1L-6.1,379.1c0-1.3,0.9-2.4,2.2-2.4c1.4,0,2.2,1.1,2.2,2.4c0,0.1,0,0.2,0,0.3h-3.3
					c0.1,0.7,0.6,1.1,1.3,1.1c0.5,0,0.9-0.2,1.2-0.5l0.6,0.5c-0.4,0.5-1,0.8-1.8,0.8C-5.1,381.5-6.1,380.5-6.1,379.1z M-2.8,378.8
					c-0.1-0.7-0.5-1.2-1.1-1.2c-0.6,0-1.1,0.5-1.2,1.2H-2.8z"/>
				<path class="st0" d="M1,380.5l0.6-0.7c0.6,0.5,1.1,0.8,1.9,0.8c0.6,0,1.1-0.3,1.1-0.7v0c0-0.4-0.2-0.7-1.3-0.9
					c-1.3-0.3-2-0.7-2-1.8v0c0-1,0.9-1.7,2-1.7c0.9,0,1.6,0.3,2.2,0.7l-0.6,0.8c-0.5-0.4-1.1-0.6-1.6-0.6c-0.6,0-1,0.3-1,0.7v0
					c0,0.5,0.3,0.7,1.4,0.9c1.3,0.3,1.9,0.8,1.9,1.7v0c0,1.1-0.9,1.8-2.1,1.8C2.6,381.5,1.7,381.1,1,380.5z"/>
				<path class="st0" d="M9.2,381.4v-0.6c-0.3,0.4-0.8,0.6-1.5,0.6c-0.9,0-1.6-0.5-1.6-1.4v0c0-1,0.8-1.5,1.8-1.5
					c0.5,0,0.9,0.1,1.2,0.2v-0.1c0-0.6-0.4-1-1.1-1c-0.5,0-0.9,0.1-1.3,0.3l-0.3-0.8c0.5-0.2,1-0.4,1.7-0.4c1.3,0,2,0.7,2,1.9v2.7
					H9.2z M9.2,379.5c-0.3-0.1-0.6-0.2-1-0.2c-0.6,0-1,0.3-1,0.7v0c0,0.4,0.4,0.7,0.9,0.7c0.7,0,1.2-0.4,1.2-0.9V379.5z"/>
				<path class="st0" d="M11.2,375.2h1v6.2h-1V375.2z"/>
				<path class="st0" d="M13.2,379.7v-2.9h1v2.6c0,0.7,0.3,1.1,1,1.1c0.6,0,1-0.4,1-1.1v-2.5h1v4.5h-1v-0.7
					c-0.3,0.4-0.7,0.8-1.4,0.8C13.8,381.5,13.2,380.8,13.2,379.7z"/>
				<path class="st0" d="M18,379.1L18,379.1c0-1.5,1-2.4,2.1-2.4c0.7,0,1.2,0.4,1.5,0.8v-2.4h1v6.2h-1v-0.7
					c-0.3,0.5-0.8,0.8-1.5,0.8C19,381.5,18,380.6,18,379.1z M21.6,379.1L21.6,379.1c0-0.9-0.6-1.5-1.3-1.5c-0.7,0-1.3,0.5-1.3,1.4v0
					c0,0.9,0.6,1.4,1.3,1.4C21,380.6,21.6,380,21.6,379.1z"/>
				<path class="st0" d="M-52.3,391.5l0.3-0.8c0.2,0.1,0.4,0.2,0.6,0.2c0.3,0,0.5-0.1,0.6-0.5l-1.9-4.5h1.1l1.3,3.3l1.2-3.3h1.1
					l-1.8,4.6c-0.4,0.9-0.8,1.3-1.5,1.3C-51.6,391.7-52,391.6-52.3,391.5z"/>
				<path class="st0" d="M-45,384.4h2.2c1.9,0,3.2,1.3,3.2,3v0c0,1.7-1.3,3-3.2,3H-45V384.4z M-42.7,389.4c1.3,0,2.1-0.8,2.1-2v0
					c0-1.2-0.8-2-2.1-2h-1.2v4.1H-42.7z"/>
				<path class="st0" d="M-38.9,388.1L-38.9,388.1c0-1.3,0.9-2.4,2.2-2.4c1.4,0,2.2,1.1,2.2,2.4c0,0.1,0,0.2,0,0.3h-3.3
					c0.1,0.7,0.6,1.1,1.3,1.1c0.5,0,0.9-0.2,1.2-0.5l0.6,0.5c-0.4,0.5-1,0.8-1.8,0.8C-37.9,390.5-38.9,389.5-38.9,388.1z
					 M-35.5,387.8c-0.1-0.7-0.5-1.2-1.1-1.2c-0.6,0-1.1,0.5-1.2,1.2H-35.5z"/>
				<path class="st0" d="M-34,389.8l0.5-0.7c0.5,0.4,1,0.6,1.5,0.6c0.4,0,0.7-0.2,0.7-0.5v0c0-0.3-0.5-0.5-1-0.6
					c-0.7-0.2-1.4-0.5-1.4-1.3v0c0-0.9,0.7-1.4,1.6-1.4c0.6,0,1.2,0.2,1.7,0.5L-31,387c-0.4-0.3-0.9-0.4-1.3-0.4
					c-0.4,0-0.6,0.2-0.6,0.5v0c0,0.3,0.5,0.5,1,0.6c0.7,0.2,1.4,0.5,1.4,1.3v0c0,0.9-0.7,1.4-1.7,1.4
					C-32.8,390.4-33.5,390.2-34,389.8z"/>
				<path class="st0" d="M-26.9,390.3v-0.6c-0.3,0.4-0.8,0.6-1.5,0.6c-0.9,0-1.6-0.5-1.6-1.4v0c0-1,0.8-1.5,1.8-1.5
					c0.5,0,0.9,0.1,1.2,0.2v-0.1c0-0.6-0.4-1-1.1-1c-0.5,0-0.9,0.1-1.3,0.3l-0.3-0.8c0.5-0.2,1-0.4,1.7-0.4c1.3,0,2,0.7,2,1.9v2.7
					H-26.9z M-26.8,388.5c-0.3-0.1-0.6-0.2-1-0.2c-0.6,0-1,0.3-1,0.7v0c0,0.4,0.4,0.7,0.9,0.7c0.7,0,1.2-0.4,1.2-0.9V388.5z"/>
				<path class="st0" d="M-24.8,385.9h1v1c0.3-0.7,0.8-1.1,1.6-1.1v1.1h-0.1c-0.9,0-1.5,0.6-1.5,1.8v1.7h-1V385.9z"/>
				<path class="st0" d="M-21.5,385.9h1v1c0.3-0.7,0.8-1.1,1.6-1.1v1.1h-0.1c-0.9,0-1.5,0.6-1.5,1.8v1.7h-1V385.9z"/>
				<path class="st0" d="M-18.6,388.1L-18.6,388.1c0-1.3,1-2.4,2.4-2.4c1.4,0,2.4,1,2.4,2.3v0c0,1.3-1,2.3-2.4,2.3
					C-17.5,390.5-18.6,389.4-18.6,388.1z M-14.8,388.1L-14.8,388.1c0-0.8-0.6-1.5-1.4-1.5c-0.8,0-1.4,0.6-1.4,1.4v0
					c0,0.8,0.6,1.4,1.4,1.4C-15.3,389.6-14.8,388.9-14.8,388.1z"/>
				<path class="st0" d="M-12.8,384.1h1v6.2h-1V384.1z"/>
				<path class="st0" d="M-10.6,384.1h1v6.2h-1V384.1z"/>
				<path class="st0" d="M-8.7,388.1L-8.7,388.1c0-1.3,1-2.4,2.4-2.4c1.4,0,2.4,1,2.4,2.3v0c0,1.3-1,2.3-2.4,2.3
					C-7.7,390.5-8.7,389.4-8.7,388.1z M-4.9,388.1L-4.9,388.1c0-0.8-0.6-1.5-1.4-1.5c-0.8,0-1.4,0.6-1.4,1.4v0
					c0,0.8,0.6,1.4,1.4,1.4C-5.4,389.6-4.9,388.9-4.9,388.1z"/>
				<path class="st0" d="M-0.9,389.5l0.6-0.7c0.6,0.5,1.1,0.8,1.9,0.8c0.6,0,1.1-0.3,1.1-0.7v0c0-0.4-0.2-0.7-1.3-0.9
					c-1.3-0.3-2-0.7-2-1.8v0c0-1,0.9-1.7,2-1.7c0.9,0,1.6,0.3,2.2,0.7l-0.6,0.8c-0.5-0.4-1.1-0.6-1.6-0.6c-0.6,0-1,0.3-1,0.7v0
					c0,0.5,0.3,0.7,1.4,0.9c1.3,0.3,1.9,0.8,1.9,1.7v0c0,1.1-0.9,1.8-2.1,1.8C0.6,390.4-0.2,390.1-0.9,389.5z"/>
				<path class="st0" d="M4.4,388.1L4.4,388.1c0-1.3,1-2.4,2.4-2.4c1.4,0,2.4,1,2.4,2.3v0c0,1.3-1,2.3-2.4,2.3
					C5.4,390.5,4.4,389.4,4.4,388.1z M8.1,388.1L8.1,388.1c0-0.8-0.6-1.5-1.4-1.5c-0.8,0-1.4,0.6-1.4,1.4v0c0,0.8,0.6,1.4,1.4,1.4
					C7.6,389.6,8.1,388.9,8.1,388.1z"/>
				<path class="st0" d="M9.8,388.1L9.8,388.1c0-1.3,1-2.4,2.3-2.4c0.9,0,1.4,0.3,1.8,0.8l-0.6,0.7c-0.3-0.3-0.6-0.6-1.2-0.6
					c-0.7,0-1.3,0.6-1.3,1.4v0c0,0.8,0.6,1.4,1.3,1.4c0.5,0,0.8-0.2,1.2-0.6l0.6,0.6c-0.4,0.5-1,0.8-1.8,0.8
					C10.7,390.5,9.8,389.4,9.8,388.1z"/>
				<path class="st0" d="M14.7,384.2h1.1v1h-1.1V384.2z M14.7,385.9h1v4.5h-1V385.9z"/>
				<path class="st0" d="M19.7,390.3v-0.6c-0.3,0.4-0.8,0.6-1.5,0.6c-0.9,0-1.6-0.5-1.6-1.4v0c0-1,0.8-1.5,1.8-1.5
					c0.5,0,0.9,0.1,1.2,0.2v-0.1c0-0.6-0.4-1-1.1-1c-0.5,0-0.9,0.1-1.3,0.3l-0.3-0.8c0.5-0.2,1-0.4,1.7-0.4c1.3,0,2,0.7,2,1.9v2.7
					H19.7z M19.7,388.5c-0.3-0.1-0.6-0.2-1-0.2c-0.6,0-1,0.3-1,0.7v0c0,0.4,0.4,0.7,0.9,0.7c0.7,0,1.2-0.4,1.2-0.9V388.5z"/>
				<path class="st0" d="M21.6,384.1h1v6.2h-1V384.1z"/>
			</g>
			<g>
				<path class="st0" d="M-52.3,394.8h3.7c2.2,0,3.6,1.3,3.6,3.2v0c0,2.1-1.7,3.2-3.8,3.2h-1.9v3h-1.7V394.8z M-48.7,399.7
					c1.3,0,2-0.7,2-1.7v0c0-1.1-0.8-1.7-2-1.7h-1.9v3.4H-48.7z"/>
				<path class="st0" d="M-43.6,397.1h1.6v1.6c0.4-1.1,1.3-1.8,2.5-1.7v1.7h-0.1c-1.4,0-2.4,0.9-2.4,2.8v2.7h-1.6V397.1z"/>
				<path class="st0" d="M-38.6,400.7L-38.6,400.7c0-2.1,1.4-3.7,3.5-3.7c2.3,0,3.4,1.8,3.4,3.8c0,0.1,0,0.3,0,0.5h-5.2
					c0.2,1.2,1,1.8,2.1,1.8c0.8,0,1.4-0.3,1.9-0.9l1,0.9c-0.7,0.8-1.6,1.3-2.9,1.3C-37,404.4-38.6,402.9-38.6,400.7z M-33.3,400.2
					c-0.1-1.1-0.7-1.9-1.8-1.9c-1,0-1.7,0.8-1.9,1.9H-33.3z"/>
				<path class="st0" d="M-30.7,403.3l0.7-1.1c0.8,0.6,1.6,0.9,2.3,0.9c0.7,0,1.1-0.3,1.1-0.8v0c0-0.6-0.8-0.7-1.6-1
					c-1.1-0.3-2.2-0.7-2.2-2.1v0c0-1.4,1.1-2.2,2.5-2.2c0.9,0,1.9,0.3,2.6,0.8l-0.6,1.2c-0.7-0.4-1.4-0.7-2-0.7c-0.6,0-1,0.3-1,0.7
					v0c0,0.5,0.8,0.7,1.6,1c1,0.3,2.2,0.8,2.2,2.1v0c0,1.5-1.2,2.2-2.6,2.2C-28.7,404.4-29.8,404-30.7,403.3z"/>
				<path class="st0" d="M-23.5,394.5h1.8v1.6h-1.8V394.5z M-23.4,397.1h1.6v7.1h-1.6V397.1z"/>
				<path class="st0" d="M-20.2,400.7L-20.2,400.7c0-2.4,1.6-3.7,3.3-3.7c1.2,0,1.9,0.6,2.4,1.3v-3.8h1.6v9.9h-1.6v-1.2
					c-0.5,0.7-1.3,1.3-2.4,1.3C-18.5,404.4-20.2,403.1-20.2,400.7z M-14.4,400.7L-14.4,400.7c0-1.4-1-2.3-2.1-2.3
					c-1.1,0-2.1,0.9-2.1,2.3v0c0,1.4,0.9,2.3,2.1,2.3C-15.4,403-14.4,402.1-14.4,400.7z"/>
				<path class="st0" d="M-11.3,400.7L-11.3,400.7c0-2.1,1.4-3.7,3.5-3.7c2.3,0,3.4,1.8,3.4,3.8c0,0.1,0,0.3,0,0.5h-5.2
					c0.2,1.2,1,1.8,2.1,1.8c0.8,0,1.4-0.3,1.9-0.9l1,0.9c-0.7,0.8-1.6,1.3-2.9,1.3C-9.7,404.4-11.3,402.9-11.3,400.7z M-6,400.2
					c-0.1-1.1-0.7-1.9-1.8-1.9c-1,0-1.7,0.8-1.9,1.9H-6z"/>
				<path class="st0" d="M-2.9,397.1h1.6v1.1c0.5-0.7,1.1-1.3,2.2-1.3c1.6,0,2.5,1.1,2.5,2.7v4.5H1.9v-4.1c0-1.1-0.6-1.7-1.5-1.7
					c-0.9,0-1.6,0.7-1.6,1.8v4h-1.6V397.1z"/>
				<path class="st0" d="M5,400.7L5,400.7c0-2.1,1.6-3.8,3.7-3.8c1.4,0,2.2,0.5,2.9,1.2l-1,1.1c-0.5-0.5-1-0.9-1.9-0.9
					c-1.2,0-2.1,1-2.1,2.3v0c0,1.3,0.9,2.3,2.1,2.3c0.8,0,1.3-0.4,1.9-0.9l1,1c-0.7,0.8-1.5,1.3-2.9,1.3C6.6,404.4,5,402.8,5,400.7z
					"/>
				<path class="st0" d="M13,394.5h1.8v1.6H13V394.5z M13.1,397.1h1.6v7.1h-1.6V397.1z"/>
				<path class="st0" d="M21.1,404.3v-0.9c-0.5,0.6-1.2,1-2.3,1c-1.4,0-2.5-0.8-2.5-2.2v0c0-1.6,1.2-2.3,2.9-2.3
					c0.9,0,1.4,0.1,2,0.3V400c0-1-0.6-1.5-1.8-1.5c-0.8,0-1.4,0.2-2,0.4l-0.4-1.3c0.8-0.4,1.6-0.6,2.7-0.6c2.1,0,3.1,1.1,3.1,3v4.2
					H21.1z M21.1,401.3c-0.4-0.2-1-0.3-1.6-0.3c-1,0-1.6,0.4-1.6,1.1v0c0,0.7,0.6,1.1,1.4,1.1c1.1,0,1.9-0.6,1.9-1.5V401.3z"/>
				<path class="st0" d="M-52.9,412.7L-52.9,412.7c0-2.4,1.6-3.7,3.3-3.7c1.2,0,1.9,0.6,2.4,1.3v-3.8h1.6v9.9h-1.6V415
					c-0.5,0.7-1.3,1.3-2.4,1.3C-51.2,416.4-52.9,415-52.9,412.7z M-47.1,412.7L-47.1,412.7c0-1.4-1-2.3-2.1-2.3
					c-1.1,0-2.1,0.9-2.1,2.3v0c0,1.4,0.9,2.3,2.1,2.3C-48.1,415-47.1,414-47.1,412.7z"/>
				<path class="st0" d="M-44.5,412.7L-44.5,412.7c0-2.1,1.4-3.7,3.5-3.7c2.3,0,3.4,1.8,3.4,3.8c0,0.1,0,0.3,0,0.5h-5.2
					c0.2,1.2,1,1.8,2.1,1.8c0.8,0,1.4-0.3,1.9-0.9l1,0.9c-0.7,0.8-1.6,1.3-2.9,1.3C-42.9,416.4-44.5,414.9-44.5,412.7z M-39.2,412.2
					c-0.1-1.1-0.7-1.9-1.8-1.9c-1,0-1.7,0.8-1.9,1.9H-39.2z"/>
				<path class="st0" d="M-33.2,406.4h1.6v9.9h-1.6V406.4z"/>
				<path class="st0" d="M-25.7,416.2v-0.9c-0.5,0.6-1.2,1-2.3,1c-1.4,0-2.5-0.8-2.5-2.2v0c0-1.6,1.2-2.3,2.9-2.3
					c0.9,0,1.4,0.1,2,0.3V412c0-1-0.6-1.5-1.8-1.5c-0.8,0-1.4,0.2-2,0.4l-0.4-1.3c0.8-0.4,1.6-0.6,2.7-0.6c2.1,0,3.1,1.1,3.1,3v4.2
					H-25.7z M-25.7,413.2c-0.4-0.2-1-0.3-1.6-0.3c-1,0-1.6,0.4-1.6,1.1v0c0,0.7,0.6,1.1,1.4,1.1c1.1,0,1.9-0.6,1.9-1.5V413.2z"/>
				<path class="st0" d="M-19.3,406.8h1.5l5.1,6.5v-6.5h1.6v9.5h-1.4l-5.2-6.7v6.7h-1.6V406.8z"/>
				<path class="st0" d="M-5.1,416.2v-0.9c-0.5,0.6-1.2,1-2.3,1c-1.4,0-2.5-0.8-2.5-2.2v0c0-1.6,1.2-2.3,2.9-2.3
					c0.9,0,1.4,0.1,2,0.3V412c0-1-0.6-1.5-1.8-1.5c-0.8,0-1.4,0.2-2,0.4l-0.4-1.3c0.8-0.4,1.6-0.6,2.7-0.6c2.1,0,3.1,1.1,3.1,3v4.2
					H-5.1z M-5.1,413.2c-0.4-0.2-1-0.3-1.6-0.3c-1,0-1.6,0.4-1.6,1.1v0c0,0.7,0.6,1.1,1.4,1.1c1.1,0,1.9-0.6,1.9-1.5V413.2z"/>
				<path class="st0" d="M-2.6,412.7L-2.6,412.7c0-2.1,1.6-3.8,3.7-3.8c1.4,0,2.2,0.5,2.9,1.2l-1,1.1c-0.5-0.5-1-0.9-1.9-0.9
					c-1.2,0-2.1,1-2.1,2.3v0c0,1.3,0.9,2.3,2.1,2.3c0.8,0,1.3-0.4,1.9-0.9l1,1c-0.7,0.8-1.5,1.3-2.9,1.3
					C-1,416.4-2.6,414.7-2.6,412.7z"/>
				<path class="st0" d="M4.9,406.5h1.8v1.6H4.9V406.5z M4.9,409.1h1.6v7.1H4.9V409.1z"/>
				<path class="st0" d="M7.6,412.7L7.6,412.7c0-2.1,1.6-3.8,3.8-3.8c2.2,0,3.8,1.7,3.8,3.7v0c0,2-1.6,3.7-3.8,3.7
					C9.2,416.4,7.6,414.7,7.6,412.7z M13.6,412.7L13.6,412.7c0-1.3-0.9-2.3-2.2-2.3c-1.3,0-2.1,1-2.1,2.3v0c0,1.2,0.9,2.3,2.2,2.3
					C12.8,415,13.6,413.9,13.6,412.7z M12.2,406l1.5,0.7l-1.7,1.6h-1.2L12.2,406z"/>
				<path class="st0" d="M16.2,409.1h1.6v1.1c0.5-0.7,1.1-1.3,2.2-1.3c1.6,0,2.5,1.1,2.5,2.7v4.5H21v-4.1c0-1.1-0.6-1.7-1.5-1.7
					c-0.9,0-1.6,0.7-1.6,1.8v4h-1.6V409.1z"/>
			</g>
		</g>
	</g>
	<g>
		<path class="st0" d="M-180.1,384.3c1.6,0.4,2.5,1,2.5,2.3c0,1.5-1.1,2.3-2.8,2.3c-1.2,0-2.3-0.4-3.2-1.2l0.8-1
			c0.7,0.6,1.5,1,2.5,1c0.8,0,1.4-0.4,1.4-1c0-0.6-0.3-0.9-1.8-1.2c-1.7-0.4-2.6-0.9-2.6-2.3c0-1.4,1.1-2.3,2.7-2.3
			c1.1,0,2,0.3,2.8,1l-0.7,1c-0.7-0.5-1.4-0.8-2.1-0.8c-0.8,0-1.3,0.4-1.3,0.9C-182,383.6-181.6,383.9-180.1,384.3z"/>
		<path class="st0" d="M-173.6,387.8c0.7,0,1.1-0.2,1.6-0.7l0.8,0.7c-0.6,0.7-1.3,1.1-2.4,1.1c-1.7,0-3-1.2-3-3.1
			c0-1.7,1.2-3.1,2.9-3.1c1.9,0,2.8,1.5,2.8,3.2c0,0.1,0,0.2,0,0.4h-4.3C-175.1,387.3-174.4,387.8-173.6,387.8z M-172.3,385.4
			c-0.1-0.9-0.6-1.5-1.5-1.5c-0.8,0-1.4,0.6-1.5,1.5H-172.3z"/>
		<path class="st0" d="M-167,388.9c-1.7,0-3-1.4-3-3c0-1.7,1.3-3.1,3-3.1c1.1,0,1.8,0.4,2.3,1l-0.8,0.9c-0.4-0.4-0.8-0.7-1.5-0.7
			c-1,0-1.7,0.8-1.7,1.9c0,1.1,0.7,1.9,1.8,1.9c0.6,0,1.1-0.3,1.5-0.7l0.8,0.8C-165.1,388.5-165.8,388.9-167,388.9z"/>
		<path class="st0" d="M-162.1,388.8h-1.3v-5.9h1.3v1.3c0.4-0.9,1-1.5,2.1-1.4v1.4h-0.1c-1.2,0-2,0.8-2,2.3V388.8z"/>
		<path class="st0" d="M-156.4,387.8c0.7,0,1.1-0.2,1.6-0.7l0.8,0.7c-0.6,0.7-1.3,1.1-2.4,1.1c-1.7,0-3-1.2-3-3.1
			c0-1.7,1.2-3.1,2.9-3.1c1.9,0,2.8,1.5,2.8,3.2c0,0.1,0,0.2,0,0.4h-4.3C-158,387.3-157.3,387.8-156.4,387.8z M-155.1,385.4
			c-0.1-0.9-0.6-1.5-1.5-1.5c-0.8,0-1.4,0.6-1.5,1.5H-155.1z"/>
		<path class="st0" d="M-150.9,386.9c0,0.5,0.3,0.7,0.7,0.7c0.3,0,0.6-0.1,0.8-0.2v1.1c-0.3,0.2-0.7,0.3-1.2,0.3
			c-1,0-1.7-0.4-1.7-1.7v-3.1h-0.7v-1.2h0.7v-1.6h1.3v1.6h1.6v1.2h-1.6V386.9z"/>
		<path class="st0" d="M-144.5,388.8V388c-0.4,0.5-1,0.8-1.9,0.8c-1.1,0-2.1-0.6-2.1-1.8v0c0-1.3,1-1.9,2.4-1.9
			c0.7,0,1.2,0.1,1.6,0.2v-0.1c0-0.8-0.5-1.3-1.4-1.3c-0.7,0-1.1,0.1-1.7,0.4l-0.4-1.1c0.6-0.3,1.3-0.5,2.2-0.5
			c1.7,0,2.6,0.9,2.6,2.5v3.5H-144.5z M-144.4,386.3c-0.3-0.1-0.8-0.2-1.3-0.2c-0.8,0-1.3,0.3-1.3,0.9v0c0,0.6,0.5,0.9,1.1,0.9
			c0.9,0,1.6-0.5,1.6-1.2V386.3z"/>
		<path class="st0" d="M-140.3,388.8h-1.3v-5.9h1.3v1.3c0.4-0.9,1-1.5,2.1-1.4v1.4h-0.1c-1.2,0-2,0.8-2,2.3V388.8z"/>
		<path class="st0" d="M-137.1,388.8v-5.9h1.3v5.9H-137.1z M-137,382.2l1.2-1.8l1.2,0.5l-1.4,1.3H-137z"/>
		<path class="st0" d="M-130.5,388.8V388c-0.4,0.5-1,0.8-1.9,0.8c-1.1,0-2.1-0.6-2.1-1.8v0c0-1.3,1-1.9,2.4-1.9
			c0.7,0,1.2,0.1,1.6,0.2v-0.1c0-0.8-0.5-1.3-1.4-1.3c-0.7,0-1.1,0.1-1.7,0.4l-0.4-1.1c0.6-0.3,1.3-0.5,2.2-0.5
			c1.7,0,2.6,0.9,2.6,2.5v3.5H-130.5z M-130.4,386.3c-0.3-0.1-0.8-0.2-1.3-0.2c-0.8,0-1.3,0.3-1.3,0.9v0c0,0.6,0.5,0.9,1.1,0.9
			c0.9,0,1.6-0.5,1.6-1.2V386.3z"/>
		<path class="st0" d="M-178.9,400.7v-1c-0.4,0.6-1,1.1-2,1.1c-1.4,0-2.7-1.1-2.7-3.1s1.3-3.1,2.7-3.1c1,0,1.6,0.5,2,1v-3.2h1.3v8.1
			H-178.9z M-180.6,395.9c-0.9,0-1.7,0.7-1.7,1.9c0,1.2,0.8,1.9,1.7,1.9c0.9,0,1.7-0.7,1.7-1.9S-179.7,395.9-180.6,395.9z"/>
		<path class="st0" d="M-173.3,399.7c0.7,0,1.1-0.2,1.6-0.7l0.8,0.7c-0.6,0.7-1.3,1.1-2.4,1.1c-1.7,0-3-1.2-3-3.1
			c0-1.7,1.2-3.1,2.9-3.1c1.9,0,2.8,1.5,2.8,3.2c0,0.1,0,0.2,0,0.4h-4.3C-174.8,399.2-174.1,399.7-173.3,399.7z M-171.9,397.4
			c-0.1-0.9-0.6-1.5-1.5-1.5c-0.8,0-1.4,0.6-1.5,1.5H-171.9z"/>
		<path class="st0" d="M-162.3,400.8c-2.4,0-4-1.7-4-4c0-2.2,1.7-4,4-4c1.4,0,2.2,0.4,3,1.1l-0.9,1c-0.6-0.5-1.2-0.8-2.2-0.8
			c-1.4,0-2.5,1.2-2.5,2.8c0,1.6,1.1,2.8,2.6,2.8c0.7,0,1.4-0.2,1.9-0.6v-1.5h-2v-1.2h3.3v3.3C-159.8,400.3-160.9,400.8-162.3,400.8
			z"/>
		<path class="st0" d="M-154.7,400.8c-1.8,0-3.1-1.4-3.1-3c0-1.7,1.3-3.1,3.1-3.1c1.8,0,3.1,1.4,3.1,3.1
			C-151.6,399.4-152.9,400.8-154.7,400.8z M-154.7,395.9c-1.1,0-1.8,0.8-1.8,1.9c0,1,0.7,1.9,1.8,1.9c1.1,0,1.8-0.8,1.8-1.9
			C-152.9,396.7-153.6,395.9-154.7,395.9z"/>
		<path class="st0" d="M-146.9,400.8c-1,0-1.6-0.5-2-1v0.9h-1.3v-8.1h1.3v3.2c0.4-0.6,1-1.1,2-1.1c1.4,0,2.7,1.1,2.7,3.1
			S-145.5,400.8-146.9,400.8z M-147.3,395.9c-0.9,0-1.7,0.7-1.7,1.9s0.8,1.9,1.7,1.9c0.9,0,1.7-0.7,1.7-1.9
			C-145.6,396.6-146.3,395.9-147.3,395.9z"/>
		<path class="st0" d="M-142.9,393.9v-1.3h1.4v1.3H-142.9z M-142.9,400.7v-5.9h1.3v5.9H-142.9z"/>
		<path class="st0" d="M-137.1,399.7c0.7,0,1.1-0.2,1.6-0.7l0.8,0.7c-0.6,0.7-1.3,1.1-2.4,1.1c-1.7,0-3-1.2-3-3.1
			c0-1.7,1.2-3.1,2.9-3.1c1.9,0,2.8,1.5,2.8,3.2c0,0.1,0,0.2,0,0.4h-4.3C-138.7,399.2-138,399.7-137.1,399.7z M-135.8,397.4
			c-0.1-0.9-0.6-1.5-1.5-1.5c-0.8,0-1.4,0.6-1.5,1.5H-135.8z"/>
		<path class="st0" d="M-131.9,400.7h-1.3v-5.9h1.3v1.3c0.4-0.9,1-1.5,2.1-1.4v1.4h-0.1c-1.2,0-2,0.8-2,2.3V400.7z"/>
		<path class="st0" d="M-127.4,400.7h-1.3v-5.9h1.3v0.9c0.4-0.6,0.9-1,1.8-1c1.3,0,2.1,0.9,2.1,2.3v3.7h-1.3v-3.3
			c0-0.9-0.5-1.4-1.3-1.4c-0.8,0-1.3,0.5-1.3,1.5V400.7z"/>
		<path class="st0" d="M-119.1,400.8c-1.8,0-3.1-1.4-3.1-3c0-1.7,1.3-3.1,3.1-3.1c1.8,0,3.1,1.4,3.1,3.1
			C-116,399.4-117.3,400.8-119.1,400.8z M-119.1,395.9c-1.1,0-1.8,0.8-1.8,1.9c0,1,0.7,1.9,1.8,1.9c1.1,0,1.8-0.8,1.8-1.9
			C-117.3,396.7-118.1,395.9-119.1,395.9z"/>
		<path class="st0" d="M-178.9,412.6v-1c-0.4,0.6-1,1.1-2,1.1c-1.4,0-2.7-1.1-2.7-3.1c0-2,1.3-3.1,2.7-3.1c1,0,1.6,0.5,2,1v-3.2h1.3
			v8.1H-178.9z M-180.6,407.8c-0.9,0-1.7,0.7-1.7,1.9c0,1.2,0.8,1.9,1.7,1.9c0.9,0,1.7-0.7,1.7-1.9
			C-178.9,408.6-179.7,407.8-180.6,407.8z"/>
		<path class="st0" d="M-173.2,411.7c0.7,0,1.1-0.2,1.6-0.7l0.8,0.7c-0.6,0.7-1.3,1.1-2.4,1.1c-1.7,0-3-1.2-3-3.1
			c0-1.7,1.2-3.1,2.9-3.1c1.9,0,2.8,1.5,2.8,3.2c0,0.1,0,0.2,0,0.4h-4.3C-174.8,411.1-174.1,411.7-173.2,411.7z M-171.9,409.3
			c-0.1-0.9-0.6-1.5-1.5-1.5c-0.8,0-1.4,0.6-1.5,1.5H-171.9z"/>
		<path class="st0" d="M-162.9,408.1c1.6,0.4,2.5,1,2.5,2.3c0,1.5-1.1,2.3-2.8,2.3c-1.2,0-2.3-0.4-3.2-1.2l0.8-1
			c0.7,0.6,1.5,1,2.5,1c0.8,0,1.4-0.4,1.4-1c0-0.6-0.3-0.9-1.8-1.2c-1.7-0.4-2.6-0.9-2.6-2.3c0-1.4,1.1-2.3,2.7-2.3
			c1.1,0,2,0.3,2.8,1l-0.7,1c-0.7-0.5-1.4-0.8-2.1-0.8c-0.8,0-1.3,0.4-1.3,0.9C-164.8,407.5-164.4,407.8-162.9,408.1z"/>
		<path class="st0" d="M-155.5,412.6v-0.7c-0.4,0.5-1,0.8-1.9,0.8c-1.1,0-2.1-0.6-2.1-1.8v0c0-1.3,1-1.9,2.4-1.9
			c0.7,0,1.2,0.1,1.6,0.2v-0.1c0-0.8-0.5-1.3-1.4-1.3c-0.7,0-1.1,0.1-1.7,0.4l-0.4-1.1c0.6-0.3,1.3-0.5,2.2-0.5
			c1.7,0,2.6,0.9,2.6,2.5v3.5H-155.5z M-155.5,410.1c-0.3-0.1-0.8-0.2-1.3-0.2c-0.8,0-1.3,0.3-1.3,0.9v0c0,0.6,0.5,0.9,1.1,0.9
			c0.9,0,1.6-0.5,1.6-1.2V410.1z"/>
		<path class="st0" d="M-152.6,412.6v-8.1h1.3v8.1H-152.6z"/>
		<path class="st0" d="M-145.7,406.8h1.3v5.9h-1.3v-0.9c-0.4,0.6-0.9,1-1.8,1c-1.3,0-2.1-0.9-2.1-2.3v-3.7h1.3v3.3
			c0,0.9,0.5,1.4,1.3,1.4c0.8,0,1.3-0.5,1.3-1.5V406.8z"/>
		<path class="st0" d="M-138.4,412.6v-1c-0.4,0.6-1,1.1-2,1.1c-1.4,0-2.7-1.1-2.7-3.1c0-2,1.3-3.1,2.7-3.1c1,0,1.6,0.5,2,1v-3.2h1.3
			v8.1H-138.4z M-140,407.8c-0.9,0-1.7,0.7-1.7,1.9c0,1.2,0.8,1.9,1.7,1.9c0.9,0,1.7-0.7,1.7-1.9
			C-138.3,408.6-139.1,407.8-140,407.8z"/>
	</g>
</g>
</svg>
