<?xml version="1.0" encoding="utf-8"?>
<!-- Generator: Adobe Illustrator 19.0.0, SVG Export Plug-In . SVG Version: 6.00 Build 0)  -->
<svg version="1.1" id="Capa_2" xmlns="http://www.w3.org/2000/svg" xmlns:xlink="http://www.w3.org/1999/xlink" x="0px" y="0px"
	 viewBox="-183 376 244 42" style="enable-background:new -183 376 244 42;" xml:space="preserve">
<style type="text/css">
	.st0{fill:#000099;}
	.st1{fill:#3366FF;}
	.st2{fill:#FF9900;}
	.st3{opacity:0.2;}
	.st4{fill:#333333;}
	.st5{fill:#FFFFFF;}
	.st6{fill:#000333;}
</style>
<g id="logo">
	<g id="logo_base_1_">
		<path class="st0" d="M-87,418v-24.4c0-5.4,1.4-9.6,4.2-12.8c2.8-3.2,6.6-4.8,11.3-4.8s8.4,1.6,11.3,4.8c2.8,3.2,4.3,7.5,4.3,12.8
			V418H-66v-15.3h-9V393h9v-0.5c0-2-0.5-3.5-1.5-4.7c-1-1.2-2.3-1.8-4-1.8c-1.8,0-3.1,0.6-4,1.8c-0.9,1.2-1.4,2.9-1.4,5.2v25H-87
			L-87,418z"/>
		<path class="st0" d="M-119.7,418v-9.9h14c0.8,0,1.4-0.2,1.9-0.5c0.5-0.3,0.7-0.8,0.7-1.5c0-0.6-0.2-1.2-0.7-1.7
			c-0.5-0.6-1.2-1.1-2.1-1.8l-7.8-4.8c-1.8-1.1-3.2-2.5-4.3-4.3s-1.6-3.6-1.6-5.4c0-1.8,0.3-3.4,0.9-4.9s1.5-2.7,2.7-3.8
			c1.1-1,2.5-1.7,4.1-2.1c1.6-0.4,4.3-0.6,7.9-0.6h9.3v9.5h-10.6c-1.5,0-2.5,0.1-3.1,0.4c-0.5,0.2-0.8,0.6-0.8,1.2
			c0,0.6,0.2,1.1,0.7,1.7c0.4,0.5,1.1,1.1,2,1.6l7.6,4.6c2.2,1.3,3.8,2.9,5,4.8c1.1,1.8,1.7,3.8,1.7,6c0,1.9-0.4,3.6-1.2,5.2
			c-0.8,1.6-1.9,2.9-3.2,3.9c-1.2,0.9-2.6,1.5-4.1,1.9s-3.9,0.6-7.2,0.6h-0.6L-119.7,418L-119.7,418z"/>
		<path class="st0" d="M-183,418v-9.9h14c0.8,0,1.4-0.2,1.9-0.5c0.4-0.3,0.7-0.8,0.7-1.5c0-0.6-0.2-1.2-0.7-1.7
			c-0.5-0.6-1.1-1.1-2.1-1.8l-7.8-4.8c-1.8-1.1-3.2-2.5-4.3-4.3c-1.1-1.8-1.6-3.6-1.6-5.4c0-1.8,0.3-3.4,0.9-4.9s1.5-2.7,2.7-3.8
			c1.1-1,2.5-1.7,4.1-2.1c1.6-0.4,4.3-0.6,7.9-0.6h9.3v9.4h-10.6c-1.5,0-2.5,0.1-3,0.4c-0.6,0.2-0.8,0.7-0.8,1.2
			c0,0.6,0.2,1.1,0.6,1.7c0.4,0.5,1.1,1.1,2,1.6l7.6,4.6c2.2,1.3,3.8,2.9,5,4.8c1.1,1.8,1.7,3.8,1.7,6c0,1.9-0.4,3.6-1.2,5.2
			c-0.8,1.6-1.9,2.9-3.2,3.9c-1.2,0.9-2.6,1.5-4.1,1.9c-1.5,0.4-3.9,0.6-7.2,0.6h-0.6H-183L-183,418z"/>
		<path class="st0" d="M-127.7,391c-0.5,5-4.8,8.9-9.9,8.9c-5.1,0-9.4-3.9-9.9-8.9h-3v27h25.5v-27H-127.7z"/>
		<path class="st1" d="M-150.5,376.5v12h3c0.7-5,4.8-8.6,9.8-8.6s9.2,3.6,9.9,8.6h2.8v-12H-150.5z"/>
		<circle class="st2" cx="-137.6" cy="389.9" r="7.3"/>
	</g>
</g>
<g class="st3">
	<path class="st4" d="M-41.4,381.4c-1-0.3-1.7-0.6-2.2-1.1c-0.4-0.4-0.7-0.9-0.7-1.6c0-0.7,0.3-1.3,0.8-1.7c0.6-0.5,1.3-0.7,2.2-0.7
		c0.6,0,1.2,0.1,1.6,0.4c0.4,0.3,0.8,0.6,1.1,1c0.3,0.4,0.4,0.9,0.4,1.3h-1.2c0-0.5-0.2-1-0.5-1.3c-0.3-0.3-0.8-0.5-1.4-0.5
		c-0.6,0-1,0.1-1.3,0.4c-0.3,0.3-0.5,0.6-0.5,1.1c0,0.4,0.2,0.7,0.5,0.9c0.3,0.2,0.8,0.5,1.6,0.7c0.7,0.2,1.3,0.4,1.7,0.7
		c0.4,0.3,0.7,0.5,0.9,0.9c0.2,0.4,0.3,0.7,0.3,1.2c0,0.7-0.3,1.3-0.8,1.7c-0.5,0.4-1.3,0.6-2.2,0.6c-0.6,0-1.2-0.1-1.7-0.4
		c-0.5-0.2-0.9-0.5-1.2-0.9s-0.4-0.9-0.4-1.4h1.2c0,0.5,0.2,1,0.6,1.3c0.4,0.3,0.9,0.5,1.6,0.5c0.6,0,1.1-0.1,1.4-0.4
		c0.3-0.3,0.5-0.6,0.5-1s-0.1-0.8-0.5-1C-40,381.8-40.6,381.6-41.4,381.4z"/>
	<path class="st4" d="M-36.8,377c0-0.2,0.1-0.3,0.2-0.5c0.1-0.1,0.3-0.2,0.5-0.2c0.2,0,0.4,0.1,0.5,0.2c0.1,0.1,0.2,0.3,0.2,0.5
		s-0.1,0.3-0.2,0.5c-0.1,0.2-0.3,0.2-0.5,0.2c-0.2,0-0.4-0.1-0.5-0.2C-36.7,377.4-36.8,377.2-36.8,377z M-35.6,385.3h-1.1v-6.5h1.1
		L-35.6,385.3L-35.6,385.3z"/>
	<path class="st4" d="M-30,383.6c0-0.3-0.1-0.5-0.3-0.7c-0.2-0.2-0.6-0.3-1.2-0.4s-1-0.3-1.3-0.4s-0.6-0.4-0.7-0.6
		c-0.2-0.2-0.2-0.5-0.2-0.8c0-0.5,0.2-1,0.7-1.4c0.5-0.4,1-0.6,1.7-0.6s1.3,0.2,1.8,0.6c0.5,0.4,0.7,0.9,0.7,1.5H-30
		c0-0.3-0.1-0.6-0.4-0.8c-0.3-0.2-0.6-0.3-1-0.3c-0.4,0-0.7,0.1-1,0.3c-0.3,0.2-0.4,0.4-0.4,0.7c0,0.3,0.1,0.5,0.3,0.6
		c0.2,0.1,0.6,0.3,1.2,0.4c0.6,0.1,1,0.3,1.4,0.5c0.4,0.2,0.6,0.4,0.8,0.6c0.2,0.2,0.3,0.5,0.3,0.9c0,0.6-0.2,1-0.7,1.4
		s-1.1,0.5-1.8,0.5c-0.5,0-1-0.1-1.4-0.3c-0.4-0.2-0.7-0.5-1-0.8c-0.2-0.3-0.3-0.7-0.3-1.1h1.1c0,0.4,0.2,0.7,0.4,0.9
		c0.3,0.2,0.7,0.3,1.1,0.3c0.4,0,0.8-0.1,1-0.3C-30.1,384.1-30,383.9-30,383.6z"/>
	<path class="st4" d="M-25.9,377.2v1.6h1.2v0.9h-1.2v4.1c0,0.3,0,0.5,0.2,0.6c0.1,0.1,0.3,0.2,0.6,0.2c0.1,0,0.3,0,0.5-0.1v0.9
		c-0.3,0.1-0.6,0.1-0.9,0.1c-0.5,0-0.9-0.2-1.1-0.5c-0.2-0.3-0.4-0.7-0.4-1.3v-4.1h-1.2v-0.8h1.2v-1.6H-25.9z"/>
	<path class="st4" d="M-20.6,385.4c-0.9,0-1.6-0.3-2.2-0.9c-0.6-0.6-0.8-1.4-0.8-2.3V382c0-0.6,0.1-1.2,0.4-1.7s0.6-0.9,1-1.2
		c0.5-0.3,0.9-0.4,1.5-0.4c0.8,0,1.5,0.3,2,0.8c0.5,0.6,0.7,1.4,0.7,2.4v0.5h-4.4c0,0.6,0.2,1.2,0.6,1.6c0.4,0.4,0.8,0.6,1.4,0.6
		c0.4,0,0.7-0.1,1-0.2c0.3-0.2,0.5-0.4,0.7-0.6l0.7,0.5C-18.7,385-19.5,385.4-20.6,385.4z M-20.8,379.5c-0.5,0-0.8,0.2-1.1,0.5
		c-0.3,0.3-0.5,0.8-0.6,1.4h3.3v-0.1c0-0.6-0.2-1-0.5-1.3C-19.9,379.7-20.3,379.5-20.8,379.5z"/>
	<path class="st4" d="M-15.7,378.8v0.7c0.5-0.6,1.1-0.9,1.9-0.9c0.9,0,1.5,0.4,1.9,1.1c0.2-0.3,0.5-0.6,0.9-0.8
		c0.3-0.2,0.8-0.3,1.2-0.3c1.4,0,2.2,0.8,2.2,2.3v4.4h-1.1V381c0-0.5-0.1-0.8-0.3-1s-0.6-0.4-1.1-0.4c-0.4,0-0.8,0.1-1,0.4
		c-0.3,0.3-0.4,0.6-0.5,1v4.3h-1.1V381c0-0.9-0.5-1.4-1.4-1.4c-0.7,0-1.2,0.3-1.5,0.9v4.8h-1.1v-6.5H-15.7z"/>
	<path class="st4" d="M-1.9,385.3c-0.1-0.1-0.1-0.4-0.2-0.7c-0.5,0.5-1.1,0.8-1.9,0.8c-0.6,0-1.2-0.2-1.6-0.5
		c-0.4-0.4-0.6-0.8-0.6-1.4c0-0.7,0.3-1.2,0.8-1.6s1.3-0.6,2.2-0.6h1.1v-0.5c0-0.4-0.1-0.7-0.4-0.9c-0.2-0.2-0.6-0.4-1-0.4
		s-0.7,0.1-1,0.3c-0.3,0.2-0.4,0.5-0.4,0.7H-6c0-0.3,0.1-0.6,0.4-0.9c0.2-0.3,0.5-0.6,0.9-0.7c0.4-0.2,0.8-0.3,1.3-0.3
		c0.8,0,1.3,0.2,1.8,0.6c0.4,0.4,0.7,0.9,0.7,1.6v3c0,0.6,0.1,1.1,0.2,1.4v0.1H-1.9z M-3.7,384.5c0.4,0,0.7-0.1,1-0.3
		c0.3-0.2,0.5-0.4,0.7-0.7v-1.4h-0.9c-1.4,0-2.1,0.4-2.1,1.2c0,0.4,0.1,0.6,0.4,0.8C-4.4,384.4-4.1,384.5-3.7,384.5z"/>
	<path class="st4" d="M5.3,385.3H4.1v-8.8h1.2V385.3z"/>
	<path class="st4" d="M8.3,378.8v0.8c0.5-0.6,1.1-0.9,2-0.9c1.4,0,2.1,0.8,2.1,2.3v4.3h-1.1V381c0-0.5-0.1-0.8-0.3-1s-0.5-0.3-1-0.3
		c-0.4,0-0.7,0.1-1,0.3s-0.5,0.5-0.6,0.8v4.7H7.3v-6.7H8.3z"/>
	<path class="st4" d="M15.6,377.2v1.6h1.2v0.9h-1.2v4.1c0,0.3,0,0.5,0.2,0.6c0.1,0.1,0.3,0.2,0.6,0.2c0.1,0,0.3,0,0.5-0.1v0.9
		c-0.3,0.1-0.6,0.1-0.9,0.1c-0.5,0-0.9-0.2-1.1-0.5c-0.2-0.3-0.4-0.7-0.4-1.3v-4.1h-1.2v-0.8h1.2v-1.6H15.6z"/>
	<path class="st4" d="M20.9,385.4c-0.9,0-1.6-0.3-2.2-0.9c-0.6-0.6-0.8-1.4-0.8-2.3V382c0-0.6,0.1-1.2,0.4-1.7s0.6-0.9,1-1.2
		c0.5-0.3,0.9-0.4,1.5-0.4c0.8,0,1.5,0.3,2,0.8c0.5,0.6,0.7,1.4,0.7,2.4v0.5H19c0,0.6,0.2,1.2,0.6,1.6c0.4,0.4,0.8,0.6,1.4,0.6
		c0.4,0,0.7-0.1,1-0.2s0.5-0.4,0.7-0.6l0.7,0.5C22.8,385,22,385.4,20.9,385.4z M20.8,379.5c-0.5,0-0.8,0.2-1.1,0.5s-0.5,0.8-0.6,1.4
		h3.3v-0.1c0-0.6-0.2-1-0.5-1.3C21.6,379.7,21.2,379.5,20.8,379.5z"/>
	<path class="st4" d="M24.5,382c0-1,0.2-1.8,0.7-2.4s1.1-0.9,1.9-0.9c0.8,0,1.4,0.3,1.9,0.9l0.1-0.7h1v6.4c0,0.9-0.3,1.5-0.8,2
		s-1.2,0.7-2,0.7c-0.5,0-0.9-0.1-1.4-0.3c-0.4-0.2-0.8-0.5-1-0.8l0.6-0.7c0.5,0.6,1.1,0.9,1.8,0.9c0.5,0,1-0.2,1.3-0.5
		c0.3-0.3,0.5-0.7,0.5-1.3v-0.7c-0.5,0.5-1.1,0.8-1.8,0.8s-1.4-0.3-1.9-0.9C24.7,383.9,24.5,383,24.5,382z M25.6,382.1
		c0,0.7,0.2,1.3,0.5,1.7c0.3,0.4,0.7,0.6,1.3,0.6c0.7,0,1.2-0.3,1.6-1v-3c-0.3-0.6-0.9-0.9-1.5-0.9c-0.5,0-1,0.2-1.3,0.6
		C25.8,380.6,25.6,381.3,25.6,382.1z"/>
	<path class="st4" d="M34.9,379.8c-0.2,0-0.4,0-0.5,0c-0.7,0-1.2,0.3-1.5,0.9v4.6h-1.1v-6.5h1.1v0.8c0.4-0.6,0.9-0.9,1.6-0.9
		c0.2,0,0.4,0,0.5,0.1v1C35,379.8,34.9,379.8,34.9,379.8z"/>
	<path class="st4" d="M39.7,385.3c-0.1-0.1-0.1-0.4-0.2-0.7c-0.5,0.5-1.1,0.8-1.9,0.8c-0.7,0-1.2-0.2-1.6-0.5
		c-0.4-0.3-0.6-0.8-0.6-1.4c0-0.7,0.3-1.2,0.8-1.6s1.3-0.6,2.2-0.6h1.1v-0.5c0-0.4-0.1-0.7-0.3-0.9c-0.2-0.2-0.6-0.4-1-0.4
		c-0.4,0-0.7,0.1-1,0.3c-0.3,0.2-0.4,0.5-0.4,0.7h-1.1c0-0.3,0.1-0.6,0.4-0.9c0.2-0.3,0.5-0.6,0.9-0.7c0.4-0.2,0.8-0.3,1.3-0.3
		c0.8,0,1.3,0.2,1.8,0.6c0.4,0.4,0.6,0.9,0.7,1.6v3c0,0.6,0.1,1.1,0.2,1.4v0.1H39.7z M37.8,384.5c0.3,0,0.7-0.1,1-0.3
		c0.3-0.2,0.5-0.4,0.7-0.7v-1.4h-0.9c-1.4,0-2.1,0.4-2.1,1.2c0,0.4,0.1,0.6,0.3,0.8C37.2,384.4,37.5,384.5,37.8,384.5z"/>
	<path class="st4" d="M42.1,382c0-1,0.2-1.8,0.7-2.4s1.1-0.9,1.9-0.9s1.4,0.3,1.8,0.8V376h1.1v9.3h-1v-0.7c-0.5,0.5-1.1,0.8-1.9,0.8
		s-1.4-0.3-1.9-0.9C42.4,383.9,42.1,383.1,42.1,382L42.1,382L42.1,382z M43.3,382.1c0,0.7,0.2,1.3,0.5,1.7c0.3,0.4,0.7,0.6,1.3,0.6
		c0.7,0,1.2-0.3,1.6-1v-3c-0.3-0.6-0.9-0.9-1.5-0.9c-0.5,0-1,0.2-1.3,0.6C43.4,380.6,43.3,381.3,43.3,382.1z"/>
	<path class="st4" d="M49.1,382c0-0.6,0.1-1.2,0.4-1.7s0.6-0.9,1-1.2c0.5-0.3,1-0.4,1.5-0.4c0.9,0,1.6,0.3,2.2,0.9
		c0.5,0.6,0.8,1.4,0.8,2.5v0.1c0,0.6-0.1,1.2-0.4,1.7c-0.2,0.5-0.6,0.9-1,1.2c-0.5,0.3-1,0.4-1.6,0.4c-0.9,0-1.6-0.3-2.2-0.9
		C49.4,383.9,49.1,383,49.1,382L49.1,382L49.1,382z M50.2,382.1c0,0.7,0.2,1.3,0.5,1.8s0.8,0.7,1.3,0.7c0.6,0,1-0.2,1.4-0.7
		c0.3-0.4,0.5-1.1,0.5-1.9c0-0.7-0.2-1.3-0.5-1.8c-0.3-0.5-0.8-0.7-1.4-0.7s-1,0.2-1.3,0.7S50.2,381.3,50.2,382.1z"/>
	<path class="st4" d="M-44.4,396.9c0-1,0.2-1.8,0.7-2.4s1.1-0.9,1.9-0.9s1.4,0.3,1.8,0.8V391h1.1v9.3h-1l-0.1-0.7
		c-0.4,0.5-1.1,0.8-1.9,0.8c-0.8,0-1.4-0.3-1.9-0.9s-0.7-1.4-0.7-2.4L-44.4,396.9L-44.4,396.9z M-43.3,397c0,0.7,0.1,1.3,0.5,1.7
		c0.3,0.4,0.7,0.6,1.3,0.6c0.7,0,1.2-0.3,1.6-1v-3c-0.3-0.6-0.8-0.9-1.5-0.9c-0.5,0-1,0.2-1.3,0.6C-43.2,395.5-43.3,396.1-43.3,397z
		"/>
	<path class="st4" d="M-34.4,400.3c-0.9,0-1.6-0.3-2.2-0.9c-0.6-0.6-0.8-1.4-0.8-2.3v-0.2c0-0.6,0.1-1.2,0.4-1.7s0.6-0.9,1-1.2
		c0.5-0.3,0.9-0.4,1.5-0.4c0.8,0,1.5,0.3,2,0.8c0.5,0.6,0.7,1.4,0.7,2.4v0.5h-4.4c0,0.6,0.2,1.2,0.6,1.6c0.4,0.4,0.8,0.6,1.4,0.6
		c0.4,0,0.7-0.1,1-0.2c0.3-0.2,0.5-0.4,0.7-0.6l0.5,0.3C-32.5,399.9-33.3,400.3-34.4,400.3z M-34.6,394.4c-0.4,0-0.8,0.2-1.1,0.5
		c-0.3,0.3-0.5,0.8-0.6,1.4h3.3v-0.1c0-0.6-0.2-1-0.5-1.3C-33.7,394.6-34.1,394.4-34.6,394.4z"/>
	<path class="st4" d="M-26.1,400.2h-1.2v-8.8h1.2V400.2z"/>
	<path class="st4" d="M-23.1,393.6v0.8c0.5-0.6,1.1-0.9,2-0.9c1.4,0,2.1,0.8,2.1,2.3v4.3h-1.1v-4.3c0-0.5-0.1-0.8-0.3-1.1
		c-0.2-0.2-0.5-0.3-1-0.3c-0.4,0-0.7,0.1-1,0.3c-0.3,0.2-0.5,0.5-0.6,0.8v4.7h-1.1v-6.5h1L-23.1,393.6L-23.1,393.6z"/>
	<path class="st4" d="M-16.7,400.2v-5.7h-1v-0.9h1V393c0-0.7,0.2-1.3,0.6-1.6c0.4-0.4,0.9-0.6,1.6-0.6c0.3,0,0.5,0,0.8,0.1l-0.1,0.9
		c-0.2,0-0.4-0.1-0.6-0.1c-0.4,0-0.6,0.1-0.8,0.3s-0.3,0.5-0.3,0.9v0.7h1.4v0.9h-1.4v5.7H-16.7L-16.7,400.2z"/>
	<path class="st4" d="M-13.3,396.8c0-0.6,0.1-1.2,0.4-1.7c0.3-0.5,0.6-0.9,1-1.2c0.5-0.3,1-0.4,1.5-0.4c0.9,0,1.6,0.3,2.2,0.9
		c0.5,0.6,0.8,1.4,0.8,2.5v0.1c0,0.6-0.1,1.2-0.4,1.7c-0.2,0.5-0.6,0.9-1,1.2c-0.5,0.3-1,0.4-1.6,0.4c-0.9,0-1.6-0.3-2.2-0.9
		C-13,398.7-13.3,397.9-13.3,396.8L-13.3,396.8L-13.3,396.8z M-12.2,397c0,0.7,0.2,1.3,0.5,1.8c0.3,0.4,0.8,0.7,1.3,0.7
		c0.6,0,1-0.2,1.4-0.7c0.3-0.5,0.5-1.1,0.5-1.9c0-0.7-0.2-1.3-0.5-1.8s-0.8-0.7-1.4-0.7c-0.5,0-1,0.2-1.3,0.7S-12.2,396.2-12.2,397z
		"/>
	<path class="st4" d="M-2.8,394.6c-0.2,0-0.3,0-0.6,0c-0.7,0-1.2,0.3-1.5,0.9v4.6H-6v-6.5h1.1v0.8c0.4-0.6,0.9-0.9,1.6-0.9
		c0.2,0,0.4,0,0.5,0.1L-2.8,394.6L-2.8,394.6z"/>
	<path class="st4" d="M-0.7,393.6v0.7c0.5-0.6,1.1-0.9,1.9-0.9c0.9,0,1.5,0.4,1.9,1.1c0.2-0.3,0.5-0.6,0.8-0.8
		c0.3-0.2,0.8-0.3,1.2-0.3c1.4,0,2.2,0.8,2.2,2.3v4.4H6.2v-4.3c0-0.5-0.1-0.8-0.3-1c-0.2-0.2-0.6-0.4-1.1-0.4c-0.4,0-0.8,0.1-1,0.4
		c-0.3,0.3-0.4,0.6-0.5,1v4.3H2.2v-4.3c0-1-0.5-1.4-1.4-1.4c-0.7,0-1.2,0.3-1.5,0.9v4.8h-1.1v-6.5C-1.8,393.6-0.7,393.6-0.7,393.6z"
		/>
	<path class="st4" d="M13.2,400.2c-0.1-0.1-0.1-0.4-0.2-0.7c-0.5,0.5-1.1,0.8-1.9,0.8c-0.7,0-1.2-0.2-1.6-0.5
		c-0.4-0.3-0.6-0.8-0.6-1.4c0-0.7,0.3-1.2,0.8-1.6c0.5-0.4,1.3-0.6,2.2-0.6H13v-0.5c0-0.4-0.1-0.7-0.3-0.9c-0.2-0.2-0.6-0.4-1-0.4
		c-0.4,0-0.7,0.1-1,0.3c-0.3,0.2-0.4,0.4-0.4,0.7H9.2c0-0.3,0.1-0.6,0.3-1c0.2-0.3,0.6-0.5,0.9-0.7c0.4-0.2,0.8-0.3,1.3-0.3
		c0.8,0,1.3,0.2,1.8,0.6c0.4,0.4,0.7,0.9,0.7,1.6v3c0,0.6,0.1,1.1,0.2,1.4v0.1h-1.2V400.2z M11.3,399.3c0.3,0,0.7-0.1,1-0.3
		s0.5-0.4,0.7-0.7V397h-0.9c-1.4,0-2.1,0.4-2.1,1.2c0,0.4,0.1,0.6,0.3,0.8C10.7,399.2,11,399.3,11.3,399.3z"/>
	<path class="st4" d="M18.5,399.4c0.4,0,0.8-0.1,1.1-0.4c0.3-0.2,0.5-0.5,0.5-0.9h1.1c0,0.4-0.1,0.7-0.4,1.1c-0.3,0.4-0.6,0.6-1,0.8
		c-0.4,0.2-0.8,0.3-1.3,0.3c-0.9,0-1.6-0.3-2.1-0.9c-0.5-0.6-0.8-1.4-0.8-2.4v-0.2c0-0.6,0.1-1.2,0.4-1.7s0.6-0.9,1-1.2
		c0.4-0.3,1-0.4,1.5-0.4c0.7,0,1.3,0.2,1.8,0.7s0.8,1,0.8,1.7H20c0-0.4-0.2-0.8-0.5-1c-0.3-0.2-0.7-0.4-1.1-0.4
		c-0.6,0-1,0.2-1.3,0.6c-0.3,0.4-0.5,1-0.5,1.8v0.1c0,0.7,0.2,1.3,0.5,1.7C17.5,399.2,17.9,399.4,18.5,399.4z"/>
	<path class="st4" d="M22.4,391.9c0-0.2,0.1-0.3,0.2-0.5c0.1-0.1,0.3-0.2,0.5-0.2c0.2,0,0.4,0.1,0.5,0.2c0.1,0.1,0.2,0.3,0.2,0.5
		c0,0.2-0.1,0.3-0.2,0.4c-0.1,0.1-0.3,0.2-0.5,0.2c-0.2,0-0.4-0.1-0.5-0.2C22.4,392.2,22.4,392.1,22.4,391.9z M23.6,400.2h-1.1v-6.5
		h1.1V400.2z"/>
	<path class="st4" d="M25.1,396.8c0-0.6,0.1-1.2,0.4-1.7s0.6-0.9,1-1.2c0.5-0.3,1-0.4,1.5-0.4c0.9,0,1.6,0.3,2.2,0.9
		c0.5,0.6,0.8,1.4,0.8,2.5v0.1c0,0.6-0.1,1.2-0.4,1.7c-0.2,0.5-0.6,0.9-1,1.2c-0.4,0.3-1,0.4-1.6,0.4c-0.9,0-1.6-0.3-2.2-0.9
		C25.3,398.7,25.1,397.9,25.1,396.8L25.1,396.8L25.1,396.8z M26.2,397c0,0.7,0.2,1.3,0.5,1.8c0.3,0.4,0.8,0.7,1.3,0.7
		c0.6,0,1-0.2,1.4-0.7c0.3-0.5,0.5-1.1,0.5-1.9c0-0.7-0.2-1.3-0.5-1.8c-0.3-0.5-0.8-0.7-1.4-0.7s-1,0.2-1.3,0.7
		C26.4,395.5,26.2,396.2,26.2,397z M28.6,390.9H30l-1.6,1.8h-0.9L28.6,390.9z"/>
	<path class="st4" d="M33.5,393.6v0.8c0.5-0.6,1.2-0.9,2-0.9c1.4,0,2.1,0.8,2.1,2.3v4.3h-1.1v-4.3c0-0.5-0.1-0.8-0.3-1.1
		c-0.2-0.3-0.5-0.3-1-0.3c-0.4,0-0.7,0.1-1,0.3c-0.3,0.2-0.5,0.5-0.6,0.8v4.7h-1.1v-6.5h1L33.5,393.6L33.5,393.6z"/>
	<path class="st4" d="M-41.4,411.1c-1-0.3-1.7-0.6-2.2-1.1c-0.4-0.4-0.7-0.9-0.7-1.6c0-0.7,0.3-1.3,0.8-1.7c0.6-0.5,1.3-0.7,2.2-0.7
		c0.6,0,1.2,0.1,1.6,0.4c0.5,0.2,0.8,0.6,1.1,1c0.3,0.4,0.4,0.9,0.4,1.4h-1.2c0-0.5-0.2-1-0.5-1.3c-0.3-0.3-0.8-0.5-1.4-0.5
		c-0.6,0-1,0.1-1.3,0.4c-0.3,0.3-0.5,0.6-0.5,1c0,0.4,0.2,0.7,0.5,0.9c0.3,0.2,0.8,0.5,1.6,0.7c0.7,0.2,1.3,0.4,1.7,0.7
		c0.4,0.3,0.7,0.5,0.9,0.9c0.2,0.4,0.3,0.7,0.3,1.2c0,0.7-0.3,1.3-0.8,1.7c-0.6,0.4-1.3,0.7-2.2,0.7c-0.6,0-1.2-0.1-1.7-0.3
		c-0.5-0.2-0.9-0.6-1.2-1c-0.3-0.4-0.4-0.9-0.4-1.4h1.2c0,0.5,0.2,1,0.6,1.3c0.4,0.3,0.9,0.5,1.6,0.5c0.6,0,1.1-0.1,1.4-0.4
		c0.3-0.3,0.5-0.6,0.5-1c0-0.4-0.1-0.8-0.5-1C-40,411.6-40.6,411.4-41.4,411.1z"/>
	<path class="st4" d="M-32.7,415.1c-0.1-0.1-0.1-0.4-0.2-0.7c-0.5,0.5-1.1,0.8-1.9,0.8c-0.7,0-1.2-0.2-1.6-0.5
		c-0.4-0.4-0.6-0.8-0.6-1.4c0-0.7,0.3-1.2,0.8-1.6s1.3-0.6,2.2-0.6h1.1v-0.5c0-0.4-0.1-0.7-0.3-0.9c-0.2-0.2-0.6-0.4-1-0.4
		c-0.4,0-0.7,0.1-1,0.3c-0.3,0.2-0.4,0.4-0.4,0.7h-1.1c0-0.3,0.1-0.6,0.3-1c0.2-0.3,0.5-0.5,0.9-0.7c0.4-0.2,0.8-0.3,1.3-0.3
		c0.8,0,1.3,0.2,1.8,0.6c0.4,0.4,0.7,0.9,0.7,1.6v3c0,0.6,0.1,1.1,0.2,1.4v0.1h-1.2V415.1z M-34.6,414.2c0.3,0,0.7-0.1,1-0.3
		c0.3-0.2,0.5-0.4,0.7-0.7v-1.3h-0.9c-1.4,0-2.1,0.4-2.1,1.2c0,0.4,0.1,0.6,0.4,0.8C-35.3,414.1-35,414.2-34.6,414.2z"/>
	<path class="st4" d="M-29,408.5v0.8c0.5-0.6,1.2-0.9,2-0.9c1.4,0,2.1,0.8,2.1,2.3v4.3H-26v-4.3c0-0.5-0.1-0.8-0.3-1.1
		c-0.2-0.2-0.5-0.3-1-0.3c-0.4,0-0.7,0.1-1,0.3c-0.3,0.2-0.5,0.5-0.6,0.8v4.7H-30v-6.6H-29z"/>
	<path class="st4" d="M-23.2,406.8c0-0.2,0.1-0.3,0.2-0.5c0.1-0.1,0.3-0.2,0.5-0.2s0.4,0.1,0.5,0.2c0.1,0.1,0.2,0.3,0.2,0.5
		c0,0.2-0.1,0.3-0.2,0.5c-0.1,0.1-0.3,0.2-0.5,0.2s-0.4-0.1-0.5-0.2C-23.2,407.1-23.2,407-23.2,406.8z M-22,415.1h-1.1v-6.6h1.1
		V415.1z"/>
	<path class="st4" d="M-18.7,406.9v1.6h1.2v0.9h-1.2v4.1c0,0.3,0,0.5,0.2,0.6c0.1,0.1,0.3,0.2,0.6,0.2c0.1,0,0.3,0,0.5-0.1v0.9
		c-0.3,0.1-0.6,0.1-0.9,0.1c-0.5,0-0.9-0.1-1.1-0.4c-0.3-0.3-0.4-0.7-0.4-1.3v-4.1H-21v-0.9h1.2v-1.6H-18.7L-18.7,406.9z"/>
	<path class="st4" d="M-12.1,415.1c-0.1-0.1-0.1-0.4-0.2-0.7c-0.5,0.5-1.1,0.8-1.9,0.8c-0.6,0-1.2-0.2-1.6-0.5
		c-0.4-0.3-0.6-0.8-0.6-1.4c0-0.7,0.3-1.2,0.8-1.6c0.5-0.4,1.3-0.6,2.2-0.6h1.1v-0.5c0-0.4-0.1-0.7-0.4-0.9c-0.2-0.2-0.6-0.4-1-0.4
		c-0.4,0-0.7,0.1-1,0.3c-0.3,0.2-0.4,0.4-0.4,0.7h-1.1c0-0.3,0.1-0.6,0.4-1c0.2-0.3,0.5-0.5,0.9-0.7c0.4-0.2,0.8-0.3,1.3-0.3
		c0.8,0,1.3,0.2,1.8,0.6c0.4,0.4,0.7,0.9,0.7,1.6v3c0,0.6,0.1,1.1,0.2,1.4v0.1h-1.2V415.1z M-14,414.2c0.4,0,0.7-0.1,1-0.3
		c0.3-0.2,0.5-0.4,0.7-0.7v-1.3h-0.9c-1.4,0-2.1,0.4-2.1,1.2c0,0.4,0.1,0.6,0.4,0.8C-14.6,414.1-14.3,414.2-14,414.2z"/>
	<path class="st4" d="M-6.2,409.5c-0.2,0-0.3,0-0.5,0c-0.7,0-1.2,0.3-1.5,0.9v4.7h-1.1v-6.6h1.1v0.8c0.4-0.6,0.9-0.9,1.6-0.9
		c0.2,0,0.4,0,0.5,0.1v1L-6.2,409.5L-6.2,409.5z"/>
	<path class="st4" d="M-5.2,406.8c0-0.2,0.1-0.3,0.2-0.5c0.1-0.1,0.3-0.2,0.5-0.2s0.4,0.1,0.5,0.2c0.1,0.1,0.2,0.3,0.2,0.5
		c0,0.2-0.1,0.3-0.2,0.5c-0.1,0.1-0.3,0.2-0.5,0.2s-0.4-0.1-0.5-0.2C-5.2,407.1-5.2,407-5.2,406.8z M-4,415.1h-1.1v-6.6H-4V415.1z"
		/>
	<path class="st4" d="M1.8,415.1c-0.1-0.1-0.1-0.4-0.2-0.7c-0.5,0.5-1.1,0.8-1.9,0.8c-0.7,0-1.2-0.2-1.6-0.5
		c-0.4-0.3-0.6-0.8-0.6-1.4c0-0.7,0.3-1.2,0.8-1.6s1.3-0.6,2.2-0.6h1.1v-0.5c0-0.4-0.1-0.7-0.3-0.9c-0.2-0.2-0.6-0.4-1-0.4
		c-0.4,0-0.7,0.1-1,0.3c-0.3,0.2-0.4,0.4-0.4,0.7h-1.1c0-0.3,0.1-0.6,0.3-1c0.2-0.3,0.6-0.5,0.9-0.7c0.4-0.2,0.8-0.3,1.3-0.3
		c0.8,0,1.4,0.2,1.8,0.6c0.4,0.4,0.6,0.9,0.7,1.6v3c0,0.6,0.1,1.1,0.2,1.4v0.1H1.8V415.1z M0,414.2c0.3,0,0.7-0.1,1-0.3
		c0.3-0.2,0.5-0.4,0.7-0.7v-1.3H0.8c-1.4,0-2.1,0.4-2.1,1.2c0,0.4,0.1,0.6,0.3,0.8C-0.7,414.1-0.4,414.2,0,414.2z"/>
	<path class="st4" d="M12.7,412.8H9l-0.8,2.3H7l3.4-8.8h1l3.4,8.8h-1.2L12.7,412.8z M9.3,411.8h3l-1.5-4.1L9.3,411.8z"/>
	<path class="st4" d="M18.9,409.5c-0.2,0-0.4,0-0.5,0c-0.7,0-1.2,0.3-1.5,0.9v4.7h-1.1v-6.6h1.1v0.8c0.4-0.6,0.9-0.9,1.6-0.9
		c0.2,0,0.4,0,0.5,0.1v1L18.9,409.5L18.9,409.5z"/>
	<path class="st4" d="M19.5,411.7c0-1,0.2-1.8,0.7-2.4c0.5-0.6,1.1-0.9,1.9-0.9c0.8,0,1.4,0.3,1.9,0.9v-0.7h1v6.4
		c0,0.8-0.3,1.5-0.8,2s-1.2,0.7-2,0.7c-0.5,0-0.9-0.1-1.4-0.3c-0.5-0.2-0.8-0.5-1-0.8l0.6-0.7c0.5,0.6,1.1,0.9,1.8,0.9
		c0.5,0,1-0.1,1.3-0.5c0.3-0.4,0.5-0.7,0.5-1.3v-0.6c-0.5,0.5-1.1,0.8-1.8,0.8s-1.4-0.3-1.9-0.9C19.8,413.6,19.5,412.8,19.5,411.7z
		 M20.7,411.9c0,0.7,0.1,1.3,0.4,1.7c0.3,0.4,0.7,0.6,1.3,0.6c0.7,0,1.2-0.3,1.6-1v-3c-0.3-0.6-0.9-0.9-1.5-0.9
		c-0.5,0-1,0.2-1.3,0.6C20.8,410.4,20.7,411,20.7,411.9z"/>
	<path class="st4" d="M29.5,415.2c-0.9,0-1.6-0.3-2.2-0.9c-0.6-0.6-0.8-1.4-0.8-2.3v-0.2c0-0.7,0.1-1.2,0.4-1.7
		c0.3-0.5,0.6-0.9,1-1.2c0.5-0.3,0.9-0.4,1.5-0.4c0.8,0,1.5,0.3,2,0.8c0.5,0.6,0.7,1.4,0.7,2.4v0.5h-4.4c0,0.7,0.2,1.2,0.6,1.6
		c0.4,0.4,0.8,0.6,1.4,0.6c0.4,0,0.7-0.1,1-0.2c0.3-0.2,0.5-0.4,0.7-0.6l0.7,0.5C31.4,414.8,30.6,415.2,29.5,415.2z M29.3,409.3
		c-0.5,0-0.8,0.2-1.1,0.5c-0.3,0.3-0.5,0.8-0.6,1.4h3.3v-0.1c0-0.6-0.2-1-0.5-1.3C30.2,409.5,29.8,409.3,29.3,409.3z"/>
	<path class="st4" d="M34.4,408.5v0.8c0.5-0.6,1.2-0.9,2-0.9c1.4,0,2.1,0.8,2.1,2.3v4.3h-1.1v-4.3c0-0.5-0.1-0.8-0.3-1.1
		c-0.2-0.2-0.5-0.3-1-0.3c-0.4,0-0.7,0.1-1,0.3c-0.3,0.2-0.5,0.5-0.6,0.8v4.7h-1.1v-6.6H34.4z"/>
	<path class="st4" d="M41.7,406.9v1.6h1.2v0.9h-1.2v4.1c0,0.3,0.1,0.5,0.2,0.6c0.1,0.1,0.3,0.2,0.6,0.2c0.1,0,0.3,0,0.5-0.1v0.9
		c-0.3,0.1-0.6,0.1-0.9,0.1c-0.5,0-0.9-0.1-1.1-0.4c-0.3-0.3-0.4-0.7-0.4-1.3v-4.1h-1.2v-0.9h1.2v-1.6L41.7,406.9L41.7,406.9z"/>
	<path class="st4" d="M44.2,406.8c0-0.2,0.1-0.3,0.2-0.5c0.1-0.1,0.3-0.2,0.5-0.2c0.2,0,0.4,0.1,0.5,0.2c0.1,0.1,0.2,0.3,0.2,0.5
		c0,0.2-0.1,0.3-0.2,0.5c-0.1,0.1-0.3,0.2-0.5,0.2c-0.2,0-0.4-0.1-0.5-0.2C44.3,407.1,44.2,407,44.2,406.8z M45.4,415.1h-1.1v-6.6
		h1.1L45.4,415.1L45.4,415.1z"/>
	<path class="st4" d="M48.3,408.5v0.8c0.5-0.6,1.1-0.9,2-0.9c1.4,0,2.1,0.8,2.1,2.3v4.3h-1.1v-4.3c0-0.5-0.1-0.8-0.3-1.1
		c-0.2-0.2-0.5-0.3-1-0.3c-0.4,0-0.7,0.1-1,0.3c-0.3,0.2-0.5,0.5-0.6,0.8v4.7h-1.1v-6.6H48.3z"/>
	<path class="st4" d="M53.8,411.7c0-0.6,0.1-1.2,0.4-1.7s0.6-0.9,1-1.2c0.5-0.3,1-0.4,1.5-0.4c0.9,0,1.6,0.3,2.2,0.9
		c0.5,0.6,0.8,1.4,0.8,2.5v0.1c0,0.6-0.1,1.2-0.4,1.7c-0.2,0.5-0.6,0.9-1,1.2c-0.4,0.3-1,0.4-1.6,0.4c-0.9,0-1.6-0.3-2.2-0.9
		C54,413.6,53.8,412.8,53.8,411.7L53.8,411.7L53.8,411.7z M54.9,411.9c0,0.7,0.2,1.3,0.5,1.8c0.3,0.4,0.8,0.7,1.3,0.7
		c0.6,0,1-0.2,1.4-0.7c0.3-0.4,0.5-1.1,0.5-1.9c0-0.7-0.2-1.3-0.5-1.8c-0.3-0.5-0.8-0.7-1.4-0.7c-0.6,0-1,0.2-1.3,0.7
		C55,410.4,54.9,411,54.9,411.9z"/>
</g>
<g>
	<g>
		<polygon class="st2" points="-56.7,419.1 -56.7,417.6 -58.5,417.6 -58.5,415.9 -60.2,415.9 -60.2,414.3 -62,414.3 -62,405.9 
			-56.5,405.9 -56.5,410.6 -54.7,410.6 -54.7,410.7 -53.3,410.7 -53.3,405.9 -47.8,405.9 -47.8,414.3 -49.5,414.3 -49.5,415.9 
			-51.2,415.9 -51.2,417.5 -53,417.5 -53,419.1 		"/>
		<path class="st5" d="M-48.8,406.9v6.4h-1.7v1.6h-1.7v1.6H-54v1.6h-1.8v-1.5h-1.8v-1.6h-1.7v-1.6H-61v-6.5h3.4v4.7h1.8v1.7h1.7
			v-1.6h1.8v-4.8H-48.8 M-46.8,404.9h-2h-3.5h-2v2v2.7h-1.2v-2.7v-2h-2H-61h-2v2v6.5v2h1.7v1.6h1.7v1.6h1.8v1.5h2h1.8h2v-1.6h1.8
			v-1.6h1.7v-1.6h1.7v-2v-6.4V404.9L-46.8,404.9z"/>
	</g>
	<g>
		<path class="st2" d="M-46.8,419.1v-1.5h-1.8v-3.6h3.4v-3.2h1.7v-1.2h-3.4v-3.6h12.5v3.5H-36v1.6h-0.1v1.2h1.8v5.2H-36v1.6H-46.8z
			 M-39.8,415.5v-1.1h-3.3v1.1H-39.8z"/>
		<path class="st5" d="M-35.3,406.9v1.6H-37v1.6h-1.8v1.6h1.7v1.6h1.8v3.2H-37v1.6h-8.7v-1.5h-1.8v-1.6h3.4v1.5h5.3v-3.1h-5.3v-1.6
			h1.7V410h1.8v-1.5h-5.2v-1.6H-35.3 M-33.3,404.9h-2h-10.5h-2v2v1.6v2h1.7v1.2v1.2h-1.4h-2v2v1.6v2h1.8v1.5h2h8.7h2v-1.6h1.7v-2
			v-3.2v-2H-35v-0.8h1.7v-2v-1.6V404.9L-33.3,404.9z"/>
	</g>
</g>
<g>
	<path class="st6" d="M-23.2,411.8h-4.7v1.9h3.7v1h-3.7v2.9h-1.9v-6.6h6.6V411.8z"/>
	<path class="st6" d="M-15.9,416.5h-0.9v1h-4.8v-0.9h-1v-4.8h0.9v-1h4.8v0.9h0.9V416.5z M-17.8,416.5v-4.7h-2.8v4.7H-17.8z"/>
	<path class="st6" d="M-8.6,414.6h-1.9v0.9h1v1h0.9v1h-2.8v-0.9h-0.9v-1h-1v1.9h-1.9v-6.6h5.7v0.9h0.9V414.6z M-10.5,413.7v-1.9
		h-2.8v2.8h1.9v-1H-10.5z"/>
	<path class="st6" d="M0.4,415.6h-0.9v0.9h-0.9v1h-4.8v-6.6h4.7v0.9h1v0.9h0.9V415.6z M-1.5,415.6v-2.9h-0.9v-0.9h-1.9v4.7h1.9v-0.9
		H-1.5z"/>
	<path class="st6" d="M7.9,417.4H1.2v-6.7h6.7v0.9H3.1v1.9H6v1H3.1v1.9h4.8V417.4z"/>
	<path class="st6" d="M16.8,414.6h-0.9v1H12v1.9h-1.9v-6.6h5.7v0.9h0.9V414.6z M14.9,414.6v-2.8H12v2.8H14.9z"/>
	<path class="st6" d="M23.8,417.5h-5.7v-0.9H20v-4.7h-1.9v-1h5.7v0.9h-1.9v4.7h1.9V417.5z"/>
	<path class="st6" d="M31.4,414.6h-0.9v1h-3.8v1.9h-1.9v-6.6h5.7v0.9h0.9V414.6z M29.5,414.6v-2.8h-2.8v2.8H29.5z"/>
	<path class="st6" d="M38.7,416.5h-0.9v1H33v-0.9h-1v-4.8H33v-1h4.8v0.9h0.9V416.5z M36.8,416.5v-4.7H34v4.7H36.8z"/>
	<path class="st6" d="M44.6,417.5h-5.7v-6.6h1.9v5.7h3.8V417.5z"/>
	<path class="st6" d="M47.9,417.5H47v-0.9h0.9V417.5z M51.7,412.7h-0.9v1h-1v0.9h-0.9v1h-1v-2.8h1v-1.9h2.8V412.7z"/>
	<path class="st6" d="M57.2,417.5h-0.9v-0.9h0.9V417.5z M61,412.7h-0.9v1h-1v0.9h-0.9v1h-1v-2.8h1v-1.9H61V412.7z"/>
</g>
</svg>
