<?xml version="1.0" encoding="utf-8"?>
<!-- Generator: Adobe Illustrator 16.0.0, SVG Export Plug-In . SVG Version: 6.00 Build 0)  -->
<!DOCTYPE svg PUBLIC "-//W3C//DTD SVG 1.1//EN" "http://www.w3.org/Graphics/SVG/1.1/DTD/svg11.dtd">
<svg version="1.1" id="Capa_2" xmlns="http://www.w3.org/2000/svg" xmlns:xlink="http://www.w3.org/1999/xlink" x="0px" y="0px"
	 width="244px" height="42px" viewBox="0 0 244 42" enable-background="new 0 0 244 42" xml:space="preserve">
<g id="logo">
	<g id="logo_base_1_">
		<path fill="#FFFFFF" d="M96,42V17.6c0-5.4,1.4-9.6,4.2-12.8C103,1.6,106.8,0,111.5,0s8.4,1.6,11.3,4.8c2.8,3.2,4.3,7.5,4.3,12.8
			V42H117V26.7h-9V17h9v-0.5c0-2-0.5-3.5-1.5-4.7c-1-1.2-2.3-1.8-4-1.8c-1.8,0-3.1,0.6-4,1.8c-0.9,1.2-1.4,2.9-1.4,5.2v25H96L96,42z
			"/>
		<path fill="#FFFFFF" d="M63.3,42v-9.9h14c0.8,0,1.4-0.199,1.9-0.5c0.5-0.3,0.7-0.8,0.7-1.5c0-0.6-0.2-1.199-0.7-1.699
			C78.7,27.8,78,27.3,77.1,26.6l-7.8-4.8c-1.8-1.1-3.2-2.5-4.3-4.3s-1.6-3.6-1.6-5.4c0-1.8,0.3-3.4,0.9-4.9c0.6-1.5,1.5-2.7,2.7-3.8
			c1.1-1,2.5-1.7,4.1-2.1c1.6-0.4,4.3-0.6,7.9-0.6h9.3v9.5H77.7c-1.5,0-2.5,0.1-3.1,0.4c-0.5,0.2-0.8,0.6-0.8,1.2
			c0,0.6,0.2,1.1,0.7,1.7c0.4,0.5,1.1,1.1,2,1.6l7.6,4.6c2.2,1.3,3.8,2.899,5,4.8c1.1,1.8,1.7,3.8,1.7,6c0,1.9-0.4,3.6-1.2,5.2
			c-0.8,1.6-1.9,2.899-3.2,3.899c-1.2,0.899-2.6,1.5-4.1,1.899S78.4,42.1,75.1,42.1h-0.6L63.3,42L63.3,42z"/>
		<path fill="#FFFFFF" d="M0,42v-9.9h14c0.8,0,1.4-0.199,1.9-0.5c0.4-0.3,0.7-0.8,0.7-1.5c0-0.6-0.2-1.199-0.7-1.699
			C15.4,27.8,14.8,27.3,13.8,26.6L6,21.8c-1.8-1.1-3.2-2.5-4.3-4.3c-1.1-1.8-1.6-3.6-1.6-5.4c0-1.8,0.3-3.4,0.9-4.9s1.5-2.7,2.7-3.8
			c1.1-1,2.5-1.7,4.1-2.1c1.6-0.4,4.3-0.6,7.9-0.6H25v9.4H14.4c-1.5,0-2.5,0.1-3,0.4c-0.6,0.2-0.8,0.7-0.8,1.2
			c0,0.6,0.2,1.1,0.6,1.7c0.4,0.5,1.1,1.1,2,1.6l7.6,4.6c2.2,1.3,3.8,2.9,5,4.8c1.1,1.8,1.7,3.8,1.7,6c0,1.898-0.4,3.6-1.2,5.199
			c-0.8,1.601-1.9,2.899-3.2,3.899c-1.2,0.899-2.6,1.5-4.1,1.899C17.5,41.8,15.1,42,11.8,42h-0.6H0L0,42z"/>
		<path fill="#FFFFFF" d="M55.3,15c-0.5,5-4.8,8.9-9.9,8.9S36,20,35.5,15h-3v27H58V15H55.3z"/>
		<path fill="#FFFFFF" d="M32.5,0.5v12h3c0.7-5,4.8-8.6,9.8-8.6s9.2,3.6,9.9,8.6H58v-12H32.5z"/>
		<circle fill="#FFFFFF" cx="45.4" cy="13.9" r="7.3"/>
	</g>
</g>
<g>
	<path fill="#FFFFFF" d="M141.6,5.4c-1-0.3-1.699-0.6-2.199-1.1c-0.399-0.4-0.699-0.9-0.699-1.6c0-0.7,0.3-1.3,0.8-1.7
		c0.601-0.5,1.3-0.7,2.2-0.7c0.6,0,1.199,0.1,1.6,0.4c0.4,0.3,0.801,0.6,1.102,1c0.3,0.4,0.398,0.9,0.398,1.3h-1.199
		c0-0.5-0.199-1-0.5-1.3c-0.301-0.3-0.801-0.5-1.399-0.5c-0.601,0-1,0.1-1.3,0.4c-0.301,0.3-0.5,0.6-0.5,1.1
		c0,0.4,0.199,0.7,0.5,0.9c0.3,0.2,0.8,0.5,1.6,0.7c0.7,0.2,1.301,0.4,1.7,0.7s0.7,0.5,0.899,0.9s0.301,0.7,0.301,1.2
		c0,0.7-0.301,1.3-0.801,1.7c-0.5,0.4-1.301,0.6-2.199,0.6c-0.602,0-1.2-0.1-1.7-0.4c-0.5-0.2-0.899-0.5-1.2-0.9
		c-0.3-0.4-0.4-0.9-0.4-1.4h1.201c0,0.5,0.199,1,0.6,1.3s0.9,0.5,1.601,0.5c0.601,0,1.101-0.1,1.399-0.4c0.301-0.3,0.5-0.6,0.5-1
		s-0.1-0.8-0.5-1C143,5.8,142.4,5.6,141.6,5.4z"/>
	<path fill="#FFFFFF" d="M146.2,1c0-0.2,0.1-0.3,0.2-0.5c0.1-0.1,0.3-0.2,0.5-0.2c0.199,0,0.398,0.1,0.5,0.2
		c0.1,0.1,0.199,0.3,0.199,0.5s-0.101,0.3-0.199,0.5c-0.102,0.2-0.301,0.2-0.5,0.2c-0.2,0-0.4-0.1-0.5-0.2
		C146.3,1.4,146.2,1.2,146.2,1z M147.4,9.3H146.3V2.8h1.101V9.3L147.4,9.3z"/>
	<path fill="#FFFFFF" d="M153,7.6c0-0.3-0.1-0.5-0.3-0.7c-0.2-0.2-0.601-0.3-1.2-0.4s-1-0.3-1.3-0.4s-0.601-0.4-0.7-0.6
		c-0.2-0.2-0.2-0.5-0.2-0.8c0-0.5,0.2-1,0.7-1.4c0.5-0.4,1-0.6,1.7-0.6s1.3,0.2,1.8,0.6c0.5,0.4,0.7,0.9,0.7,1.5H153
		c0-0.3-0.1-0.6-0.4-0.8c-0.3-0.2-0.6-0.3-1-0.3c-0.398,0-0.699,0.1-1,0.3c-0.3,0.2-0.398,0.4-0.398,0.7c0,0.3,0.1,0.5,0.3,0.6
		c0.2,0.1,0.601,0.3,1.2,0.4c0.6,0.1,1,0.3,1.398,0.5c0.4,0.2,0.602,0.4,0.801,0.6c0.199,0.2,0.301,0.5,0.301,0.9
		c0,0.6-0.2,1-0.7,1.4s-1.101,0.5-1.8,0.5c-0.5,0-1-0.1-1.4-0.3c-0.398-0.2-0.699-0.5-1-0.8c-0.199-0.3-0.3-0.7-0.3-1.1h1.101
		c0,0.4,0.199,0.7,0.399,0.9c0.3,0.2,0.7,0.3,1.101,0.3c0.399,0,0.801-0.1,1-0.3C152.9,8.1,153,7.9,153,7.6z"/>
	<path fill="#FFFFFF" d="M157.1,1.2v1.6h1.2v0.9h-1.2v4.1c0,0.3,0,0.5,0.2,0.6c0.101,0.1,0.3,0.2,0.601,0.2c0.101,0,0.301,0,0.5-0.1
		v0.9c-0.301,0.1-0.601,0.1-0.899,0.1c-0.5,0-0.899-0.2-1.101-0.5c-0.199-0.3-0.399-0.7-0.399-1.3V3.6h-1.2V2.8h1.2V1.2H157.1z"/>
	<path fill="#FFFFFF" d="M162.4,9.4c-0.9,0-1.602-0.3-2.2-0.9c-0.601-0.6-0.8-1.4-0.8-2.3V6c0-0.6,0.1-1.2,0.398-1.7
		s0.602-0.9,1-1.2c0.5-0.3,0.9-0.4,1.5-0.4c0.801,0,1.5,0.3,2,0.8c0.5,0.6,0.7,1.4,0.7,2.4v0.5H160.6c0,0.6,0.199,1.2,0.601,1.6
		c0.399,0.4,0.8,0.6,1.399,0.6c0.399,0,0.699-0.1,1-0.2c0.301-0.2,0.5-0.4,0.699-0.6l0.7,0.5C164.3,9,163.5,9.4,162.4,9.4z
		 M162.2,3.5c-0.5,0-0.8,0.2-1.101,0.5s-0.5,0.8-0.601,1.4h3.3V5.3c0-0.6-0.199-1-0.5-1.3C163.1,3.7,162.7,3.5,162.2,3.5z"/>
	<path fill="#FFFFFF" d="M167.3,2.8v0.7c0.5-0.6,1.101-0.9,1.9-0.9c0.899,0,1.5,0.4,1.899,1.1c0.199-0.3,0.5-0.6,0.899-0.8
		c0.3-0.2,0.8-0.3,1.2-0.3c1.398,0,2.199,0.8,2.199,2.3v4.4H174.3V5c0-0.5-0.1-0.8-0.3-1s-0.6-0.4-1.1-0.4c-0.4,0-0.801,0.1-1,0.4
		c-0.301,0.3-0.4,0.6-0.5,1v4.3H170.3V5c0-0.9-0.5-1.4-1.399-1.4c-0.699,0-1.199,0.3-1.5,0.9v4.8H166.3V2.8H167.3z"/>
	<path fill="#FFFFFF" d="M181.1,9.3C181,9.2,181,8.9,180.9,8.6c-0.5,0.5-1.102,0.8-1.9,0.8c-0.6,0-1.2-0.2-1.6-0.5
		C177,8.5,176.8,8.1,176.8,7.5c0-0.7,0.3-1.2,0.8-1.6s1.301-0.6,2.2-0.6h1.101V4.8c0-0.4-0.101-0.7-0.399-0.9
		c-0.2-0.2-0.601-0.4-1-0.4s-0.7,0.1-1,0.3c-0.3,0.2-0.399,0.5-0.399,0.7H177c0-0.3,0.1-0.6,0.4-0.9c0.199-0.3,0.5-0.6,0.898-0.7
		c0.4-0.2,0.801-0.3,1.301-0.3c0.801,0,1.301,0.2,1.801,0.6c0.398,0.4,0.699,0.9,0.699,1.6v3c0,0.6,0.101,1.1,0.199,1.4v0.1H181.1z
		 M179.3,8.5c0.4,0,0.7-0.1,1-0.3c0.3-0.2,0.5-0.4,0.7-0.7V6.1h-0.9c-1.398,0-2.1,0.4-2.1,1.2c0,0.4,0.1,0.6,0.4,0.8
		C178.6,8.4,178.9,8.5,179.3,8.5z"/>
	<path fill="#FFFFFF" d="M188.3,9.3h-1.2V0.5h1.2V9.3z"/>
	<path fill="#FFFFFF" d="M191.3,2.8v0.8c0.5-0.6,1.101-0.9,2-0.9c1.4,0,2.101,0.8,2.101,2.3v4.3H194.3V5c0-0.5-0.1-0.8-0.3-1
		s-0.5-0.3-1-0.3c-0.4,0-0.7,0.1-1,0.3s-0.5,0.5-0.6,0.8v4.7H190.3V2.8H191.3z"/>
	<path fill="#FFFFFF" d="M198.6,1.2v1.6h1.2v0.9h-1.2v4.1c0,0.3,0,0.5,0.2,0.6c0.101,0.1,0.3,0.2,0.601,0.2c0.101,0,0.301,0,0.5-0.1
		v0.9C199.6,9.5,199.3,9.5,199,9.5c-0.5,0-0.9-0.2-1.1-0.5c-0.2-0.3-0.4-0.7-0.4-1.3V3.6h-1.2V2.8h1.2V1.2H198.6z"/>
	<path fill="#FFFFFF" d="M203.9,9.4c-0.9,0-1.602-0.3-2.2-0.9c-0.601-0.6-0.8-1.4-0.8-2.3V6c0-0.6,0.1-1.2,0.398-1.7
		s0.602-0.9,1-1.2c0.5-0.3,0.9-0.4,1.5-0.4c0.801,0,1.5,0.3,2,0.8c0.5,0.6,0.7,1.4,0.7,2.4v0.5H202c0,0.6,0.2,1.2,0.6,1.6
		c0.4,0.4,0.801,0.6,1.4,0.6c0.4,0,0.7-0.1,1-0.2s0.5-0.4,0.7-0.6l0.7,0.5C205.8,9,205,9.4,203.9,9.4z M203.8,3.5
		c-0.5,0-0.8,0.2-1.1,0.5s-0.5,0.8-0.601,1.4h3.301V5.3c0-0.6-0.2-1-0.5-1.3C204.6,3.7,204.2,3.5,203.8,3.5z"/>
	<path fill="#FFFFFF" d="M207.5,6c0-1,0.2-1.8,0.7-2.4s1.1-0.9,1.899-0.9c0.801,0,1.399,0.3,1.899,0.9l0.101-0.7h1v6.4
		c0,0.9-0.301,1.5-0.801,2s-1.199,0.7-2,0.7c-0.5,0-0.898-0.1-1.398-0.3c-0.4-0.2-0.801-0.5-1-0.8l0.6-0.7c0.5,0.6,1.1,0.9,1.8,0.9
		c0.5,0,1-0.2,1.3-0.5c0.301-0.3,0.5-0.7,0.5-1.3V8.6c-0.5,0.5-1.1,0.8-1.8,0.8S208.9,9.1,208.4,8.5C207.7,7.9,207.5,7,207.5,6z
		 M208.6,6.1c0,0.7,0.2,1.3,0.5,1.7c0.301,0.4,0.7,0.6,1.301,0.6c0.699,0,1.199-0.3,1.601-1v-3c-0.3-0.6-0.899-0.9-1.5-0.9
		c-0.5,0-1,0.2-1.3,0.6C208.8,4.6,208.6,5.3,208.6,6.1z"/>
	<path fill="#FFFFFF" d="M217.9,3.8c-0.2,0-0.4,0-0.5,0c-0.7,0-1.2,0.3-1.5,0.9v4.6H214.8V2.8h1.101v0.8
		c0.399-0.6,0.899-0.9,1.601-0.9c0.2,0,0.399,0,0.5,0.1v1H217.9z"/>
	<path fill="#FFFFFF" d="M222.7,9.3c-0.101-0.1-0.101-0.4-0.2-0.7c-0.5,0.5-1.1,0.8-1.9,0.8c-0.699,0-1.199-0.2-1.6-0.5
		c-0.4-0.3-0.6-0.8-0.6-1.4c0-0.7,0.3-1.2,0.8-1.6s1.3-0.6,2.2-0.6h1.1V4.8c0-0.4-0.1-0.7-0.3-0.9c-0.2-0.2-0.601-0.4-1-0.4
		c-0.4,0-0.7,0.1-1,0.3c-0.3,0.2-0.4,0.5-0.4,0.7h-1.1c0-0.3,0.1-0.6,0.399-0.9c0.199-0.3,0.5-0.6,0.899-0.7
		c0.399-0.2,0.8-0.3,1.3-0.3c0.801,0,1.301,0.2,1.801,0.6c0.399,0.4,0.601,0.9,0.699,1.6v3c0,0.6,0.102,1.1,0.2,1.4v0.1H222.7z
		 M220.8,8.5c0.3,0,0.7-0.1,1-0.3c0.3-0.2,0.5-0.4,0.7-0.7V6.1h-0.9c-1.398,0-2.1,0.4-2.1,1.2c0,0.4,0.1,0.6,0.3,0.8
		C220.2,8.4,220.5,8.5,220.8,8.5z"/>
	<path fill="#FFFFFF" d="M225.1,6c0-1,0.2-1.8,0.7-2.4s1.101-0.9,1.9-0.9c0.799,0,1.399,0.3,1.8,0.8V0h1.1v9.3h-1V8.6
		c-0.5,0.5-1.1,0.8-1.898,0.8s-1.4-0.3-1.9-0.9C225.4,7.9,225.1,7.1,225.1,6L225.1,6L225.1,6z M226.3,6.1c0,0.7,0.2,1.3,0.5,1.7
		c0.3,0.4,0.7,0.6,1.3,0.6c0.7,0,1.2-0.3,1.602-1v-3c-0.301-0.6-0.9-0.9-1.5-0.9c-0.5,0-1,0.2-1.301,0.6
		C226.4,4.6,226.3,5.3,226.3,6.1z"/>
	<path fill="#FFFFFF" d="M232.1,6c0-0.6,0.102-1.2,0.4-1.7s0.6-0.9,1-1.2c0.5-0.3,1-0.4,1.5-0.4c0.9,0,1.6,0.3,2.2,0.9
		c0.5,0.6,0.8,1.4,0.8,2.5v0.1c0,0.6-0.1,1.2-0.4,1.7c-0.199,0.5-0.6,0.9-1,1.2c-0.5,0.3-1,0.4-1.6,0.4c-0.9,0-1.6-0.3-2.2-0.9
		C232.4,7.9,232.1,7,232.1,6L232.1,6L232.1,6z M233.2,6.1c0,0.7,0.2,1.3,0.5,1.8s0.8,0.7,1.3,0.7c0.6,0,1-0.2,1.4-0.7
		c0.3-0.4,0.5-1.1,0.5-1.9c0-0.7-0.2-1.3-0.5-1.8C236.1,3.7,235.6,3.5,235,3.5s-1,0.2-1.3,0.7S233.2,5.3,233.2,6.1z"/>
	<path fill="#FFFFFF" d="M138.6,20.9c0-1,0.2-1.8,0.7-2.4s1.101-0.9,1.9-0.9c0.799,0,1.399,0.3,1.8,0.8V15h1.1v9.3h-1l-0.1-0.7
		c-0.4,0.5-1.1,0.801-1.9,0.801c-0.8,0-1.398-0.301-1.898-0.899s-0.7-1.399-0.7-2.4L138.6,20.9L138.6,20.9z M139.7,21
		c0,0.7,0.1,1.3,0.5,1.7c0.3,0.399,0.7,0.6,1.3,0.6c0.7,0,1.2-0.3,1.6-1v-3c-0.3-0.6-0.8-0.9-1.5-0.9c-0.5,0-1,0.2-1.3,0.6
		C139.8,19.5,139.7,20.1,139.7,21z"/>
	<path fill="#FFFFFF" d="M148.6,24.3c-0.898,0-1.6-0.3-2.199-0.899C145.8,22.8,145.6,22,145.6,21.1v-0.2c0-0.6,0.102-1.2,0.4-1.7
		s0.6-0.9,1-1.2c0.5-0.3,0.9-0.4,1.5-0.4c0.8,0,1.5,0.3,2,0.8c0.5,0.6,0.7,1.4,0.7,2.4v0.5h-4.4c0,0.601,0.2,1.2,0.601,1.601
		c0.399,0.399,0.801,0.601,1.399,0.601c0.4,0,0.7-0.101,1-0.2c0.3-0.199,0.5-0.398,0.7-0.6L151,23C150.5,23.9,149.7,24.3,148.6,24.3
		z M148.4,18.4c-0.4,0-0.801,0.2-1.102,0.5c-0.3,0.3-0.5,0.8-0.6,1.4h3.3v-0.1c0-0.6-0.2-1-0.5-1.3
		C149.3,18.6,148.9,18.4,148.4,18.4z"/>
	<path fill="#FFFFFF" d="M156.9,24.2h-1.2v-8.8h1.2V24.2z"/>
	<path fill="#FFFFFF" d="M159.9,17.6v0.8c0.5-0.6,1.1-0.9,2-0.9c1.398,0,2.1,0.8,2.1,2.3v4.3h-1.1v-4.3c0-0.5-0.102-0.8-0.301-1.1
		c-0.199-0.2-0.5-0.3-1-0.3c-0.399,0-0.699,0.1-1,0.3c-0.301,0.2-0.5,0.5-0.601,0.8v4.7h-1.101v-6.5h1v-0.1H159.9z"/>
	<path fill="#FFFFFF" d="M166.3,24.2v-5.7h-1v-0.9h1V17c0-0.7,0.2-1.3,0.601-1.6c0.399-0.4,0.899-0.6,1.601-0.6c0.3,0,0.5,0,0.8,0.1
		l-0.1,0.9c-0.2,0-0.4-0.1-0.602-0.1c-0.398,0-0.6,0.1-0.8,0.3s-0.3,0.5-0.3,0.9v0.7h1.4v0.9h-1.4v5.7H166.3L166.3,24.2z"/>
	<path fill="#FFFFFF" d="M169.7,20.8c0-0.6,0.1-1.2,0.399-1.7c0.301-0.5,0.601-0.9,1-1.2c0.5-0.3,1-0.4,1.5-0.4
		c0.899,0,1.601,0.3,2.199,0.9c0.5,0.6,0.801,1.4,0.801,2.5V21c0,0.6-0.101,1.2-0.399,1.7c-0.2,0.5-0.601,0.899-1,1.2
		c-0.5,0.3-1,0.398-1.601,0.398c-0.899,0-1.601-0.3-2.199-0.898C170,22.7,169.7,21.9,169.7,20.8L169.7,20.8L169.7,20.8z M170.8,21
		c0,0.7,0.2,1.3,0.5,1.8c0.3,0.4,0.8,0.7,1.3,0.7c0.602,0,1-0.2,1.4-0.7c0.3-0.5,0.5-1.1,0.5-1.9c0-0.7-0.2-1.3-0.5-1.8
		s-0.8-0.7-1.4-0.7c-0.5,0-1,0.2-1.3,0.7S170.8,20.2,170.8,21z"/>
	<path fill="#FFFFFF" d="M180.2,18.6c-0.2,0-0.3,0-0.601,0c-0.699,0-1.199,0.3-1.5,0.9v4.6H177v-6.5h1.1v0.8
		c0.4-0.6,0.9-0.9,1.602-0.9c0.199,0,0.398,0,0.5,0.1L180.2,18.6L180.2,18.6z"/>
	<path fill="#FFFFFF" d="M182.3,17.6v0.7c0.5-0.6,1.101-0.9,1.9-0.9c0.899,0,1.5,0.4,1.899,1.1c0.199-0.3,0.5-0.6,0.801-0.8
		c0.3-0.2,0.8-0.3,1.199-0.3c1.399,0,2.199,0.8,2.199,2.3V24.1h-1.1v-4.3c0-0.5-0.102-0.8-0.301-1c-0.199-0.2-0.601-0.4-1.101-0.4
		c-0.399,0-0.8,0.1-1,0.4c-0.3,0.3-0.399,0.6-0.5,1v4.3h-1.101v-4.3c0-1-0.5-1.4-1.399-1.4c-0.7,0-1.2,0.3-1.5,0.9v4.8h-1.101v-6.5
		H182.3z"/>
	<path fill="#FFFFFF" d="M196.2,24.2c-0.101-0.101-0.101-0.4-0.2-0.7c-0.5,0.5-1.1,0.8-1.9,0.8c-0.699,0-1.199-0.2-1.6-0.5
		s-0.6-0.8-0.6-1.399c0-0.699,0.3-1.199,0.8-1.601c0.5-0.4,1.3-0.6,2.2-0.6h1.1v-0.5c0-0.4-0.1-0.7-0.3-0.9
		c-0.2-0.2-0.601-0.4-1-0.4c-0.4,0-0.7,0.1-1,0.3c-0.3,0.2-0.4,0.4-0.4,0.7h-1.1c0-0.3,0.1-0.6,0.3-1c0.2-0.3,0.6-0.5,0.9-0.7
		c0.398-0.2,0.8-0.3,1.3-0.3c0.8,0,1.3,0.2,1.8,0.6c0.4,0.4,0.7,0.9,0.7,1.6v3c0,0.602,0.1,1.102,0.2,1.4v0.1h-1.2V24.2z
		 M194.3,23.3c0.3,0,0.7-0.1,1-0.3s0.5-0.4,0.7-0.7V21h-0.9c-1.398,0-2.1,0.4-2.1,1.2c0,0.399,0.1,0.6,0.3,0.8
		C193.7,23.2,194,23.3,194.3,23.3z"/>
	<path fill="#FFFFFF" d="M201.5,23.4c0.4,0,0.8-0.102,1.1-0.4c0.301-0.2,0.5-0.5,0.5-0.9h1.102c0,0.4-0.102,0.7-0.4,1.102
		c-0.3,0.398-0.6,0.6-1,0.8c-0.398,0.2-0.8,0.3-1.3,0.3c-0.899,0-1.601-0.3-2.101-0.898C198.9,22.8,198.6,22,198.6,21v-0.2
		c0-0.6,0.102-1.2,0.4-1.7s0.6-0.9,1-1.2c0.4-0.3,1-0.4,1.5-0.4c0.7,0,1.3,0.2,1.8,0.7s0.8,1,0.8,1.7H203c0-0.4-0.2-0.8-0.5-1
		c-0.3-0.2-0.7-0.4-1.1-0.4c-0.602,0-1,0.2-1.301,0.6s-0.5,1-0.5,1.8V21c0,0.7,0.199,1.3,0.5,1.7C200.5,23.2,200.9,23.4,201.5,23.4z
		"/>
	<path fill="#FFFFFF" d="M205.4,15.9c0-0.2,0.1-0.3,0.199-0.5c0.101-0.1,0.301-0.2,0.5-0.2s0.399,0.1,0.5,0.2s0.199,0.3,0.199,0.5
		c0,0.2-0.1,0.3-0.199,0.4c-0.101,0.1-0.301,0.2-0.5,0.2s-0.399-0.1-0.5-0.2C205.4,16.2,205.4,16.1,205.4,15.9z M206.6,24.2h-1.1
		v-6.5h1.1V24.2z"/>
	<path fill="#FFFFFF" d="M208.1,20.8c0-0.6,0.102-1.2,0.4-1.7s0.6-0.9,1-1.2c0.5-0.3,1-0.4,1.5-0.4c0.9,0,1.6,0.3,2.2,0.9
		c0.5,0.6,0.8,1.4,0.8,2.5V21c0,0.6-0.1,1.2-0.4,1.7c-0.199,0.5-0.6,0.899-1,1.2c-0.398,0.3-1,0.398-1.6,0.398
		c-0.9,0-1.6-0.3-2.2-0.898C208.3,22.7,208.1,21.9,208.1,20.8L208.1,20.8L208.1,20.8z M209.2,21c0,0.7,0.2,1.3,0.5,1.8
		c0.3,0.4,0.8,0.7,1.3,0.7c0.6,0,1-0.2,1.4-0.7c0.3-0.5,0.5-1.1,0.5-1.9c0-0.7-0.2-1.3-0.5-1.8c-0.301-0.5-0.801-0.7-1.4-0.7
		s-1,0.2-1.3,0.7C209.4,19.5,209.2,20.2,209.2,21z M211.6,14.9h1.4l-1.6,1.8h-0.9L211.6,14.9z"/>
	<path fill="#FFFFFF" d="M216.5,17.6v0.8c0.5-0.6,1.2-0.9,2-0.9c1.4,0,2.1,0.8,2.1,2.3v4.3h-1.1v-4.3c0-0.5-0.1-0.8-0.3-1.1
		c-0.2-0.3-0.5-0.3-1-0.3c-0.4,0-0.7,0.1-1,0.3c-0.3,0.2-0.5,0.5-0.601,0.8v4.7h-1.101v-6.5h1L216.5,17.6L216.5,17.6z"/>
	<path fill="#FFFFFF" d="M141.6,35.1c-1-0.3-1.699-0.6-2.199-1.1c-0.399-0.4-0.699-0.9-0.699-1.6c0-0.7,0.3-1.301,0.8-1.7
		c0.601-0.5,1.3-0.7,2.2-0.7c0.6,0,1.199,0.1,1.6,0.4c0.5,0.199,0.801,0.6,1.102,1C144.7,31.8,144.8,32.3,144.8,32.8h-1.2
		c0-0.5-0.199-1-0.5-1.3c-0.3-0.3-0.8-0.5-1.398-0.5c-0.602,0-1,0.1-1.301,0.4c-0.301,0.3-0.5,0.6-0.5,1
		c0,0.398,0.199,0.699,0.5,0.898c0.301,0.2,0.801,0.5,1.601,0.7c0.7,0.2,1.3,0.399,1.7,0.7c0.398,0.3,0.699,0.5,0.898,0.898
		c0.2,0.4,0.301,0.7,0.301,1.2c0,0.7-0.301,1.3-0.801,1.7c-0.6,0.4-1.3,0.7-2.199,0.7c-0.601,0-1.199-0.101-1.699-0.3
		c-0.5-0.2-0.9-0.602-1.2-1c-0.3-0.4-0.399-0.9-0.399-1.4h1.199c0,0.5,0.2,1,0.602,1.3c0.398,0.3,0.898,0.5,1.6,0.5
		c0.6,0,1.1-0.1,1.4-0.399c0.3-0.301,0.5-0.601,0.5-1s-0.102-0.801-0.5-1C143,35.6,142.4,35.4,141.6,35.1z"/>
	<path fill="#FFFFFF" d="M150.3,39.1c-0.1-0.1-0.1-0.398-0.2-0.699c-0.5,0.5-1.1,0.801-1.898,0.801c-0.7,0-1.2-0.2-1.602-0.5
		c-0.398-0.4-0.6-0.801-0.6-1.4c0-0.699,0.3-1.199,0.8-1.6s1.3-0.602,2.2-0.602h1.1v-0.5c0-0.398-0.1-0.699-0.3-0.898
		c-0.2-0.2-0.6-0.4-1-0.4c-0.399,0-0.7,0.102-1,0.301s-0.399,0.399-0.399,0.699H146.3c0-0.3,0.101-0.6,0.3-1
		c0.2-0.3,0.5-0.5,0.9-0.699s0.8-0.301,1.3-0.301c0.8,0,1.3,0.2,1.8,0.602c0.4,0.398,0.7,0.898,0.7,1.6v3c0,0.6,0.101,1.1,0.2,1.4
		V39h-1.2V39.1z M148.4,38.2c0.3,0,0.699-0.101,1-0.3c0.3-0.2,0.5-0.4,0.699-0.7v-1.3H149.2c-1.4,0-2.101,0.398-2.101,1.199
		c0,0.399,0.101,0.601,0.399,0.801C147.7,38.1,148,38.2,148.4,38.2z"/>
	<path fill="#FFFFFF" d="M154,32.5v0.8c0.5-0.6,1.2-0.899,2-0.899c1.4,0,2.1,0.801,2.1,2.301V39H157v-4.3c0-0.5-0.1-0.8-0.3-1.101
		c-0.2-0.199-0.5-0.301-1-0.301c-0.4,0-0.7,0.102-1,0.301s-0.5,0.5-0.601,0.801V39.1H153v-6.6H154z"/>
	<path fill="#FFFFFF" d="M159.8,30.8c0-0.2,0.101-0.3,0.2-0.5c0.1-0.1,0.3-0.2,0.5-0.2s0.4,0.102,0.5,0.2c0.1,0.101,0.2,0.3,0.2,0.5
		s-0.101,0.3-0.2,0.5c-0.1,0.101-0.3,0.2-0.5,0.2s-0.4-0.1-0.5-0.2C159.8,31.1,159.8,31,159.8,30.8z M161,39.1h-1.1v-6.6h1.1V39.1z"
		/>
	<path fill="#FFFFFF" d="M164.3,30.9v1.6h1.2v0.9h-1.2v4.1c0,0.3,0,0.5,0.2,0.6c0.1,0.102,0.3,0.2,0.6,0.2c0.102,0,0.301,0,0.5-0.1
		V39.1C165.3,39.2,165,39.2,164.7,39.2c-0.5,0-0.9-0.101-1.101-0.4c-0.301-0.3-0.399-0.7-0.399-1.3v-4.1H162v-0.9h1.2v-1.6H164.3
		L164.3,30.9z"/>
	<path fill="#FFFFFF" d="M170.9,39.1C170.8,39,170.8,38.7,170.7,38.4c-0.5,0.5-1.101,0.8-1.9,0.8c-0.6,0-1.2-0.2-1.6-0.5
		c-0.4-0.3-0.601-0.8-0.601-1.4c0-0.7,0.301-1.2,0.801-1.6c0.5-0.4,1.3-0.601,2.199-0.601h1.101v-0.5c0-0.399-0.101-0.699-0.4-0.899
		c-0.2-0.2-0.6-0.4-1-0.4c-0.399,0-0.7,0.101-1,0.3c-0.3,0.2-0.399,0.4-0.399,0.7H166.8c0-0.3,0.101-0.6,0.4-1
		c0.2-0.3,0.5-0.5,0.899-0.7c0.399-0.199,0.801-0.3,1.301-0.3c0.8,0,1.3,0.2,1.8,0.601c0.399,0.399,0.7,0.899,0.7,1.601v3
		c0,0.601,0.1,1.101,0.199,1.399V39H170.9V39.1z M169,38.2c0.4,0,0.7-0.101,1-0.3c0.3-0.2,0.5-0.4,0.7-0.7v-1.3h-0.9
		c-1.399,0-2.1,0.398-2.1,1.199c0,0.399,0.1,0.601,0.399,0.801C168.4,38.1,168.7,38.2,169,38.2z"/>
	<path fill="#FFFFFF" d="M176.8,33.5c-0.2,0-0.3,0-0.5,0c-0.7,0-1.2,0.3-1.5,0.9V39.1h-1.1v-6.6h1.1v0.8
		c0.4-0.6,0.9-0.899,1.601-0.899c0.199,0,0.399,0,0.5,0.101v1L176.8,33.5L176.8,33.5z"/>
	<path fill="#FFFFFF" d="M177.8,30.8c0-0.2,0.101-0.3,0.2-0.5c0.1-0.1,0.3-0.2,0.5-0.2s0.4,0.102,0.5,0.2c0.1,0.101,0.2,0.3,0.2,0.5
		s-0.101,0.3-0.2,0.5c-0.1,0.101-0.3,0.2-0.5,0.2s-0.4-0.1-0.5-0.2C177.8,31.1,177.8,31,177.8,30.8z M179,39.1h-1.1v-6.6h1.1V39.1z"
		/>
	<path fill="#FFFFFF" d="M184.8,39.1c-0.1-0.1-0.1-0.398-0.2-0.699c-0.5,0.5-1.1,0.801-1.898,0.801c-0.7,0-1.2-0.2-1.602-0.5
		c-0.398-0.301-0.6-0.801-0.6-1.4c0-0.699,0.3-1.199,0.8-1.6s1.3-0.602,2.2-0.602h1.1v-0.5c0-0.398-0.1-0.699-0.3-0.898
		c-0.2-0.2-0.6-0.4-1-0.4c-0.399,0-0.7,0.102-1,0.301s-0.399,0.399-0.399,0.699H180.8c0-0.3,0.101-0.6,0.3-1
		c0.2-0.3,0.602-0.5,0.9-0.699c0.4-0.199,0.8-0.301,1.3-0.301c0.8,0,1.4,0.2,1.8,0.602c0.4,0.398,0.602,0.898,0.7,1.6v3
		c0,0.6,0.101,1.1,0.2,1.4V39h-1.2V39.1z M183,38.2c0.3,0,0.7-0.101,1-0.3c0.3-0.2,0.5-0.4,0.7-0.7v-1.3h-0.9
		c-1.399,0-2.1,0.398-2.1,1.199c0,0.399,0.1,0.601,0.3,0.801C182.3,38.1,182.6,38.2,183,38.2z"/>
	<path fill="#FFFFFF" d="M195.7,36.8H192l-0.8,2.3H190l3.4-8.8h1l3.398,8.8H196.6L195.7,36.8z M192.3,35.8h3l-1.5-4.1L192.3,35.8z"
		/>
	<path fill="#FFFFFF" d="M201.9,33.5c-0.2,0-0.4,0-0.5,0c-0.7,0-1.2,0.3-1.5,0.9V39.1H198.8v-6.6h1.101v0.8
		c0.399-0.6,0.899-0.899,1.601-0.899c0.2,0,0.399,0,0.5,0.101v1L201.9,33.5L201.9,33.5z"/>
	<path fill="#FFFFFF" d="M202.5,35.7c0-1,0.2-1.8,0.7-2.4c0.5-0.6,1.1-0.899,1.899-0.899c0.801,0,1.399,0.301,1.899,0.899v-0.7h1V39
		c0,0.8-0.3,1.5-0.8,2s-1.2,0.7-2,0.7c-0.5,0-0.9-0.101-1.4-0.3c-0.5-0.2-0.8-0.5-1-0.801L203.4,39.9c0.5,0.6,1.1,0.898,1.8,0.898
		c0.5,0,1-0.1,1.3-0.5c0.3-0.398,0.5-0.699,0.5-1.3v-0.601c-0.5,0.5-1.1,0.801-1.8,0.801s-1.4-0.301-1.9-0.9
		C202.8,37.6,202.5,36.8,202.5,35.7z M203.7,35.9c0,0.699,0.1,1.3,0.399,1.699C204.4,38,204.8,38.2,205.4,38.2
		c0.699,0,1.199-0.3,1.6-1v-3c-0.3-0.601-0.9-0.9-1.5-0.9c-0.5,0-1,0.2-1.3,0.601C203.8,34.4,203.7,35,203.7,35.9z"/>
	<path fill="#FFFFFF" d="M212.5,39.2c-0.9,0-1.6-0.3-2.2-0.9c-0.6-0.6-0.8-1.399-0.8-2.3v-0.2c0-0.7,0.1-1.2,0.4-1.7
		c0.3-0.5,0.6-0.898,1-1.199c0.5-0.301,0.898-0.399,1.5-0.399c0.8,0,1.5,0.3,2,0.8c0.5,0.602,0.699,1.4,0.699,2.4v0.5H210.7
		c0,0.699,0.2,1.199,0.6,1.6c0.4,0.4,0.8,0.602,1.4,0.602c0.399,0,0.7-0.102,1-0.2c0.3-0.2,0.5-0.4,0.7-0.601l0.699,0.5
		C214.4,38.8,213.6,39.2,212.5,39.2z M212.3,33.3c-0.5,0-0.8,0.2-1.1,0.5s-0.5,0.8-0.601,1.4h3.301V35.1c0-0.6-0.2-1-0.5-1.3
		C213.2,33.5,212.8,33.3,212.3,33.3z"/>
	<path fill="#FFFFFF" d="M217.4,32.5v0.8c0.5-0.6,1.199-0.899,2-0.899c1.398,0,2.1,0.801,2.1,2.301V39h-1.1v-4.3
		c0-0.5-0.102-0.8-0.301-1.101c-0.199-0.199-0.5-0.301-1-0.301c-0.399,0-0.699,0.102-1,0.301s-0.5,0.5-0.601,0.801V39.1h-1.101v-6.6
		H217.4z"/>
	<path fill="#FFFFFF" d="M224.7,30.9v1.6h1.2v0.9h-1.2v4.1c0,0.3,0.1,0.5,0.2,0.6c0.1,0.102,0.3,0.2,0.6,0.2c0.1,0,0.3,0,0.5-0.1
		V39.1c-0.3,0.102-0.6,0.102-0.9,0.102c-0.5,0-0.898-0.102-1.1-0.4c-0.3-0.3-0.4-0.699-0.4-1.3V33.4H222.4v-0.899h1.199V30.9H224.7
		L224.7,30.9z"/>
	<path fill="#FFFFFF" d="M227.2,30.8c0-0.2,0.1-0.3,0.2-0.5c0.1-0.1,0.3-0.2,0.5-0.2c0.199,0,0.398,0.102,0.5,0.2
		c0.1,0.101,0.199,0.3,0.199,0.5s-0.101,0.3-0.199,0.5c-0.102,0.101-0.301,0.2-0.5,0.2c-0.2,0-0.4-0.1-0.5-0.2
		C227.3,31.1,227.2,31,227.2,30.8z M228.4,39.1H227.3v-6.6h1.101V39.1L228.4,39.1z"/>
	<path fill="#FFFFFF" d="M231.3,32.5v0.8c0.5-0.6,1.101-0.899,2-0.899c1.4,0,2.101,0.801,2.101,2.301V39H234.3v-4.3
		c0-0.5-0.1-0.8-0.3-1.101c-0.2-0.199-0.5-0.301-1-0.301c-0.4,0-0.7,0.102-1,0.301s-0.5,0.5-0.6,0.801V39.1H230.3v-6.6H231.3z"/>
	<path fill="#FFFFFF" d="M236.8,35.7c0-0.601,0.101-1.2,0.4-1.7c0.299-0.5,0.6-0.9,1-1.2c0.5-0.3,1-0.399,1.5-0.399
		c0.899,0,1.6,0.301,2.2,0.899c0.5,0.601,0.8,1.4,0.8,2.5V35.9c0,0.6-0.101,1.199-0.4,1.699c-0.2,0.5-0.6,0.899-1,1.199
		c-0.399,0.301-1,0.4-1.6,0.4c-0.9,0-1.601-0.301-2.2-0.9C237,37.6,236.8,36.8,236.8,35.7L236.8,35.7L236.8,35.7z M237.9,35.9
		c0,0.699,0.199,1.3,0.5,1.8c0.3,0.399,0.8,0.7,1.3,0.7c0.6,0,1-0.2,1.399-0.7c0.301-0.4,0.5-1.101,0.5-1.9c0-0.7-0.199-1.3-0.5-1.8
		s-0.801-0.7-1.399-0.7c-0.601,0-1,0.2-1.3,0.7C238,34.4,237.9,35,237.9,35.9z"/>
</g>
</svg>
