<?xml version="1.0" standalone="no"?>
<!DOCTYPE svg PUBLIC "-//W3C//DTD SVG 1.1//EN" "http://www.w3.org/Graphics/SVG/1.1/DTD/svg11.dtd" >
<svg xmlns="http://www.w3.org/2000/svg">
<metadata>Generated by IcoMoon</metadata>
<defs>
<font id="icomoon" horiz-adv-x="1024">
<font-face units-per-em="1024" ascent="960" descent="-64" />
<missing-glyph horiz-adv-x="1024" />
<glyph unicode="&#x20;" horiz-adv-x="512" d="" />
<glyph unicode="&#xe900;" glyph-name="bot_ico__endesarrollo" d="M426.667 533.333h597.333v-597.333h-597.333v597.333zM0-64h341.333v341.333h-341.333v-341.333zM0 960v-597.333h341.333v256h682.667v341.333h-1024z" />
<glyph unicode="&#xe901;" glyph-name="bot_ico_acceder" d="M704 448l-384-384-96 96 224 224h-448v128h448l-224 224 96 96 384-384zM1024 960h-448v-128h320v-768h-320v-128h448v1024z" />
<glyph unicode="&#xe902;" glyph-name="bot_ico_acceder_ver" d="M861.867 567.467l-349.867 349.867-119.467-119.467 260.267-264.533h-610.133v-170.667h610.133l-260.267-264.533 119.467-119.467 469.333 469.333z" />
<glyph unicode="&#xe903;" glyph-name="bot_ico_aceptar" d="M876.8 857.6l-544-544-185.6 179.2-134.4-134.4 185.6-179.2 134.4-140.8 678.4 678.4z" />
<glyph unicode="&#xe904;" glyph-name="bot_ico_actualizar" d="M938.667 533.333l-85.333-85.333c0 234.667-192 426.667-426.667 426.667s-426.667-192-426.667-426.667c0-234.667 192-426.667 426.667-426.667v170.667c-140.8 0-256 115.2-256 256s115.2 256 256 256c140.8 0 256-115.2 256-256l-85.333 85.333-85.333-85.333 256-256 256 256-85.333 85.333z" />
<glyph unicode="&#xe905;" glyph-name="bot_ico_agregar" d="M896 533.333h-298.667v298.667h-170.667v-298.667h-298.667v-170.667h298.667v-298.667h170.667v298.667h298.667z" />
<glyph unicode="&#xe906;" glyph-name="bot_ico_archivo" d="M725.333 960h-597.333v-1024h768v853.333l-170.667 170.667zM682.667 746.667v170.667l170.667-170.667h-170.667z" />
<glyph unicode="&#xe907;" glyph-name="bot_ico_archivo_adjunto" d="M682.667 768v-298.667c0-81.067-68.267-149.333-149.333-149.333s-149.333 68.267-149.333 149.333v85.333h85.333v-85.333c0-34.133 29.867-64 64-64s64 29.867 64 64v298.667c0 59.733-46.933 106.667-106.667 106.667-51.2 0-93.867-38.4-102.4-85.333h-85.333c12.8 93.867 89.6 170.667 187.733 170.667 106.667 0 192-85.333 192-192zM725.333 746.667v-277.333c0-106.667-85.333-192-192-192s-192 85.333-192 192v85.333c0 25.6 17.067 42.667 42.667 42.667h85.333c25.6 0 42.667-17.067 42.667-42.667v-85.333c0-12.8 8.533-21.333 21.333-21.333s21.333 8.533 21.333 21.333v277.333h-341.333v-810.667h597.333v810.667h-85.333z" />
<glyph unicode="&#xe908;" glyph-name="bot_ico_archivo_agregar" d="M810.667 362.667c-119.467 0-213.333-93.867-213.333-213.333s93.867-213.333 213.333-213.333c119.467 0 213.333 93.867 213.333 213.333s-93.867 213.333-213.333 213.333zM938.667 106.667h-85.333v-85.333h-85.333v85.333h-85.333v85.333h85.333v85.333h85.333v-85.333h85.333v-85.333zM512 149.333c0 102.4 51.2 192 128 243.2v226.133l-170.667 170.667h-469.333v-853.333h601.6c-55.467 55.467-89.6 128-89.6 213.333zM426.667 746.667l170.667-170.667h-170.667v170.667zM529.067 849.067l170.667-170.667c17.067-17.067 25.6-38.4 25.6-59.733v-183.467c25.6 8.533 55.467 12.8 85.333 12.8s59.733-4.267 85.333-12.8v354.133l-170.667 170.667h-469.333v-85.333h213.333c21.333 0 42.667-8.533 59.733-25.6zM682.667 917.333l170.667-170.667h-170.667v170.667z" />
<glyph unicode="&#xe909;" glyph-name="bot_ico_archivo_bmp" d="M93.867 277.333v320h110.933c38.4 0 68.267-8.533 89.6-21.333 21.333-17.067 29.867-38.4 29.867-64 0-17.067-4.267-29.867-12.8-42.667s-21.333-21.333-34.133-25.6c17.067-4.267 29.867-12.8 38.4-25.6s12.8-29.867 12.8-46.933c0-29.867-8.533-55.467-29.867-68.267-21.333-17.067-46.933-25.6-85.333-25.6h-119.467zM157.867 465.067h46.933c34.133 0 51.2 12.8 51.2 38.4 0 12.8-4.267 25.6-12.8 29.867-8.533 8.533-21.333 8.533-38.4 8.533h-46.933v-76.8zM157.867 418.133v-85.333h55.467c17.067 0 29.867 4.267 38.4 12.8s12.8 17.067 12.8 29.867c0 29.867-17.067 42.667-46.933 46.933h-59.733zM469.333 597.333l81.067-234.667 81.067 234.667h85.333v-320h-68.267v89.6l8.533 153.6-85.333-238.933h-46.933l-85.333 238.933 8.533-153.6v-89.6h-68.267v320h89.6zM844.8 392.533v-115.2h-68.267v320h123.733c25.6 0 46.933-4.267 64-12.8s34.133-21.333 42.667-38.4c8.533-17.067 12.8-34.133 12.8-55.467 0-29.867-12.8-55.467-34.133-72.533s-51.2-25.6-89.6-25.6h-51.2zM844.8 443.733h59.733c17.067 0 29.867 4.267 38.4 12.8s12.8 21.333 12.8 34.133c0 17.067-4.267 29.867-12.8 38.4s-21.333 12.8-38.4 17.067h-59.733v-102.4zM750.933 196.267c-8.533-4.267-17.067-4.267-29.867-4.267h-68.267c-12.8 0-29.867 4.267-38.4 8.533-12.8-8.533-25.6-8.533-38.4-8.533h-46.933c-12.8 0-29.867 4.267-38.4 8.533-12.8-4.267-25.6-8.533-38.4-8.533h-68.267c-21.333 0-42.667 8.533-59.733 21.333-29.867-12.8-64-21.333-106.667-21.333h-123.733c-46.933 0-85.333 38.4-85.333 85.333v320c0 46.933 38.4 85.333 85.333 85.333h110.933c46.933 0 85.333-8.533 115.2-25.6 17.067 17.067 38.4 25.6 59.733 25.6h85.333c34.133 0 68.267-21.333 81.067-55.467v0c12.8 34.133 42.667 55.467 81.067 55.467h85.333c8.533 0 21.333 0 29.867-4.267 4.267 4.267 12.8 4.267 17.067 4.267v106.667l-170.667 170.667h-597.333v-1024h768v256c0 0-4.267 4.267-8.533 4.267zM554.667 917.333l170.667-170.667h-170.667v170.667z" />
<glyph unicode="&#xe90a;" glyph-name="bot_ico_archivo_csv" d="M435.2 384c-4.267-34.133-17.067-64-38.4-81.067-21.333-21.333-55.467-29.867-89.6-29.867-42.667 0-72.533 12.8-98.133 42.667s-38.4 64-38.4 110.933v21.333c0 29.867 4.267 59.733 17.067 81.067s25.6 42.667 46.933 55.467c21.333 12.8 42.667 17.067 72.533 17.067 38.4 0 68.267-8.533 89.6-29.867s34.133-46.933 38.4-85.333h-64c0 21.333-8.533 34.133-17.067 46.933s-25.6 17.067-46.933 17.067c-21.333 0-38.4-8.533-51.2-25.6s-17.067-38.4-17.067-72.533v-25.6c0-34.133 4.267-59.733 17.067-76.8 8.533-17.067 25.6-25.6 51.2-25.6 21.333 0 34.133 4.267 46.933 12.8 8.533 8.533 17.067 25.6 17.067 42.667h64zM644.267 362.667c0 12.8-4.267 21.333-12.8 29.867s-25.6 12.8-46.933 21.333c-21.333 8.533-42.667 12.8-55.467 21.333-38.4 21.333-55.467 46.933-55.467 81.067 0 17.067 4.267 34.133 12.8 46.933s25.6 25.6 42.667 34.133c17.067 8.533 38.4 12.8 64 12.8 21.333 0 42.667-4.267 59.733-12.8s34.133-21.333 42.667-34.133 17.067-34.133 17.067-51.2h-68.267c0 12.8-4.267 25.6-12.8 34.133s-21.333 12.8-38.4 12.8c-17.067 0-29.867-4.267-38.4-8.533-8.533-8.533-12.8-17.067-12.8-25.6s4.267-21.333 17.067-25.6c8.533-8.533 25.6-12.8 46.933-21.333 38.4-12.8 64-25.6 81.067-42.667s25.6-38.4 25.6-64c0-29.867-8.533-51.2-29.867-64-21.333-17.067-51.2-25.6-85.333-25.6-25.6 0-46.933 4.267-68.267 12.8s-34.133 21.333-46.933 38.4c-12.8 17.067-17.067 34.133-17.067 55.467h68.267c0-34.133 21.333-55.467 64-55.467 17.067 0 29.867 4.267 38.4 8.533 4.267 0 8.533 8.533 8.533 21.333zM878.933 358.4l72.533 243.2h72.533l-110.933-324.267h-68.267l-110.933 324.267h72.533l72.533-243.2zM763.733 247.467v4.267c-8.533-8.533-17.067-17.067-25.6-25.6-34.133-25.6-81.067-42.667-136.533-42.667-38.4 0-72.533 8.533-102.4 21.333-17.067 8.533-29.867 17.067-42.667 25.6-38.4-29.867-85.333-46.933-145.067-46.933-68.267 0-123.733 25.6-162.133 72.533-38.4 42.667-55.467 102.4-55.467 170.667v21.333c0 42.667 8.533 81.067 25.6 119.467s42.667 68.267 81.067 89.6c34.133 21.333 72.533 29.867 115.2 29.867 55.467 0 106.667-17.067 145.067-46.933 12.8 12.8 29.867 21.333 51.2 29.867 29.867 12.8 59.733 17.067 93.867 17.067s64-4.267 89.6-17.067c12.8 8.533 29.867 12.8 46.933 12.8h25.6v106.667l-170.667 170.667h-597.333v-1024h768v302.933c0 0-4.267 4.267-4.267 8.533zM554.667 917.333l170.667-170.667h-170.667v170.667z" />
<glyph unicode="&#xe90b;" glyph-name="bot_ico_archivo_descarga" d="M512 149.333c0 149.333 110.933 273.067 256 294.4v345.6l-170.667 170.667h-597.333v-1024h601.6c-55.467 55.467-89.6 128-89.6 213.333zM554.667 917.333l170.667-170.667h-170.667v170.667zM810.667 362.667c-119.467 0-213.333-93.867-213.333-213.333s93.867-213.333 213.333-213.333c119.467 0 213.333 93.867 213.333 213.333s-93.867 213.333-213.333 213.333zM810.667-21.333l-170.667 187.733 42.667 46.933 98.133-106.667v213.333h55.467v-217.6l98.133 106.667 42.667-46.933-166.4-183.467z" />
<glyph unicode="&#xe90c;" glyph-name="bot_ico_archivo_doc" d="M157.867 277.333v320h98.133c29.867 0 55.467-4.267 76.8-17.067s38.4-29.867 51.2-55.467c12.8-25.6 17.067-51.2 17.067-81.067v-12.8c0-29.867-4.267-55.467-17.067-81.067s-29.867-42.667-51.2-55.467c-21.333-12.8-46.933-21.333-76.8-21.333h-98.133zM226.133 546.133v-213.333h34.133c25.6 0 46.933 8.533 59.733 25.6s21.333 42.667 21.333 72.533v17.067c0 34.133-8.533 55.467-21.333 72.533s-34.133 25.6-59.733 25.6h-34.133zM716.8 430.933c0-29.867-4.267-59.733-17.067-85.333s-25.6-42.667-46.933-55.467-42.667-21.333-72.533-21.333c-25.6 0-51.2 8.533-72.533 21.333s-38.4 29.867-46.933 55.467c-12.8 25.6-17.067 51.2-17.067 81.067v17.067c0 29.867 4.267 59.733 17.067 85.333s25.6 42.667 46.933 55.467 42.667 21.333 72.533 21.333 51.2-8.533 72.533-21.333 38.4-29.867 46.933-55.467c12.8-25.6 17.067-51.2 17.067-85.333v-12.8zM648.533 443.733c0 34.133-4.267 59.733-17.067 76.8s-29.867 25.6-51.2 25.6c-21.333 0-38.4-8.533-51.2-25.6s-17.067-42.667-17.067-76.8v-17.067c0-34.133 4.267-59.733 17.067-76.8s29.867-25.6 51.2-25.6c21.333 0 38.4 8.533 51.2 25.6s17.067 42.667 17.067 76.8v17.067zM1015.467 384c-4.267-34.133-17.067-59.733-38.4-81.067s-55.467-29.867-89.6-29.867c-42.667 0-72.533 12.8-98.133 42.667s-34.133 64-34.133 115.2v17.067c0 29.867 4.267 59.733 17.067 81.067 12.8 25.6 25.6 42.667 46.933 55.467s42.667 17.067 72.533 17.067c38.4 0 68.267-8.533 89.6-29.867s34.133-46.933 38.4-85.333h-68.267c0 21.333-8.533 34.133-17.067 46.933-8.533 8.533-25.6 12.8-46.933 12.8s-38.4-8.533-51.2-25.6c-12.8-17.067-17.067-38.4-17.067-72.533v-25.6c0-34.133 4.267-59.733 17.067-76.8s25.6-25.6 51.2-25.6c21.333 0 34.133 4.267 46.933 12.8s17.067 25.6 17.067 42.667h64zM733.867 251.733c-12.8-12.8-25.6-21.333-38.4-29.867-34.133-21.333-72.533-34.133-115.2-34.133s-81.067 12.8-115.2 29.867c-17.067 8.533-29.867 21.333-42.667 38.4-12.8-12.8-25.6-25.6-42.667-34.133-34.133-21.333-76.8-29.867-119.467-29.867h-98.133c-46.933 0-85.333 38.4-85.333 85.333v320c0 46.933 38.4 85.333 85.333 85.333h98.133c42.667 0 81.067-8.533 119.467-29.867 17.067-8.533 29.867-21.333 42.667-34.133 12.8 12.8 25.6 25.6 42.667 38.4 68.267 42.667 162.133 42.667 234.667 0 12.8-8.533 25.6-21.333 38.4-29.867 12.8 12.8 25.6 21.333 38.4 29.867 0 0 0 0 4.267 0v132.267l-170.667 170.667h-597.333v-1024h768v281.6c-21.333 8.533-34.133 21.333-46.933 34.133zM563.2 917.333l170.667-170.667h-170.667v170.667z" />
<glyph unicode="&#xe90d;" glyph-name="bot_ico_archivo_jpeg" d="M145.067 597.333h64v-221.867c0-21.333-4.267-38.4-12.8-55.467s-21.333-29.867-38.4-38.4c-17.067-8.533-34.133-12.8-55.467-12.8-34.133 0-59.733 8.533-76.8 25.6s-25.6 42.667-25.6 72.533h64c0-17.067 4.267-25.6 8.533-34.133s17.067-12.8 29.867-12.8c12.8 0 21.333 4.267 29.867 12.8s12.8 21.333 12.8 38.4v226.133zM324.267 392.533v-115.2h-64v320h119.467c21.333 0 42.667-4.267 59.733-12.8s29.867-21.333 42.667-38.4c8.533-17.067 12.8-34.133 12.8-55.467 0-29.867-8.533-55.467-29.867-72.533s-51.2-25.6-85.333-25.6h-55.467zM324.267 443.733h55.467c17.067 0 29.867 4.267 38.4 12.8s12.8 21.333 12.8 34.133c0 17.067-4.267 29.867-12.8 38.4s-21.333 12.8-38.4 17.067h-59.733v-102.4zM729.6 418.133h-123.733v-85.333h145.067v-51.2h-209.067v320h204.8v-55.467h-140.8v-76.8h123.733v-51.2zM1028.267 320c-12.8-12.8-25.6-25.6-46.933-34.133s-42.667-12.8-68.267-12.8c-25.6 0-51.2 4.267-68.267 17.067-21.333 12.8-34.133 29.867-46.933 51.2s-17.067 51.2-17.067 81.067v25.6c0 34.133 4.267 59.733 17.067 85.333 8.533 21.333 25.6 42.667 46.933 55.467s42.667 17.067 68.267 17.067c38.4 0 64-8.533 85.333-25.6s34.133-42.667 38.4-81.067h-64c-4.267 17.067-8.533 29.867-17.067 38.4s-21.333 12.8-38.4 12.8c-21.333 0-38.4-8.533-51.2-25.6s-17.067-42.667-17.067-76.8v-21.333c0-34.133 4.267-59.733 17.067-76.8s29.867-25.6 55.467-25.6c25.6 0 42.667 4.267 51.2 17.067v55.467h-59.733v51.2h119.467v-128zM59.733 456.533v140.8c0 46.933 38.4 85.333 85.333 85.333h64c8.533 0 17.067 0 25.6-4.267 8.533 4.267 17.067 4.267 25.6 4.267h119.467c38.4 0 68.267-8.533 98.133-21.333 0 0 0 0 0 0 17.067 12.8 34.133 21.333 59.733 21.333h204.8c8.533 0 17.067 0 25.6-4.267v110.933l-170.667 170.667h-597.333v-503.467h59.733zM558.933 917.333l170.667-170.667h-170.667v170.667zM746.667 192h-209.067c-46.933 0-85.333 38.4-85.333 85.333v38.4c-12.8-4.267-29.867-8.533-46.933-8.533v-29.867c0-46.933-38.4-85.333-85.333-85.333h-64c-21.333 0-42.667 8.533-55.467 21.333 0 0-4.267-4.267-4.267-4.267-29.867-17.067-59.733-21.333-93.867-21.333-42.667 0-72.533 8.533-98.133 21.333v-273.067h768v260.267c-4.267-4.267-12.8-4.267-25.6-4.267z" />
<glyph unicode="&#xe90e;" glyph-name="bot_ico_archivo_json" d="M166.4 558.933h55.467v-192c0-17.067-4.267-34.133-12.8-46.933s-17.067-25.6-34.133-29.867c-12.8-8.533-29.867-12.8-46.933-12.8-29.867 0-51.2 8.533-68.267 21.333-17.067 17.067-25.6 38.4-25.6 64h59.733c0-12.8 4.267-25.6 8.533-29.867 4.267-8.533 12.8-8.533 25.6-8.533s21.333 4.267 25.6 12.8c8.533 8.533 8.533 17.067 8.533 34.133v187.733zM418.133 349.867c0 12.8-4.267 21.333-12.8 25.6s-21.333 12.8-42.667 17.067c-21.333 8.533-34.133 12.8-46.933 17.067-29.867 17.067-46.933 38.4-46.933 68.267 0 17.067 4.267 29.867 12.8 38.4 8.533 12.8 21.333 21.333 38.4 25.6 17.067 8.533 34.133 8.533 55.467 8.533s38.4-4.267 51.2-12.8c17.067-8.533 25.6-17.067 38.4-29.867s12.8-29.867 12.8-46.933h-55.467c0 12.8-4.267 21.333-12.8 29.867s-21.333 8.533-34.133 8.533c-12.8 0-25.6-4.267-34.133-8.533s-12.8-12.8-12.8-21.333c0-8.533 4.267-17.067 12.8-21.333s21.333-12.8 38.4-17.067c34.133-8.533 55.467-21.333 72.533-38.4 17.067-12.8 21.333-34.133 21.333-55.467 0-25.6-8.533-42.667-25.6-55.467s-42.667-21.333-72.533-21.333c-21.333 0-42.667 4.267-59.733 12.8s-29.867 17.067-38.4 34.133-12.8 29.867-12.8 46.933h59.733c0-29.867 17.067-46.933 55.467-46.933 12.8 0 25.6 4.267 34.133 8.533 0 17.067 4.267 25.6 4.267 34.133zM742.4 409.6c0-25.6-4.267-51.2-12.8-72.533s-25.6-38.4-42.667-46.933c-17.067-12.8-38.4-17.067-64-17.067-21.333 0-42.667 4.267-64 17.067s-34.133 25.6-42.667 46.933c-8.533 21.333-17.067 42.667-17.067 72.533v12.8c0 25.6 4.267 51.2 12.8 72.533s25.6 38.4 42.667 46.933c17.067 12.8 38.4 17.067 64 17.067 21.333 0 42.667-4.267 64-17.067s34.133-25.6 42.667-46.933c8.533-21.333 12.8-46.933 12.8-72.533v-12.8zM682.667 422.4c0 29.867-4.267 51.2-17.067 68.267s-25.6 21.333-46.933 21.333c-21.333 0-34.133-8.533-42.667-21.333-8.533-17.067-17.067-38.4-17.067-64v-12.8c0-29.867 4.267-51.2 17.067-68.267 8.533-17.067 25.6-25.6 46.933-25.6s34.133 8.533 42.667 21.333c8.533 17.067 17.067 38.4 17.067 68.267v12.8zM1011.2 277.333h-55.467l-110.933 183.467v-183.467h-55.467v277.333h55.467l110.933-183.467v183.467h55.467v-277.333zM34.133 443.733h42.667v110.933c0 46.933 38.4 85.333 85.333 85.333h55.467c21.333 0 38.4-8.533 51.2-17.067 4.267 0 8.533 4.267 12.8 4.267 51.2 21.333 123.733 21.333 174.933-4.267 12.8-8.533 25.6-12.8 38.4-25.6 4.267 4.267 12.8 8.533 17.067 12.8 59.733 38.4 145.067 38.4 209.067 4.267 12.8 12.8 34.133 21.333 55.467 21.333v149.333l-170.667 170.667h-597.333v-512c12.8 0 17.067 0 25.6 0zM567.467 917.333l170.667-170.667h-170.667v170.667zM725.333 217.6c-29.867-17.067-64-25.6-102.4-25.6s-76.8 8.533-106.667 29.867c-4.267 4.267-12.8 8.533-17.067 12.8 0 0 0 0-4.267-4.267-34.133-25.6-76.8-38.4-123.733-38.4-34.133 0-64 8.533-93.867 21.333-12.8 4.267-25.6 12.8-34.133 21.333-8.533-8.533-17.067-12.8-29.867-17.067-25.6-12.8-55.467-21.333-89.6-21.333-46.933 0-85.333 12.8-115.2 38.4v-290.133h768v256c-17.067-8.533-34.133 0-51.2 17.067z" />
<glyph unicode="&#xe90f;" glyph-name="bot_ico_archivo_pdf" d="M294.4 392.533v-115.2h-68.267v320h123.733c25.6 0 46.933-4.267 64-12.8s34.133-21.333 42.667-38.4c8.533-17.067 12.8-34.133 12.8-55.467 0-29.867-12.8-55.467-34.133-76.8-21.333-17.067-51.2-25.6-89.6-25.6h-51.2zM294.4 443.733h59.733c17.067 0 29.867 4.267 38.4 12.8s12.8 21.333 12.8 34.133c0 17.067-4.267 29.867-12.8 38.4-8.533 12.8-21.333 17.067-38.4 17.067h-59.733v-102.4zM520.533 277.333v320h98.133c29.867 0 55.467-8.533 76.8-17.067 21.333-12.8 38.4-29.867 51.2-55.467s17.067-51.2 17.067-81.067v-12.8c0-29.867-4.267-55.467-17.067-81.067s-29.867-42.667-51.2-55.467c-21.333-12.8-46.933-21.333-76.8-21.333h-98.133zM584.533 546.133v-213.333h34.133c25.6 0 46.933 8.533 59.733 25.6s21.333 42.667 21.333 72.533v17.067c0 34.133-8.533 59.733-21.333 72.533-12.8 17.067-34.133 25.6-59.733 25.6h-34.133zM1006.933 409.6h-128v-132.267h-68.267v320h213.333v-55.467h-145.067v-85.333h128v-46.933zM746.667 226.133c-4.267 0-4.267-4.267-8.533-4.267-34.133-21.333-76.8-29.867-119.467-29.867h-98.133c-46.933 0-85.333 38.4-85.333 85.333v42.667c-17.067-4.267-34.133-8.533-55.467-12.8v-29.867c0-46.933-38.4-85.333-85.333-85.333h-68.267c-46.933 0-85.333 38.4-85.333 85.333v320c0 46.933 38.4 85.333 85.333 85.333h123.733c38.4 0 72.533-8.533 102.4-21.333 0 0 4.267-4.267 4.267-4.267 17.067 17.067 38.4 25.6 59.733 25.6h98.133c42.667 0 81.067-8.533 119.467-29.867 4.267 0 4.267-4.267 8.533-4.267 4.267 8.533 12.8 17.067 21.333 21.333v119.467l-170.667 170.667h-593.067v-1024h768v268.8c-8.533 8.533-17.067 12.8-21.333 21.333zM554.667 917.333l170.667-170.667h-170.667v170.667z" />
<glyph unicode="&#xe910;" glyph-name="bot_ico_archivo_pps" d="M256 392.533v-115.2h-68.267v320h123.733c25.6 0 46.933-4.267 64-12.8s34.133-21.333 42.667-38.4c8.533-17.067 12.8-34.133 12.8-55.467 0-29.867-12.8-55.467-34.133-72.533s-51.2-25.6-89.6-25.6h-51.2zM256 443.733h59.733c17.067 0 29.867 4.267 38.4 12.8s12.8 21.333 12.8 34.133c0 17.067-4.267 29.867-12.8 38.4s-21.333 12.8-38.4 17.067h-59.733v-102.4zM550.4 392.533v-115.2h-68.267v320h123.733c25.6 0 46.933-4.267 64-12.8s34.133-21.333 42.667-38.4c8.533-17.067 12.8-34.133 12.8-55.467 0-29.867-12.8-55.467-34.133-72.533s-51.2-25.6-89.6-25.6h-51.2zM550.4 443.733h59.733c17.067 0 29.867 4.267 38.4 12.8s12.8 21.333 12.8 34.133c0 17.067-4.267 29.867-12.8 38.4s-21.333 12.8-38.4 17.067h-59.733v-102.4zM942.933 362.667c0 12.8-4.267 21.333-12.8 29.867s-25.6 12.8-46.933 21.333c-21.333 8.533-42.667 12.8-55.467 21.333-38.4 21.333-55.467 46.933-55.467 81.067 0 17.067 4.267 34.133 12.8 46.933s25.6 25.6 42.667 29.867 38.4 12.8 59.733 12.8c21.333 0 42.667-4.267 59.733-12.8s29.867-21.333 42.667-34.133c8.533-17.067 12.8-34.133 12.8-51.2h-68.267c0 12.8-4.267 25.6-12.8 34.133s-21.333 12.8-38.4 12.8c-17.067 0-29.867-4.267-38.4-8.533-8.533-8.533-12.8-17.067-12.8-25.6s4.267-21.333 17.067-25.6c8.533-8.533 25.6-12.8 46.933-21.333 38.4-12.8 64-25.6 81.067-42.667s25.6-38.4 25.6-64c0-29.867-8.533-51.2-29.867-64s-51.2-25.6-85.333-25.6c-25.6 0-46.933 4.267-68.267 12.8s-34.133 21.333-46.933 38.4-17.067 34.133-17.067 55.467h68.267c0-34.133 21.333-51.2 64-51.2 17.067 0 29.867 4.267 38.4 8.533 12.8 0 17.067 8.533 17.067 21.333zM708.267 277.333c-8.533 12.8-17.067 25.6-21.333 42.667-17.067-4.267-34.133-8.533-51.2-12.8v-29.867c0-46.933-38.4-85.333-85.333-85.333h-68.267c-46.933 0-85.333 38.4-85.333 85.333v42.667c-17.067-4.267-34.133-8.533-55.467-12.8v-29.867c0-46.933-38.4-85.333-85.333-85.333h-68.267c-46.933 0-85.333 38.4-85.333 85.333v320c0 46.933 38.4 85.333 85.333 85.333h123.733c38.4 0 72.533-8.533 102.4-21.333 0 0 4.267 0 4.267-4.267 17.067 17.067 38.4 25.6 59.733 25.6h123.733c38.4 0 72.533-8.533 102.4-21.333 12.8-4.267 25.6-12.8 34.133-21.333 8.533 4.267 12.8 12.8 21.333 17.067v132.267l-170.667 170.667h-597.333v-1024h768v281.6c-17.067 17.067-38.4 34.133-51.2 59.733zM554.667 917.333l170.667-170.667h-170.667v170.667z" />
<glyph unicode="&#xe911;" glyph-name="bot_ico_archivo_ppt" d="M268.8 392.533v-115.2h-68.267v320h123.733c25.6 0 46.933-4.267 64-12.8s34.133-21.333 42.667-38.4c8.533-17.067 12.8-34.133 12.8-55.467 0-29.867-12.8-55.467-34.133-72.533s-51.2-25.6-89.6-25.6h-51.2zM268.8 443.733h59.733c17.067 0 29.867 4.267 38.4 12.8s12.8 21.333 12.8 34.133c0 17.067-4.267 29.867-12.8 38.4s-21.333 12.8-38.4 17.067h-59.733v-102.4zM558.933 392.533v-115.2h-68.267v320h123.733c25.6 0 46.933-4.267 64-12.8s34.133-21.333 42.667-38.4c8.533-17.067 12.8-34.133 12.8-55.467 0-29.867-12.8-55.467-34.133-72.533s-51.2-25.6-89.6-25.6h-51.2zM558.933 443.733h59.733c17.067 0 29.867 4.267 38.4 12.8s12.8 21.333 12.8 34.133c0 17.067-4.267 29.867-12.8 38.4s-21.333 12.8-38.4 17.067h-59.733v-102.4zM1024 546.133h-98.133v-268.8h-68.267v268.8h-98.133v55.467h260.267v-55.467zM759.467 354.133c-29.867-25.6-72.533-42.667-119.467-46.933v-29.867c0-46.933-38.4-85.333-85.333-85.333h-68.267c-46.933 0-85.333 38.4-85.333 85.333v42.667c-17.067-4.267-34.133-8.533-55.467-12.8v-29.867c0-46.933-38.4-85.333-85.333-85.333h-68.267c-46.933 0-85.333 38.4-85.333 85.333v320c0 46.933 38.4 85.333 85.333 85.333h123.733c38.4 0 72.533-8.533 102.4-21.333 0 0 4.267 0 4.267-4.267 17.067 17.067 38.4 25.6 59.733 25.6h123.733c34.133 0 64-8.533 93.867-17.067 12.8 12.8 34.133 17.067 51.2 17.067v0 106.667l-170.667 170.667h-597.333v-1024h768v422.4c12.8-4.267 12.8-4.267 8.533-4.267zM554.667 917.333l170.667-170.667h-170.667v170.667z" />
<glyph unicode="&#xe912;" glyph-name="bot_ico_archivo_rar" d="M298.667 396.8h-51.2v-119.467h-68.267v320h119.467c38.4 0 68.267-8.533 89.6-25.6s29.867-42.667 29.867-72.533c0-21.333-4.267-38.4-12.8-55.467-8.533-12.8-25.6-25.6-42.667-34.133l68.267-132.267v-4.267h-72.533l-59.733 123.733zM247.467 448h55.467c17.067 0 29.867 4.267 38.4 12.8s12.8 21.333 12.8 34.133c0 17.067-4.267 25.6-12.8 34.133s-21.333 12.8-38.4 12.8h-51.2v-93.867zM652.8 345.6h-115.2l-21.333-68.267h-72.533l119.467 320h59.733l119.467-320h-72.533l-17.067 68.267zM554.667 396.8h81.067l-38.4 119.467-42.667-119.467zM891.733 396.8h-51.2v-119.467h-68.267v320h119.467c38.4 0 68.267-8.533 89.6-25.6s29.867-42.667 29.867-72.533c0-21.333-4.267-38.4-12.8-55.467-8.533-12.8-25.6-25.6-42.667-34.133l68.267-132.267v-4.267h-72.533l-59.733 123.733zM840.533 448h55.467c17.067 0 29.867 4.267 38.4 12.8s12.8 21.333 12.8 34.133c0 17.067-4.267 25.6-12.8 34.133s-21.333 12.8-38.4 12.8h-51.2v-93.867zM755.2 192c-4.267 0-8.533 0-12.8 0h-72.533c-34.133 0-68.267 21.333-81.067 55.467-12.8-34.133-42.667-55.467-81.067-55.467h-72.533c0 0-4.267 0-4.267 0s-4.267 0-4.267 0h-72.533c-21.333 0-42.667 8.533-55.467 21.333-17.067-12.8-34.133-21.333-55.467-21.333h-68.267c-46.933 0-85.333 38.4-85.333 85.333v320c0 46.933 38.4 85.333 85.333 85.333h119.467c59.733 0 106.667-17.067 140.8-46.933 8.533-8.533 21.333-21.333 29.867-34.133l8.533 21.333c12.8 34.133 42.667 55.467 81.067 55.467h59.733c34.133 0 59.733-17.067 76.8-46.933 12.8 25.6 38.4 42.667 68.267 46.933v110.933l-170.667 170.667h-597.333v-1024h768v256c4.267 0 0 0-4.267 0zM554.667 917.333l170.667-170.667h-170.667v170.667z" />
<glyph unicode="&#xe913;" glyph-name="bot_ico_archivo_txt" d="M460.8 546.133h-98.133v-268.8h-68.267v268.8h-98.133v55.467h260.267v-55.467zM614.4 486.4l59.733 110.933h76.8l-93.867-157.867 98.133-162.133h-76.8l-59.733 110.933-59.733-110.933h-76.8l98.133 162.133-93.867 157.867h76.8l51.2-110.933zM1028.267 546.133h-98.133v-268.8h-68.267v268.8h-98.133v55.467h260.267v-55.467zM755.2 439.467l12.8-21.333v42.667l-12.8-21.333zM750.933 192h-76.8c-25.6 0-46.933 8.533-59.733 25.6-17.067-17.067-38.4-25.6-59.733-25.6h-76.8c-21.333 0-42.667 8.533-55.467 21.333-17.067-12.8-34.133-21.333-55.467-21.333h-68.267c-46.933 0-85.333 38.4-85.333 85.333v183.467h-12.8c-46.933 0-85.333 38.4-85.333 85.333v55.467c0 46.933 38.4 85.333 85.333 85.333h260.267c4.267 0 4.267 0 8.533 0s4.267 0 8.533 0h76.8c21.333 0 42.667-8.533 59.733-25.6 17.067 17.067 38.4 25.6 59.733 25.6h76.8c4.267 0 4.267 0 8.533 0s4.267 0 8.533 0v0 102.4l-170.667 170.667h-597.333v-1024h768v256c-4.267 0-8.533 0-17.067 0zM554.667 917.333l170.667-170.667h-170.667v170.667zM448 460.8v-59.733l25.6 42.667-12.8 21.333h-12.8z" />
<glyph unicode="&#xe914;" glyph-name="bot_ico_archivo_url" d="M473.6 597.333v-213.333c0-34.133-12.8-64-34.133-85.333s-51.2-29.867-89.6-29.867c-38.4 0-68.267 8.533-89.6 29.867s-34.133 46.933-34.133 81.067v213.333h68.267v-213.333c0-21.333 4.267-38.4 17.067-46.933 8.533-8.533 25.6-12.8 42.667-12.8 38.4 0 55.467 21.333 55.467 59.733v213.333h64zM648.533 396.8h-51.2v-119.467h-68.267v320h119.467c38.4 0 68.267-8.533 89.6-25.6s29.867-42.667 29.867-72.533c0-21.333-4.267-38.4-12.8-55.467-8.533-12.8-25.6-25.6-42.667-34.133l68.267-132.267v-4.267h-72.533l-59.733 123.733zM593.067 448h55.467c17.067 0 29.867 4.267 38.4 12.8s12.8 21.333 12.8 34.133c0 17.067-4.267 25.6-12.8 34.133s-21.333 12.8-38.4 12.8h-51.2v-93.867zM883.2 328.533h140.8v-51.2h-204.8v320h68.267v-268.8zM708.267 192c-21.333 0-42.667 8.533-55.467 21.333-17.067-12.8-34.133-21.333-55.467-21.333h-68.267c-25.6 0-46.933 8.533-59.733 25.6-34.133-21.333-72.533-29.867-115.2-29.867-59.733 0-106.667 17.067-145.067 51.2-25.6 25.6-59.733 68.267-64 145.067v213.333c0 46.933 38.4 85.333 85.333 85.333h68.267c21.333 0 42.667-8.533 55.467-21.333 17.067 12.8 34.133 21.333 55.467 21.333h68.267c8.533 0 17.067 0 25.6-4.267 8.533 4.267 17.067 4.267 25.6 4.267h119.467c42.667 0 81.067-8.533 110.933-25.6 4.267 4.267 8.533 4.267 8.533 8.533v123.733l-170.667 170.667h-597.333v-1024h768v256h-59.733zM554.667 917.333l170.667-170.667h-170.667v170.667z" />
<glyph unicode="&#xe915;" glyph-name="bot_ico_archivo_xls" d="M371.2 486.4l59.733 110.933h76.8l-93.867-157.867 98.133-162.133h-76.8l-64 110.933-59.733-110.933h-81.067l98.133 162.133-93.867 157.867h76.8l59.733-110.933zM610.133 328.533h140.8v-51.2h-209.067v320h68.267v-268.8zM955.733 362.667c0 12.8-4.267 21.333-12.8 29.867s-25.6 12.8-46.933 21.333-42.667 12.8-55.467 21.333c-38.4 21.333-55.467 46.933-55.467 81.067 0 17.067 4.267 34.133 12.8 46.933s25.6 25.6 42.667 34.133c17.067 8.533 38.4 12.8 64 12.8 21.333 0 42.667-4.267 59.733-12.8s34.133-21.333 42.667-34.133 17.067-34.133 17.067-51.2h-68.267c0 12.8-4.267 25.6-12.8 34.133s-21.333 12.8-38.4 12.8c-17.067 0-29.867-4.267-38.4-8.533-8.533-17.067-12.8-25.6-12.8-38.4 0-8.533 4.267-21.333 17.067-25.6 8.533-8.533 25.6-12.8 46.933-21.333 38.4-12.8 64-25.6 81.067-42.667s25.6-34.133 25.6-59.733c0-29.867-8.533-51.2-29.867-64s-51.2-25.6-85.333-25.6c-25.6 0-46.933 4.267-68.267 12.8s-34.133 21.333-46.933 38.4c-12.8 17.067-17.067 34.133-17.067 55.467h68.267c0-34.133 21.333-55.467 64-55.467 17.067 0 29.867 4.267 38.4 8.533s8.533 17.067 8.533 29.867zM750.933 192h-209.067c-4.267 0-12.8 0-17.067 0s-8.533 0-17.067 0h-76.8c-25.6 0-46.933 8.533-64 25.6-12.8-17.067-34.133-25.6-55.467-25.6h-81.067c-29.867 0-59.733 17.067-72.533 42.667-17.067 25.6-12.8 59.733 0 85.333l72.533 119.467-68.267 115.2c-17.067 25.6-17.067 59.733 0 85.333s42.667 42.667 72.533 42.667h76.8c21.333 0 42.667-8.533 59.733-25.6 17.067 17.067 38.4 25.6 59.733 25.6h76.8c4.267 0 12.8 0 17.067 0s12.8 0 17.067 0h68.267c46.933 0 85.333-38.4 85.333-85.333v-183.467h4.267c4.267 8.533 8.533 17.067 17.067 25.6-12.8 29.867-17.067 55.467-17.067 72.533 0 34.133 8.533 68.267 29.867 98.133 8.533 12.8 21.333 25.6 34.133 38.4v140.8l-170.667 170.667h-593.067v-1024h768v256c-4.267 0-8.533 0-17.067 0zM554.667 917.333l170.667-170.667h-170.667v170.667z" />
<glyph unicode="&#xe916;" glyph-name="bot_ico_archivo_xlsx" d="M128 477.867l55.467 106.667h72.533l-89.6-149.333 89.6-153.6h-72.533l-59.733 106.667-59.733-106.667h-72.533l89.6 153.6-89.6 149.333h72.533l64-106.667zM354.133 328.533h132.267v-51.2h-196.267v302.933h64v-251.733zM682.667 358.4c0 12.8-4.267 21.333-12.8 25.6s-21.333 12.8-46.933 21.333c-21.333 8.533-38.4 12.8-51.2 21.333-34.133 17.067-51.2 42.667-51.2 76.8 0 17.067 4.267 29.867 12.8 42.667s21.333 21.333 38.4 29.867c17.067 8.533 38.4 12.8 59.733 12.8s42.667-4.267 59.733-12.8c17.067-8.533 29.867-17.067 38.4-34.133 8.533-12.8 12.8-29.867 12.8-46.933h-64c0 12.8-4.267 25.6-12.8 34.133s-21.333 12.8-38.4 12.8c-17.067 0-25.6-4.267-34.133-8.533-8.533-8.533-12.8-17.067-12.8-25.6s4.267-17.067 12.8-25.6c8.533-8.533 25.6-12.8 42.667-17.067 34.133-12.8 59.733-25.6 76.8-38.4s25.6-34.133 25.6-59.733c0-25.6-8.533-46.933-29.867-59.733-21.333-17.067-46.933-21.333-81.067-21.333-21.333 0-42.667 4.267-64 12.8-17.067 8.533-34.133 21.333-42.667 34.133s-17.067 34.133-17.067 51.2h64c0-34.133 21.333-51.2 59.733-51.2 12.8 0 25.6 4.267 34.133 8.533 17.067-4.267 21.333 4.267 21.333 17.067zM896 477.867l55.467 106.667h72.533l-89.6-149.333 89.6-153.6h-72.533l-59.733 106.667-59.733-106.667h-72.533l89.6 153.6-89.6 149.333h72.533l64-106.667zM72.533 665.6c21.333 0 42.667-8.533 55.467-21.333 17.067 12.8 34.133 21.333 55.467 21.333h72.533c4.267 0 8.533 0 17.067 0 4.267 0 12.8 0 17.067 0h64c46.933 0 85.333-38.4 85.333-85.333v-38.4c4.267 17.067 12.8 38.4 25.6 51.2 17.067 25.6 42.667 46.933 76.8 59.733 55.467 21.333 123.733 21.333 179.2 0 12.8 8.533 29.867 12.8 46.933 12.8h8.533v123.733l-170.667 170.667h-597.333v-294.4h64zM558.933 917.333l170.667-170.667h-170.667v170.667zM763.733 192c-17.067 0-29.867 4.267-42.667 12.8-25.6-8.533-55.467-17.067-85.333-17.067-34.133 0-68.267 8.533-98.133 21.333-12.8-8.533-29.867-17.067-46.933-17.067h-196.267c-4.267 0-12.8 0-17.067 0s-8.533 0-12.8 0h-72.533c-21.333 0-42.667 8.533-59.733 21.333-17.067-12.8-38.4-21.333-59.733-21.333h-64v-256h768v256h-12.8zM439.467 422.4c4.267 4.267 4.267 8.533 8.533 12.8-4.267 8.533-8.533 17.067-8.533 25.6v-38.4z" />
<glyph unicode="&#xe917;" glyph-name="bot_ico_archivo_zip" d="M443.733 328.533h162.133v-51.2h-243.2v38.4l157.867 230.4h-157.867v55.467h243.2v-38.4l-162.133-234.667zM716.8 277.333h-68.267v320h68.267v-320zM844.8 392.533v-115.2h-68.267v320h123.733c25.6 0 46.933-4.267 64-12.8s34.133-21.333 42.667-38.4c8.533-17.067 12.8-34.133 12.8-55.467 0-29.867-12.8-55.467-34.133-72.533s-51.2-25.6-89.6-25.6h-51.2zM844.8 443.733h59.733c17.067 0 29.867 4.267 38.4 12.8s12.8 21.333 12.8 34.133c0 17.067-4.267 29.867-12.8 38.4s-21.333 12.8-38.4 17.067h-59.733v-102.4zM746.667 196.267c-8.533-4.267-21.333-4.267-29.867-4.267h-68.267c-8.533 0-17.067 0-21.333 4.267-8.533 0-17.067-4.267-21.333-4.267h-243.2c-46.933 0-85.333 38.4-85.333 85.333v38.4c0 17.067 4.267 34.133 17.067 46.933l64 93.867c-46.933 4.267-81.067 38.4-81.067 85.333v55.467c0 46.933 38.4 85.333 85.333 85.333h243.2c8.533 0 17.067 0 25.6-4.267 8.533 4.267 17.067 4.267 25.6 4.267h68.267c12.8 0 21.333-4.267 29.867-4.267 8.533 4.267 12.8 4.267 21.333 4.267v106.667l-170.667 170.667h-597.333v-1024h768v256c-17.067 0-21.333 4.267-29.867 4.267zM554.667 917.333l170.667-170.667h-170.667v170.667z" />
<glyph unicode="&#xe918;" glyph-name="bot_ico_archivos_descargar" d="M512 256l-384 384 96 96 224-224v448h128v-448l224 224 96-96-384-384zM1024-64v448h-128v-320h-768v320h-128v-448h1024z" />
<glyph unicode="&#xe919;" glyph-name="bot_ico_archivos_exportar" d="M512 960l384-384-96-96-224 224v-448h-128v448l-224-224-96 96 384 384zM1024-64v448h-128v-320h-768v320h-128v-448h1024z" />
<glyph unicode="&#xe91a;" glyph-name="bot_ico_atencion" d="M1002.667 132.267l-379.733 763.733c-21.333 38.4-64 64-110.933 64s-89.6-25.6-110.933-64v0l-379.733-763.733c-12.8-17.067-21.333-42.667-21.333-68.267 0-72.533 55.467-128 128-128 0 0 0 0 0 0v0h768c0 0 0 0 0 0 72.533 0 128 55.467 128 128 0 25.6-8.533 51.2-21.333 68.267zM593.067 661.333l-21.333-405.333h-123.733l-17.067 405.333h162.133zM571.733 85.333c-17.067-17.067-34.133-21.333-59.733-21.333s-42.667 4.267-59.733 21.333c-17.067 12.8-25.6 29.867-25.6 51.2s8.533 38.4 25.6 51.2 38.4 21.333 59.733 21.333c25.6 0 42.667-8.533 59.733-21.333s25.6-29.867 25.6-51.2-8.533-38.4-25.6-51.2z" />
<glyph unicode="&#xe91b;" glyph-name="bot_ico_auditoriaconsultar" d="M1024 960v-1024h-768v46.933l29.867 29.867c8.533 8.533 17.067 21.333 21.333 34.133l8.533 25.6c8.533-8.533 17.067-12.8 25.6-17.067v-34.133h597.333v853.333h-426.667c0 0 0 0 0 0s0 0 0 0h-170.667v-34.133c-29.867-12.8-59.733-29.867-85.333-51.2v170.667h768zM0 25.6v-89.6h89.6l72.533 72.533-89.6 89.6-72.533-72.533zM755.2 204.8c-132.267-132.267-349.867-132.267-482.133 0s-132.267 349.867 0 482.133c132.267 132.267 349.867 132.267 482.133 0s132.267-345.6 0-482.133zM691.2 627.2c-98.133 98.133-260.267 98.133-362.667 0-98.133-98.133-98.133-260.267 0-362.667 98.133-98.133 260.267-98.133 362.667 0 102.4 102.4 102.4 264.533 0 362.667zM179.2 174.933l-46.933-17.067-29.867-29.867 89.6-89.6 29.867 29.867 17.067 46.933 29.867 29.867-59.733 59.733-29.867-29.867z" />
<glyph unicode="&#xe91c;" glyph-name="bot_ico_ayudaenlinea" d="M405.333 260.267c0 68.267 8.533 119.467 21.333 157.867 17.067 38.4 38.4 72.533 72.533 102.4s59.733 55.467 76.8 76.8c17.067 25.6 25.6 51.2 25.6 76.8 0 68.267-29.867 102.4-89.6 102.4-25.6 0-51.2-8.533-68.267-29.867-12.8-17.067-21.333-42.667-21.333-76.8h-234.667c0 93.867 29.867 162.133 85.333 213.333 59.733 51.2 136.533 76.8 238.933 76.8s183.467-25.6 238.933-72.533c55.467-46.933 85.333-115.2 85.333-200.533 0-38.4-8.533-72.533-21.333-102.4-17.067-29.867-38.4-64-72.533-93.867l-81.067-72.533c-21.333-21.333-38.4-42.667-46.933-68.267-8.533-21.333-12.8-51.2-12.8-85.333h-196.267zM375.467 51.2c0 34.133 12.8 59.733 38.4 85.333 25.6 21.333 55.467 34.133 93.867 34.133s68.267-12.8 93.867-34.133c25.6-21.333 38.4-51.2 38.4-85.333s-12.8-59.733-38.4-85.333c-25.6-21.333-55.467-34.133-93.867-34.133s-68.267 12.8-93.867 34.133c-25.6 25.6-38.4 51.2-38.4 85.333z" />
<glyph unicode="&#xe91d;" glyph-name="bot_ico_basededatos" d="M938.667 192v-170.667c0-46.933-192-85.333-426.667-85.333s-426.667 38.4-426.667 85.333v170.667c0 12.8 17.067 29.867 51.2 42.667 85.333-25.6 209.067-42.667 375.467-42.667s290.133 12.8 375.467 42.667c34.133-12.8 51.2-29.867 51.2-42.667zM512 960c-234.667 0-426.667-38.4-426.667-85.333v-170.667c0-46.933 192-85.333 426.667-85.333s426.667 38.4 426.667 85.333v170.667c0 46.933-192 85.333-426.667 85.333zM887.467 576c-85.333-25.6-209.067-42.667-375.467-42.667s-290.133 12.8-375.467 42.667c-34.133-12.8-51.2-29.867-51.2-42.667v-170.667c0-46.933 192-85.333 426.667-85.333s426.667 38.4 426.667 85.333v170.667c0 12.8-17.067 29.867-51.2 42.667z" />
<glyph unicode="&#xe91e;" glyph-name="bot_ico_basededatos_configurar" d="M1019.733 162.133c4.267 17.067 4.267 34.133 4.267 51.2s0 34.133-4.267 51.2h-51.2c-4.267 25.6-17.067 46.933-29.867 68.267l38.4 38.4c-21.333 29.867-42.667 51.2-72.533 72.533l-38.4-38.4c-21.333 12.8-46.933 21.333-68.267 29.867v51.2c-17.067 4.267-34.133 4.267-51.2 4.267s-34.133 0-51.2-4.267v-51.2c-25.6-4.267-46.933-17.067-68.267-29.867l-38.4 38.4c-29.867-21.333-51.2-42.667-72.533-72.533l38.4-38.4c-12.8-21.333-21.333-46.933-29.867-68.267h-51.2c-4.267-17.067-4.267-34.133-4.267-51.2s0-34.133 4.267-51.2h51.2c4.267-25.6 17.067-46.933 29.867-68.267l-38.4-38.4c21.333-29.867 42.667-51.2 72.533-72.533l38.4 38.4c21.333-12.8 46.933-21.333 68.267-29.867v-51.2c17.067-4.267 34.133-4.267 51.2-4.267s34.133 0 51.2 4.267v51.2c25.6 4.267 46.933 17.067 68.267 29.867l38.4-38.4c29.867 21.333 51.2 42.667 72.533 72.533l-38.4 38.4c12.8 21.333 21.333 46.933 29.867 68.267h51.2zM746.667 85.333c-68.267 0-128 55.467-128 128 0 68.267 55.467 128 128 128 68.267 0 128-55.467 128-128 0-68.267-59.733-128-128-128zM746.667 136.533c-42.667 0-76.8 34.133-76.8 76.8s34.133 76.8 76.8 76.8 76.8-34.133 76.8-76.8-34.133-76.8-76.8-76.8zM0 725.333v157.867c0 42.667 170.667 76.8 384 76.8s384-34.133 384-76.8v-157.867c0-42.667-170.667-76.8-384-76.8s-384 34.133-384 76.8zM439.467 21.333c-17.067 0-38.4 0-55.467 0-213.333 0-384 34.133-384 76.8v157.867c0 12.8 17.067 25.6 46.933 38.4 76.8-25.6 187.733-38.4 337.067-38.4 0 0 0 0 4.267 0 0-12.8-4.267-29.867-4.267-42.667 0-21.333 0-42.667 4.267-64 4.267-29.867 21.333-51.2 46.933-64-4.267-21.333-4.267-42.667 4.267-64zM0 413.867v153.6c0 12.8 17.067 25.6 46.933 38.4 76.8-25.6 187.733-38.4 337.067-38.4s260.267 12.8 337.067 38.4c25.6-8.533 38.4-21.333 42.667-29.867-8.533 0-12.8 0-21.333 0-21.333 0-42.667 0-64-4.267-29.867-4.267-51.2-25.6-59.733-46.933-8.533 4.267-21.333 4.267-29.867 4.267-17.067 0-34.133-4.267-46.933-17.067-38.4-25.6-68.267-55.467-93.867-93.867-17.067-21.333-21.333-51.2-8.533-76.8-4.267 0-8.533-4.267-8.533-8.533-12.8 0-29.867 0-42.667 0-217.6 0-388.267 38.4-388.267 81.067z" />
<glyph unicode="&#xe91f;" glyph-name="bot_ico_basededatos_error" d="M0 725.333v157.867c0 42.667 170.667 76.8 384 76.8s384-34.133 384-76.8v-157.867c0-42.667-170.667-76.8-384-76.8s-384 34.133-384 76.8zM384 332.8c72.533 0 145.067 4.267 204.8 12.8 46.933 51.2 110.933 89.6 179.2 98.133v123.733c0 12.8-17.067 25.6-46.933 38.4-76.8-25.6-187.733-38.4-337.067-38.4s-260.267 12.8-337.067 38.4c-29.867-8.533-46.933-21.333-46.933-38.4v-157.867c0-38.4 170.667-76.8 384-76.8zM512 149.333c0 38.4 8.533 76.8 21.333 110.933-46.933-4.267-93.867-4.267-149.333-4.267-149.333 0-260.267 12.8-337.067 38.4-29.867-12.8-46.933-25.6-46.933-38.4v-157.867c0-42.667 170.667-76.8 384-76.8 55.467 0 106.667 4.267 153.6 8.533-17.067 34.133-25.6 76.8-25.6 119.467zM1024 149.333c0-119.467-93.867-213.333-213.333-213.333s-213.333 93.867-213.333 213.333c0 119.467 93.867 213.333 213.333 213.333s213.333-93.867 213.333-213.333zM870.4 149.333l59.733 59.733-59.733 59.733-59.733-59.733-59.733 59.733-59.733-59.733 59.733-59.733-59.733-59.733 59.733-59.733 59.733 59.733 59.733-59.733 59.733 59.733-59.733 59.733z" />
<glyph unicode="&#xe920;" glyph-name="bot_ico_borrar" d="M469.333 277.333l-256 256v42.667l42.667 42.667h170.667l256-256h-170.667l-42.667-42.667v-42.667zM0 789.333v-298.667h140.8c-8.533 12.8-12.8 25.6-12.8 42.667h-85.333v213.333h938.667v-213.333h-349.867l42.667-42.667h349.867v298.667h-1024zM725.333 320h-170.667l-42.667-42.667v-42.667l128-128h170.667l42.667 42.667v42.667l-128 128z" />
<glyph unicode="&#xe921;" glyph-name="bot_ico_buscar" d="M170.667 200.533l93.867-93.867-174.933-174.933-89.6 89.6 170.667 179.2zM913.067 302.933c-149.333-149.333-392.533-149.333-541.867 0s-149.333 392.533 0 541.867 392.533 149.333 541.867 0c149.333-149.333 149.333-388.267 0-541.867zM819.2 755.2c-98.133 98.133-260.267 98.133-362.667 0s-98.133-260.267 0-362.667 260.267-98.133 362.667 0 102.4 264.533 0 362.667zM277.333 273.067l-46.933-17.067-29.867-29.867 89.6-89.6 29.867 29.867 17.067 46.933 29.867 29.867-59.733 59.733-29.867-29.867z" />
<glyph unicode="&#xe922;" glyph-name="bot_ico_cancelar" d="M960 768l-128 128-320-320-320 320-128-128 320-320-320-320 128-128 320 320 320-320 128 128-320 320z" />
<glyph unicode="&#xe923;" glyph-name="bot_ico_capacitacion_agendaeinscripcion" d="M347.733 618.667h-49.067v155.733l-46.933-14.933v36.267l91.733 32h4.267v-209.067zM558.933 618.667h-147.2v32l68.267 70.4c17.067 19.2 25.6 34.133 25.6 44.8 0 8.533-2.133 14.933-6.4 21.333-4.267 4.267-10.667 6.4-17.067 6.4s-12.8-2.133-17.067-8.533-6.4-14.933-6.4-23.467h-49.067c0 12.8 4.267 25.6 10.667 36.267s14.933 19.2 27.733 25.6c10.667 6.4 23.467 8.533 38.4 8.533 23.467 0 40.533-4.267 53.333-14.933s19.2-25.6 19.2-44.8c0-8.533-2.133-17.067-4.267-23.467-2.133-8.533-8.533-17.067-14.933-25.6s-17.067-19.2-32-34.133l-27.733-32h83.2v-38.4zM0 960v-853.333h810.667v853.333h-810.667zM768 149.333h-725.333v768h725.333v-768zM170.667 234.667h-42.667v-42.667h42.667v42.667zM256 234.667h-42.667v-42.667h42.667v42.667zM341.333 234.667h-42.667v-42.667h42.667v42.667zM170.667 320h-42.667v-42.667h42.667v42.667zM256 320h-42.667v-42.667h42.667v42.667zM341.333 320h-42.667v-42.667h42.667v42.667zM426.667 320h-42.667v-42.667h42.667v42.667zM512 320h-42.667v-42.667h42.667v42.667zM597.333 320h-42.667v-42.667h42.667v42.667zM682.667 320h-42.667v-42.667h42.667v42.667zM170.667 405.333h-42.667v-42.667h42.667v42.667zM256 405.333h-42.667v-42.667h42.667v42.667zM341.333 405.333h-42.667v-42.667h42.667v42.667zM426.667 405.333h-42.667v-42.667h42.667v42.667zM512 405.333h-42.667v-42.667h42.667v42.667zM597.333 405.333h-42.667v-42.667h42.667v42.667zM682.667 405.333h-42.667v-42.667h42.667v42.667zM170.667 490.667h-42.667v-42.667h42.667v42.667zM256 490.667h-42.667v-42.667h42.667v42.667zM341.333 490.667h-42.667v-42.667h42.667v42.667zM426.667 490.667h-42.667v-42.667h42.667v42.667zM512 490.667h-42.667v-42.667h42.667v42.667zM597.333 490.667h-42.667v-42.667h42.667v42.667zM682.667 490.667h-42.667v-42.667h42.667v42.667zM170.667 576h-42.667v-42.667h42.667v42.667zM256 576h-42.667v-42.667h42.667v42.667zM341.333 576h-42.667v-42.667h42.667v42.667zM426.667 576h-42.667v-42.667h42.667v42.667zM512 576h-42.667v-42.667h42.667v42.667zM597.333 576h-42.667v-42.667h42.667v42.667zM682.667 576h-42.667v-42.667h42.667v42.667zM85.333 0h938.667v960h-42.667v-917.333h-896v-42.667zM853.333 704h85.333v170.667h-85.333v-170.667zM853.333 576h85.333v85.333h-85.333v-85.333zM853.333 490.667h85.333v42.667h-85.333v-42.667zM853.333 405.333h85.333v42.667h-85.333v-42.667zM853.333 320h85.333v42.667h-85.333v-42.667z" />
<glyph unicode="&#xe924;" glyph-name="bot_ico_capacitacion_cursosdictados" d="M320 770.133v-32h-10.667v-76.8l32 34.133v42.667h-10.667v36.267l-10.667-4.267zM234.667 753.067l106.667 44.8-106.667 34.133-106.667-34.133 106.667-44.8zM179.2 733.867v0c0 8.533 2.133 14.933 4.267 23.467l53.333-21.333 53.333 21.333c2.133-6.4 4.267-12.8 4.267-21.333l-57.6-23.467-57.6 21.333zM0 960v-938.667h938.667v938.667h-938.667zM896 64h-853.333v853.333h853.333v-853.333zM0-64h1024v1024h-42.667v-981.333h-981.333v-42.667zM791.467 832l-81.067-85.333-27.733 27.733-19.2-21.333 27.733-27.733 19.2-21.333 102.4 106.667-21.333 21.333zM618.667 768h-234.667v42.667h234.667v-42.667zM618.667 682.667h-234.667v42.667h234.667v-42.667zM320 514.133v-32h-10.667v-76.8l32 34.133v42.667h-10.667v36.267l-10.667-4.267zM234.667 497.067l106.667 44.8-106.667 34.133-106.667-34.133 106.667-44.8zM179.2 477.867v0c0 8.533 2.133 14.933 4.267 23.467l53.333-21.333 53.333 21.333c2.133-6.4 4.267-12.8 4.267-21.333l-57.6-23.467-57.6 21.333zM791.467 576l-81.067-85.333-27.733 27.733-19.2-21.333 27.733-27.733 19.2-21.333 102.4 106.667-21.333 21.333zM618.667 512h-234.667v42.667h234.667v-42.667zM618.667 426.667h-234.667v42.667h234.667v-42.667zM320 258.133v-32h-10.667v-76.8l32 34.133v42.667h-10.667v36.267l-10.667-4.267zM234.667 241.067l106.667 44.8-106.667 34.133-106.667-34.133 106.667-44.8zM179.2 221.867v0c0 8.533 2.133 14.933 4.267 23.467l53.333-21.333 53.333 21.333c2.133-6.4 4.267-12.8 4.267-21.333l-57.6-23.467-57.6 21.333zM791.467 320l-81.067-85.333-27.733 27.733-19.2-21.333 27.733-27.733 19.2-21.333 102.4 106.667-21.333 21.333zM618.667 256h-234.667v42.667h234.667v-42.667zM618.667 170.667h-234.667v42.667h234.667v-42.667z" />
<glyph unicode="&#xe925;" glyph-name="bot_ico_capacitacion_cursosdisponibles" d="M0 960v-1024h853.333v1024h-853.333zM810.667-21.333h-768v938.667h768v-938.667zM582.4 753.067v-53.333h-17.067v-123.733l53.333 53.333v68.267h-17.067v59.733l-19.2-4.267zM437.333 727.467l181.333 72.533-181.333 55.467-181.333-55.467 181.333-72.533zM341.333 695.467v0c0 12.8 2.133 25.6 6.4 36.267l89.6-36.267 91.733 36.267c4.267-10.667 6.4-21.333 6.4-36.267l-98.133-38.4-96 38.4zM938.667-64h-42.667v1024h42.667v-1024zM1024-64h-42.667v1024h42.667v-1024zM640 405.333h-426.667v85.333h426.667v-85.333zM640 320h-426.667v42.667h426.667v-42.667zM640 234.667h-426.667v42.667h426.667v-42.667zM640 149.333h-426.667v42.667h426.667v-42.667zM512 64h-298.667v42.667h298.667v-42.667z" />
<glyph unicode="&#xe926;" glyph-name="bot_ico_cd_info" d="M810.667 362.667c-119.467 0-213.333-93.867-213.333-213.333s93.867-213.333 213.333-213.333c119.467 0 213.333 93.867 213.333 213.333s-93.867 213.333-213.333 213.333zM840.533 21.333h-55.467v183.467h55.467v-183.467zM832 230.4c-4.267-4.267-12.8-8.533-21.333-8.533s-17.067 4.267-21.333 8.533c-4.267 4.267-8.533 12.8-8.533 21.333s4.267 12.8 8.533 21.333c4.267 4.267 12.8 8.533 21.333 8.533s17.067-4.267 21.333-8.533c4.267-4.267 8.533-12.8 8.533-21.333s0-17.067-8.533-21.333zM593.067-55.467c-25.6-4.267-51.2-8.533-81.067-8.533-281.6 0-512 230.4-512 512s230.4 512 512 512 512-230.4 512-512c0-29.867-4.267-55.467-8.533-81.067-55.467 51.2-128 81.067-204.8 81.067-29.867 0-59.733-4.267-85.333-12.8 0 4.267 0 8.533 0 12.8 0 119.467-93.867 213.333-213.333 213.333s-213.333-93.867-213.333-213.333 93.867-213.333 213.333-213.333c4.267 0 8.533 0 12.8 0-8.533-25.6-12.8-55.467-12.8-85.333 0-81.067 29.867-153.6 81.067-204.8zM512 618.667c-93.867 0-170.667-76.8-170.667-170.667s76.8-170.667 170.667-170.667c8.533 0 21.333 0 29.867 4.267 29.867 59.733 76.8 106.667 136.533 136.533 0 8.533 4.267 21.333 4.267 29.867 0 93.867-76.8 170.667-170.667 170.667zM512 362.667c-46.933 0-85.333 38.4-85.333 85.333s38.4 85.333 85.333 85.333 85.333-38.4 85.333-85.333-38.4-85.333-85.333-85.333z" />
<glyph unicode="&#xe927;" glyph-name="bot_ico_cmdb_ciudadano" d="M981.333 192c0-93.867-76.8-170.667-170.667-170.667-4.267 0-8.533 0-12.8 0-72.533-51.2-174.933-85.333-285.867-85.333-115.2 0-217.6 34.133-285.867 85.333-4.267 0-8.533 0-12.8 0-93.867 0-170.667 76.8-170.667 170.667s76.8 170.667 170.667 170.667c4.267 0 8.533 0 12.8 0 12.8 8.533 29.867 21.333 46.933 29.867 59.733-68.267 149.333-110.933 243.2-110.933s179.2 42.667 243.2 110.933c17.067-8.533 29.867-17.067 46.933-29.867 4.267 0 8.533 0 12.8 0 85.333 0 162.133-76.8 162.133-170.667zM768 712.533c0 0 0 0 0 0v0c0 136.533-115.2 247.467-256 247.467s-256-110.933-256-247.467v0c0 0 0 0 0 0v0 0c0-192 115.2-349.867 256-349.867s256 157.867 256 349.867v0 0z" />
<glyph unicode="&#xe928;" glyph-name="bot_ico_cmdb_ciudadano_coberturasocial" d="M192 704h-64v128h64c34.133 0 64-29.867 64-64s-29.867-64-64-64zM64 733.867h34.133v64h-98.133v-268.8h64v204.8zM448 704h64v128h-64c-34.133 0-64-29.867-64-64s29.867-64 64-64zM576 533.333h64v268.8h-98.133v-64h34.133v-204.8zM861.867 64c0-55.467-115.2-102.4-256-102.4s-256 46.933-256 102.4v106.667c162.133 17.067 290.133 153.6 290.133 320h-64c0-119.467-85.333-221.867-196.267-247.467-8.533-21.333-34.133-38.4-59.733-38.4s-51.2 17.067-59.733 38.4c-110.933 25.6-196.267 128-196.267 247.467h-64c0-166.4 128-302.933 290.133-320v-106.667c0-72.533 145.067-128 320-128s320 55.467 320 128v512h-64v-512zM896 896c-34.133 0-64-29.867-64-64 0-25.6 12.8-42.667 34.133-55.467v-157.867h64v157.867c17.067 12.8 34.133 29.867 34.133 55.467-4.267 34.133-34.133 64-68.267 64zM900.267 960c-72.533 0-128-55.467-128-128 0-42.667 21.333-76.8 51.2-102.4v42.667c-12.8 17.067-21.333 38.4-21.333 59.733 0 51.2 42.667 98.133 98.133 98.133 51.2 0 98.133-42.667 98.133-98.133 0-21.333-8.533-42.667-21.333-59.733v-46.933c34.133 21.333 55.467 59.733 55.467 106.667-4.267 72.533-64 128-132.267 128z" />
<glyph unicode="&#xe929;" glyph-name="bot_ico_cmdb_ciudadano_datospersonales" d="M0 960v-1024h1024v1024h-1024zM938.667 21.333h-853.333v853.333h853.333v-853.333zM768 704h-170.667v85.333h170.667v-85.333zM768 618.667h-170.667v42.667h170.667v-42.667zM768 277.333h-597.333v42.667h597.333v-42.667zM768 362.667h-597.333v42.667h597.333v-42.667zM768 192h-597.333v42.667h597.333v-42.667zM682.667 106.667h-512v42.667h512v-42.667zM422.4 533.333h-251.733c0 25.6 17.067 51.2 42.667 59.733l34.133-46.933h29.867v25.6l-25.6-21.333-29.867 46.933c4.267 0 4.267 0 8.533 0 0 0 0 0 4.267 0 12.8-12.8 29.867-21.333 51.2-25.6l17.067-34.133 17.067 34.133c17.067 4.267 34.133 12.8 51.2 25.6 0 0 4.267 0 4.267 0 4.267 0 4.267 0 8.533 0l-42.667-46.933-25.6 21.333v-25.6h29.867l34.133 46.933c25.6-8.533 42.667-34.133 42.667-59.733zM294.4 768c42.667 0 76.8-38.4 76.8-89.6 0-46.933-34.133-89.6-76.8-89.6s-76.8 38.4-76.8 89.6c0 51.2 34.133 89.6 76.8 89.6z" />
<glyph unicode="&#xe92a;" glyph-name="bot_ico_cmdb_ciudadano_domicilio" d="M810.667 699.733l-85.333 25.6v196.267l-128 38.4-170.667-76.8v-68.267l-187.733 55.467-238.933-422.4 85.333-25.6v-315.733l571.733-170.667v4.267l277.333 128v302.933l85.333 38.4-209.067 290.133zM469.333 849.067l136.533 64 81.067-25.6v-149.333l-217.6 64v46.933zM853.333 119.467l-200.533-93.867-482.133 145.067v226.133l401.067-119.467 149.333 264.533h4.267v4.267l34.133 64 93.867-128v-362.667z" />
<glyph unicode="&#xe92b;" glyph-name="bot_ico_cmdb_ciudadano_infocontacto" d="M149.333 174.933c0 12.8 4.267 29.867 8.533 46.933s12.8 38.4 25.6 64c12.8 21.333 29.867 42.667 51.2 55.467 25.6 17.067 51.2 25.6 81.067 25.6 34.133 0 59.733-17.067 72.533-46.933l8.533 42.667h59.733l-51.2-183.467c-4.267-12.8-4.267-21.333-4.267-25.6 0-8.533 4.267-17.067 8.533-21.333s12.8-8.533 25.6-8.533c21.333 0 46.933 17.067 68.267 46.933 25.6 29.867 34.133 64 34.133 106.667 0 51.2-21.333 98.133-64 136.533-46.933 38.4-98.133 59.733-162.133 59.733-46.933 0-93.867-12.8-132.267-38.4s-68.267-55.467-89.6-98.133c-21.333-38.4-29.867-81.067-29.867-128 0-64 21.333-115.2 68.267-153.6s102.4-59.733 166.4-59.733c51.2 0 93.867 8.533 136.533 25.6l17.067-46.933c-42.667-21.333-93.867-29.867-153.6-29.867-89.6 0-162.133 25.6-217.6 76.8s-81.067 110.933-81.067 187.733c0 38.4 8.533 76.8 25.6 115.2s38.4 72.533 68.267 102.4c59.733 64 136.533 93.867 226.133 93.867 76.8 0 145.067-25.6 200.533-72.533s81.067-110.933 81.067-183.467c0-29.867-4.267-55.467-17.067-81.067-8.533-25.6-25.6-46.933-38.4-64-17.067-17.067-34.133-29.867-51.2-38.4s-38.4-12.8-55.467-12.8c-21.333 0-38.4 4.267-51.2 12.8s-25.6 21.333-29.867 34.133c-25.6-34.133-59.733-46.933-98.133-46.933-29.867 0-55.467 12.8-76.8 34.133-17.067 12.8-29.867 42.667-29.867 72.533zM273.067 115.2c25.6 0 51.2 17.067 68.267 46.933 21.333 29.867 29.867 59.733 29.867 89.6 0 21.333-4.267 38.4-12.8 46.933-8.533 12.8-21.333 17.067-38.4 17.067-25.6 0-51.2-12.8-68.267-42.667s-38.4-55.467-38.4-85.333c0-21.333 4.267-34.133 17.067-51.2 12.8-12.8 25.6-21.333 42.667-21.333zM0 960v-597.333c17.067 29.867 38.4 59.733 64 85.333 8.533 8.533 12.8 12.8 21.333 21.333v379.733l426.667-230.4 426.667 234.667v-405.333h-366.933c21.333-25.6 42.667-55.467 51.2-85.333h401.067v597.333h-1024zM119.467 874.667h780.8l-388.267-213.333-392.533 213.333zM294.4 362.667h42.667c-4.267 0-12.8 0-17.067 0-8.533 0-17.067 0-25.6 0z" />
<glyph unicode="&#xe92c;" glyph-name="bot_ico_cmdb_ciudadano_informacionvital" d="M853.333 704h-256v85.333h256v-85.333zM853.333 661.333h-256v-42.667h256v42.667zM725.333 576h-128v-42.667h128v42.667zM512 789.333v-469.333h-341.333v469.333h341.333zM422.4 614.4c-4.267 12.8-59.733 12.8-81.067 4.267-21.333-4.267-55.467-21.333-72.533-38.4s0-89.6 0-89.6 4.267-68.267 8.533-85.333 12.8-34.133 25.6-42.667 59.733-8.533 76.8 4.267c17.067 8.533 12.8 17.067 17.067 25.6 4.267 21.333 0 42.667-4.267 55.467s-12.8 29.867-12.8 46.933c0 17.067 34.133 29.867 42.667 64 8.533 8.533 4.267 38.4 0 55.467zM439.467 669.867c0 21.333-12.8 38.4-29.867 38.4-12.8 0-25.6-8.533-29.867-25.6-4.267 4.267-8.533 4.267-12.8 4.267-8.533 0-17.067-8.533-21.333-17.067-4.267 4.267-8.533 8.533-12.8 8.533-12.8 0-21.333-12.8-21.333-25.6-4.267 0-4.267 4.267-8.533 4.267-8.533 0-17.067-8.533-17.067-21.333 0 0 0-4.267 0-4.267-4.267 4.267-8.533 4.267-8.533 4.267-8.533 0-17.067-8.533-17.067-21.333s8.533-21.333 17.067-21.333c8.533 0 17.067 8.533 17.067 21.333 0 0 0 4.267 0 4.267 4.267-4.267 8.533-4.267 12.8-4.267 8.533 0 17.067 8.533 17.067 21.333 4.267-4.267 8.533-4.267 12.8-4.267 8.533 0 17.067 8.533 21.333 17.067 4.267-4.267 8.533-8.533 17.067-8.533s17.067 4.267 21.333 12.8c4.267-8.533 12.8-12.8 25.6-12.8 4.267-8.533 17.067 8.533 17.067 29.867zM768 362.667c-46.933 0-85.333-38.4-85.333-85.333s38.4-85.333 85.333-85.333 85.333 38.4 85.333 85.333-38.4 85.333-85.333 85.333zM938.667 277.333c0-93.867-76.8-170.667-170.667-170.667s-170.667 76.8-170.667 170.667c0 93.867 76.8 170.667 170.667 170.667s170.667-76.8 170.667-170.667zM896 277.333c0 72.533-55.467 128-128 128s-128-55.467-128-128 55.467-128 128-128 128 55.467 128 128zM0 960v-853.333h640c-29.867 21.333-55.467 51.2-68.267 85.333h-486.4v682.667h853.333v-469.333c25.6-34.133 42.667-81.067 42.667-128 0-68.267-34.133-132.267-85.333-170.667h128v853.333h-1024zM768 64c-29.867 0-59.733 8.533-85.333 17.067v-145.067l85.333 85.333 85.333-85.333v145.067c-25.6-8.533-55.467-17.067-85.333-17.067z" />
<glyph unicode="&#xe92d;" glyph-name="bot_ico_cmdb_ciudadano_niveldeformacion" d="M853.333 192h85.333v-256l-85.333 85.333v85.333h42.667v42.667h-42.667v42.667zM1024 661.333l-512 298.667-512-298.667 512-298.667 512 298.667zM896 486.4v-251.733h42.667v277.333l-42.667-25.6zM554.667 290.133c-12.8-8.533-29.867-12.8-42.667-12.8s-29.867 4.267-42.667 12.8l-213.333 123.733v-76.8c0-102.4 115.2-187.733 256-187.733s256 85.333 256 187.733v76.8l-213.333-123.733z" />
<glyph unicode="&#xe92e;" glyph-name="bot_ico_cmdb_ciudadano_situacionlaboral" d="M298.667 746.667v170.667l42.667 42.667h341.333l42.667-42.667v-170.667h-42.667v128h-341.333v-128h-42.667zM469.333 277.333h85.333v42.667h-85.333v-42.667zM1024 618.667v-640l-42.667-42.667h-938.667l-42.667 42.667v640l42.667 42.667h938.667l42.667-42.667zM938.667 618.667l-128-256h-597.333l-128 256-42.667-42.667 128-260.267h256v-81.067h170.667v81.067h256l128 260.267-42.667 42.667z" />
<glyph unicode="&#xe92f;" d="M721.067 435.2c-17.067 12.8-38.4 21.333-59.733 25.6l-51.2-85.333c34.133 25.6 72.533 46.933 110.933 59.733z" />
<glyph unicode="&#xe930;" d="M512 149.333c0 42.667 8.533 81.067 25.6 119.467h-128l72.533 106.667 51.2-76.8 98.133 166.4c-12.8 8.533-25.6 17.067-38.4 21.333-38.4-46.933-93.867-76.8-149.333-89.6l-51.2-76.8-51.2 76.8c-59.733 12.8-110.933 42.667-149.333 89.6-12.8-8.533-25.6-12.8-38.4-21.333l98.133-166.4 51.2 76.8 72.533-106.667h-145.067l-110.933 192c-68.267-12.8-119.467-72.533-119.467-140.8 0-76.8 64-140.8 140.8-140.8 4.267 0 4.267 0 8.533 0 59.733-42.667 145.067-72.533 238.933-72.533 42.667 0 85.333 4.267 123.733 17.067 0 8.533 0 17.067 0 25.6z" />
<glyph unicode="&#xe931;" d="M392.533 460.8c119.467 0 213.333 128 213.333 290.133 0 0 0 0 0 0 0 115.2-93.867 209.067-213.333 209.067s-213.333-93.867-213.333-209.067c0 0 0 0 0 0 0-157.867 93.867-290.133 213.333-290.133z" />
<glyph unicode="&#xe932;" d="M1024 149.333c0-117.821-95.513-213.333-213.333-213.333s-213.333 95.513-213.333 213.333c0 117.821 95.513 213.333 213.333 213.333s213.333-95.513 213.333-213.333z" />
<glyph unicode="&#xe933;" d="M930.133 273.067l-157.867-157.867-76.8 72.533-55.467-51.2c0 0 0 0 0-4.267l76.8-72.533 55.467-59.733 200.533 200.533c-8.533 25.6-21.333 51.2-42.667 72.533z" />
<glyph unicode="&#xe934;" glyph-name="bot_ico_cmdb_datosasociados" d="M1024-64v1024h-1024v-1024h1024zM85.333 874.667h853.333v-853.333h-853.333v853.333zM810.667 704h-256v85.333h256v-85.333zM810.667 618.667h-256v42.667h256v-42.667zM512 320h-341.333v42.667h341.333v-42.667zM426.667 277.333h-256v42.667h256v-42.667zM768 106.667v128h-128v-128h128zM682.667 192h42.667v-42.667h-42.667v42.667zM512 149.333h-341.333v42.667h341.333v-42.667zM298.667 106.667h-128v42.667h128v-42.667zM887.467 460.8l-196.267-196.267-89.6 89.6 38.4 38.4 51.2-51.2 157.867 157.867 38.4-38.4zM243.2 712.533v0c0 46.933 38.4 81.067 85.333 81.067s85.333-38.4 85.333-81.067v0c0-64-38.4-115.2-85.333-115.2s-85.333 51.2-85.333 115.2zM439.467 593.067l-46.933-76.8h-55.467l29.867 42.667 21.333-29.867 38.4 68.267c-4.267 4.267-8.533 4.267-12.8 8.533-17.067-17.067-38.4-29.867-59.733-34.133l-21.333-29.867-21.333 29.867c-21.333 4.267-42.667 17.067-59.733 34.133-4.267-4.267-8.533-4.267-12.8-8.533l38.4-68.267 21.333 29.867 29.867-42.667h-55.467l-46.933 76.8c-25.6-4.267-46.933-29.867-46.933-55.467 0-29.867 25.6-55.467 55.467-55.467 0 0 4.267 0 4.267 0 25.6-17.067 59.733-29.867 93.867-29.867 38.4 0 72.533 12.8 93.867 29.867 0 0 4.267 0 4.267 0 29.867 0 55.467 25.6 55.467 55.467s-21.333 51.2-46.933 55.467z" />
<glyph unicode="&#xe935;" glyph-name="bot_ico_cmdb_documentos" d="M85.333 960v-1024h853.333v768l-256 256h-597.333zM853.333 21.333h-682.667v853.333h426.667v-256h256v-597.333z" />
<glyph unicode="&#xe936;" glyph-name="bot_ico_cmdb_estados_anses" d="M1019.733 533.333c0-8.533-4.267-12.8-8.533-17.067-12.8-8.533-29.867-4.267-42.667 0-8.533 4.267-21.333 4.267-29.867 4.267s-17.067 0-21.333-4.267c-4.267-4.267-8.533-8.533-8.533-17.067v0c0-4.267 0-8.533 4.267-8.533 0-4.267 4.267-4.267 8.533-8.533s8.533-4.267 17.067-4.267c8.533-4.267 17.067-4.267 25.6-8.533s21.333-4.267 29.867-8.533c8.533-4.267 17.067-8.533 21.333-12.8s8.533-12.8 12.8-17.067c4.267-8.533 4.267-17.067 4.267-25.6s0-21.333-4.267-29.867c-4.267-8.533-8.533-17.067-17.067-21.333s-17.067-8.533-25.6-12.8c-12.8-4.267-21.333-4.267-34.133-4.267-17.067 0-34.133 4.267-51.2 8.533s-29.867 12.8-42.667 25.6c0 4.267 4.267 8.533 8.533 8.533 4.267 4.267 8.533 8.533 17.067 8.533 12.8 0 25.6-4.267 34.133-8.533 12.8-4.267 25.6-8.533 38.4-8.533 8.533 0 17.067 0 25.6 4.267 4.267 4.267 8.533 8.533 8.533 17.067v0c0 4.267 0 8.533 0 8.533 0 4.267-4.267 4.267-8.533 8.533s-8.533 4.267-12.8 8.533-17.067 4.267-21.333 8.533c-8.533 4.267-21.333 4.267-29.867 8.533s-17.067 8.533-21.333 12.8c-4.267 4.267-12.8 12.8-12.8 17.067-4.267 8.533-4.267 17.067-4.267 25.6v0c0 8.533 0 17.067 4.267 25.6s8.533 17.067 17.067 21.333c8.533 4.267 17.067 8.533 25.6 12.8s21.333 4.267 29.867 4.267c17.067 0 29.867 0 46.933-8.533-8.533 4.267 4.267-4.267 17.067-12.8v0zM234.667 337.067h-46.933l-21.333 51.2h-98.133c-4.267-4.267-4.267-12.8-8.533-17.067 0-4.267-4.267-8.533-4.267-12.8-4.267-4.267-4.267-12.8-8.533-12.8-4.267-4.267-8.533-4.267-17.067-4.267-4.267 0-8.533 0-12.8 0s-8.533 0-12.8 0l93.867 221.867c4.267 0 8.533 0 12.8 0s8.533 0 12.8 0c4.267 0 8.533 0 12.8-4.267s8.533-8.533 8.533-12.8c0-4.267 4.267-8.533 4.267-12.8s4.267-8.533 4.267-17.067l81.067-179.2zM149.333 426.667l-34.133 81.067-34.133-81.067h68.267zM251.733 558.933v-221.867c12.8 0 29.867 0 38.4 8.533s8.533 21.333 8.533 29.867v106.667l110.933-149.333h38.4v226.133c-8.533 0-17.067 0-21.333 0s-8.533 0-12.8-4.267c-4.267-4.267-4.267-8.533-4.267-12.8 0-8.533 0-12.8 0-21.333v-106.667l-110.933 145.067h-46.933zM635.733 533.333c-12.8 8.533-21.333 17.067-38.4 21.333-12.8 4.267-29.867 8.533-46.933 8.533-8.533 0-21.333 0-29.867-4.267s-17.067-8.533-25.6-12.8c-8.533-4.267-12.8-12.8-17.067-21.333s-4.267-17.067-4.267-25.6v0c0-8.533 0-17.067 4.267-25.6s8.533-12.8 12.8-17.067c8.533-4.267 12.8-8.533 21.333-12.8s21.333-8.533 29.867-8.533c8.533 0 17.067-4.267 21.333-8.533 4.267 0 8.533-4.267 12.8-8.533 4.267 0 4.267-4.267 8.533-8.533 0-4.267 0-4.267 0-8.533v0c0-8.533-4.267-12.8-8.533-17.067-8.533-4.267-17.067-4.267-25.6-4.267-12.8 0-25.6 4.267-38.4 8.533-8.533 4.267-21.333 8.533-34.133 8.533-8.533 0-12.8-4.267-17.067-8.533s-4.267-8.533-8.533-8.533c12.8-12.8 25.6-21.333 42.667-25.6s34.133-8.533 51.2-8.533c12.8 0 21.333 0 34.133 4.267 8.533 4.267 17.067 8.533 25.6 12.8s12.8 12.8 17.067 21.333c4.267 8.533 4.267 17.067 4.267 29.867v0c0 8.533 0 17.067-4.267 25.6s-8.533 12.8-12.8 17.067c-8.533 4.267-12.8 8.533-21.333 12.8s-21.333 8.533-29.867 8.533c-8.533 0-17.067 4.267-25.6 8.533-4.267 0-12.8 4.267-17.067 4.267s-8.533 4.267-8.533 8.533c0 4.267-4.267 8.533-4.267 8.533v0c0 8.533 4.267 12.8 8.533 17.067s17.067 4.267 21.333 4.267c8.533 0 21.333-4.267 29.867-4.267 12.8-4.267 29.867-12.8 42.667 0 25.6-4.267 29.867 4.267 29.867 8.533v0zM669.867 558.933v-221.867h166.4c0 8.533 0 21.333-4.267 29.867s-21.333 8.533-29.867 8.533h-89.6v51.2h106.667c0 4.267 0 8.533 0 12.8s0 8.533-4.267 12.8c-4.267 12.8-25.6 12.8-34.133 12.8h-68.267v51.2h89.6c8.533 0 21.333 0 25.6 8.533 4.267 4.267 4.267 8.533 4.267 12.8s0 12.8 0 21.333h-162.133z" />
<glyph unicode="&#xe937;" glyph-name="bot_ico_cmdb_estados_ape" d="M682.667 234.667l42.667-298.667h-426.667l42.667 298.667c0-93.867 76.8-170.667 170.667-170.667s170.667 76.8 170.667 170.667zM849.067 85.333l-123.733 405.333h-4.267c-8.533 46.933-51.2 85.333-102.4 85.333-8.533 0-12.8 0-21.333-4.267v4.267h-42.667v8.533c34.133 12.8 64 42.667 76.8 76.8h93.867l-42.667 110.933c0 4.267 0 8.533 0 12.8 0 98.133-76.8 174.933-174.933 174.933s-174.933-76.8-174.933-174.933c0-8.533 0-17.067 4.267-29.867l-38.4-93.867h89.6c0 0 4.267-4.267 8.533-4.267 12.8-34.133 42.667-59.733 76.8-72.533v-8.533h-42.667v-4.267c-8.533 0-12.8 4.267-21.333 4.267-51.2 0-93.867-38.4-102.4-85.333h-4.267l-123.733-405.333c-4.267-4.267-4.267-12.8-4.267-21.333 0-25.6 17.067-42.667 42.667-42.667s42.667 17.067 42.667 42.667l85.333 285.867v-115.2c0 93.867 76.8 170.667 170.667 170.667s170.667-76.8 170.667-170.667v115.2l85.333-285.867c0-25.6 17.067-42.667 42.667-42.667s42.667 17.067 42.667 42.667c-4.267 8.533-4.267 12.8-8.533 21.333zM640 298.667c0 34.133-29.867 64-64 64s-64-29.867-64-64c0-8.533 0-12.8 4.267-21.333v0c4.267 8.533-4.267 12.8-4.267 21.333 0 34.133-29.867 64-64 64s-64-29.867-64-64c0-8.533 0-12.8 4.267-21.333l123.733-170.667 123.733 170.667c4.267 8.533 4.267 12.8 4.267 21.333z" />
<glyph unicode="&#xe938;" glyph-name="bot_ico_cmdb_estados_auh" d="M443.733 341.333c0-81.067 0-157.867 0-238.933 0-12.8-4.267-25.6-17.067-34.133-25.6-12.8-55.467 4.267-55.467 34.133 0 21.333 0 42.667 0 64 0 72.533 0 145.067 0 213.333 0 8.533-4.267 8.533-12.8 8.533 0 0-4.267 0-4.267-4.267 0 0 0-4.267 0-4.267 0-93.867 0-183.467 0-277.333 0-12.8-4.267-25.6-12.8-34.133-12.8-8.533-25.6-8.533-38.4-4.267s-21.333 17.067-21.333 34.133c0 4.267 0 4.267 0 8.533 0 157.867 0 315.733 0 473.6 0 0 0 4.267 0 4.267 0 4.267 0 8.533-4.267 8.533s-4.267-4.267-4.267-8.533c0-21.333 0-42.667 0-64 0-34.133 0-72.533 0-106.667 0-12.8-4.267-21.333-12.8-25.6s-17.067-4.267-29.867 0c-8.533 8.533-12.8 17.067-12.8 25.6 0 38.4 0 72.533 0 110.933 0 21.333 0 46.933 0 68.267 0 34.133 12.8 59.733 38.4 76.8 12.8 12.8 29.867 17.067 46.933 17.067 38.4 0 76.8 0 115.2 0s72.533-25.6 81.067-64c4.267-12.8 4.267-25.6 4.267-34.133 0-59.733 0-115.2 0-174.933 0-12.8-4.267-21.333-12.8-25.6s-17.067-4.267-25.6 0c-8.533 4.267-12.8 12.8-12.8 25.6 0 55.467 0 115.2 0 170.667 0 4.267 0 8.533-4.267 8.533s-4.267-4.267-4.267-8.533c0-81.067 0-162.133 0-243.2zM994.133 264.533c4.267-4.267 12.8-4.267 21.333-4.267 8.533 4.267 12.8 8.533 12.8 17.067 0 42.667 0 85.333 0 128 0 8.533 0 17.067-4.267 21.333-8.533 25.6-25.6 42.667-51.2 42.667-8.533 0-8.533 0-8.533-8.533 4.267-29.867 4.267-59.733 8.533-89.6 0-12.8 4.267-25.6 12.8-38.4 4.267-4.267 8.533-12.8 4.267-21.333 0 0 0-4.267 0-4.267s-4.267 0-4.267 4.267c-4.267 8.533-12.8 17.067-17.067 21.333s-4.267 8.533-4.267 12.8c0 21.333-4.267 46.933-4.267 68.267 0 17.067-4.267 29.867-4.267 46.933 0 4.267 0 4.267-4.267 4.267-8.533 0-12.8 0-21.333 0-4.267 0-4.267 0-8.533-8.533-4.267-38.4-4.267-76.8-8.533-115.2 0 0 0-4.267 0-4.267-8.533-8.533-12.8-17.067-21.333-25.6 0 0 0-4.267-4.267 0s-4.267 12.8 0 17.067c4.267 4.267 8.533 12.8 12.8 17.067 0 0 4.267 4.267 4.267 8.533 4.267 38.4 4.267 72.533 8.533 110.933 0 4.267 0 4.267-4.267 4.267-17.067 0-34.133-8.533-46.933-21.333-8.533-12.8-12.8-25.6-12.8-42.667 0-42.667 0-85.333 0-123.733 0-4.267 0-4.267 0-8.533 0-8.533 8.533-12.8 12.8-17.067 8.533 0 12.8 0 17.067 8.533 0 0 0 4.267 4.267 4.267 0-4.267 0-4.267 0-4.267 0-55.467 0-106.667 0-162.133 0-4.267 0-8.533 0-12.8 4.267-8.533 12.8-17.067 21.333-17.067s17.067 8.533 21.333 17.067c0 4.267 0 8.533 0 12.8 0 51.2 0 102.4 0 153.6 0 0 0 4.267 0 4.267s0 4.267 0 4.267c4.267 4.267 12.8 0 12.8-8.533 0-51.2 0-102.4 0-157.867 0-4.267 0-4.267 0-8.533 0-17.067 17.067-25.6 29.867-21.333 8.533 4.267 12.8 12.8 12.8 25.6 0 51.2 0 106.667 0 157.867 0 4.267 0 12.8 0 17.067 8.533 0 12.8 0 12.8-4.267zM102.4 200.533c0 0 0 4.267 0 4.267 4.267 0 8.533 0 12.8 0s0-4.267 0-8.533c0-34.133 0-64 0-98.133 0-4.267 0-12.8 4.267-17.067 4.267-8.533 12.8-12.8 21.333-12.8s17.067 4.267 21.333 12.8c4.267 4.267 4.267 8.533 4.267 12.8 0 34.133 0 64 0 98.133 0 8.533 0 8.533 8.533 8.533 12.8 0 29.867 0 42.667 0 4.267 0 4.267 0 4.267 4.267-12.8 38.4-29.867 72.533-42.667 110.933 0 4.267-4.267 4.267-8.533 4.267-17.067-4.267-29.867-12.8-46.933-17.067-4.267-4.267-8.533 0-8.533 4.267 0 34.133 0 68.267 0 102.4 0 4.267 0 8.533 4.267 8.533 21.333 8.533 38.4 12.8 59.733 21.333 4.267 0 4.267 4.267 0 8.533-8.533 12.8-21.333 17.067-34.133 17.067-21.333 0-42.667 0-64 0-17.067 0-25.6-4.267-34.133-17.067-4.267-4.267 0-4.267 4.267-8.533 17.067-8.533 38.4-12.8 55.467-21.333 4.267 0 4.267-4.267 4.267-8.533 0-34.133 0-68.267 0-102.4 0-8.533 0-8.533-8.533-4.267-17.067 4.267-29.867 12.8-46.933 17.067-4.267 0-4.267 0-8.533-4.267-12.8-38.4-29.867-76.8-42.667-110.933 0-4.267 0-4.267 4.267-4.267 12.8 0 29.867 0 42.667 0 8.533 0 8.533 0 8.533-8.533 0-34.133 0-68.267 0-102.4 0-8.533 4.267-17.067 8.533-21.333 8.533-4.267 17.067-4.267 25.6 0s12.8 12.8 12.8 21.333c0 17.067 0 34.133 0 51.2-4.267 25.6-4.267 42.667-4.267 59.733zM366.933 832c-34.133 0-64-29.867-64-64s29.867-64 64-64c34.133 0 64 29.867 64 64s-29.867 64-64 64zM588.8 768c0-38.4 29.867-64 64-64s64 29.867 64 64c0 34.133-29.867 64-64 64s-64-29.867-64-64zM934.4 486.4c25.6 0 42.667 21.333 46.933 46.933 0 25.6-21.333 46.933-46.933 46.933s-46.933-21.333-46.933-46.933c4.267-25.6 21.333-46.933 46.933-46.933zM110.933 486.4c25.6 0 46.933 21.333 46.933 46.933s-21.333 46.933-46.933 42.667c-25.6 0-42.667-21.333-42.667-46.933-4.267-25.6 17.067-42.667 42.667-42.667zM183.467 379.733c0-4.267 0-4.267 0 0 17.067 4.267 21.333 12.8 17.067 25.6s-8.533 21.333-12.8 34.133c0 0 0 4.267-4.267 4.267 0-21.333 0-42.667 0-64zM17.067 405.333c-4.267-12.8 0-21.333 12.8-29.867 4.267-4.267 4.267 0 4.267 4.267 0 17.067 0 38.4 0 55.467 0 0 0 4.267 0 4.267-8.533-8.533-12.8-21.333-17.067-34.133zM793.6 311.467c-21.333 0-42.667 0-64 0-8.533 0-8.533 0-8.533-8.533 0-68.267 0-136.533 0-204.8 0-4.267 0-4.267 0-8.533-4.267-25.6-21.333-29.867-42.667-25.6-12.8 4.267-21.333 12.8-21.333 29.867 0 34.133 0 68.267 0 102.4s0 68.267 0 102.4c0 4.267 0 4.267 0 8.533-4.267 0-8.533 0-12.8 0 0 0 0 0 0-4.267 0 0 0-4.267 0-4.267 0-68.267 0-132.267 0-200.533 0-8.533 0-12.8-4.267-17.067-4.267-12.8-12.8-17.067-25.6-21.333-12.8 0-25.6 4.267-29.867 17.067-4.267 8.533-4.267 17.067-4.267 25.6 0 68.267 0 132.267 0 200.533 0 8.533 0 8.533-8.533 8.533-21.333 0-42.667 0-64 0-8.533 0-8.533 0-4.267 8.533 17.067 59.733 34.133 115.2 51.2 174.933 0 4.267 0 8.533-4.267 8.533-12.8 12.8-21.333 21.333-34.133 34.133-8.533 8.533-12.8 21.333-8.533 34.133 8.533 21.333 12.8 46.933 21.333 68.267s21.333 38.4 46.933 46.933c8.533 4.267 12.8 4.267 21.333 4.267 29.867 0 64 0 93.867 0 34.133 0 59.733-17.067 72.533-51.2 4.267-17.067 12.8-38.4 17.067-55.467 0-8.533 0-17.067-8.533-25.6-12.8-12.8-25.6-25.6-34.133-34.133-4.267-4.267-4.267-4.267-4.267-8.533 17.067-64 38.4-128 55.467-187.733 12.8-17.067 12.8-17.067 4.267-17.067zM580.267 558.933c4.267 8.533 4.267 17.067 8.533 29.867 0 4.267 0 4.267-4.267 4.267s-8.533 0-8.533-4.267c0-4.267 0-8.533-4.267-8.533 0-17.067 0-17.067 8.533-21.333zM746.667 571.733c0 12.8 0 21.333-4.267 29.867-8.533 12.8-17.067 17.067-25.6 0 0-4.267-4.267-4.267-4.267 0-4.267 4.267-8.533 4.267-17.067 4.267s-17.067-8.533-21.333-17.067c-4.267-8.533 0-17.067 8.533-25.6 4.267-4.267 4.267-4.267 0-4.267-8.533-4.267-12.8-4.267-21.333 0-8.533 0-12.8 4.267-21.333 4.267-4.267 0-4.267 0-8.533 0-21.333 0-42.667-17.067-51.2-38.4-4.267-21.333 4.267-34.133 21.333-42.667 4.267-4.267 12.8-4.267 21.333-4.267 21.333 0 42.667 4.267 64 17.067 34.133 17.067 51.2 42.667 59.733 76.8z" />
<glyph unicode="&#xe939;" glyph-name="bot_ico_cmdb_estados_auh_b" d="M934.4 614.4c25.6 0 42.667 21.333 46.933 46.933 0 25.6-21.333 46.933-46.933 46.933s-46.933-21.333-46.933-46.933c0-25.6 21.333-46.933 46.933-46.933zM985.6 388.267c0 4.267 0 8.533 0 8.533 4.267-4.267 4.267-4.267 8.533-8.533s12.8-4.267 21.333-4.267c8.533 4.267 12.8 8.533 12.8 17.067 0 42.667 0 85.333 0 128 0 8.533 0 17.067-4.267 21.333-8.533 25.6-25.6 42.667-51.2 42.667-8.533 0-8.533 0-8.533-8.533 4.267-29.867 4.267-59.733 8.533-89.6 0-12.8 4.267-25.6 12.8-38.4 4.267-4.267 8.533-12.8 4.267-21.333 0 0 0-4.267 0-4.267s-4.267 0-4.267 4.267c-4.267 8.533-12.8 17.067-17.067 21.333s-4.267 8.533-4.267 12.8c0 21.333-4.267 46.933-4.267 68.267 0 17.067-4.267 29.867-4.267 46.933 0 4.267 0 4.267-4.267 4.267-8.533 0-12.8 0-21.333 0-4.267 0-4.267 0-8.533-8.533-4.267-38.4-4.267-76.8-8.533-115.2 0 0 0-4.267 0-4.267-8.533-8.533-12.8-17.067-21.333-25.6 0 0 0-4.267-4.267 0s-4.267 12.8 0 17.067c4.267 4.267 8.533 12.8 12.8 17.067 0 0 4.267 4.267 4.267 8.533 4.267 38.4 4.267 72.533 8.533 110.933 0 4.267 0 4.267-4.267 4.267-17.067 0-34.133-8.533-46.933-21.333-8.533-12.8-12.8-25.6-12.8-42.667 0-29.867 0-59.733 0-89.6 46.933 0 93.867-17.067 136.533-51.2zM652.8 832c34.133 0 64 29.867 64 64s-29.867 64-64 64c-34.133 0-64-29.867-64-64 0-38.4 29.867-64 64-64zM507.733 716.8c0 12.8 0 25.6-4.267 34.133-8.533 38.4-46.933 64-81.067 64-38.4 0-76.8 0-115.2 0-21.333 0-34.133-4.267-51.2-17.067-25.6-17.067-38.4-42.667-38.4-76.8 0-21.333 0-46.933 0-68.267 0-38.4 0-72.533 0-110.933 0-12.8 4.267-21.333 12.8-25.6s17.067-8.533 29.867 0c8.533 4.267 12.8 12.8 12.8 25.6 0 34.133 0 72.533 0 106.667 0 21.333 0 42.667 0 64 0 4.267 0 8.533 4.267 8.533s4.267-4.267 4.267-8.533c0 0 0-4.267 0-4.267 0-157.867 0-315.733 0-473.6 0-4.267 0-4.267 0-8.533 0-12.8 8.533-25.6 21.333-34.133 17.067 0 29.867 0 38.4 8.533 12.8 8.533 12.8 21.333 12.8 34.133 0 93.867 0 183.467 0 277.333 0 0 0 4.267 0 4.267s0 4.267 4.267 4.267c8.533 4.267 12.8 0 12.8-8.533 0-72.533 0-145.067 0-213.333 0-21.333 0-42.667 0-64 0-29.867 29.867-46.933 55.467-34.133 12.8 8.533 17.067 21.333 17.067 34.133 0 81.067 0 157.867 0 238.933s0 162.133 0 238.933c0 4.267 0 8.533 4.267 8.533s4.267-4.267 4.267-8.533c0-55.467 0-115.2 0-170.667 0-12.8 4.267-21.333 12.8-25.6s17.067-4.267 25.6 0c8.533 4.267 12.8 17.067 12.8 25.6 4.267 59.733 4.267 115.2 4.267 174.933zM170.667 452.267c0 4.267-4.267 4.267-8.533 4.267-17.067-4.267-29.867-12.8-46.933-17.067-4.267-4.267-8.533 0-8.533 4.267 0 34.133 0 68.267 0 102.4 0 4.267 0 8.533 4.267 8.533 25.6 4.267 42.667 12.8 64 21.333 4.267 0 4.267 4.267 0 8.533-8.533 8.533-21.333 17.067-34.133 17.067-21.333 0-42.667 0-64 0-17.067 0-25.6-4.267-34.133-17.067-8.533-8.533-8.533-8.533-4.267-8.533 17.067-8.533 38.4-12.8 55.467-21.333 4.267 0 4.267-4.267 4.267-8.533 0-34.133 0-68.267 0-102.4 0-8.533 0-8.533-8.533-4.267-17.067 4.267-29.867 12.8-46.933 17.067-4.267 0-4.267 0-8.533-4.267-12.8-38.4-29.867-76.8-42.667-110.933 0-4.267 0-4.267 4.267-4.267 12.8 0 29.867 0 42.667 0 8.533 0 8.533 0 8.533-8.533 0-34.133 0-68.267 0-102.4 0-8.533 4.267-17.067 8.533-21.333 8.533-4.267 17.067-4.267 25.6 0s12.8 12.8 12.8 21.333c0 17.067 0 34.133 0 51.2s0 34.133 0 55.467c0 0 0 4.267 0 4.267 4.267 0 8.533 0 12.8 0s0-4.267 0-8.533c0-34.133 0-64 0-98.133 0-4.267 0-12.8 4.267-17.067 4.267-8.533 12.8-12.8 21.333-12.8s17.067 4.267 21.333 12.8c4.267 4.267 4.267 8.533 4.267 12.8 0 34.133 0 64 0 98.133 0 8.533 0 8.533 8.533 8.533 12.8 0 29.867 0 42.667 0 4.267 0 4.267 0 4.267 4.267-12.8 42.667-29.867 76.8-42.667 115.2zM512 439.467c-8.533 0-8.533 0-4.267 8.533 17.067 59.733 34.133 115.2 51.2 174.933 0 4.267 0 8.533-4.267 8.533-12.8 12.8-21.333 21.333-34.133 34.133-8.533 8.533-12.8 21.333-8.533 34.133 8.533 21.333 12.8 46.933 21.333 68.267s21.333 38.4 46.933 46.933c8.533 4.267 12.8 4.267 21.333 4.267 29.867 0 64 0 93.867 0 34.133 0 59.733-17.067 72.533-51.2 4.267-17.067 12.8-38.4 17.067-55.467 0-8.533 0-17.067-8.533-25.6-12.8-12.8-25.6-25.6-34.133-34.133-4.267-4.267-4.267-4.267-4.267-8.533 17.067-64 38.4-128 55.467-187.733-17.067 0-34.133-4.267-51.2-8.533-4.267 0-8.533 0-17.067 0s-8.533 0-8.533-4.267c-21.333-8.533-42.667-17.067-59.733-25.6 0 8.533 0 17.067 0 25.6 0 4.267 0 4.267 0 8.533-4.267 0-8.533 0-12.8 0 0 0 0 0 0-4.267 0 0 0-4.267 0-4.267 0-12.8 0-21.333 0-34.133-21.333-17.067-42.667-34.133-64-55.467 0 29.867 0 59.733 0 89.6 0 8.533 0 8.533-8.533 8.533-17.067-12.8-38.4-12.8-59.733-12.8zM580.267 652.8c-4.267-21.333 4.267-34.133 21.333-42.667 4.267-4.267 12.8-4.267 21.333-4.267 21.333 0 42.667 4.267 64 17.067 29.867 17.067 51.2 42.667 55.467 81.067 0 12.8 0 21.333-4.267 29.867-8.533 12.8-17.067 17.067-25.6 0 0-4.267-4.267-4.267-4.267 0-4.267 4.267-8.533 4.267-17.067 4.267s-17.067-8.533-21.333-17.067c-4.267-8.533 0-17.067 8.533-25.6 4.267-4.267 4.267-4.267 0-4.267-8.533-4.267-12.8-4.267-21.333 0-8.533 0-12.8 4.267-21.333 4.267-4.267 0-4.267 0-8.533 0-17.067-4.267-38.4-21.333-46.933-42.667zM580.267 686.933c4.267 8.533 4.267 17.067 8.533 29.867 0 4.267 0 4.267-4.267 4.267s-8.533 0-8.533-4.267c0-4.267 0-8.533-4.267-8.533 0-17.067 0-17.067 8.533-21.333zM106.667 614.4c25.6 0 46.933 21.333 46.933 46.933s-21.333 46.933-46.933 42.667c-25.6 0-42.667-21.333-42.667-46.933 0-21.333 17.067-42.667 42.667-42.667zM183.467 507.733c12.8 4.267 21.333 17.067 12.8 29.867 0 8.533-8.533 17.067-12.8 29.867 0 0 0 4.267-4.267 4.267 0-21.333 0-42.667 4.267-64-4.267-4.267 0-4.267 0 0zM25.6 507.733c4.267-4.267 4.267 0 4.267 4.267 0 17.067 0 38.4 0 55.467 0 0 0 4.267 0 4.267-4.267-12.8-8.533-25.6-12.8-38.4-8.533-12.8-4.267-21.333 8.533-25.6zM362.667 832c34.133 0 64 29.867 64 64s-25.6 64-64 64c-34.133 0-64-29.867-64-64s29.867-64 64-64zM810.667 179.2h-42.667v68.267h38.4c17.067 0 25.6-4.267 34.133-8.533s12.8-12.8 12.8-25.6c0-21.333-12.8-34.133-42.667-34.133zM857.6 102.4c0-12.8-4.267-21.333-12.8-25.6s-17.067-8.533-29.867-8.533h-46.933v72.533h51.2c25.6 0 38.4-12.8 38.4-38.4zM810.667 362.667c-119.467 0-213.333-93.867-213.333-213.333s93.867-213.333 213.333-213.333c119.467 0 213.333 93.867 213.333 213.333s-93.867 213.333-213.333 213.333zM891.733 42.667c-17.067-12.8-42.667-21.333-72.533-21.333h-106.667v273.067h93.867c34.133 0 59.733-4.267 76.8-17.067s25.6-29.867 25.6-55.467c0-12.8-4.267-25.6-8.533-34.133-8.533-8.533-17.067-17.067-29.867-21.333 12.8-4.267 25.6-8.533 34.133-21.333 8.533-8.533 12.8-25.6 12.8-38.4 0-29.867-8.533-51.2-25.6-64z" />
<glyph unicode="&#xe93a;" glyph-name="bot_ico_cmdb_estados_auh_t" d="M934.4 614.4c25.6 0 42.667 21.333 46.933 46.933 0 25.6-21.333 46.933-46.933 46.933s-46.933-21.333-46.933-46.933c0-25.6 21.333-46.933 46.933-46.933zM985.6 388.267c0 4.267 0 8.533 0 8.533 4.267-4.267 4.267-4.267 8.533-8.533s12.8-4.267 21.333-4.267c8.533 4.267 12.8 8.533 12.8 17.067 0 42.667 0 85.333 0 128 0 8.533 0 17.067-4.267 21.333-8.533 25.6-25.6 42.667-51.2 42.667-8.533 0-8.533 0-8.533-8.533 4.267-29.867 4.267-59.733 8.533-89.6 0-12.8 4.267-25.6 12.8-38.4 4.267-4.267 8.533-12.8 4.267-21.333 0 0 0-4.267 0-4.267s-4.267 0-4.267 4.267c-4.267 8.533-12.8 17.067-17.067 21.333s-4.267 8.533-4.267 12.8c0 21.333-4.267 46.933-4.267 68.267 0 17.067-4.267 29.867-4.267 46.933 0 4.267 0 4.267-4.267 4.267-8.533 0-12.8 0-21.333 0-4.267 0-4.267 0-8.533-8.533-4.267-38.4-4.267-76.8-8.533-115.2 0 0 0-4.267 0-4.267-8.533-8.533-12.8-17.067-21.333-25.6 0 0 0-4.267-4.267 0s-4.267 12.8 0 17.067c4.267 4.267 8.533 12.8 12.8 17.067 0 0 4.267 4.267 4.267 8.533 4.267 38.4 4.267 72.533 8.533 110.933 0 4.267 0 4.267-4.267 4.267-17.067 0-34.133-8.533-46.933-21.333-8.533-12.8-12.8-25.6-12.8-42.667 0-29.867 0-59.733 0-89.6 46.933 0 93.867-17.067 136.533-51.2zM652.8 832c34.133 0 64 29.867 64 64s-29.867 64-64 64c-34.133 0-64-29.867-64-64 0-38.4 29.867-64 64-64zM507.733 716.8c0 12.8 0 25.6-4.267 34.133-8.533 38.4-46.933 64-81.067 64-38.4 0-76.8 0-115.2 0-21.333 0-34.133-4.267-51.2-17.067-25.6-17.067-38.4-42.667-38.4-76.8 0-21.333 0-46.933 0-68.267 0-38.4 0-72.533 0-110.933 0-12.8 4.267-21.333 12.8-25.6s17.067-8.533 29.867 0c8.533 4.267 12.8 12.8 12.8 25.6 0 34.133 0 72.533 0 106.667 0 21.333 0 42.667 0 64 0 4.267 0 8.533 4.267 8.533s4.267-4.267 4.267-8.533c0 0 0-4.267 0-4.267 0-157.867 0-315.733 0-473.6 0-4.267 0-4.267 0-8.533 0-12.8 8.533-25.6 21.333-34.133 17.067 0 29.867 0 38.4 8.533 12.8 8.533 12.8 21.333 12.8 34.133 0 93.867 0 183.467 0 277.333 0 0 0 4.267 0 4.267s0 4.267 4.267 4.267c8.533 4.267 12.8 0 12.8-8.533 0-72.533 0-145.067 0-213.333 0-21.333 0-42.667 0-64 0-29.867 29.867-46.933 55.467-34.133 12.8 8.533 17.067 21.333 17.067 34.133 0 81.067 0 157.867 0 238.933s0 162.133 0 238.933c0 4.267 0 8.533 4.267 8.533s4.267-4.267 4.267-8.533c0-55.467 0-115.2 0-170.667 0-12.8 4.267-21.333 12.8-25.6s17.067-4.267 25.6 0c8.533 4.267 12.8 17.067 12.8 25.6 4.267 59.733 4.267 115.2 4.267 174.933zM170.667 452.267c0 4.267-4.267 4.267-8.533 4.267-17.067-4.267-29.867-12.8-46.933-17.067-4.267-4.267-8.533 0-8.533 4.267 0 34.133 0 68.267 0 102.4 0 4.267 0 8.533 4.267 8.533 25.6 4.267 42.667 12.8 64 21.333 4.267 0 4.267 4.267 0 8.533-8.533 8.533-21.333 17.067-34.133 17.067-21.333 0-42.667 0-64 0-17.067 0-25.6-4.267-34.133-17.067-8.533-8.533-8.533-8.533-4.267-8.533 17.067-8.533 38.4-12.8 55.467-21.333 4.267 0 4.267-4.267 4.267-8.533 0-34.133 0-68.267 0-102.4 0-8.533 0-8.533-8.533-4.267-17.067 4.267-29.867 12.8-46.933 17.067-4.267 0-4.267 0-8.533-4.267-12.8-38.4-29.867-76.8-42.667-110.933 0-4.267 0-4.267 4.267-4.267 12.8 0 29.867 0 42.667 0 8.533 0 8.533 0 8.533-8.533 0-34.133 0-68.267 0-102.4 0-8.533 4.267-17.067 8.533-21.333 8.533-4.267 17.067-4.267 25.6 0s12.8 12.8 12.8 21.333c0 17.067 0 34.133 0 51.2s0 34.133 0 55.467c0 0 0 4.267 0 4.267 4.267 0 8.533 0 12.8 0s0-4.267 0-8.533c0-34.133 0-64 0-98.133 0-4.267 0-12.8 4.267-17.067 4.267-8.533 12.8-12.8 21.333-12.8s17.067 4.267 21.333 12.8c4.267 4.267 4.267 8.533 4.267 12.8 0 34.133 0 64 0 98.133 0 8.533 0 8.533 8.533 8.533 12.8 0 29.867 0 42.667 0 4.267 0 4.267 0 4.267 4.267-12.8 42.667-29.867 76.8-42.667 115.2zM512 439.467c-8.533 0-8.533 0-4.267 8.533 17.067 59.733 34.133 115.2 51.2 174.933 0 4.267 0 8.533-4.267 8.533-12.8 12.8-21.333 21.333-34.133 34.133-8.533 8.533-12.8 21.333-8.533 34.133 8.533 21.333 12.8 46.933 21.333 68.267s21.333 38.4 46.933 46.933c8.533 4.267 12.8 4.267 21.333 4.267 29.867 0 64 0 93.867 0 34.133 0 59.733-17.067 72.533-51.2 4.267-17.067 12.8-38.4 17.067-55.467 0-8.533 0-17.067-8.533-25.6-12.8-12.8-25.6-25.6-34.133-34.133-4.267-4.267-4.267-4.267-4.267-8.533 17.067-64 38.4-128 55.467-187.733-17.067 0-34.133-4.267-51.2-8.533-4.267 0-8.533 0-17.067 0s-8.533 0-8.533-4.267c-21.333-8.533-42.667-17.067-59.733-25.6 0 8.533 0 17.067 0 25.6 0 4.267 0 4.267 0 8.533-4.267 0-8.533 0-12.8 0 0 0 0 0 0-4.267 0 0 0-4.267 0-4.267 0-12.8 0-21.333 0-34.133-21.333-17.067-42.667-34.133-64-55.467 0 29.867 0 59.733 0 89.6 0 8.533 0 8.533-8.533 8.533-17.067-12.8-38.4-12.8-59.733-12.8zM580.267 652.8c-4.267-21.333 4.267-34.133 21.333-42.667 4.267-4.267 12.8-4.267 21.333-4.267 21.333 0 42.667 4.267 64 17.067 29.867 17.067 51.2 42.667 55.467 81.067 0 12.8 0 21.333-4.267 29.867-8.533 12.8-17.067 17.067-25.6 0 0-4.267-4.267-4.267-4.267 0-4.267 4.267-8.533 4.267-17.067 4.267s-17.067-8.533-21.333-17.067c-4.267-8.533 0-17.067 8.533-25.6 4.267-4.267 4.267-4.267 0-4.267-8.533-4.267-12.8-4.267-21.333 0-8.533 0-12.8 4.267-21.333 4.267-4.267 0-4.267 0-8.533 0-17.067-4.267-38.4-21.333-46.933-42.667zM580.267 686.933c4.267 8.533 4.267 17.067 8.533 29.867 0 4.267 0 4.267-4.267 4.267s-8.533 0-8.533-4.267c0-4.267 0-8.533-4.267-8.533 0-17.067 0-17.067 8.533-21.333zM106.667 614.4c25.6 0 46.933 21.333 46.933 46.933s-21.333 46.933-46.933 42.667c-25.6 0-42.667-21.333-42.667-46.933 0-21.333 17.067-42.667 42.667-42.667zM183.467 507.733c12.8 4.267 21.333 17.067 12.8 29.867 0 8.533-8.533 17.067-12.8 29.867 0 0 0 4.267-4.267 4.267 0-21.333 0-42.667 4.267-64-4.267-4.267 0-4.267 0 0zM25.6 507.733c4.267-4.267 4.267 0 4.267 4.267 0 17.067 0 38.4 0 55.467 0 0 0 4.267 0 4.267-4.267-12.8-8.533-25.6-12.8-38.4-8.533-12.8-4.267-21.333 8.533-25.6zM362.667 832c34.133 0 64 29.867 64 64s-25.6 64-64 64c-34.133 0-64-29.867-64-64s29.867-64 64-64zM810.667 362.667c-119.467 0-213.333-93.867-213.333-213.333s93.867-213.333 213.333-213.333c119.467 0 213.333 93.867 213.333 213.333s-93.867 213.333-213.333 213.333zM925.867 247.467h-85.333v-226.133h-55.467v226.133h-81.067v46.933h221.867v-46.933z" />
<glyph unicode="&#xe93b;" glyph-name="bot_ico_cmdb_estados_sangre_0neg" d="M460.8 456.533c8.533-12.8 12.8-34.133 12.8-64v-98.133c0-29.867-4.267-51.2-12.8-64s-17.067-21.333-34.133-21.333c-17.067 0-29.867 8.533-34.133 21.333s-12.8 34.133-12.8 64v102.4c0 25.6 4.267 46.933 12.8 59.733s17.067 21.333 34.133 21.333c17.067 0 25.6-4.267 34.133-21.333zM836.267 490.667c8.533-42.667 17.067-85.333 17.067-128 0-234.667-192-426.667-426.667-426.667s-426.667 192-426.667 426.667 192 426.667 426.667 426.667c81.067 0 153.6-21.333 217.6-59.733 0-4.267 0-8.533-4.267-8.533 0-12.8 0-25.6 0-34.133 0-102.4 85.333-187.733 196.267-196.267zM563.2 384c0 51.2-12.8 93.867-34.133 123.733-25.6 29.867-59.733 42.667-102.4 42.667s-76.8-12.8-102.4-42.667c-25.6-29.867-34.133-68.267-34.133-123.733v-72.533c0-51.2 12.8-93.867 34.133-123.733 25.6-29.867 59.733-42.667 102.4-42.667s76.8 12.8 102.4 42.667 34.133 68.267 34.133 123.733v72.533zM1024 686.933c0-85.333-76.8-157.867-170.667-157.867s-170.667 68.267-170.667 157.867c0 8.533 0 17.067 4.267 25.6 4.267 25.6 17.067 51.2 34.133 72.533 51.2 64 132.267 119.467 132.267 174.933 0-55.467 81.067-110.933 132.267-179.2 17.067-21.333 29.867-46.933 34.133-72.533 4.267-4.267 4.267-12.8 4.267-21.333zM981.333 746.667h-256v-85.333h256v85.333z" />
<glyph unicode="&#xe93c;" glyph-name="bot_ico_cmdb_estados_sangre_0pos" d="M460.8 456.533c8.533-12.8 12.8-34.133 12.8-64v-98.133c0-29.867-4.267-51.2-12.8-64s-17.067-21.333-34.133-21.333c-17.067 0-29.867 8.533-34.133 21.333s-12.8 34.133-12.8 64v102.4c0 25.6 4.267 46.933 12.8 59.733s17.067 21.333 34.133 21.333c17.067 0 25.6-4.267 34.133-21.333zM836.267 490.667c8.533-42.667 17.067-85.333 17.067-128 0-234.667-192-426.667-426.667-426.667s-426.667 192-426.667 426.667 192 426.667 426.667 426.667c81.067 0 153.6-21.333 217.6-59.733 0-4.267 0-8.533-4.267-8.533 0-12.8 0-25.6 0-34.133 0-102.4 85.333-187.733 196.267-196.267zM563.2 384c0 51.2-12.8 93.867-34.133 123.733-25.6 29.867-59.733 42.667-102.4 42.667s-76.8-12.8-102.4-42.667c-25.6-29.867-34.133-68.267-34.133-123.733v-72.533c0-51.2 12.8-93.867 34.133-123.733 25.6-29.867 59.733-42.667 102.4-42.667s76.8 12.8 102.4 42.667 34.133 68.267 34.133 123.733v72.533zM1024 686.933c0-85.333-76.8-157.867-170.667-157.867s-170.667 68.267-170.667 157.867c0 8.533 0 17.067 4.267 25.6 4.267 25.6 17.067 51.2 34.133 72.533 51.2 64 132.267 119.467 132.267 174.933 0-55.467 81.067-110.933 132.267-179.2 17.067-21.333 29.867-46.933 34.133-72.533 4.267-4.267 4.267-12.8 4.267-21.333zM981.333 746.667h-85.333v85.333h-85.333v-85.333h-85.333v-85.333h85.333v-85.333h85.333v85.333h85.333v85.333z" />
<glyph unicode="&#xe93d;" glyph-name="bot_ico_cmdb_estados_sangre_abneg" d="M247.467 435.2l42.667-136.533h-85.333l42.667 136.533zM627.2 315.733h-68.267v-93.867h64c17.067 0 29.867 4.267 38.4 12.8s12.8 17.067 12.8 34.133c4.267 29.867-12.8 46.933-46.933 46.933zM657.067 392.533c8.533 8.533 12.8 17.067 12.8 34.133s-4.267 29.867-12.8 34.133-25.6 12.8-46.933 12.8h-46.933v-89.6h51.2c17.067-4.267 34.133 0 42.667 8.533zM836.267 490.667c8.533-42.667 17.067-85.333 17.067-128 0-234.667-192-426.667-426.667-426.667s-426.667 192-426.667 426.667 192 426.667 426.667 426.667c81.067 0 153.6-21.333 217.6-59.733 0-4.267 0-8.533-4.267-8.533 0-12.8 0-25.6 0-34.133 0-102.4 85.333-187.733 196.267-196.267zM439.467 149.333l-149.333 392.533h-85.333l-145.067-392.533h102.4l21.333 72.533h132.267l21.333-72.533h102.4zM772.267 264.533c0 21.333-4.267 38.4-17.067 55.467-12.8 12.8-25.6 25.6-46.933 29.867 17.067 8.533 34.133 17.067 42.667 29.867s12.8 29.867 12.8 51.2c0 34.133-12.8 64-38.4 81.067s-64 29.867-115.2 29.867h-140.8v-392.533h162.133c46.933 0 85.333 8.533 106.667 29.867s34.133 46.933 34.133 85.333zM1024 686.933c0-85.333-76.8-157.867-170.667-157.867s-170.667 68.267-170.667 157.867c0 8.533 0 17.067 4.267 25.6 4.267 25.6 17.067 51.2 34.133 72.533 51.2 64 132.267 119.467 132.267 174.933 0-55.467 81.067-110.933 132.267-179.2 17.067-21.333 29.867-46.933 34.133-72.533 4.267-4.267 4.267-12.8 4.267-21.333zM981.333 746.667h-256v-85.333h256v85.333z" />
<glyph unicode="&#xe93e;" glyph-name="bot_ico_cmdb_estados_sangre_abpos" d="M247.467 435.2l42.667-136.533h-85.333l42.667 136.533zM627.2 315.733h-68.267v-93.867h64c17.067 0 29.867 4.267 38.4 12.8s12.8 17.067 12.8 34.133c4.267 29.867-12.8 46.933-46.933 46.933zM657.067 392.533c8.533 8.533 12.8 17.067 12.8 34.133s-4.267 29.867-12.8 34.133-25.6 12.8-46.933 12.8h-46.933v-89.6h51.2c17.067-4.267 34.133 0 42.667 8.533zM836.267 490.667c8.533-42.667 17.067-85.333 17.067-128 0-234.667-192-426.667-426.667-426.667s-426.667 192-426.667 426.667 192 426.667 426.667 426.667c81.067 0 153.6-21.333 217.6-59.733 0-4.267 0-8.533-4.267-8.533 0-12.8 0-25.6 0-34.133 0-102.4 85.333-187.733 196.267-196.267zM439.467 149.333l-149.333 392.533h-85.333l-145.067-392.533h102.4l21.333 72.533h132.267l21.333-72.533h102.4zM772.267 264.533c0 21.333-4.267 38.4-17.067 55.467-12.8 12.8-25.6 25.6-46.933 29.867 17.067 8.533 34.133 17.067 42.667 29.867s12.8 29.867 12.8 51.2c0 34.133-12.8 64-38.4 81.067s-64 29.867-115.2 29.867h-140.8v-392.533h162.133c46.933 0 85.333 8.533 106.667 29.867s34.133 46.933 34.133 85.333zM1024 686.933c0-85.333-76.8-157.867-170.667-157.867s-170.667 68.267-170.667 157.867c0 8.533 0 17.067 4.267 25.6 4.267 25.6 17.067 51.2 34.133 72.533 51.2 64 132.267 119.467 132.267 174.933 0-55.467 81.067-110.933 132.267-179.2 17.067-21.333 29.867-46.933 34.133-72.533 4.267-4.267 4.267-12.8 4.267-21.333zM981.333 746.667h-85.333v85.333h-85.333v-85.333h-85.333v-85.333h85.333v-85.333h85.333v85.333h85.333v85.333z" />
<glyph unicode="&#xe93f;" glyph-name="bot_ico_cmdb_estados_sangre_aneg" d="M640 686.933c0 8.533 0 21.333 4.267 34.133 0 4.267 0 8.533 4.267 8.533-68.267 38.4-140.8 59.733-221.867 59.733-234.667 0-426.667-192-426.667-426.667s192-426.667 426.667-426.667 426.667 192 426.667 426.667c0 42.667-8.533 85.333-17.067 128-110.933 8.533-196.267 93.867-196.267 196.267zM516.267 149.333l-21.333 72.533h-132.267l-25.6-72.533h-98.133l145.067 392.533h85.333l145.067-392.533h-98.133zM426.667 435.2l42.667-136.533h-85.333l42.667 136.533zM1019.733 712.533c-4.267 25.6-17.067 51.2-34.133 72.533-51.2 64-132.267 119.467-132.267 174.933 0-55.467-81.067-110.933-132.267-179.2-17.067-21.333-29.867-46.933-34.133-72.533-4.267-4.267-4.267-12.8-4.267-21.333 0-85.333 76.8-157.867 170.667-157.867s170.667 68.267 170.667 157.867c0 8.533 0 17.067-4.267 25.6zM981.333 661.333h-256v85.333h256v-85.333z" />
<glyph unicode="&#xe940;" glyph-name="bot_ico_cmdb_estados_sangre_apos" d="M640 686.933c0 8.533 0 21.333 4.267 34.133 0 4.267 0 8.533 4.267 8.533-68.267 38.4-140.8 59.733-221.867 59.733-234.667 0-426.667-192-426.667-426.667s192-426.667 426.667-426.667 426.667 192 426.667 426.667c0 42.667-8.533 85.333-17.067 128-110.933 8.533-196.267 93.867-196.267 196.267zM516.267 149.333l-21.333 72.533h-132.267l-25.6-72.533h-98.133l145.067 392.533h85.333l145.067-392.533h-98.133zM426.667 435.2l42.667-136.533h-85.333l42.667 136.533zM1019.733 712.533c-4.267 25.6-17.067 51.2-34.133 72.533-51.2 64-132.267 119.467-132.267 174.933 0-55.467-81.067-110.933-132.267-179.2-17.067-21.333-29.867-46.933-34.133-72.533-4.267-4.267-4.267-12.8-4.267-21.333 0-85.333 76.8-157.867 170.667-157.867s170.667 68.267 170.667 157.867c0 8.533 0 17.067-4.267 25.6zM981.333 661.333h-85.333v-85.333h-85.333v85.333h-85.333v85.333h85.333v85.333h85.333v-85.333h85.333v-85.333z" />
<glyph unicode="&#xe941;" glyph-name="bot_ico_cmdb_estados_sangre_bneg" d="M486.4 268.8c0-12.8-4.267-25.6-12.8-34.133s-21.333-12.8-38.4-12.8h-64v93.867h68.267c34.133 0 46.933-17.067 46.933-46.933zM465.067 392.533c8.533 8.533 12.8 17.067 12.8 34.133s-4.267 29.867-12.8 34.133-25.6 12.8-46.933 12.8h-46.933v-89.6h51.2c21.333-4.267 34.133 0 42.667 8.533zM836.267 490.667c8.533-42.667 17.067-85.333 17.067-128 0-234.667-192-426.667-426.667-426.667s-426.667 192-426.667 426.667 192 426.667 426.667 426.667c81.067 0 153.6-21.333 217.6-59.733 0-4.267 0-8.533-4.267-8.533 0-12.8 0-25.6 0-34.133 0-102.4 85.333-187.733 196.267-196.267zM584.533 264.533c0 21.333-4.267 38.4-17.067 55.467-12.8 12.8-25.6 25.6-46.933 29.867 17.067 8.533 34.133 17.067 42.667 29.867s12.8 29.867 12.8 51.2c0 34.133-12.8 64-38.4 81.067-29.867 21.333-68.267 29.867-119.467 29.867h-140.8v-392.533h162.133c46.933 0 85.333 8.533 106.667 29.867s38.4 46.933 38.4 85.333zM1024 686.933c0-85.333-76.8-157.867-170.667-157.867s-170.667 68.267-170.667 157.867c0 8.533 0 17.067 4.267 25.6 4.267 25.6 17.067 51.2 34.133 72.533 51.2 64 132.267 119.467 132.267 174.933 0-55.467 81.067-110.933 132.267-179.2 17.067-21.333 29.867-46.933 34.133-72.533 4.267-4.267 4.267-12.8 4.267-21.333zM981.333 746.667h-256v-85.333h256v85.333z" />
<glyph unicode="&#xe942;" glyph-name="bot_ico_cmdb_estados_sangre_bpos" d="M486.4 268.8c0-12.8-4.267-25.6-12.8-34.133s-21.333-12.8-38.4-12.8h-64v93.867h68.267c34.133 0 46.933-17.067 46.933-46.933zM465.067 392.533c8.533 8.533 12.8 17.067 12.8 34.133s-4.267 29.867-12.8 34.133-25.6 12.8-46.933 12.8h-46.933v-89.6h51.2c21.333-4.267 34.133 0 42.667 8.533zM836.267 490.667c8.533-42.667 17.067-85.333 17.067-128 0-234.667-192-426.667-426.667-426.667s-426.667 192-426.667 426.667 192 426.667 426.667 426.667c81.067 0 153.6-21.333 217.6-59.733 0-4.267 0-8.533-4.267-8.533 0-12.8 0-25.6 0-34.133 0-102.4 85.333-187.733 196.267-196.267zM584.533 264.533c0 21.333-4.267 38.4-17.067 55.467-12.8 12.8-25.6 25.6-46.933 29.867 17.067 8.533 34.133 17.067 42.667 29.867s12.8 29.867 12.8 51.2c0 34.133-12.8 64-38.4 81.067-29.867 21.333-68.267 29.867-119.467 29.867h-140.8v-392.533h162.133c46.933 0 85.333 8.533 106.667 29.867s38.4 46.933 38.4 85.333zM1024 686.933c0-85.333-76.8-157.867-170.667-157.867s-170.667 68.267-170.667 157.867c0 8.533 0 17.067 4.267 25.6 4.267 25.6 17.067 51.2 34.133 72.533 51.2 64 132.267 119.467 132.267 174.933 0-55.467 81.067-110.933 132.267-179.2 17.067-21.333 29.867-46.933 34.133-72.533 4.267-4.267 4.267-12.8 4.267-21.333zM981.333 746.667h-85.333v85.333h-85.333v-85.333h-85.333v-85.333h85.333v-85.333h85.333v85.333h85.333v85.333z" />
<glyph unicode="&#xe943;" d="M243.2 179.2v-243.2h-243.2v243.2h243.2zM785.067 179.2h-396.8v-243.2h635.733v635.733h-238.933v-392.533zM388.267 571.733v-251.733h247.467v251.733h-247.467z" />
<glyph unicode="&#xe944;" d="M635.733 712.533h-396.8v-392.533h-243.2v640h635.733v-247.467zM785.067 960v-247.467h243.2v247.467h-243.2z" />
<glyph unicode="&#xe945;" d="M362.667 482.133c-25.6 12.8-51.2 17.067-110.933 34.133-38.4 12.8-68.267 12.8-85.333 21.333-17.067 12.8-17.067 17.067-17.067 34.133s0 34.133 12.8 46.933 42.667 8.533 64 8.533c25.6 0 42.667-4.267 59.733-17.067 12.8-12.8 29.867-21.333 29.867-42.667l106.667 38.4c-4.267 12.8-12.8 34.133-21.333 46.933-17.067 25.6-38.4 51.2-68.267 64-34.133 12.8-59.733 17.067-98.133 17.067-42.667 0-81.067-8.533-115.2-21.333s-42.667-21.333-59.733-46.933-34.133-55.467-34.133-85.333c0-59.733 8.533-115.2 85.333-149.333 21.333-12.8 68.267-29.867 106.667-38.4 42.667-12.8 55.467-12.8 72.533-21.333 21.333-8.533 25.6-25.6 25.6-46.933 0-17.067-12.8-29.867-25.6-38.4s-29.867-12.8-55.467-12.8c-34.133 0-59.733 8.533-76.8 21.333s-21.333 34.133-25.6 59.733l-132.267-34.133c4.267-21.333 12.8-42.667 25.6-59.733 17.067-25.6 46.933-51.2 85.333-64 38.4-17.067 81.067-25.6 123.733-25.6 64 0 106.667 25.6 145.067 51.2s55.467 68.267 55.467 115.2c4.267 55.467-12.8 110.933-72.533 145.067z" />
<glyph unicode="&#xe946;" d="M661.333 482.133c-25.6 12.8-51.2 17.067-106.667 34.133-38.4 12.8-68.267 12.8-85.333 21.333-17.067 12.8-17.067 17.067-17.067 34.133s0 34.133 12.8 46.933c12.8 8.533 42.667 8.533 64 8.533 25.6 0 42.667-4.267 59.733-17.067 12.8-12.8 29.867-21.333 29.867-42.667l106.667 38.4c-4.267 12.8-12.8 34.133-21.333 46.933-17.067 25.6-38.4 51.2-68.267 64-34.133 12.8-59.733 17.067-98.133 17.067-42.667 0-81.067-8.533-115.2-21.333s-42.667-21.333-59.733-46.933-34.133-55.467-34.133-85.333c0-59.733 8.533-115.2 85.333-149.333 21.333-12.8 68.267-29.867 106.667-38.4 42.667-12.8 55.467-12.8 72.533-21.333 21.333-8.533 25.6-25.6 25.6-46.933 0-17.067-12.8-29.867-25.6-38.4s-29.867-12.8-55.467-12.8c-34.133 0-59.733 8.533-76.8 21.333s-21.333 34.133-25.6 59.733l-132.267-34.133c4.267-21.333 12.8-42.667 25.6-59.733 17.067-25.6 46.933-51.2 85.333-64s81.067-25.6 123.733-25.6c64 0 106.667 25.6 145.067 51.2s55.467 68.267 55.467 115.2c0 55.467-17.067 110.933-76.8 145.067z" />
<glyph unicode="&#xe947;" d="M947.2 482.133c-25.6 12.8-51.2 17.067-106.667 34.133-38.4 12.8-68.267 12.8-85.333 21.333-17.067 12.8-17.067 17.067-17.067 34.133s0 34.133 12.8 46.933 42.667 8.533 64 8.533c25.6 0 42.667-4.267 59.733-17.067 12.8-12.8 29.867-21.333 29.867-42.667l106.667 38.4c-4.267 12.8-12.8 34.133-21.333 46.933-17.067 25.6-38.4 51.2-68.267 64-34.133 12.8-59.733 17.067-98.133 17.067-42.667 0-81.067-8.533-115.2-21.333s-42.667-21.333-59.733-46.933c-17.067-21.333-34.133-55.467-34.133-85.333 0-59.733 8.533-115.2 85.333-149.333 21.333-12.8 68.267-29.867 106.667-38.4 42.667-12.8 55.467-12.8 72.533-21.333 21.333-8.533 25.6-25.6 25.6-46.933 0-17.067-12.8-29.867-25.6-38.4s-29.867-12.8-55.467-12.8c-34.133 0-59.733 8.533-76.8 21.333s-21.333 34.133-25.6 59.733l-132.267-34.133c4.267-21.333 12.8-42.667 25.6-59.733 17.067-25.6 46.933-51.2 85.333-64 38.4-17.067 81.067-25.6 123.733-25.6 64 0 106.667 25.6 145.067 51.2s55.467 68.267 55.467 115.2c0 55.467-17.067 110.933-76.8 145.067z" />
<glyph unicode="&#xe948;" glyph-name="bot_ico_cmdb_ficha_convinarficha" d="M1024 789.333v-853.333h-682.667v85.333h42.667v-42.667h597.333v768h-213.333v42.667h256zM554.667 320l256 170.667-256 170.667v-85.333h-128v-170.667h128v-85.333zM298.667 704h85.333v85.333h-85.333v-85.333zM426.667 661.333c0 0 0 0 0 0v0 0zM298.667 618.667h55.467c8.533 12.8 17.067 21.333 29.867 29.867v12.8h-85.333v-42.667zM298.667 533.333h42.667v42.667h-42.667v-42.667zM298.667 448h42.667v42.667h-42.667v-42.667zM426.667 704h55.467c8.533 12.8 17.067 21.333 29.867 29.867v55.467h-85.333v-85.333zM170.667 362.667h85.333v42.667h-85.333v-42.667zM256 661.333h-85.333v-42.667h85.333v42.667zM256 576h-85.333v-42.667h85.333v42.667zM298.667 362.667h55.467c-8.533 12.8-12.8 25.6-12.8 42.667h-42.667v-42.667zM256 789.333h-85.333v-85.333h85.333v85.333zM256 490.667h-85.333v-42.667h85.333v42.667zM601.6 247.467c0 0-4.267 0-4.267-4.267v-55.467h-512v682.667h512v-140.8c0 0 4.267 0 4.267-4.267l81.067-55.467v281.6h-682.667v-853.333h682.667v196.267l-81.067-46.933z" />
<glyph unicode="&#xe949;" glyph-name="bot_ico_cmdb_ficha_incucai" d="M1024-64v1024h-1024v-1024h1024zM823.467 132.267h-149.333v311.467c0 38.4-21.333 68.267-68.267 93.867-17.067 8.533-34.133 12.8-46.933 12.8-46.933 0-89.6-17.067-123.733-55.467-29.867-29.867-51.2-68.267-64-115.2-8.533-25.6-12.8-51.2-12.8-72.533v0-179.2h-149.333v490.667h149.333v-128c34.133 51.2 68.267 85.333 102.4 106.667s76.8 29.867 123.733 29.867c64 0 119.467-17.067 166.4-55.467 46.933-34.133 72.533-76.8 72.533-123.733v0-315.733zM273.067 669.867c-12.8 0-21.333 4.267-29.867 8.533-4.267 4.267-8.533 8.533-12.8 8.533-17.067 12.8-25.6 25.6-25.6 34.133s8.533 21.333 21.333 29.867c17.067 12.8 29.867 21.333 46.933 21.333s34.133-8.533 46.933-21.333c12.8-8.533 21.333-21.333 21.333-29.867s-8.533-21.333-25.6-34.133c-17.067-8.533-29.867-17.067-42.667-17.067v0 0 0z" />
<glyph unicode="&#xe94a;" glyph-name="bot_ico_cmdb_indocumentado" d="M768 448c-140.8 0-256-115.2-256-256s115.2-256 256-256 256 115.2 256 256-115.2 256-256 256zM597.333 192c0 93.867 76.8 170.667 170.667 170.667 29.867 0 59.733-8.533 85.333-25.6l-230.4-230.4c-17.067 25.6-25.6 55.467-25.6 85.333zM768 21.333c-29.867 0-59.733 8.533-85.333 25.6l230.4 230.4c12.8-25.6 25.6-55.467 25.6-85.333 0-93.867-76.8-170.667-170.667-170.667zM473.6 21.333h-473.6v938.667h725.333v-430.933c-29.867-4.267-59.733-12.8-85.333-21.333v409.6h-554.667v-537.6c0 0 0-4.267 0 0 0 55.467 46.933 102.4 102.4 102.4 4.267 0 4.267 0 8.533 0 8.533 4.267 17.067 12.8 25.6 17.067 38.4-42.667 85.333-68.267 140.8-68.267s106.667 25.6 140.8 68.267c8.533-4.267 17.067-12.8 25.6-17.067 4.267 0 4.267 0 8.533 0 12.8 0 25.6-4.267 34.133-8.533-85.333-64-145.067-166.4-145.067-281.6 0-64 17.067-119.467 46.933-170.667zM362.667 832c85.333 0 149.333-64 149.333-145.067 0 0 0 0 0 0 0-115.2-68.267-204.8-149.333-204.8-85.333 0-149.333 93.867-149.333 204.8 0 0 0 0 0 0 0 81.067 64 145.067 149.333 145.067z" />
<glyph unicode="&#xe94b;" glyph-name="bot_ico_cmdb_nucleofamiliar" d="M883.2 136.533c0-72.533-59.733-136.533-136.533-136.533-4.267 0-4.267 0-8.533 0-55.467-42.667-136.533-68.267-226.133-68.267s-170.667 25.6-226.133 68.267c-4.267 0-4.267 0-8.533 0-76.8 0-136.533 59.733-136.533 136.533 0 72.533 59.733 136.533 136.533 136.533 4.267 0 4.267 0 8.533 0 12.8 8.533 21.333 17.067 34.133 21.333 46.933-55.467 115.2-89.6 192-89.6s140.8 34.133 192 89.6c12.8-8.533 25.6-12.8 34.133-21.333 4.267 0 4.267 0 8.533 0 76.8 0 136.533-59.733 136.533-136.533zM716.8 550.4c0 0 0 0 0 0v0c0 110.933-89.6 196.267-204.8 196.267-110.933 0-204.8-89.6-204.8-196.267v0c0 0 0 0 0 0v0 0c0-153.6 89.6-277.333 204.8-277.333 110.933 0 204.8 123.733 204.8 277.333v0 0zM921.6 614.4c-4.267 0-8.533 0-12.8 0-21.333 17.067-46.933 25.6-76.8 34.133 38.4 38.4 64 98.133 64 166.4 0 0 0 0 0 0 0 81.067-68.267 145.067-153.6 145.067-81.067 0-149.333-59.733-153.6-140.8 119.467-34.133 209.067-140.8 209.067-273.067 0-68.267-12.8-132.267-38.4-187.733 59.733 4.267 110.933 21.333 149.333 46.933 4.267 0 8.533 0 12.8 0 55.467 0 102.4 46.933 102.4 102.4 0 59.733-46.933 106.667-102.4 106.667zM115.2 409.6c38.4-25.6 89.6-42.667 149.333-46.933-25.6 55.467-38.4 119.467-38.4 187.733 0 128 89.6 238.933 209.067 273.067-4.267 76.8-68.267 140.8-153.6 140.8s-153.6-64-153.6-145.067c0 0 0 0 0 0 0-68.267 25.6-128 64-166.4-29.867-8.533-55.467-21.333-76.8-34.133-4.267 0-8.533 0-12.8 0-55.467 0-102.4-46.933-102.4-102.4s46.933-102.4 102.4-102.4c4.267-4.267 8.533-4.267 12.8-4.267z" />
<glyph unicode="&#xe94c;" glyph-name="bot_ico_cmdb_prestaciones" d="M746.667 136.533c0-72.533-59.733-136.533-136.533-136.533-4.267 0-4.267 0-8.533 0-55.467-42.667-136.533-68.267-226.133-68.267s-170.667 25.6-226.133 68.267c-4.267 0-4.267 0-8.533 0-76.8 0-136.533 59.733-136.533 136.533 0 72.533 59.733 136.533 136.533 136.533 4.267 0 4.267 0 8.533 0 12.8 8.533 21.333 17.067 34.133 21.333 46.933-55.467 115.2-89.6 192-89.6s140.8 34.133 192 89.6c12.8-8.533 25.6-12.8 34.133-21.333 4.267 0 4.267 0 8.533 0 72.533 0 136.533-59.733 136.533-136.533zM576 550.4c0 0 0 0 0 0v0c0 110.933-89.6 196.267-204.8 196.267-110.933 0-204.8-89.6-204.8-196.267v0c0 0 0 0 0 0v0 0c0-153.6 89.6-277.333 204.8-277.333s204.8 123.733 204.8 277.333v0 0zM768 960c-110.933 0-204.8-72.533-243.2-170.667 25.6-17.067 51.2-38.4 72.533-64v21.333h128v128h85.333v-128h128v-85.333h-128v-128h-85.333v128h-89.6c17.067-34.133 25.6-72.533 25.6-110.933 0-25.6-4.267-51.2-8.533-76.8 34.133-17.067 72.533-25.6 115.2-25.6 140.8 0 256 115.2 256 256s-115.2 256-256 256z" />
<glyph unicode="&#xe94d;" glyph-name="bot_ico_cmdb_sexofemenino" d="M797.867 396.8l-115.2 320c-4.267 17.067-21.333 29.867-38.4 29.867v0h-42.667c-25.6 0-42.667 17.067-42.667 42.667 0 4.267 0 8.533-4.267 8.533 25.6 12.8 46.933 42.667 46.933 76.8 0 46.933-38.4 85.333-85.333 85.333s-85.333-38.4-85.333-85.333c0-34.133 17.067-59.733 46.933-76.8 0-4.267-4.267-8.533-4.267-8.533 0-25.6-17.067-42.667-42.667-42.667h-42.667c-17.067 0-34.133-8.533-38.4-29.867l-115.2-320c-8.533-21.333 4.267-46.933 25.6-55.467s46.933 4.267 55.467 25.6l76.8 209.067v-4.267l-85.333-341.333h85.333v-256c0-25.6 17.067-42.667 42.667-42.667v0c25.6 0 42.667 17.067 42.667 42.667v256h85.333v-256c0-25.6 17.067-42.667 42.667-42.667v0c25.6 0 42.667 17.067 42.667 42.667v256h85.333l-85.333 341.333v4.267l76.8-209.067c8.533-21.333 34.133-34.133 55.467-25.6s21.333 34.133 17.067 55.467z" />
<glyph unicode="&#xe94e;" glyph-name="bot_ico_cmdb_sexomasculino" d="M797.867 396.8l-115.2 320c-4.267 17.067-21.333 29.867-38.4 29.867v0h-42.667c-25.6 0-42.667 17.067-42.667 42.667 0 4.267 0 8.533-4.267 8.533 25.6 12.8 46.933 42.667 46.933 76.8 0 46.933-38.4 85.333-85.333 85.333s-85.333-38.4-85.333-85.333c0-34.133 17.067-59.733 46.933-76.8 0-4.267-4.267-8.533-4.267-8.533 0-25.6-17.067-42.667-42.667-42.667h-42.667c-17.067 0-34.133-8.533-38.4-29.867l-115.2-320c-8.533-21.333 4.267-46.933 25.6-55.467s46.933 4.267 55.467 25.6l76.8 209.067v-597.333c0-25.6 17.067-42.667 42.667-42.667v0c25.6 0 42.667 17.067 42.667 42.667v298.667c0 25.6 17.067 42.667 42.667 42.667v0c25.6 0 42.667-17.067 42.667-42.667v-298.667c0-25.6 17.067-42.667 42.667-42.667v0c25.6 0 42.667 17.067 42.667 42.667v601.6l76.8-209.067c8.533-21.333 34.133-34.133 55.467-25.6s21.333 29.867 17.067 51.2z" />
<glyph unicode="&#xe94f;" glyph-name="bot_ico_comunidadsisa_chatagregar" d="M810.667 362.667c-119.467 0-213.333-93.867-213.333-213.333s93.867-213.333 213.333-213.333c119.467 0 213.333 93.867 213.333 213.333s-93.867 213.333-213.333 213.333zM938.667 106.667h-85.333v-85.333h-85.333v85.333h-85.333v85.333h85.333v85.333h85.333v-85.333h85.333v-85.333zM819.2 652.8c0-170.667-183.467-307.2-409.6-307.2-17.067 0-34.133 0-46.933 4.267-17.067-76.8-123.733-115.2-247.467-115.2 0 0 89.6 21.333 89.6 153.6-123.733 51.2-204.8 153.6-204.8 264.533 0 170.667 183.467 307.2 409.6 307.2s409.6-136.533 409.6-307.2z" />
<glyph unicode="&#xe950;" glyph-name="bot_ico_comunidadsisa_chatdeshabilitado" d="M512 874.667c230.4 0 426.667-136.533 426.667-298.667s-196.267-298.667-426.667-298.667c-17.067 0-29.867 0-51.2 4.267-4.267 0-4.267 0-8.533 0-38.4 0-76.8-29.867-85.333-68.267-4.267-12.8-12.8-25.6-34.133-38.4 4.267 21.333 4.267 42.667 8.533 68.267 0 34.133-21.333 64-51.2 76.8-128 55.467-204.8 153.6-204.8 256 0 162.133 196.267 298.667 426.667 298.667zM512 960c-281.6 0-512-170.667-512-384 0-140.8 102.4-264.533 256-332.8-4.267-166.4-115.2-196.267-115.2-196.267 157.867 0 290.133 46.933 311.467 145.067 21.333 0 38.4-4.267 59.733-4.267 281.6 0 512 170.667 512 384s-230.4 388.267-512 388.267v0z" />
</font>
</defs>
</svg>
