<?xml version="1.0" encoding="utf-8"?>
<!-- Generator: Adobe Illustrator 16.0.0, SVG Export Plug-In . SVG Version: 6.00 Build 0)  -->
<!DOCTYPE svg PUBLIC "-//W3C//DTD SVG 1.1//EN" "http://www.w3.org/Graphics/SVG/1.1/DTD/svg11.dtd">
<svg version="1.1" id="Capa_1" xmlns="http://www.w3.org/2000/svg" xmlns:xlink="http://www.w3.org/1999/xlink" x="0px" y="0px"
	 width="48px" height="48px" viewBox="0 0 48 48" style="enable-background:new 0 0 48 48;" xml:space="preserve">
<style type="text/css">
<![CDATA[
	.st0{fill:#FF9900;}
	.st1{fill:#000055;}
	.st2{fill-rule:evenodd;clip-rule:evenodd;fill:#FFFFFF;}
]]>
</style>
<g id="Autoridades_y_referentes_4_">
	<path id="Usuario_15_" class="st2" d="M40.5,39c0,3.3-2.7,6-6,6c-0.1,0-0.3,0-0.4,0c-2.5,1.9-6.1,3-10.1,3c-4,0-7.6-1.2-10.1-3
		c-0.1,0-0.3,0-0.4,0c-3.3,0-6-2.7-6-6s2.7-6,6-6c0.1,0,0.3,0,0.4,0c0.5-0.4,1-0.7,1.6-1c2.2,2.5,5.2,4,8.5,4c3.3,0,6.3-1.5,8.5-4
		c0.6,0.3,1.1,0.6,1.6,1c0.1,0,0.3,0,0.4,0C37.8,33,40.5,35.7,40.5,39z M33,20.7C33,20.7,33,20.7,33,20.7L33,20.7c0-4.8-4-8.7-9-8.7
		c-5,0-9,3.9-9,8.7l0,0c0,0,0,0,0,0l0,0l0,0c0,6.8,4,12.3,9,12.3C29,33,33,27.5,33,20.7L33,20.7L33,20.7z"/>
	<g>
		<path class="st1" d="M5.3,33.3c1.7-2.4,4.3-4,7.4-4.3c0,0,0,0,0,0c-1.1-2.4-1.7-5.2-1.7-8.3c0-1,0.1-1.9,0.3-2.9
			c-2.1-0.3-3.9-1.3-5.3-2.9c-0.4,0.2-0.8,0.5-1.2,0.8c-0.1,0-0.2,0-0.3,0c-2.5,0-4.5,2-4.5,4.5c0,0.3,0,0.5,0.1,0.8H0
			C0,26.1,2.1,30.6,5.3,33.3z"/>
		<path class="st0" d="M35.9,15.7c3.6-0.2,6.5-4.2,6.5-9.1c0-3.6-3-6.5-6.7-6.5c-3.7,0-6.7,2.9-6.7,6.5c0,0.9,0.1,1.7,0.3,2.5
			C32.2,10.4,34.6,12.7,35.9,15.7z"/>
		<path class="st1" d="M12.1,15.7c1.3-3,3.8-5.4,6.8-6.7c0.2-0.8,0.3-1.6,0.3-2.5c0-3.6-3-6.5-6.7-6.5C8.7,0,5.7,2.9,5.7,6.5
			C5.7,11.5,8.5,15.5,12.1,15.7z"/>
		<path class="st0" d="M48,20.2c0-2.5-2-4.5-4.5-4.5c-0.1,0-0.2,0-0.3,0c-0.4-0.3-0.8-0.5-1.2-0.8c-1.4,1.6-3.3,2.6-5.4,2.9
			c0.2,0.9,0.3,1.9,0.3,2.9c0,3-0.6,5.8-1.7,8.3c0,0,0,0,0,0c3.1,0.2,5.7,1.9,7.4,4.3C45.9,30.6,48,26.1,48,21h-0.1
			C48,20.7,48,20.5,48,20.2z"/>
	</g>
</g>
</svg>
