<?xml version="1.0" encoding="utf-8"?>
<!-- Generator: Adobe Illustrator 16.0.0, SVG Export Plug-In . SVG Version: 6.00 Build 0)  -->
<!DOCTYPE svg PUBLIC "-//W3C//DTD SVG 1.1//EN" "http://www.w3.org/Graphics/SVG/1.1/DTD/svg11.dtd">
<svg version="1.1" id="Capa_1" xmlns="http://www.w3.org/2000/svg" xmlns:xlink="http://www.w3.org/1999/xlink" x="0px" y="0px"
	 width="48px" height="48px" viewBox="0 0 48 48" style="enable-background:new 0 0 48 48;" xml:space="preserve">
<style type="text/css">
<![CDATA[
	.st0{fill-rule:evenodd;clip-rule:evenodd;fill:#FF9900;}
	.st1{fill-rule:evenodd;clip-rule:evenodd;fill:#FFFFFF;}
	.st2{fill-rule:evenodd;clip-rule:evenodd;fill:#000055;}
]]>
</style>
<g id="Codificaciones_y_estandares">
	<g id="Capa_1_1_">
		<circle class="st1" cx="4" cy="24" r="4"/>
		<circle class="st1" cx="22" cy="10" r="3"/>
		<circle class="st1" cx="22" cy="19" r="3"/>
		<circle class="st1" cx="22" cy="38" r="3"/>
		<path class="st1" d="M13,38c0,0.6-0.4,1-1,1l0,0c-0.6,0-1-0.4-1-1V10c0-0.6,0.4-1,1-1l0,0c0.6,0,1,0.4,1,1V38z"/>
		<path class="st1" d="M22,9c0.6,0,1,0.4,1,1l0,0c0,0.6-0.4,1-1,1H12c-0.6,0-1-0.4-1-1l0,0c0-0.6,0.4-1,1-1H22z"/>
		<path class="st1" d="M22,18c0.6,0,1,0.4,1,1l0,0c0,0.6-0.4,1-1,1H12c-0.6,0-1-0.4-1-1l0,0c0-0.6,0.4-1,1-1H22z"/>
		<path class="st1" d="M12,23c0.6,0,1,0.4,1,1l0,0c0,0.6-0.4,1-1,1H3c-0.6,0-1-0.4-1-1l0,0c0-0.6,0.4-1,1-1H12z"/>
		<circle class="st2" cx="45" cy="24" r="3"/>
		<circle class="st0" cx="29" cy="29" r="3"/>
		<circle class="st2" cx="45" cy="34" r="3"/>
		<path class="st2" d="M38,34c0,0.6-0.4,1-1,1l0,0c-0.6,0-1-0.4-1-1V24c0-0.6,0.4-1,1-1l0,0c0.6,0,1,0.4,1,1V34z"/>
		<path class="st2" d="M45,23c0.6,0,1,0.4,1,1l0,0c0,0.6-0.4,1-1,1h-8c-0.6,0-1-0.4-1-1l0,0c0-0.6,0.4-1,1-1H45z"/>
		<path class="st2" d="M45,33c0.6,0,1,0.4,1,1l0,0c0,0.6-0.4,1-1,1h-8c-0.6,0-1-0.4-1-1l0,0c0-0.6,0.4-1,1-1H45z"/>
		<path class="st1" d="M22,37c0.6,0,1,0.4,1,1l0,0c0,0.6-0.4,1-1,1H12c-0.6,0-1-0.4-1-1l0,0c0-0.6,0.4-1,1-1H22z"/>
		<g>
			<path class="st1" d="M25,29c0-0.3,0.1-0.7,0.1-1H12c-0.6,0-1,0.4-1,1s0.4,1,1,1h13.1C25.1,29.7,25,29.3,25,29z"/>
		</g>
		<g>
			<path class="st2" d="M37,28h-4.1c0.1,0.3,0.1,0.7,0.1,1s-0.1,0.7-0.1,1H37c0.6,0,1-0.4,1-1S37.6,28,37,28z"/>
		</g>
	</g>
</g>
</svg>
