<?xml version="1.0" encoding="utf-8"?>
<!-- Generator: Adobe Illustrator 16.0.0, SVG Export Plug-In . SVG Version: 6.00 Build 0)  -->
<!DOCTYPE svg PUBLIC "-//W3C//DTD SVG 1.1//EN" "http://www.w3.org/Graphics/SVG/1.1/DTD/svg11.dtd">
<svg version="1.1" id="Capa_1" xmlns="http://www.w3.org/2000/svg" xmlns:xlink="http://www.w3.org/1999/xlink" x="0px" y="0px"
	 width="48px" height="48px" viewBox="0 0 48 48" enable-background="new 0 0 48 48" xml:space="preserve">
<g id="SISAbi_2_">
	<path fill-rule="evenodd" clip-rule="evenodd" fill="#FFFFFF" d="M44.5,41H33.937C34.604,42.018,35,43.222,35,44.5
		s-0.396,2.482-1.063,3.5c2.903,0,6.375,0,10.563,0c1.875,0,3.5-1.625,3.5-3.5S46.375,41,44.5,41z"/>
	<path fill-rule="evenodd" clip-rule="evenodd" fill="#000055" d="M28.5,41h-25C1.625,41,0,42.625,0,44.5S1.625,48,3.5,48
		c0,0,0,0,25,0c1.875,0,3.5-1.625,3.5-3.5S30.375,41,28.5,41z M28.5,47c-1.375,0-2.5-1.125-2.5-2.5s1.125-2.5,2.5-2.5
		s2.5,1.125,2.5,2.5S29.875,47,28.5,47z"/>
	<polygon fill="#FF9900" points="45,3 35,5 37.586,7.586 34.206,10.966 30.752,23.918 26.314,21.256 20.091,31.628 9.21,28.279 
		2,18.667 2,25.333 6.79,31.721 21.909,36.372 27.686,26.744 33.248,30.082 37.794,13.034 40.414,10.414 43,13 	"/>
	<path fill="#FFFFFF" d="M44,0H4C1.791,0,0,1.791,0,4v31c0,2.209,1.791,4,4,4h40c2.209,0,4-1.791,4-4V4C48,1.791,46.209,0,44,0z
		 M46,33.41c0,1.982-1.642,3.59-3.667,3.59H5.667C3.642,37,2,35.393,2,33.41V5.59C2,3.607,3.642,2,5.667,2h36.666
		C44.358,2,46,3.607,46,5.59V33.41z"/>
	<g>
		<polygon fill="#000055" points="44.89,3.022 44.876,3.011 44.857,3.028 		"/>
		<path fill="#000055" d="M5.667,37h36.666C44.358,37,46,35.393,46,33.41V5.59c0-0.963-0.393-1.833-1.022-2.478L43,13l-2.586-2.586
			l-2.62,2.62l-4.546,17.048l-5.563-3.338l-5.776,9.628L6.79,31.721L2,25.333v8.077C2,35.393,3.642,37,5.667,37z"/>
		<path fill="#000055" d="M46.62,38H47v-0.38C46.882,37.756,46.756,37.881,46.62,38z"/>
		<path fill="#000055" d="M1,37.62V38h0.38C1.244,37.881,1.118,37.756,1,37.62z"/>
	</g>
</g>
</svg>
