<?xml version="1.0" encoding="utf-8"?>
<!-- Generator: Adobe Illustrator 16.0.0, SVG Export Plug-In . SVG Version: 6.00 Build 0)  -->
<!DOCTYPE svg PUBLIC "-//W3C//DTD SVG 1.1//EN" "http://www.w3.org/Graphics/SVG/1.1/DTD/svg11.dtd">
<svg version="1.1" id="Capa_1" xmlns="http://www.w3.org/2000/svg" xmlns:xlink="http://www.w3.org/1999/xlink" x="0px" y="0px"
	 width="48px" height="48px" viewBox="0 0 48 48" style="enable-background:new 0 0 48 48;" xml:space="preserve">
<style type="text/css">
<![CDATA[
	.st0{fill:#FF9900;}
	.st1{fill:#FFFFFF;}
	.st2{fill:#000055;}
]]>
</style>
<g id="Verificador_constancias">
	<g>
		<polygon class="st1" points="5.3,38.1 0,43.2 2.8,46 8.1,40.9 8.1,39.5 6.7,38.1 		"/>
		<polygon class="st1" points="8.8,36 8.1,36 7.4,36.7 7.4,37.4 6.7,38.1 8.1,39.5 8.8,38.8 9.5,38.8 10.2,38.1 10.2,37.4 10.6,37 
			9.2,35.6 		"/>
		<path class="st1" d="M35.7,10.5c-7-7-18.4-7-25.5,0c-7,7-7,18.4,0,25.5c7,7,18.4,7,25.5,0C42.8,29,42.8,17.6,35.7,10.5z
			 M34.3,34.6c-6.2,6.2-16.3,6.2-22.6,0c-6.2-6.2-6.2-16.3,0-22.6c6.2-6.2,16.3-6.2,22.6,0C40.6,18.1,40.6,28.4,34.3,34.6z"/>
	</g>
	<g>
		<path class="st0" d="M10,18.2v10.1c0.4,1,0.9,2,1.5,2.9H14v-16h-2.4C11,16.2,10.4,17.2,10,18.2z"/>
		<rect x="21.1" y="15.2" class="st0" width="2" height="16"/>
		<rect x="15" y="15.2" class="st0" width="5" height="16"/>
		<rect x="31" y="15.2" class="st0" width="3" height="16"/>
		<path class="st0" d="M36,18.1c-0.3-0.7-0.6-1.3-1-2v14.4c0.4-0.6,0.7-1.3,1-2V18.1z"/>
		<rect x="24" y="15.2" class="st0" width="4" height="16"/>
		<rect x="29" y="15.2" class="st0" width="1" height="16"/>
	</g>
	<path class="st2" d="M12,0v5.5c1-0.6,2-1.1,3-1.6V3h2.9c3.4-0.9,6.9-0.9,10.3,0H45v42H15v-2.3c-1-0.4-2-1-3-1.6V48h36V0H12z"/>
</g>
</svg>
