<?xml version="1.0" encoding="utf-8"?>
<!-- Generator: Adobe Illustrator 19.0.0, SVG Export Plug-In . SVG Version: 6.00 Build 0)  -->
<svg version="1.1" id="Capa_1" xmlns="http://www.w3.org/2000/svg" xmlns:xlink="http://www.w3.org/1999/xlink" x="0px" y="0px"
	 viewBox="-455 257 48 48" style="enable-background:new -455 257 48 48;" xml:space="preserve">
<style type="text/css">
	.st0{display:none;fill-rule:evenodd;clip-rule:evenodd;fill:#77C4EA;}
	.st1{display:none;fill-rule:evenodd;clip-rule:evenodd;fill:#FFFFFF;}
	.st2{fill-rule:evenodd;clip-rule:evenodd;fill:#000055;}
	.st3{fill-rule:evenodd;clip-rule:evenodd;fill:#FFFFFF;}
	.st4{fill:#FFFFFF;}
	.st5{fill:#FF9900;}
</style>
<g id="Agenda_sanitaria">
	<path class="st0" d="M-407,300c0,2.8-2.2,5-5,5h-34c-2.8,0-5-2.2-5-5v-38c0-2.8,2.2-5,5-5h34c2.8,0,5,2.2,5,5V300z"/>
	<rect x="-444" y="261" class="st1" width="32" height="40"/>
	<path class="st2" d="M-445,267c0,1.1-0.9,2-2,2h-6c-1.1,0-2-0.9-2-2l0,0c0-1.1,0.9-2,2-2h6C-445.9,265-445,265.9-445,267L-445,267z
		"/>
	<path class="st2" d="M-445,281c0,1.1-0.9,2-2,2h-6c-1.1,0-2-0.9-2-2l0,0c0-1.1,0.9-2,2-2h6C-445.9,279-445,279.9-445,281L-445,281z
		"/>
	<path class="st2" d="M-445,295c0,1.1-0.9,2-2,2h-6c-1.1,0-2-0.9-2-2l0,0c0-1.1,0.9-2,2-2h6C-445.9,293-445,293.9-445,295L-445,295z
		"/>
	<rect x="-453" y="285" class="st3" width="2" height="6"/>
	<rect x="-453" y="270.9" class="st3" width="2" height="6.2"/>
	<g>
		<path class="st4" d="M-447,291c-1,0-1.9,0.4-2.6,1h2.6c1.7,0,3,1.3,3,3c0,1.7-1.3,3-3,3h-2.6c0.7,0.6,1.6,1,2.6,1c2.2,0,4-1.8,4-4
			C-443,292.8-444.8,291-447,291z"/>
		<path class="st4" d="M-447,264c1.7,0,3,1.3,3,3s-1.3,3-3,3h-2.6c0.7,0.6,1.6,1,2.6,1c2.2,0,4-1.8,4-4s-1.8-4-4-4
			c-1,0-1.9,0.4-2.6,1H-447z"/>
		<path class="st4" d="M-447,277c-1,0-1.9,0.4-2.6,1h2.6c1.7,0,3,1.3,3,3c0,1.7-1.3,3-3,3h-2.6c0.7,0.6,1.6,1,2.6,1c2.2,0,4-1.8,4-4
			C-443,278.8-444.8,277-447,277z"/>
	</g>
	<polygon class="st5" points="-411.2,269.8 -407,274 -424,291 -430.2,293.2 -428.2,286.8 	"/>
	<g>
		<path class="st3" d="M-451,259h34v13.7l2-2V263h2v5.7l0.3-0.3c0.4-0.4,0.9-0.6,1.4-0.6c0.1,0,0.2,0,0.2,0V261c0-2.2-1.8-4-4-4h-34
			c-2.2,0-4,1.8-4,4v2h2V259z"/>
		<path class="st3" d="M-413,282.9V299h-2v-14.1l-2,2V303h-34v-4.1h-2v2.1c0,2.2,1.8,4,4,4h34c2.2,0,4-1.8,4-4v-20.1L-413,282.9z"/>
	</g>
</g>
</svg>
