<?xml version="1.0" encoding="utf-8"?>
<!-- Generator: Adobe Illustrator 16.0.0, SVG Export Plug-In . SVG Version: 6.00 Build 0)  -->
<!DOCTYPE svg PUBLIC "-//W3C//DTD SVG 1.1//EN" "http://www.w3.org/Graphics/SVG/1.1/DTD/svg11.dtd">
<svg version="1.1" id="Capa_1" xmlns="http://www.w3.org/2000/svg" xmlns:xlink="http://www.w3.org/1999/xlink" x="0px" y="0px"
	 width="48px" height="48px" viewBox="0 0 48 48" enable-background="new 0 0 48 48" xml:space="preserve">
<g id="Capacitacion">
	<g id="ayuda_en_linea_2_">
		<g id="SISA_blanco_2_" display="none">
			<path display="inline" fill="#FFFFFF" d="M28.1,23.9c0,0.2,0.101,0.4,0.101,0.7l0,0l0,0c0,0.601-0.101,1.101-0.3,1.601
				c0,0.1-0.101,0.2-0.101,0.3l0,0c-0.2,0.4-0.5,0.8-0.8,1.1l0,0l0,0l0,0c-0.1,0.101-0.2,0.2-0.4,0.301C26.5,28,26.3,28.1,26.2,28.2
				c-0.2,0.1-0.4,0.2-0.601,0.3v8.8H32.2V23.9H28.1z"/>
			<path display="inline" fill="#FFFFFF" d="M22.1,22.6c-0.3,0.3-0.5,0.6-0.6,0.9s-0.2,0.7-0.2,1c0,0.5,0.1,1,0.4,1.4
				c0.1,0.1,0.1,0.199,0.2,0.199c0.1,0.101,0.1,0.2,0.2,0.2l0,0l0,0l0,0c0.2,0.2,0.5,0.4,0.7,0.5c0,0,0.1,0,0.1,0.101
				c0.3,0.1,0.7,0.199,1,0.199l0,0l0,0c0.5,0,1-0.1,1.4-0.399c0.101-0.101,0.2-0.101,0.2-0.2c0.1-0.1,0.2-0.1,0.2-0.2l0,0l0,0l0,0
				c0.2-0.2,0.399-0.5,0.5-0.7l0,0c0,0,0-0.1,0.1-0.1c0.101-0.3,0.2-0.7,0.2-1l0,0l0,0c0-0.4-0.1-0.7-0.2-1
				c-0.1-0.3-0.3-0.6-0.6-0.9c-0.2-0.2-0.5-0.4-0.7-0.5c0,0-0.1,0-0.2-0.1c-0.3-0.1-0.6-0.2-1-0.2l0,0l0,0c-0.5,0-1,0.1-1.4,0.4
				c-0.1,0-0.2,0.1-0.2,0.2C22.3,22.5,22.2,22.6,22.1,22.6L22.1,22.6L22.1,22.6L22.1,22.6z"/>
			<path display="inline" fill="#FFFFFF" d="M22.1,28.4c-0.4-0.2-0.8-0.5-1.1-0.801l0,0l0,0l0,0c-0.1-0.1-0.2-0.199-0.3-0.399
				c-0.1-0.101-0.2-0.3-0.3-0.4c-0.4-0.7-0.6-1.399-0.6-2.3c0-0.2,0.1-0.4,0.1-0.7h-4.2v13.4h6.6v-8.7
				C22.3,28.5,22.2,28.4,22.1,28.4z"/>
		</g>
		<path fill="#8080FF" d="M32.9,17v0.7H15.1V17c0-2.5,1.9-4.6,4.3-4.7c0.1-0.1,0.3-0.3,0.5-0.4C21,13.2,22.4,14,24,14
			c1.6,0,3-0.8,4.1-2.1c0.2,0.1,0.301,0.2,0.5,0.4C31,12.4,32.9,14.5,32.9,17z M24,0c-3,0-5.3,2.8-5.3,6.2c0,0,0,0,0,0.1l0,0
			c0,3.5,2.4,6.4,5.3,6.4c2.9,0,5.3-2.8,5.3-6.4V6.2C29.3,2.8,26.9,0,24,0z"/>
		<g display="none">
			<path display="inline" fill="#FFFFFF" d="M25.3,33.5h-2.7c0-0.4,0-0.6,0-0.7c0-0.899,0.1-1.6,0.4-2.2
				c0.3-0.6,0.9-1.199,1.7-1.899c0.899-0.7,1.399-1.2,1.6-1.4c0.3-0.3,0.4-0.7,0.4-1.1c0-0.601-0.2-1.101-0.7-1.5
				c-0.5-0.4-1.1-0.6-1.9-0.6s-1.4,0.2-1.9,0.6c-0.5,0.399-0.9,1.1-1,2l-2.7-0.3c0.1-1.301,0.6-2.3,1.6-3.2c1-0.9,2.3-1.3,3.9-1.3
				c1.7,0,3.1,0.4,4.1,1.3c1,0.9,1.5,1.899,1.5,3.1c0,0.7-0.199,1.3-0.6,1.9c-0.4,0.6-1.2,1.399-2.4,2.399
				c-0.6,0.5-1,0.9-1.199,1.301C25.3,32.1,25.2,32.7,25.3,33.5z M22.6,37.5v-3h3v3H22.6z"/>
		</g>
		<path fill="#FFFFFF" d="M38.9,20H9.1L7,22.1V29v6.9v1.8L9.1,40H20v3H10v1.6l2.9,3.4h22.2l2.9-3.4V43H28v-3h10.9l2.1-2.3v-1.8V29
			v-6.9L38.9,20z M25,37h-2v-2h2V37z M28.5,27.7c-0.3,0.5-1,1.2-2.1,2.2C25.8,30.4,25.5,31,25.3,31.3c-0.1,0.3-0.2,0.8-0.2,1.8H22.7
			c0-1,0-0.8,0-0.899c0-0.8,0.1-1.601,0.4-2.101c0.3-0.5,0.8-1.1,1.6-1.8c0.8-0.6,1.2-1.1,1.399-1.3c0.2-0.3,0.4-0.7,0.4-1
			c0-0.5-0.2-1-0.6-1.3c-0.4-0.4-1-0.6-1.7-0.6s-1.2,0.2-1.7,0.6c-0.5,0.399-0.8,1-0.9,1.8L19,26.1c0.1-1.1,0.6-2.1,1.5-2.899
			c0.9-0.8,2.1-1.2,3.5-1.2c1.5,0,2.8,0.4,3.7,1.2C28.6,24,29,25,29,26C29,26.6,28.8,27.2,28.5,27.7z"/>
	</g>
</g>
</svg>
