<?xml version="1.0" encoding="utf-8"?>
<!-- Generator: Adobe Illustrator 19.2.1, SVG Export Plug-In . SVG Version: 6.00 Build 0)  -->
<svg version="1.1" id="Layer_1" xmlns="http://www.w3.org/2000/svg" xmlns:xlink="http://www.w3.org/1999/xlink" x="0px" y="0px"
	 viewBox="0 0 48 48" style="enable-background:new 0 0 48 48;" xml:space="preserve">
<style type="text/css">
	.st0{fill-rule:evenodd;clip-rule:evenodd;fill:#FFFFFF;}
	.st1{fill:#000055;}
	.st2{fill:#FF9900;}
</style>
<g id="Soporte">
	<g>
		<path id="Usuario_12_" class="st0" d="M40.5,39c0,3.3-2.7,6-6,6c-0.1,0-0.3,0-0.4,0c-2.5,1.9-6.1,3-10.1,3c-4,0-7.6-1.2-10.1-3
			c-0.1,0-0.3,0-0.4,0c-3.3,0-6-2.7-6-6s2.7-6,6-6c0.1,0,0.3,0,0.4,0c0.5-0.4,1-0.7,1.6-1c2.2,2.4,5.2,4,8.5,4c3.3,0,6.3-1.5,8.5-4
			c0.6,0.3,1.1,0.6,1.6,1c0.1,0,0.3,0,0.4,0C37.8,33,40.5,35.7,40.5,39z"/>
		<g>
			<path class="st0" d="M28,27c0-0.5-0.5-1-1-1h-6c-0.5,0-1,0.5-1,1v2c0,0.5,0.5,1,1,1h6c0.5,0,1-0.5,1-1h2h0.6
				c0.4-0.6,0.8-1.3,1.1-2H28z"/>
			<path class="st0" d="M28.7,30c-0.3,0.6-1,1-1.7,1h-6c-1.1,0-2-0.9-2-2v-2c0-1.1,0.9-2,2-2h6c0.7,0,1.4,0.4,1.7,1h3.4
				c0.6-1.6,0.9-3.4,0.9-5.2c0,0,0,0,0,0c0-4.8-4-8.7-9-8.7s-9,3.9-9,8.7c0,0,0,0,0,0c0,6.8,4,12.2,9,12.2c2.3,0,4.3-1.1,5.9-3H28.7
				z"/>
		</g>
		<g>
			<path class="st1" d="M24,0C12.4,0,3,9.4,3,21c0,4.8,1.7,9.3,4.4,12.8c1.4-1.7,3.6-2.8,5.9-2.8c0.4-0.2,0.8-0.5,1.2-0.7
				c0.3-0.2,0.6-0.2,1-0.2c0.1,0,0.1,0,0.2,0c-0.8-1.2-1.4-2.6-1.9-4.1c-0.1,0-0.2,0.1-0.2,0.1H9.4c-0.5,0-0.9-0.3-1-0.8
				c-0.3-1.5-0.4-3-0.4-4.4c0-1,0.1-1.9,0.3-2.9c0.1-0.5,0.5-0.8,1-0.8h2.3c1.7-5.3,6.7-9,12.4-9c5.7,0,10.7,3.7,12.4,9h2.3
				c0.5,0,0.9,0.3,1,0.8c0.2,1,0.3,2,0.3,2.9c0,1.4-0.1,2.9-0.4,4.4c-0.1,0.5-0.5,0.8-1,0.8h-1.2l-3.7,3.7C33.5,29.9,33.3,30,33,30
				h-0.6c0,0,0,0,0,0c0.1,0,0.1,0,0.2,0c0.3,0,0.7,0.1,1,0.2c0.5,0.2,0.9,0.5,1.2,0.7c2.4,0.1,4.5,1.1,5.9,2.8
				c2.8-3.6,4.4-8,4.4-12.8C45,9.4,35.6,0,24,0z"/>
		</g>
		<path class="st2" d="M39,20.8c0-0.9-0.1-1.9-0.3-2.8h-3.1c-1.3-5.2-6-9-11.7-9c-5.6,0-10.4,3.8-11.7,9H9.3C9.1,18.9,9,19.8,9,20.7
			c0,1.5,0.2,2.9,0.4,4.3h4.1c-0.3-1.3-0.5-2.8-0.5-4.3C13,14.8,17.9,10,24,10s11,4.8,11,10.8c0,1.5-0.2,2.9-0.5,4.2H35l-2,2h-5
			c0-0.5-0.5-1-1-1h-6c-0.5,0-1,0.5-1,1v2c0,0.5,0.5,1,1,1h6c0.5,0,1-0.5,1-1h2h3l4-4h1.6C38.8,23.6,39,22.2,39,20.8z"/>
	</g>
</g>
</svg>
