<?xml version="1.0" encoding="utf-8"?>
<!-- Generator: Adobe Illustrator 16.0.0, SVG Export Plug-In . SVG Version: 6.00 Build 0)  -->
<!DOCTYPE svg PUBLIC "-//W3C//DTD SVG 1.1//EN" "http://www.w3.org/Graphics/SVG/1.1/DTD/svg11.dtd">
<svg version="1.1" id="Capa_1" xmlns="http://www.w3.org/2000/svg" xmlns:xlink="http://www.w3.org/1999/xlink" x="0px" y="0px"
	 width="48px" height="48px" viewBox="0 0 48 48" style="enable-background:new 0 0 48 48;" xml:space="preserve">
<style type="text/css">
<![CDATA[
	.st0{clip-path:url(#SVGID_4_);}
	.st1{clip-path:url(#SVGID_6_);}
	.st2{fill-rule:evenodd;clip-rule:evenodd;fill:#8F8F8F;fill-opacity:0.498;}
	.st3{fill-rule:evenodd;clip-rule:evenodd;fill:#8F8F8F;fill-opacity:0.502;}
	.st4{fill:#FFFFFF;}
	.st5{display:inline;}
	.st6{clip-path:url(#SVGID_2_);fill:#FFFFFF;}
	.st7{fill-rule:evenodd;clip-rule:evenodd;fill:#FFFFFF;}
	.st8{display:none;}
]]>
</style>
<g id="Argentina_en_linea_-_v5_1_">
	<g id="Selected_Items_8_" class="st8">
		<g class="st5">
			<polygon class="st2" points="20.1,35.7 20.2,35.7 20.3,35.8 20.4,35.9 20.4,36 20.4,36.4 20.4,36.5 20.3,36.5 20.3,36.6 
				20.2,36.7 20.3,36.8 20.3,36.9 20.4,36.9 20.3,37 20.2,37 20.2,37 20.3,37 20.3,37.1 20.2,37.2 20.1,37.2 19.8,37.5 19.7,37.6 
				19.6,37.6 19.4,37.8 19.3,37.9 19.2,38 19.1,38.2 18.8,38.5 18.8,38.6 18.7,38.8 18.7,38.9 18.7,38.9 18.7,38.9 18.8,38.9 
				18.7,39.4 18.7,39.5 18.7,39.7 18.6,39.8 18.5,39.9 18.3,40 18.2,40.1 18.1,40 18.1,40 18.2,40.1 18.1,40.2 18,40.2 17.8,40.4 
				17.7,40.5 17.6,40.7 17.5,40.8 17.5,41.2 17.5,41.3 17.3,41.4 17.3,41.4 17.5,41.3 17.5,41.3 17.7,41.7 17.7,41.9 17.8,42.1 
				17.7,42.2 17.5,42.2 17.5,42.2 17.6,42.3 17.7,42.2 17.8,42.3 17.8,42.3 18,42.6 18.3,43.1 18.3,43.2 18.2,43.1 18,43.1 17.8,43 
				17.6,42.9 17.4,42.9 17.3,42.9 17.1,42.8 16.9,42.8 15.4,42.9 15.3,42.9 15.2,42.7 15.2,42.6 14.9,42.5 14.8,42.3 14.9,41.9 
				14.8,41.8 14.8,41.8 14.8,41.7 14.8,41.5 14.9,41.4 14.8,41.3 14.8,41.2 14.7,41.2 14.8,41.1 14.7,41 14.6,41 14.6,41 14.5,41.1 
				14.5,41.1 14.4,41.1 14.4,41 14.3,41.1 14.1,41.3 14.1,41.3 14,41.3 14,41.2 13.9,41.1 13.8,40.7 13.8,40.6 13.6,40.5 13.6,40.4 
				13.6,40.3 13.6,40.1 13.6,40 13.6,40 13.6,39.9 13.5,39.8 13.5,39.7 13.5,39.5 13.5,39.4 13.6,39.3 13.8,39.2 13.9,39.2 
				13.8,39.1 13.8,39 13.9,38.8 14,38.8 14.1,38.7 14.2,38.6 14.2,38.5 14.2,38.4 14.2,38.2 14.2,38.1 14.2,38.1 14.3,38 14.4,37.9 
				14.4,37.8 14.4,37.6 14.3,37.5 14.2,37.4 14.2,37.3 14.2,37.2 14.2,37.1 14.3,36.8 14.3,36.6 14.3,36.5 14.4,36.5 14.5,36.5 
				14.6,36.3 14.6,36.3 14.7,36.3 14.7,36.2 14.7,36.1 14.6,36.1 14.6,36 14.6,35.7 14.7,35.6 14.8,35.4 14.8,35.3 14.7,35.1 
				14.7,34.9 14.6,34.8 14.6,34.7 14.7,34.7 14.7,34.5 14.8,34.5 18.6,34.2 18.6,34.6 18.7,34.8 18.8,35 19.4,35.7 19.5,35.7 			"/>
		</g>
		<g class="st5">
			<path class="st2" d="M18.3,44.3l0,0.1l0.1,0.1l0.1,0l0.1,0l0.1,0l0.1,0.2l0.1,0.1l0.6,0.7l0.1,0.1l0.1,0.1l0.4,0.2l0.2,0.2
				l0.5,0.3l0.2,0.1l0.3-0.1l0.1,0l0,0l0,0.2l-0.1,0.2l0,0l-0.1,0l-0.1,0.1l-0.1,0l-0.1,0l0-0.1l-0.1,0l-0.1,0l-0.1,0l0,0.1l-0.1,0
				l-0.1,0l-0.1,0l-0.1,0.1l-0.1,0l0,0l-0.4-0.2l-0.2,0l-1,0l0,0l-0.1,0l0,0l0-0.4l0.4,0l0.6-0.1l0,0l-0.1,0l-0.4,0l-0.2,0h-0.1
				l-0.1,0h-0.1l-0.1-2.6l0.3,0.4l0.1,0.1l0,0l0-0.1l-0.1,0L18.3,44.3z M26.1,41.6L26.1,41.6L26.1,41.6L26.1,41.6L26.1,41.6
				L26.1,41.6L26.1,41.6L26.1,41.6L26.1,41.6L26.1,41.6L26.1,41.6L26.1,41.6L26,41.6v0l0,0l0,0l0,0h0l0,0l-0.1,0h0l0,0v0h0v0h0v0h0
				v0h0v0l0,0h0v0l0,0l0,0h0l0,0l0,0h0v0l0,0v0l0,0v0l0,0h0L26.1,41.6L26.1,41.6L26.1,41.6L26.1,41.6L26.1,41.6L26.1,41.6L26.1,41.6
				L26.1,41.6L26.1,41.6L26.1,41.6L26.1,41.6L26.1,41.6L26.1,41.6L26.1,41.6z M26.2,41.6L26.2,41.6L26.2,41.6L26.2,41.6L26.2,41.6
				L26.2,41.6L26.2,41.6L26.2,41.6L26.2,41.6L26.2,41.6L26.2,41.6l0.1,0.1l0,0h0l0,0l0,0v0h0v0l0,0h0l0,0l0,0l0,0h0v0h0v0l0,0v0h0
				l0,0l0,0v0l0,0l0,0v0l0,0h0v0l0,0l0,0v0l0,0v0l0,0v0h0l0,0v0l0,0h0l0,0v0h0l0,0h0l0,0l0,0h0v0l0,0h0l0,0h0v0l0,0v0l0,0l0,0l0,0
				l0,0l0,0V42h0l0,0v0l0,0h0v0l0,0v0l0,0v0l0,0l0,0v0h0v0l0,0l0,0h0l0,0l0,0h0v0l0,0l0,0v0l0,0l0,0v0h0l0,0v0l0,0v0h0l0,0v0h0v0
				l0,0l0,0l0,0v0l0,0v0h0v0l0,0h0l0,0l0,0l0,0l0,0l0,0l0,0v0l0,0l0,0.1h0l0,0v0l0,0v0h0v0l0,0h0l0,0l0,0v0h0l0,0l0,0h0l0,0v0l0,0
				l0,0h0l0,0h0v0l0,0v0l0,0v0l0,0h0l0,0h0v0h0l0,0h0l0,0v0l0,0h0l0,0l0,0h0l0,0v0h0v0l0,0l0,0v0l0,0v0l0,0h0v0h0v0h0v0l0,0l0,0v0
				l0,0v0l0,0v0l0,0v0l0,0v0l0,0v0l0,0h0l0,0h0l0,0v0l0,0v0h0v0h0v0h0l0,0h0v0h0v0l0,0v0h0l0,0l0,0v0h0l0,0v0l0,0h0l0,0h0l0,0l0,0v0
				l0,0h0v0h0v0h0l0,0h0v0h0v0l0,0l0,0v0l0,0v0l0,0v0h0l0,0v0l0,0h0v0h0l0,0h0v0h0l0,0v0h0v0h0l0,0h0v0l0,0h0v0h0l0,0v0h0l0,0h0l0,0
				h0l0,0v0h0v0h0l0,0v0l0,0h0l0,0h0v0h0l0,0v0l0,0h0v0h0l0,0l0,0v0h0v0l0,0v0h0v0h0v0h0v0h0v0l0,0v0h0v0h0l0,0h0v0h0l0,0v0l0,0h0v0
				l0,0h0l0,0l0,0l0,0h0l0,0v0H25l0,0l0,0v0h0v0l0,0v0l0,0h0v0l0,0h0l0,0h0l0,0l0,0v0l0,0h0l0,0v0l0,0v0l0,0v0h0v0h0v0h0v-0.1h0v0h0
				v0l0,0h0v0h0v0l0,0v0h0l0,0h0l0,0h0l0,0h0v0h0l0,0v0h0v0h0l0,0h0l0,0l0,0h0l0,0h0v0l0,0h0v-0.1h0l0,0v0h0v0l0,0h0v0l0,0l0,0h0v0
				l0,0v0h0v0l0,0v0h0v0h0v0H25v0h0l0,0v0h0v0h0l0,0v0h0v0h0v0h0v0l0,0v0H25v0h0v0h0v0l0,0l0,0v0l0,0v0h0v0l0,0v0l0,0l0,0v0l0,0v0h0
				v0h0v-0.1h0v0l0,0h0v0l0,0h0l0,0v0l0,0v0h0v0h0v0h0l0,0v0h0v0h0v0l0,0h0v0l0,0v0h0l0,0v0h0l0,0v0h0l0,0l0,0l0,0l0,0v0h0v0h0l0,0
				l0,0h-0.1l0,0l0,0h0v0h0v0h0l0,0h0v0h0l0,0h0l0,0l0,0v0l0,0h0v0h0l0,0v0l0,0h0l0,0h0l0,0v0h0v-0.1h0v0l0,0h0v0l0,0h0l0,0v0h0l0,0
				h0l0,0v0h0v0h0v0h0v0.1l0,0l0,0h0v0h0v0l0,0v0h0v0h0v-0.1h0v0h0v0h0l0,0v0l0,0v0l0,0h0v0l0,0v0h0l0,0h0v0h0l0,0v0h0l0,0v0l0,0
				l0,0v0l0,0v0l0,0h0v0h0l0,0l0,0l0,0h0l0,0h0l0,0l0,0l0,0v0h0l0,0h0l0,0v0h0v0h0l0,0h0l0,0v0l0,0v0h0v0h0v0h0v0l0,0v0h0v0l0,0
				v-0.1h0l0,0l0,0l0,0l0,0h0l0,0h0l0,0v0h0v0l0,0h0l0,0h0l0,0h0l0,0h0l0,0h0v0l0,0l0,0l0,0l0,0l0,0l0,0l0,0v0h0v0h0v0h0l0,0v0l0,0
				l0,0h0v0l0,0l0,0v0h0v0h0l0,0l0,0h0l0,0v0h0v0h0v0h0l0,0h0l0,0v0h0l0,0v0h0l0,0l0,0v0h0v0h0l0,0h0l0,0h0v0h0l0,0h0v0l0,0l0,0v0
				l0,0v0h0l0,0h0l0,0v0l0,0l0,0h0v0l0,0h0v0l0,0v0l0,0l0,0l0,0h0l0,0h0l0,0h0l0,0v0h0v0h0l0,0v0l0,0l0,0l0,0h0v0l0,0h0v0h0v0l0,0v0
				h0l0,0h0l0,0l0,0v0h0v0h0l0,0l0,0h0l0.1,0.1h0l0,0l0,0v0h0v0l0,0v0h0l0,0l0,0v0h0v0h0v0h0l0,0h0l0,0l0,0l0,0v0h0v0h0v0h0l0,0h0
				l0,0v0h0l0,0l0,0h0l0,0h0l0,0v0h0v0l0,0h0v0l0,0v0l0,0h0l0,0v0l0,0h0v0l0,0v0h0v0h0l0,0h0v0h0l0,0l0,0h0l0,0h0l0,0l0,0v0h0v0l0,0
				h0v0l0,0h0v0h0l0,0h0v0h0v0h0l0,0h0l0,0h0v0h0v0l0,0l0,0v0h0l0,0h0l0,0v0h0l0,0h0l0,0h0l0,0L26.2,41.6L26.2,41.6l-0.1,0.1l0,0v0
				h0v0l0,0h0l0,0h0v0h0v0h0l0,0h0v0h0l0,0h0v0h0v0l0,0h0v0h0v0h0l0,0h0v0l0,0h0l0,0h0v0h0v0h0v0h0L26.2,41.6L26.2,41.6L26.2,41.6
				L26.2,41.6L26.2,41.6L26.2,41.6L26.2,41.6L26.2,41.6L26.2,41.6L26.2,41.6L26.2,41.6L26.2,41.6z M26.4,41.8L26.4,41.8L26.4,41.8
				L26.4,41.8L26.4,41.8L26.4,41.8L26.4,41.8L26.4,41.8L26.4,41.8L26.4,41.8L26.4,41.8L26.4,41.8L26.4,41.8L26.4,41.8L26.4,41.8
				l0.1,0v0h0v0h0v0l0,0v0l0,0v0l0,0v0h0v0l0,0v0l0,0l0,0h0l0,0l0,0h0l0,0l0,0h0v0l0,0v0l0,0l0,0h0v0h0.1v0h0l0,0v0l0,0v0l0,0v0h0v0
				l0,0v0h0l0,0h0l0,0h0l0,0l0,0l0,0l0,0h0v0l0,0l0,0v0.1l0,0v0l0,0l0,0v0l0,0l0,0l0,0l0,0h0v0l0,0v0l0,0v0l0,0l0,0v0h0l0,0v0l0,0
				l0,0l0,0v0l0,0v0h0v0h0v0h0l0,0l0,0h0l0,0l0,0v0l0,0h0v0h0v0l0,0v0l0,0h0v0l0,0l0,0v0h0l0,0v0l0,0l0,0l0,0h0l0,0v0l0,0l0,0h0v0.1
				h0v0h0v0l0,0v0l0,0v0l0,0l0,0h0v0l0,0l0,0h0v0l0,0v0h0l0,0l0,0l0,0v0l0,0h0l0,0v0l0,0l0,0l0,0v0h0l0,0h0v0l0,0l0,0l0,0l0,0l0,0
				l0,0v0l0,0h0l0,0l0,0h0.1l0,0h0v0l0,0v0h0l0,0l0,0l0,0v0h0l0,0l0,0l0,0l0,0v0l0,0v0l0,0l0,0v0h0v0h0l0,0h0v0l0,0l0,0l0,0h0l0,0h0
				l0,0h0l0,0v0h0l0,0l0,0h0l0,0h0l0,0l0,0v0l0,0v0h0l0,0h0l0,0v0h0l0,0l0,0h0v0h0l0,0l0,0l0,0h0l0,0l0,0v0h0l0,0l0,0h0l0,0h0v0l0,0
				h0l0,0h0.1l0,0h0l0,0h0v0l0,0h0l0,0v0h0v0h0l0,0h0l0,0h0l0,0h0v0h0l0,0h0l0,0v0l0,0l0,0l0,0h-0.1l0,0v0h0.1v0h0l0,0h0l0,0h-0.1v0
				h0l0,0v0h0v0l0,0v0h0v0l0,0v0h0v0l0,0h0l0,0h0v0h0l0,0v0h0l0,0l0,0h0l0,0h0v0h0l0,0h0l0,0h0l0,0l0,0l0,0h0v0h0v0l0,0l0,0v0h0l0,0
				v0h0v0h0v0h0l0,0h0v0l0,0l0,0h0v0l0,0h0l0,0h0v0l0,0l0,0h0v0h0l0,0v0h0v0l0,0h0v0h0l0,0v0h0l0,0v0h0l0,0h0v0l0,0h0l0,0v0l0,0h0
				l0,0v0l0,0v0h0v0h0v0l0,0l0,0v0l0,0h0l0,0h0v0h0v0h0l0,0l0,0v0l0,0l0,0h0v0h0l0,0l0,0v0h0v0h0v0h0v0l0,0h0l0,0v0v0h0v0h0v0l0,0h0
				l0,0v0h0v0h0v0h0v0l0,0v0l0,0h0v0h0v0h0v0l0,0v0l0,0v0h0v0h-0.1v0l0,0h0v0h0v0h0v0l0,0h0v0l0,0v0h0v0h0v-0.1h0v0h0v0l0,0h0v0h0
				l0,0l0,0v0l0,0h0l0,0h0v0h0l0,0v0l0,0l0,0v0h0l0,0v0l0,0v0h0l0,0v0h0l0,0v0h0v0h0v0l0,0v0h0v0h0v0h0v0h0l0,0h0v0l0,0v0h0l0,0l0,0
				v0h0v0l0,0v0l0,0h0l0,0h0l0,0v0l0,0l0,0h0l0,0h0l0,0h0l0,0v0h0l0,0h0l0,0h0v0h0l0,0h0v0h0l0,0l0,0h0l0,0h0v0l0,0l0,0h0l0,0v0h0
				l0,0l0,0h0l0,0v0l0,0v0h0v0l0,0h0l0,0h0v0h0l0,0l0,0v0l0,0v0h0v0l0,0h0v0h0v0h0v0l0,0h0l0,0v0h0l0,0v0h0v0h0v0l0,0v0l0,0v0h0l0,0
				v0l0,0l0,0h0l0,0h0v0l0,0h0v0l0,0v0h0l0,0l0,0v0h0v0h0v0h0v0h0v0h0v0h0v0l0,0v0h0l0,0h0v0h0v0l0,0v0l0,0l0,0h0l0,0v0l0,0l0,0v0h0
				v0h0l0,0h0v0h0v0l0,0v0h0v0h0v0l0,0v0l0,0h0v0h0v0h0l0,0h0v0h0v0h0v0l0,0h0l0,0v0l0,0h0v0l0,0h0v0l0,0v0l0,0v0h0v0l0,0h0l0,0h0
				l0,0v0l0,0h0l0,0v0h0v0l0,0v0h0l0,0v0h0v0l0,0h0l0,0l0,0h0v0l0,0v0h0l0,0l0,0h0v0l0,0l0,0h0l0,0v0l0,0v0h0v0l0,0v0h0v0h0v0h0v0
				l0,0h0v0h0l0,0v0l0,0h0l0,0v0l0,0h0v0h0v0h0v0l0,0h0v0h0v0l0,0v0h0v0h0v0h0v0h0v0h0v0l0,0v0h0v-0.1l0,0h0v0h0v0h0v0h0v0l0,0h0
				l0,0h0v0h0v0h0v0l0,0v0h0v0h0l0,0l0,0h0l0,0h0v0l0,0v0h0v0l0,0h0v0h0v0h0v0l0,0h0v-0.1h0v0h0v0h0v0l0,0h0v0h0v0h0v0l0,0l0,0h0v0
				h0l0,0v0h0v0h0v0l0,0v0h0v0l0,0v0l0,0v0l0,0l0,0l0,0v0h0v0h0l0,0v0l0,0h0v0h0l0,0h0v0h0l0,0v0l0,0l0,0l0,0h0v0h0v0l0,0v0h0v0l0,0
				l0,0h0v0l0,0h0l0,0h0v0.1h0l0,0v0l0,0v0l0,0v0h0v0h0v0h0v0l0,0h0v0h0l0-0.1v0l0,0v0l0,0v0l0,0v0h0v0h0l0,0h0v0h0v0l0,0h0l0,0l0,0
				l0,0h0l0,0h0l0,0h0v0l0,0l0,0l0,0v0l0,0v0l0,0v0l0,0V42h0v0l0,0v0h0l0,0v0l0,0v0l0,0v0l0,0v0h0v0h0.1l0,0l0,0h0l0,0L26.4,41.8
				L26.4,41.8L26.4,41.8L26.4,41.8L26.4,41.8L26.4,41.8L26.4,41.8L26.4,41.8L26.4,41.8L26.4,41.8L26.4,41.8L26.4,41.8z M25.4,41.5
				L25.4,41.5L25.4,41.5L25.4,41.5L25.4,41.5L25.4,41.5L25.4,41.5L25.4,41.5l0.1,0.1l0,0l0,0h0l0,0l0,0l0,0h0v0l0,0v0l0,0v0l0,0v0
				l0,0l0,0h0l0,0h0l0,0h0l0,0l0,0h0l0,0h0v0l0,0l0,0v0h0v0l0,0l0,0h0l0,0v0L25.4,41.5L25.4,41.5l0.1,0.2v0h0l0,0h0l0,0v0h0l0,0l0,0
				L25.4,41.5L25.4,41.5L25.4,41.5L25.4,41.5L25.4,41.5L25.4,41.5L25.4,41.5L25.4,41.5L25.4,41.5L25.4,41.5L25.4,41.5L25.4,41.5z
				 M25.3,41.6L25.3,41.6L25.3,41.6L25.3,41.6L25.3,41.6L25.3,41.6L25.3,41.6L25.3,41.6L25.3,41.6L25.3,41.6L25.3,41.6L25.3,41.6z
				 M25.7,41.6L25.7,41.6L25.7,41.6L25.7,41.6L25.7,41.6L25.7,41.6L25.7,41.6L25.7,41.6L25.7,41.6L25.7,41.6L25.7,41.6L25.7,41.6
				L25.7,41.6L25.7,41.6L25.7,41.6L25.7,41.6L25.7,41.6L25.7,41.6L25.7,41.6L25.7,41.6L25.7,41.6L25.7,41.6L25.7,41.6L25.7,41.6
				L25.7,41.6L25.7,41.6L25.7,41.6L25.7,41.6L25.7,41.6z M25.7,41.4L25.7,41.4L25.7,41.4L25.7,41.4L25.7,41.4z M25.7,41.5L25.7,41.5
				L25.7,41.5L25.7,41.5L25.7,41.5L25.7,41.5L25.7,41.5L25.7,41.5L25.7,41.5L25.7,41.5L25.7,41.5z M25.8,41.6L25.8,41.6L25.8,41.6
				L25.8,41.6L25.8,41.6L25.8,41.6L25.8,41.6L25.8,41.6L25.8,41.6L25.8,41.6L25.8,41.6L25.8,41.6L25.8,41.6L25.8,41.6L25.8,41.6
				L25.8,41.6L25.8,41.6L25.8,41.6z M25.9,41.7L25.9,41.7L25.9,41.7L25.9,41.7L25.9,41.7L25.9,41.7L25.9,41.7L25.9,41.7L25.9,41.7
				L25.9,41.7L25.9,41.7L25.9,41.7L25.9,41.7L25.9,41.7L25.9,41.7L25.9,41.7z M25.9,41.7L25.9,41.7L25.9,41.7L25.9,41.7L25.9,41.7
				L25.9,41.7L25.9,41.7L25.9,41.7z M25.9,41.7L25.9,41.7L25.9,41.7L25.9,41.7L25.9,41.7L25.9,41.7L25.9,41.7L25.9,41.7L25.9,41.7
				L25.9,41.7L25.9,41.7z M26.1,41.7L26.1,41.7L26.1,41.7L26.1,41.7L26.1,41.7z M26,42.2L26,42.2L26,42.2L26,42.2L26,42.2L26,42.2
				L26,42.2L26,42.2L26,42.2L26,42.2z M25.4,42.1L25.4,42.1L25.4,42.1L25.4,42.1L25.4,42.1z M26,42.3L26,42.3L26,42.3L26,42.3
				L26,42.3L26,42.3L26,42.3L26,42.3L26,42.3L26,42.3L26,42.3L26,42.3L26,42.3L26,42.3L26,42.3L26,42.3L26,42.3L26,42.3L26,42.3
				L26,42.3L26,42.3z M25.9,42.3L25.9,42.3L25.9,42.3L25.9,42.3L25.9,42.3z M26,42.4L26,42.4L26,42.4L26,42.4L26,42.4z M25.9,42.5
				L25.9,42.5L25.9,42.5L25.9,42.5L25.9,42.5z M25.9,42.5L25.9,42.5L25.9,42.5L25.9,42.5L25.9,42.5L25.9,42.5L25.9,42.5L25.9,42.5
				L25.9,42.5L25.9,42.5L25.9,42.5L25.9,42.5L25.9,42.5z M25.7,42.7L25.7,42.7L25.7,42.7L25.7,42.7L25.7,42.7z M25.8,42.6L25.8,42.6
				L25.8,42.6L25.8,42.6L25.8,42.6z M25.9,42.7L25.9,42.7L25.9,42.7L25.9,42.7L25.9,42.7L25.9,42.7L25.9,42.7L25.9,42.7L25.9,42.7z
				 M25.9,42.5L25.9,42.5L25.9,42.5L25.9,42.5L25.9,42.5L25.9,42.5L25.9,42.5L25.9,42.5z M26.8,41.8L26.8,41.8L26.8,41.8L26.8,41.8
				L26.8,41.8L26.8,41.8L26.8,41.8z M26.6,41.9L26.6,41.9L26.6,41.9L26.6,41.9z M26.5,41.9L26.5,41.9L26.5,41.9L26.5,41.9L26.5,41.9
				L26.5,41.9L26.5,41.9L26.5,41.9z M26.4,42.4L26.4,42.4L26.4,42.4L26.4,42.4L26.4,42.4L26.4,42.4L26.4,42.4L26.4,42.4L26.4,42.4
				L26.4,42.4L26.4,42.4L26.4,42.4L26.4,42.4L26.4,42.4L26.4,42.4z M26.8,42.4L26.8,42.4L26.8,42.4L26.8,42.4L26.8,42.4L26.8,42.4
				L26.8,42.4L26.8,42.4L26.8,42.4L26.8,42.4L26.8,42.4L26.8,42.4L26.8,42.4z M26.6,42.5L26.6,42.5L26.6,42.5L26.6,42.5L26.6,42.5z
				 M26.6,42.5L26.6,42.5L26.6,42.5L26.6,42.5z M26.8,42.6L26.8,42.6L26.8,42.6L26.8,42.6L26.8,42.6L26.8,42.6z M27.4,42.1
				L27.4,42.1L27.4,42.1L27.4,42.1L27.4,42.1L27.4,42.1L27.4,42.1z M27.1,42.1L27.1,42.1L27.1,42.1L27.1,42.1L27.1,42.1L27.1,42.1z
				 M27.1,42.3L27.1,42.3L27.1,42.3L27.1,42.3L27.1,42.3L27.1,42.3L27.1,42.3L27.1,42.3L27.1,42.3L27.1,42.3L27.1,42.3L27.1,42.3
				L27.1,42.3z M26.6,42.9L26.6,42.9L26.6,42.9L26.6,42.9L26.6,42.9L26.6,42.9L26.6,42.9L26.6,42.9l0,0.1v0h0l0,0h-0.1l0,0v0l0,0v0
				h0l0,0h0v0h0l0,0L26.6,42.9L26.6,42.9L26.6,42.9L26.6,42.9L26.6,42.9L26.6,42.9L26.6,42.9L26.6,42.9L26.6,42.9L26.6,42.9z
				 M26.9,42.5L26.9,42.5L26.9,42.5L26.9,42.5L26.9,42.5L26.9,42.5z M27.1,42.4L27.1,42.4L27.1,42.4L27.1,42.4L27.1,42.4L27.1,42.4
				L27.1,42.4L27.1,42.4z M26.5,42.9L26.5,42.9L26.5,42.9L26.5,42.9L26.5,42.9z M26.1,42.9L26.1,42.9L26.1,42.9L26.1,42.9z
				 M26.2,42.9L26.2,42.9L26.2,42.9L26.2,42.9L26.2,42.9z M25.8,42.8L25.8,42.8L25.8,42.8L25.8,42.8L25.8,42.8L25.8,42.8L25.8,42.8
				L25.8,42.8L25.8,42.8L25.8,42.8L25.8,42.8l0.1,0.2l0,0l0,0l0,0h0v0h0v0h0V43l0,0h0v0h0v0L25.8,42.8L25.8,42.8L25.8,42.8
				L25.8,42.8L25.8,42.8L25.8,42.8L25.8,42.8L25.8,42.8z M25.8,43.2L25.8,43.2L25.8,43.2L25.8,43.2L25.8,43.2L25.8,43.2L25.8,43.2
				L25.8,43.2L25.8,43.2L25.8,43.2l0.1-0.1v0l0,0L25.8,43.2L25.8,43.2L25.8,43.2L25.8,43.2L25.8,43.2L25.8,43.2L25.8,43.2L25.8,43.2
				L25.8,43.2L25.8,43.2L25.8,43.2L25.8,43.2L25.8,43.2L25.8,43.2L25.8,43.2z M25.8,43.2L25.8,43.2L25.8,43.2L25.8,43.2L25.8,43.2
				L25.8,43.2L25.8,43.2L25.8,43.2L25.8,43.2L25.8,43.2L25.8,43.2L25.8,43.2z M25.9,43.2L25.9,43.2L25.9,43.2L25.9,43.2L25.9,43.2z
				 M25.3,42.9L25.3,42.9L25.3,42.9L25.3,42.9z M25.2,41.5L25.2,41.5L25.2,41.5L25.2,41.5L25.2,41.5L25.2,41.5L25.2,41.5L25.2,41.5
				L25.2,41.5L25.2,41.5L25.2,41.5L25.2,41.5L25.2,41.5L25.2,41.5L25.2,41.5L25.2,41.5L25.2,41.5L25.2,41.5L25.2,41.5z M25,41.6
				L25,41.6L25,41.6L25,41.6L25,41.6L25,41.6L25,41.6L25,41.6L25,41.6L25,41.6L25,41.6L25,41.6L25,41.6L25,41.6L25,41.6L25,41.6
				L25,41.6L25,41.6L25,41.6z M25.3,41.6L25.3,41.6L25.3,41.6L25.3,41.6L25.3,41.6z M25.1,41.8L25.1,41.8L25.1,41.8L25.1,41.8
				L25.1,41.8L25.1,41.8L25.1,41.8z M25.2,42L25.2,42L25.2,42L25.2,42L25.2,42L25.2,42L25.2,42z M25,42L25,42L25,42L25,42L25,42
				L25,42L25,42L25,42z M24.9,42L24.9,42L24.9,42L24.9,42L24.9,42L24.9,42z M25.1,42L25.1,42L25.1,42L25.1,42L25.1,42L25.1,42
				L25.1,42L25.1,42L25.1,42L25.1,42L25.1,42L25.1,42L25.1,42L25.1,42z M25.3,42L25.3,42C25.3,42.1,25.3,42.1,25.3,42L25.3,42
				L25.3,42L25.3,42L25.3,42L25.3,42L25.3,42L25.3,42z M24.6,42.1L24.6,42.1L24.6,42.1L24.6,42.1L24.6,42.1z M24.6,42.1L24.6,42.1
				L24.6,42.1L24.6,42.1L24.6,42.1L24.6,42.1L24.6,42.1L24.6,42.1L24.6,42.1L24.6,42.1L24.6,42.1L24.6,42.1L24.6,42.1L24.6,42.1
				L24.6,42.1L24.6,42.1L24.6,42.1l0,0.1h0L24.6,42.1L24.6,42.1L24.6,42.1L24.6,42.1L24.6,42.1L24.6,42.1L24.6,42.1L24.6,42.1z
				 M24.9,42.3L24.9,42.3L24.9,42.3L24.9,42.3L24.9,42.3L24.9,42.3L24.9,42.3L24.9,42.3L24.9,42.3L24.9,42.3v0.2h0v0l0,0v0h0l0,0h0
				v0h0v0h0v0h0v0l0,0h0l0,0v0h0v0l0,0h0l0,0h0v0h0v-0.1h0v0h0v0h0v0h0v0h0v0h0v0l0,0v0h0v0h0v0l0,0h0v0l0,0l0,0v0l0,0h0v0l0,0v0h0
				v0l0,0h0v0h0l0,0v0l0,0l0,0l0,0h0v0h0v0l0,0h0v0h0v0l0,0h0v0L24.9,42.3L24.9,42.3L24.9,42.3L24.9,42.3L24.9,42.3L24.9,42.3
				l-0.1,0.1l0,0v0h0l0,0h0v0l0,0v0h0v0h0v0h0l0,0l0,0l0,0h0v0h0L24.9,42.3L24.9,42.3L24.9,42.3L24.9,42.3L24.9,42.3L24.9,42.3
				L24.9,42.3L24.9,42.3L24.9,42.3L24.9,42.3L24.9,42.3L24.9,42.3z M24.7,42.3L24.7,42.3L24.7,42.3L24.7,42.3L24.7,42.3z M24.8,42.3
				L24.8,42.3L24.8,42.3L24.8,42.3L24.8,42.3L24.8,42.3z M24.6,42.3L24.6,42.3L24.6,42.3L24.6,42.3L24.6,42.3L24.6,42.3L24.6,42.3
				L24.6,42.3L24.6,42.3L24.6,42.3L24.6,42.3L24.6,42.3L24.6,42.3l-0.1,0v0H24.6L24.6,42.3L24.6,42.3L24.6,42.3L24.6,42.3L24.6,42.3
				L24.6,42.3L24.6,42.3L24.6,42.3L24.6,42.3L24.6,42.3L24.6,42.3L24.6,42.3L24.6,42.3L24.6,42.3L24.6,42.3L24.6,42.3L24.6,42.3z
				 M24.6,42.4L24.6,42.4L24.6,42.4L24.6,42.4L24.6,42.4z M24.6,42.5L24.6,42.5L24.6,42.5L24.6,42.5L24.6,42.5L24.6,42.5L24.6,42.5
				L24.6,42.5L24.6,42.5z M24.7,42.5L24.7,42.5L24.7,42.5L24.7,42.5L24.7,42.5L24.7,42.5L24.7,42.5z M24.8,42.6L24.8,42.6L24.8,42.6
				L24.8,42.6L24.8,42.6z M24.8,42.6L24.8,42.6L24.8,42.6L24.8,42.6L24.8,42.6L24.8,42.6z M25.3,42.9L25.3,42.9L25.3,42.9L25.3,42.9
				L25.3,42.9L25.3,42.9z"/>
		</g>
		<g class="st5">
			<polygon class="st2" points="21.3,29.1 21.4,29.1 21.5,29.1 21.4,29.1 21.4,29.2 21.4,29.3 21.4,29.3 21.6,29.3 21.7,29.3 
				21.7,29.3 21.7,29.3 21.8,29.3 21.8,29.3 21.9,29.3 21.9,29.2 21.9,29.1 21.8,29.1 21.7,29.1 21.7,29 21.7,29 21.9,29 22.1,28.8 
				22.2,28.8 22.2,28.8 22.3,28.9 22.4,29.1 22.3,29.3 22.4,29.6 22.3,29.8 22.2,29.8 22,29.9 21.9,29.9 21.8,29.8 21.7,29.7 
				21.7,29.7 21.7,29.6 21.7,29.6 21.7,29.5 21.6,29.4 21.5,29.4 21.3,29.4 21,29.6 21,29.7 21,29.8 21,29.8 21.5,30 21.6,30 
				21.6,30 21.6,30.1 21.5,30.2 21.2,30.3 20.9,30.5 20.9,30.5 20.9,30.6 20.9,30.7 20.7,30.9 20.7,31 20.7,31.1 20.7,31.2 
				20.7,31.3 20.8,31.4 20.8,31.5 20.8,31.6 20.7,31.6 20.7,31.7 20.7,31.8 20.7,31.8 20.8,31.9 20.8,31.9 20.8,32 20.7,32 
				20.7,32.1 20.7,32.2 20.6,32.2 20.6,32.2 20.5,32.3 20.4,32.4 20.3,32.5 20.3,32.6 20.4,32.6 20.5,32.7 20.5,32.7 20.5,32.8 
				20.4,32.8 20.4,32.9 20.3,32.9 20.3,32.9 20.2,32.8 20.1,32.9 20,32.8 19.9,32.8 19.8,32.9 19.7,32.9 19.6,33 19.6,33.1 
				19.5,33.2 19.4,33.2 19.2,33.2 19.1,33.3 18.8,33.8 18.8,33.8 18.8,33.9 18.8,34 18.7,34 18.7,34.1 18.6,34.1 18.6,34.2 
				14.8,34.5 14.7,34.4 14.6,34.3 14.6,34.2 14.6,34 14.6,33.9 14.7,33.9 14.8,33.9 14.8,33.9 14.8,33.8 14.8,33.7 14.9,33.7 
				15,33.5 15,33.5 14.8,33.3 14.7,33.2 14.7,33.1 14.5,33.1 14.4,33.1 14.2,33.1 14.2,33 14.2,32.9 14.4,32.9 14.4,32.8 14.6,32.9 
				14.8,32.8 14.9,32.9 15,32.8 15,32.6 15,32.6 15.1,32.5 15,32.4 15,32.4 14.9,32.3 14.5,32.4 14.4,32.3 14.4,32.1 14.3,32 
				14.4,31.9 14.4,31.8 14.5,31.7 14.4,31.7 14.4,31.6 14.3,31.5 14.4,31.3 14.3,31.2 14.2,31.1 14.1,31 14.2,30.9 14.3,30.8 
				14.3,30.7 14.2,30.7 14.1,30.7 14,30.6 13.9,30.6 13.9,30.5 13.9,30.3 13.9,30.2 13.9,30.1 13.8,29.9 13.8,29.8 13.9,29.7 
				13.9,29.6 13.8,29.6 13.8,29.5 13.8,29.4 13.9,29.3 14.1,29.3 14.1,29.3 14.1,29.2 14.1,29.1 20.9,28.7 20.9,28.8 21,28.9 
				21.1,29 			"/>
		</g>
		<g class="st5">
			<polygon class="st2" points="17.9,23.1 17.8,23.2 17.8,23.3 17.8,23.4 17.9,23.5 18,23.5 18,23.6 18,23.7 18.2,23.7 18.3,23.7 
				18.5,23.6 18.6,23.6 18.6,23.7 18.6,23.8 19.1,24 19.2,24.1 19.2,24.2 19.2,24.3 19.8,24.3 20.1,24.3 20.2,24.3 20.3,24.3 
				20.5,24.4 20.6,24.4 20.7,24.4 21.5,24.4 21.9,24.6 22.1,24.8 22.4,24.9 22.6,24.9 22.6,26.9 22.7,26.9 22.8,26.9 22.9,27 
				23,27.1 23.2,27.3 23.2,27.4 22.9,27.5 22.1,27.5 22,27.4 21.7,27.3 21.5,27.2 21.2,27.1 21.1,27.1 21,27.1 21.1,27 21.1,27 
				21.1,26.9 21.1,26.9 20.8,27.1 20.7,27.2 20.7,27.3 20.8,27.6 20.9,28.1 20.9,28.3 20.9,28.4 20.9,28.5 20.9,28.6 20.9,28.7 
				14.1,29.1 14,28.8 14,28.7 13.9,28.6 14,28.6 14,28.5 13.9,28.1 13.9,27.7 14.2,27.8 14.4,27.8 14.5,27.8 14.6,27.7 14.7,27.6 
				14.8,27.5 14.7,27.5 14.7,27.4 14.7,27.3 14.7,27.2 14.8,27.1 14.9,27.1 15.1,27 15.3,26.9 15.4,26.9 15.5,26.9 15.6,26.9 
				15.6,26.8 15.6,26.8 15.7,26.7 15.7,26.6 15.7,26.3 15.8,26.1 15.9,26 16.2,25.9 16.3,25.8 16.5,25.6 16.8,25.4 16.9,25.3 
				17.1,24.9 17.4,24.7 17.4,22.8 17.6,22.8 17.8,22.8 17.9,22.9 18,23 			"/>
		</g>
		<g class="st5">
			<polygon class="st2" points="14.9,20.9 14.9,21.2 15,21.2 15.1,21.4 15.1,21.5 15.2,21.6 15.3,21.6 15.4,21.7 15.5,21.8 15.6,22 
				15.6,22.2 15.7,22.3 15.7,22.3 15.8,22.3 15.9,22.4 16,22.3 16.2,22.3 16.3,22.3 16.4,22.3 16.4,22.4 16.5,22.5 16.5,22.6 
				16.9,22.6 17,22.6 17,22.7 17.2,22.8 17.4,22.8 17.4,24.7 17.1,24.9 16.9,25.3 16.8,25.4 16.5,25.6 16.3,25.8 16.2,25.9 15.9,26 
				15.8,26.1 15.7,26.3 15.7,26.6 15.7,26.7 15.6,26.8 15.6,26.8 15.6,26.9 15.4,26.9 15.3,26.9 15.1,27 14.9,27.1 14.8,27.1 
				14.7,27.2 14.7,27.3 14.7,27.4 14.7,27.5 14.8,27.5 14.7,27.6 14.6,27.7 14.5,27.8 14.4,27.8 14.2,27.8 13.9,27.7 13.9,27.6 
				13.8,27.5 13.8,27.4 13.8,27.3 13.9,27.2 13.9,27.1 13.9,27 14,26.9 14,26.9 14,26.8 14,26.8 13.9,26.8 13.8,26.7 13.8,26.6 
				13.9,26.5 14,26.5 14,26.4 14,26.2 13.9,26.1 13.9,26 13.9,25.8 13.9,25.8 14,25.8 14,25.8 14.1,25.4 14.1,24.9 14.2,24.8 
				14.5,24.6 14.6,24.5 14.6,24.4 14.6,24.3 14.5,24.2 14.5,24.1 14.4,23.9 14.4,23.7 14.2,23.3 14.2,23.1 14.2,22.9 14.2,22.8 
				14.1,22.7 14.1,22.6 14.2,22.5 14.2,22.4 14.1,22.3 14.1,22.2 14.1,21.9 14.1,21.9 14.2,21.8 14.2,21.6 14.2,21.6 14.3,21.5 
				14.3,21.5 14.4,21.4 14.5,21.4 14.5,21.4 14.5,21.3 14.6,21.2 14.6,21.1 14.7,21 14.8,21 			"/>
		</g>
		<g class="st5">
			<polygon class="st2" points="17.9,23.1 18,23 17.9,22.9 17.8,22.8 17.7,22.8 17.4,22.8 17.2,20.6 20.7,20.5 20.7,19.1 22.6,19.1 
				22.6,24.9 22.4,24.9 22.2,24.8 21.9,24.6 21.5,24.4 20.7,24.4 20.6,24.4 20.5,24.4 20.3,24.3 20.2,24.4 20.1,24.4 19.8,24.3 
				19.2,24.3 19.2,24.2 19.2,24.1 19.1,24.1 18.6,23.8 18.6,23.7 18.6,23.6 18.5,23.6 18.3,23.7 18.2,23.7 18,23.7 18,23.6 18,23.5 
				17.9,23.5 17.8,23.4 17.8,23.3 17.8,23.2 			"/>
		</g>
		<g class="st5">
			<polygon class="st2" points="18.4,15 18.7,14.9 18.7,14.9 18.8,15 19.2,15 19.3,15 19.5,14.9 19.7,14.9 19.8,14.9 19.9,14.9 
				20.1,15 20.3,15.1 20.4,15.2 20.4,15.4 20.5,15.5 20.6,15.5 20.8,15.5 20.8,15.5 20.9,15.6 20.8,15.9 20.7,16.4 20.7,16.5 
				20.6,16.7 20.7,20.5 19,20.6 19,20.3 19.1,19.8 19.1,19.3 19,19.1 18.7,18.5 18.7,18.3 18.8,18.1 18.8,18 18.7,17.8 18.4,17.5 
				18.3,17.3 18.1,16 18,15.6 17.9,15.4 17.9,15.3 17.9,15.2 17.9,15.1 17.9,15 18,15 18,14.9 18.1,14.9 			"/>
		</g>
		<g class="st5">
			<polygon class="st2" points="22.9,12 24.2,12 24,12.9 24.3,13.1 24.3,13.3 24.3,13.4 24,14.5 23.9,14.6 23.9,14.7 23.9,15.2 
				24,15.3 24.1,15.4 24.1,15.5 24.3,15.7 24.3,15.9 24.3,16 24.4,16 24.4,16.1 24.4,16.3 24.4,16.4 23.9,17 23.3,18.3 22.6,18.3 
				22.6,19.1 20.7,19.1 20.6,16.7 20.7,16.5 20.7,16.4 20.8,15.9 20.9,15.6 20.8,15.5 20.8,15.5 20.6,15.5 20.5,15.5 20.4,15.4 
				20.4,15.2 20.3,15.1 20.1,15 19.9,14.9 19.8,14.9 19.8,13.8 20.2,12.5 20.4,12.5 20.5,12.4 20.6,12.2 20.7,12.1 20.7,11.7 
				21.3,11.6 21.5,11.5 21.6,11.5 21.9,11.7 22,11.8 22.3,11.8 22.5,11.8 22.6,11.9 22.7,12 22.8,12 			"/>
		</g>
		<g class="st5">
			<polygon class="st2" points="16.7,12.1 17.6,12.8 17.6,12.9 17.6,12.9 17.7,13 18.1,13.5 18.2,13.6 18.2,13.7 18.2,13.8 
				18.2,13.9 18.2,14.2 18.2,14.3 18.3,14.5 18.6,14.8 18.5,15 18.4,15 18.1,14.9 18,14.9 18,15 17.9,15 17.9,15.1 17.9,15.2 
				17.9,15.3 17.9,15.4 17.6,15.5 17.4,15.5 17.3,15.4 17.3,15.3 17.2,15.3 17.1,15.3 17,15.4 16.8,15.4 16.7,15.5 16.5,15.6 
				16.3,15.7 16.2,15.6 16.2,15.6 16.1,15.4 15.9,15.2 15.7,15.4 15.5,15.4 15.4,15.4 15.4,15.5 15.3,15.6 15,15.7 14.9,15.7 
				14.8,15.7 14.6,15.8 14.5,15.7 14.5,15.6 14.4,15.5 14.6,15.4 14.6,15.3 14.5,15.2 14.4,15.2 14.3,15.2 14.3,15 14.2,14.9 
				14.1,14.9 14.1,14.7 14.1,14.3 14.2,14.2 14.3,14.2 14.3,14.2 14.3,14.1 14.4,14.1 14.4,14.1 14.5,14 14.4,14 14.4,14 14.4,13.8 
				14.5,13.3 14.5,13.2 14.5,13.1 14.5,13.1 14.6,13.1 14.7,13.2 14.7,13.2 14.8,13.1 14.9,12.9 14.8,12.8 14.8,12.7 14.7,12.6 
				14.7,12.4 14.7,12.2 14.7,12.2 14.6,12 14.6,11.9 14.5,11.6 14.6,11.5 14.7,11.4 14.8,11.4 14.8,11.3 14.8,11.2 14.8,11.1 
				14.8,11 14.8,10.9 14.8,10.8 14.8,10.8 14.9,10.6 14.9,10.5 15,10.4 15.5,10.6 15.6,10.6 15.7,10.8 15.9,11.2 15.9,11.2 
				15.8,11.3 15.8,11.4 15.9,11.7 15.8,12 15.9,12 15.9,12 16.2,12 16.2,12 16.3,12 16.6,12 			"/>
		</g>
		<g class="st5">
			<polygon class="st2" points="14.9,15.7 15,15.7 15.3,15.6 15.4,15.5 15.4,15.4 15.5,15.4 15.7,15.4 15.9,15.2 16.1,15.4 
				16.2,15.6 16.2,15.6 16.3,15.7 16.5,15.6 16.7,15.5 16.8,15.4 17,15.4 17.1,15.3 17.2,15.3 17.3,15.3 17.3,15.4 17.4,15.5 
				17.6,15.5 17.9,15.4 18,15.6 18.1,16 18.2,16.2 18.3,17.2 18.4,17.5 18.7,17.8 18.8,18 18.8,18.1 18.7,18.3 18.7,18.5 19,19.1 
				19.1,19.3 19.1,19.8 19,20.3 19,20.6 17.2,20.6 17.4,22.8 17.1,22.8 17,22.7 17,22.6 16.9,22.6 16.5,22.6 16.5,22.5 16.4,22.4 
				16.4,22.3 16.3,22.3 16.2,22.3 16,22.3 15.9,22.4 15.8,22.3 15.7,22.3 15.7,22.3 15.6,22.2 15.6,22 15.5,21.8 15.4,21.7 
				15.3,21.6 15.2,21.6 15.1,21.5 15.1,21.4 15,21.2 14.9,21.2 14.8,20.7 14.8,20.6 14.9,20.5 14.8,20.4 14.8,20.2 14.7,20.1 
				14.7,20 14.7,19.9 14.7,19.9 14.6,19.9 14.6,19.8 14.8,19.7 14.8,19.6 14.8,19.4 14.8,19.2 14.8,19.2 14.9,19 14.9,18.9 15,18.7 
				15,18.6 15,18.5 15.1,18.4 15.2,18.5 15.3,18.4 15.2,18.2 15.2,18.2 15.2,18.1 15.2,17.8 15.2,17.5 15.3,17.2 15.2,17.1 15.1,17 
				15,17.1 14.9,17 14.9,16.9 14.9,16.7 14.9,16.6 15,16.6 14.9,16.5 14.8,16.5 14.8,16.4 14.7,16.1 14.6,15.8 14.8,15.7 			"/>
		</g>
		<g class="st5">
			<polygon class="st2" points="18.6,10.1 18.7,10.2 18.8,10.3 18.8,10.5 18.9,10.6 18.9,10.7 18.9,10.7 18.9,10.8 19.3,11 
				19.7,11.3 19.7,11.4 19.7,11.5 19.7,11.7 19.8,11.8 20.2,12.5 19.8,13.8 19.8,14.9 19.7,14.9 19.5,14.9 19.3,15 19.2,15 18.8,15 
				18.7,14.9 18.5,15 18.6,14.8 18.3,14.5 18.2,14.3 18.2,14.2 18.2,13.9 18.2,13.8 18.2,13.7 18.2,13.6 18.1,13.5 17.7,13 
				17.6,12.9 17.6,12.9 17.6,12.8 16.7,12.1 16.6,12 16.3,12 16.2,12 16.2,12 15.9,12 15.9,12 15.8,12 15.9,11.7 15.8,11.6 
				15.8,11.4 15.8,11.3 15.9,11.2 15.9,11.2 15.6,10.8 15.6,10.6 15.5,10.6 15,10.4 15.2,10 15.2,10 15.3,9.9 15.3,9.8 15.4,9.7 
				15.5,9.6 15.6,9.5 15.9,9.4 16.1,9.4 16.3,9.4 16.3,9.4 16.4,9.5 16.3,9.6 16.4,9.7 16.4,9.7 16.5,9.7 16.6,9.8 16.9,9.8 17,9.9 
				17.1,10 17.1,10.1 17.1,10.2 17.2,10.2 17.3,10.2 			"/>
		</g>
		<g class="st5">
			<polygon class="st2" points="19.5,8 19.3,8.3 19.2,8.4 19.1,8.6 19.1,8.7 19.3,8.8 19.4,8.9 19.4,9.1 19.5,9.3 19.7,9.4 
				19.8,9.5 19.8,9.6 19.9,9.7 20.1,9.4 20.1,9.4 20.4,9.5 20.4,9.6 20.4,9.7 20.5,10.2 20.4,10.4 20.5,10.6 20.5,11.1 20.6,11.3 
				20.7,11.7 20.7,12.1 20.6,12.2 20.5,12.4 20.4,12.5 20.2,12.5 19.8,11.8 19.7,11.7 19.7,11.6 19.7,11.4 19.7,11.4 19.3,11 
				18.9,10.8 18.9,10.7 18.9,10.7 18.9,10.6 18.8,10.5 18.8,10.4 18.7,10.2 18.6,10.1 17.3,10.2 17.2,10.2 17.1,10.2 17.1,10.1 
				17.1,10 17,9.9 16.9,9.9 16.6,9.8 16.5,9.8 16.4,9.7 16.4,9.7 16.3,9.6 16.4,9.5 16.3,9.4 16.3,9.4 16.1,9.4 15.9,9.5 15.6,9.6 
				15.5,9.6 15.5,9.5 15.6,9 15.7,8.9 15.7,8.8 15.7,8.7 15.8,8.6 15.9,8.5 16,8.6 16,8.6 16.1,8.6 16.1,8.5 16.2,8.5 16.4,8.5 
				16.4,8.4 16.4,8.2 16.1,7.8 16,7.5 16.2,7.2 16.2,7.1 16.1,6.7 16,6.6 16,6.4 16,6.4 15.9,6.2 16,6 16,5.8 16.2,5.8 16.2,5.8 
				16.4,5.9 17.1,5.9 18.4,5.9 18.5,5.9 18.6,5.9 18.6,6 18.6,6.1 18.6,6.2 18.6,6.4 18.5,6.4 18.3,6.4 18.3,6.5 18.2,6.5 18.2,6.6 
				18.3,6.8 18.4,6.9 18.7,7.3 18.8,7.3 19,7.1 19,7.1 19.1,7.1 19.2,7.2 19.1,7.5 19.1,7.6 19.1,7.6 19.4,7.8 19.5,7.9 			"/>
		</g>
		<g class="st5">
			<polygon class="st3" points="20.6,7.2 21,7.1 21.1,7.1 21.2,7.2 21.2,7.3 21.1,7.6 21,7.8 20.9,8.2 20.6,8.6 20.6,8.7 20.5,8.8 
				20.5,8.9 20.5,9.1 20.6,9.2 20.5,9.4 20.4,9.5 20.1,9.4 20.1,9.4 19.9,9.7 19.8,9.6 19.8,9.5 19.7,9.4 19.5,9.3 19.4,9.1 
				19.4,8.9 19.3,8.8 19.1,8.7 19.1,8.6 19.2,8.4 19.3,8.3 19.5,8 19.5,7.9 19.4,7.8 19.1,7.6 19.1,7.6 19.1,7.5 19.2,7.2 19.4,7.2 
				19.5,7.2 19.7,7 19.8,6.9 20.2,7 20.3,7.1 20.4,7.1 			"/>
		</g>
		<g class="st5">
			<polygon class="st2" points="23.9,1.9 23.8,2 23.8,4.5 22.5,6.3 21.9,6.3 21.8,6.3 21.6,6.2 21.5,6.2 21.4,6.4 21.2,7.2 
				21.1,7.1 21,7.1 20.8,7.1 20.6,7.2 20.4,7.1 20.3,7.1 20.2,7 19.8,6.9 19.7,7 19.5,7.2 19.4,7.2 19.2,7.2 19.1,7.1 19,7.1 
				18.8,7.3 18.7,7.3 18.4,6.9 18.3,6.8 18.2,6.6 18.2,6.5 18.3,6.5 18.3,6.4 18.5,6.4 18.6,6.4 18.6,6.2 18.6,6.1 18.6,6 18.6,5.9 
				18.5,5.9 18.4,5.9 17.1,5.9 16.4,5.9 16.2,5.8 16.2,5.8 16.1,5.6 16,5.5 16,5.5 15.9,5.3 16,5.2 16,5.1 16.1,4.9 16.3,4.8 
				16.6,4.6 16.8,4.5 17.4,4.2 17.5,3.8 17.6,3.8 17.8,3.9 18.1,4.2 18.4,4.4 18.5,4.4 18.6,4.3 18.7,4.1 18.7,4 18.7,3.6 18.7,3.5 
				18.6,3.4 18.7,3.2 18.8,3.2 19,3.4 19.1,3.4 19.2,3.9 19.3,4 19.5,4.2 19.5,4.2 19.5,4.4 19.6,4.5 19.7,4.6 20,4.7 20.1,4.7 
				20.2,4.7 20.3,4.7 20.4,4.8 20.5,4.8 20.6,4.8 20.6,4.7 20.7,4.7 20.8,4.7 20.8,4.8 20.9,4.8 21.1,4.6 21.3,4.6 21.4,4.5 
				21.5,4.4 21.5,4.3 21.5,3.4 21.4,3.3 21.3,3.3 21.2,3.4 21.1,3.4 21.1,3.4 21,3.3 20.9,3.3 20.8,3.3 20.7,3.3 20.6,3.3 20.5,3.2 
				20.5,3.1 20.5,3 20.4,3 20.4,3 20.4,2.9 20.4,2.8 20.4,2.7 20.4,2.6 20.3,2.6 20.2,2.6 20.1,2.6 20,2.4 20,2.1 20,2 20,1.9 
				20,1.9 20,1.8 20.1,1.7 20.1,1.4 20.3,1.4 20.7,1.5 20.8,1.5 20.9,1.6 20.9,1.7 20.9,1.8 21,1.9 21.1,2 21.1,2 21.1,2.2 
				21.2,2.4 21.3,2.1 21.4,1.8 21.6,1.5 21.7,1.3 21.8,1.2 21.9,1.3 22,1.3 22,1.3 22.2,1.2 23.1,1.2 23.2,1.2 23.2,1.3 23.2,1.4 
				23.4,1.6 23.7,1.8 23.8,1.9 			"/>
		</g>
		<g class="st5">
			<polygon class="st2" points="20.1,1.7 20,1.8 20,1.9 20,1.9 20,2 20,2.1 20,2.4 20.1,2.6 20.2,2.6 20.3,2.6 20.4,2.6 20.4,2.7 
				20.4,2.8 20.4,2.9 20.4,2.9 20.4,3 20.4,3 20.5,3 20.5,3.1 20.5,3.2 20.6,3.3 20.7,3.3 20.8,3.3 20.9,3.3 21,3.3 21.1,3.4 
				21.1,3.4 21.2,3.4 21.3,3.3 21.4,3.3 21.5,3.4 21.5,4.3 21.5,4.4 21.4,4.5 21.3,4.6 21.1,4.6 20.9,4.8 20.8,4.8 20.8,4.7 
				20.7,4.7 20.6,4.7 20.6,4.8 20.5,4.8 20.4,4.8 20.3,4.7 20.2,4.7 20.1,4.7 20,4.7 19.7,4.6 19.6,4.5 19.5,4.4 19.5,4.2 19.5,4.2 
				19.3,4 19.2,3.9 19.1,3.4 19,3.4 18.8,3.2 18.7,3.2 18.6,3.4 18.7,3.5 18.7,3.6 18.7,4 18.7,4.1 18.6,4.3 18.5,4.4 18.4,4.4 
				18.1,4.2 17.8,3.9 17.6,3.8 17.5,3.8 17.8,2.8 17.5,2.5 17.5,2.4 17.6,2.4 17.7,2.3 17.7,2.2 17.7,2.1 17.8,2 17.9,2 18,1.9 
				18,1.7 18.1,1.6 18.6,1.4 18.6,1.4 18.7,1.1 18.7,1 18.8,1 18.9,1.1 19,1.1 19,1.2 19.1,1.2 19.3,1.4 19.4,1.4 20.1,1.4 			"/>
		</g>
		<g class="st5">
			<polygon class="st2" points="24.2,2.6 24.3,2.7 24.5,2.9 24.6,3 24.8,3.1 25.2,3.4 25.3,3.5 25.4,3.5 25.4,3.6 25.5,3.8 
				25.8,3.9 26.1,4 26.5,4.1 26.6,4.1 26.7,4.1 28.1,5.1 28.2,5.2 28.3,5.3 28.5,5.3 28.6,5.3 28.7,5.5 28.8,5.5 28.9,5.5 29,5.5 
				29.2,5.7 29.4,5.7 29.5,5.8 29.7,6.1 29.7,6.2 29.7,6.3 29.7,6.4 29.5,6.5 29.5,6.6 29.3,7 29,7.1 29,7.2 28.9,7.4 28.9,7.6 
				28.9,7.7 28.8,7.9 28.7,8 28.7,8 28.6,8 28,7.4 27.9,7.4 27.8,7.3 27.6,7.3 27.5,7.3 27.4,7.1 27.3,7.1 27.2,7 27.2,7 27.1,6.9 
				27.1,6.8 26.9,6.6 26.6,6.4 26.5,6.3 26.4,6.2 26.4,6 26.1,5.7 26,5.6 25.4,5.3 25.4,5.2 25.3,5 25.1,4.9 24.9,4.9 24.7,4.7 
				24.6,4.5 24.5,4.5 24.4,4.5 24.3,4.4 24.2,4.3 24.2,4.3 23.8,4.2 23.8,2 23.9,1.9 24.1,2.4 24.2,2.5 			"/>
		</g>
		<g class="st5">
			<polygon class="st2" points="21.5,6.2 21.6,6.2 21.8,6.3 21.9,6.3 24.6,6.3 24.6,9.5 24.1,11.9 22.9,12 22.8,12 22.7,12 
				22.6,11.9 22.5,11.8 22.2,11.8 22,11.8 21.9,11.7 21.6,11.5 21.5,11.5 21.3,11.5 20.7,11.7 20.6,11.3 20.5,11.1 20.5,10.6 
				20.4,10.4 20.5,10.1 20.4,9.7 20.4,9.6 20.4,9.5 20.5,9.4 20.6,9.2 20.5,9.1 20.5,8.9 20.5,8.8 20.6,8.7 20.6,8.6 20.9,8.2 
				21,7.8 21.1,7.6 21.2,7.3 21.2,7.2 21.4,6.3 			"/>
		</g>
		<g class="st5">
			<polygon class="st2" points="24.6,4.5 24.7,4.7 24.9,4.9 25.1,4.9 25.3,5 25.4,5.2 25.4,5.3 26,5.7 26.1,5.7 26.3,6 26.5,6.3 
				26.6,6.4 26.9,6.6 27.1,6.8 27.1,6.9 27.2,7 27.2,7 27.3,7.1 27.4,7.1 27.5,7.3 27.6,7.3 27.8,7.3 27.9,7.4 28,7.4 28.6,8 
				28.7,8 28.7,8 28.5,8.3 28.4,8.4 28.3,8.5 28.3,8.6 28.3,8.7 28.4,8.7 28.2,8.8 28.1,8.9 28.1,9.1 28.1,9.4 28,9.6 24.6,9.6 
				24.6,6.3 22.5,6.3 23.8,4.6 23.8,4.2 24.2,4.3 24.2,4.3 24.3,4.4 24.4,4.5 24.5,4.5 			"/>
		</g>
		<g class="st5">
			<polygon class="st3" points="31.6,9.2 31.7,9.7 31.8,9.8 31.8,9.9 32,10.1 31.8,10.1 31.8,10.2 31.8,10.3 31.8,10.3 31.8,10.4 
				31.7,10.4 31.7,10.3 31.6,10.4 31.6,10.5 31.1,10.8 31,11 31,11.1 30.5,11.5 30.3,11.8 30.1,12 30.1,12.1 30,12.2 29.8,12.2 
				29.7,12.3 29.7,12.4 29.6,12.5 29.3,12.8 29.3,12.9 29.2,13 29,13.1 29,13.3 28.7,12.8 28.5,12.7 28.3,12.6 28.1,12.6 28,12.7 
				27.7,12.7 27.6,12.7 27.5,12.8 27.4,12.8 27.3,12.8 27,12.8 27,12.7 27,12.5 27,12.4 27,12.3 27,12.2 27,12.1 27.1,11.9 
				27.1,11.6 27.1,11.4 27.2,11.3 27.4,11.2 27.5,11 27.7,10.6 27.7,10.4 27.8,10 27.8,9.9 27.8,9.9 28,9.6 28.1,9.4 28.1,9.1 
				28.1,8.9 28.2,8.8 28.4,8.7 28.6,8.7 29,8.7 29.3,8.7 30.1,9 30.2,9 30.4,9 30.5,9 30.5,9.1 30.6,9.1 30.8,9 30.9,9.1 30.9,9.2 
				31,9.2 31.1,9.1 31.2,9 31.3,8.9 31.4,8.9 31.6,9 31.6,8.9 31.6,8.9 31.6,9 			"/>
		</g>
		<g class="st5">
			<polygon class="st2" points="33,8.1 33.1,8.1 33.1,7.9 33.2,7.8 33.2,7.7 33.3,7.6 33.3,7.4 33.4,7.1 33.4,6.8 33.4,6.7 
				33.4,6.5 33.6,6.8 33.7,6.8 33.7,6.7 33.8,6.7 34,6.7 34.2,6.7 34.3,6.9 34.3,7 34.4,7.3 34.5,7.6 34.5,7.7 34.4,8.4 34.4,8.6 
				34.3,8.7 34.3,8.8 34.2,8.9 34,9 33.9,9 33.7,9.1 33.6,9.2 33.6,9.2 33.4,9.2 33.4,9.3 33.3,9.3 33.1,9.3 32.9,9.4 32.8,9.5 
				32.8,9.5 32.7,9.7 32.6,9.7 32.4,9.8 32.3,9.8 32.2,9.9 32.1,10 32,10.1 31.8,9.9 31.8,9.8 31.7,9.7 31.6,9.2 31.6,9 31.7,8.9 
				31.7,9 31.8,9.1 31.9,9 32,8.9 32,8.7 32.1,8.6 32.2,8.6 32.3,8.5 32.4,8.5 32.4,8.5 32.5,8.5 32.6,8.4 32.7,8.3 32.8,8.3 
				32.9,8.1 			"/>
		</g>
		<g class="st5">
			<path class="st2" d="M28.2,12.6l0.2,0l0.2,0.1l0.1,0.1l0.3,0.4l0,0.1l0,0.1l0,0.1v0.1L29,13.8l0,0.3l-0.2,0.3l0,0.1l0.1,0.2
				l0,0.1l-0.1,0.1l-0.1,0.1h-0.1l-0.1,0l0.1,0.2l0,0.1l0,0.1l0.1,0.1l0,0.1l0,0.1l-0.1,0.1l0,0.1l0.1,0.7l-0.1,0.1l-0.1,0l-0.1,0
				l-0.1,0v0.1l0,0.1l0,0.1l-0.1,0.3l0,0.5l-0.1,0.1l-0.1,0l-0.2-0.2l-0.3-0.2l-0.1,0l-0.1-0.1l-0.1,0l-0.2-0.1l-0.2,0l-0.3-0.2
				L26.3,17l-0.2-0.2c-0.1-0.1-0.2-0.2-0.2-0.3l-0.1-0.1l-0.1-0.1L25.6,16v-0.2l0.1-0.3l0-0.8l0-0.1l0.1-0.1l0.2-0.1l0.2-0.2l0.7-1
				l0.1-0.1l0-0.2l0-0.1l0.3,0l0.1,0l0.1,0l0.2-0.1l0.1-0.1l0.3,0L28.2,12.6z"/>
		</g>
		<g class="st5">
			<path class="st2" d="M27.8,9.9L27.8,9.9l0,0.5l0,0.2L27.5,11l-0.1,0.2l-0.2,0.1l-0.1,0.1l-0.1,0.1l0,0.3L27,12.1v0.1l0.1,0.1
				l0,0.1L27,12.7l0,0.1l0,0l0,0.2L27,13.3l-0.7,1l-0.2,0.2l-0.2,0.1l-0.2,0.1l0,0.1l0,0.8l-0.1,0.3V16l0.1,0.3l0.1,0.1l0.1,0.1
				c0,0,0.1,0.1,0.2,0.3L26,16.9l-0.1,0.2l0,0.2l-0.1,0.1l-0.2-0.1l-0.1-0.1l-0.1,0l-0.2,0.3l-0.7,0.8l-0.1,0h-1.1l0.3-0.6l0.4-0.7
				l0.4-0.5l0.1-0.2v-0.1l0-0.1L24.3,16l0-0.1l0-0.2l-0.2-0.2l0-0.1L24,15.3l-0.1-0.1l0-0.5l0-0.1l0.1-0.1l0.3-1.1l0-0.2l-0.1-0.1
				L24,12.9l0.5-3.4L28,9.6L27.8,9.9L27.8,9.9z"/>
		</g>
		<g class="st5">
			<g>
				<path class="st3" d="M24.5,18.3l0.7-0.8l0.2-0.3l0.1,0l0.1,0l0.2,0.1l0.1-0.1l0-0.2l0.1-0.2l0.1-0.1l0.2,0.2l0.2,0.2l0.3,0.2
					l0.1,0l0.1,0l0.1,0.1l0.1,0l0.1,0l0.1,0.1l0.1,0l0.3,0.2l0.2,0.2l0.1,0l0.1-0.1l0.1,0.2l-0.1,0l0,0.1L28,18.3l0,0.1l0.1,0.1
					l0,0.1h0l0,0h0l0,0H28v0l0,0l0,0h-0.1l0.1,0.1v0h0l-0.1-0.1h0l0,0v0l0,0v0h0l0,0l0,0l-0.1-0.1v0h0l-0.1-0.1v0h0l0,0l0-0.1
					l-0.1,0v0h0v0l0,0h0l0,0l0,0v0h0l0,0l0,0h0l0,0h0v0h0v0h0v0l0,0l-0.3,0.2L26.5,19l0,0.5l0.6,0.6l0.2-0.3v0h0l0.1-0.2l0.1,0
					l0.1,0l0.1,0l0,0l0,0h0l0,0l0,0l0,0H28l0,0v0l0.1,0l0,0l0,0v0l0,0l0,0h0v0l0,0l0,0l0,0l0,0h0l0,0l0,0h0l0,0l0,0l0,0v0h0l0,0l0,0
					l-0.1,0v0h0l0,0l0,0h0l0,0h0l0,0h0v0l0,0v0l0-0.1l0-0.1l0.1,0.1l0.5,0.3l0.3,0.2l0.2,0.2l0.1,0.2l0.1,0.2l-0.1,0.2l-0.1,0.1
					l-0.1,0.1l0,0.1l0,0.2l0.1,0.2l0.3,0.3l0,0l0,0l0.1,0l0.1,0l0,0.1l0,0.6l0,0.1l-0.1,0.2l-0.1,0.2l-0.2,0.4L29,23l-0.1,0.2
					l-0.1,0.2l0,0.1l-0.1,0.1l-0.5,0.3l-0.9,0.3l-1.6,0.3l-1.6,0.1L24,24.6l-0.1-0.1l-0.1-0.1l-0.1,0l0,0.1l0.1,0.1v0.1l0,0.1l0,0.1
					l0.1,0.3l0.1,0.1l0.1,0.1l0,0.1v0.1l-0.1,0.3l-0.1,0.1l-0.1,0l-0.1,0.1l0,0.1l0,0.1l0,0.1l0,0l0,0.1l0,0.1l-0.1,0l0,0v0.1l0,0.1
					l0.2,0.2l0.1,0.1l-0.1,0.2l-0.1,0.2l-0.3,0.2l0-0.1L23,27.1L22.9,27l-0.1-0.1l-0.1,0h-0.1l0-8.6h1.8L24.5,18.3z M28.2,18.8
					L28.2,18.8L28.2,18.8L28.2,18.8l-0.1,0l0,0l0,0v0l0,0v0L28.2,18.8L28.2,18.8z M28.1,18.6L28.1,18.6L28.1,18.6L28.1,18.6z"/>
				<polygon class="st2" points="28.2,18.8 28.2,18.8 28.2,18.8 				"/>
			</g>
		</g>
		<g class="st5">
			<polygon class="st2" points="26.5,19 26.8,18.3 27.2,18.1 27.2,18.1 27.2,18.1 27.2,18.1 27.2,18.1 27.2,18.1 27.2,18.1 
				27.2,18.1 27.3,18.1 27.2,18.1 27.3,18.1 27.3,18.1 27.3,18.1 27.3,18.1 27.3,18.2 27.3,18.1 27.4,18.1 27.4,18.2 27.4,18.2 
				27.4,18.2 27.4,18.2 27.5,18.2 27.5,18.3 27.5,18.3 27.6,18.3 27.6,18.3 27.7,18.4 27.7,18.4 27.7,18.4 27.8,18.5 27.8,18.5 
				27.8,18.5 27.8,18.5 27.8,18.5 27.8,18.5 27.8,18.5 27.8,18.6 27.9,18.6 28,18.6 28,18.6 28,18.6 27.9,18.5 27.9,18.5 28,18.5 
				28,18.6 28,18.6 28,18.6 28.1,18.6 28.1,18.6 28,18.6 28.1,18.6 28.1,18.6 28.1,18.6 28.1,18.6 28.1,18.7 28.2,18.7 28.2,18.7 
				28.1,18.7 28.1,18.7 28.2,18.7 28.2,18.7 28.2,18.7 28.2,18.7 28.2,18.7 28.2,18.8 28.1,18.8 28.1,18.8 28.1,18.8 28.1,18.8 
				28.1,18.8 28.1,18.9 28.2,18.9 28.2,18.8 28.3,18.8 28.3,18.9 28.3,18.9 28.3,18.9 28.3,19 28.3,19.1 28.3,19.1 28.3,19.1 
				28.3,19.1 28.3,19.1 28.3,19.2 28.3,19.2 28.4,19.1 28.4,19.1 28.4,19.2 28.4,19.2 28.4,19.2 28.4,19.2 28.4,19.2 28.4,19.2 
				28.4,19.2 28.3,19.2 28.3,19.2 28.4,19.2 28.4,19.2 28.3,19.2 28.3,19.2 28.3,19.2 28.3,19.3 28.3,19.3 28.3,19.3 28.3,19.3 
				28.3,19.3 28.2,19.3 28.2,19.3 28.2,19.3 28.2,19.4 28.2,19.4 28.2,19.4 28.2,19.4 28.2,19.5 28.1,19.5 28.1,19.5 28,19.6 
				28,19.6 27.9,19.6 27.9,19.6 27.8,19.6 27.8,19.6 27.8,19.6 27.7,19.6 27.7,19.6 27.6,19.6 27.5,19.6 27.4,19.8 27.4,19.8 
				27.4,19.8 27.2,20.1 26.5,19.5 			"/>
		</g>
	</g>
	<path class="st4" d="M28.5,33c-4.1,0-7.5,3.4-7.5,7.5s3.4,7.5,7.5,7.5s7.5-3.4,7.5-7.5S32.6,33,28.5,33z M28.5,47
		c-3.6,0-6.5-2.9-6.5-6.5s2.9-6.5,6.5-6.5s6.5,2.9,6.5,6.5S32.1,47,28.5,47z"/>
	<g>
		<defs>
			<circle id="SVGID_1_" cx="28.5" cy="40.5" r="5.5"/>
		</defs>
		<use xlink:href="#SVGID_1_"  style="overflow:visible;fill:#FFFFFF;"/>
		<clipPath id="SVGID_2_">
			<use xlink:href="#SVGID_1_"  style="overflow:visible;"/>
		</clipPath>
		<path class="st6" d="M34,45.4c-1.2,1.7-3.2,2.7-5.5,2.7c-2.2,0-4.2-1.1-5.5-2.7c0.1-0.7,0.3-1.3,0.8-1.8c0.5-0.6,1.1-0.9,1.8-0.9
			c0.1-0.1,0.2-0.1,0.3-0.2c0,0,0.1-0.1,0.1-0.1l0,0h0c0.1,0.1,0.3,0.3,0.7,0.6c0.6,0.4,1.2,0.6,1.9,0.6c0.6,0,1.2-0.2,1.8-0.6
			c0.3-0.2,0.6-0.4,0.8-0.6h0c0,0,0,0,0,0c0.1,0.1,0.2,0.1,0.3,0.2c0,0,0,0,0,0c0.7,0,1.3,0.3,1.8,0.9C33.7,44,33.9,44.7,34,45.4z
			 M25.2,38.5l0,0.2c0.1,1.1,0.4,2,1,2.7l0.3,0.3h0c0.1,0.1,0.3,0.2,0.6,0.5c0.5,0.3,1,0.4,1.5,0.4c0.5,0,1-0.1,1.4-0.4
			c0.2-0.1,0.4-0.3,0.6-0.5h0l0.2-0.3c0.6-0.8,1-1.7,1-2.7v-0.2c0-1-0.3-1.8-1-2.5c-0.6-0.7-1.4-1-2.3-1c-0.9,0-1.7,0.3-2.3,1
			C25.5,36.7,25.2,37.5,25.2,38.5z"/>
	</g>
	<path class="st4" d="M8.5,25C3.8,25,0,28.8,0,33.5S3.8,42,8.5,42s8.5-3.8,8.5-8.5S13.2,25,8.5,25z M8.5,41C4.4,41,1,37.6,1,33.5
		S4.4,26,8.5,26s7.5,3.4,7.5,7.5S12.6,41,8.5,41z"/>
	<g>
		<defs>
			<circle id="SVGID_3_" cx="8.5" cy="33.5" r="6.5"/>
		</defs>
		<use xlink:href="#SVGID_3_"  style="overflow:visible;fill:#FFFFFF;"/>
		<clipPath id="SVGID_4_">
			<use xlink:href="#SVGID_3_"  style="overflow:visible;"/>
		</clipPath>
		<g id="REFEPS_15_" class="st0">
			<path class="st4" d="M11.1,32.4L11.1,32.4c-0.7-0.3-1.4-0.4-2.2-0.5c-0.1,0-0.3,0-0.4,0c-0.2,0-0.3,0-0.5,0
				c-0.8,0-1.5,0.2-2.1,0.4v0c0,0.1,0,0.2,0,0.2c0,1,0.3,1.9,0.7,2.6c0.1,0.1,0.1,0.2,0.2,0.3c0.5,0.6,1,0.9,1.6,0.9
				c0.6,0,1.2-0.3,1.6-0.9c0.1-0.1,0.2-0.2,0.2-0.3c0.5-0.7,0.7-1.6,0.7-2.6C11.1,32.6,11.1,32.5,11.1,32.4z"/>
			<path class="st4" d="M3.8,37.6C3.3,38.2,3,39.1,3,40h5.5L8,38.8H4.7l1.1-2.4l0.1-0.1c-0.1,0-0.1,0.1-0.2,0.1v0
				C5,36.6,4.4,36.9,3.8,37.6z"/>
			<path class="st4" d="M14,40c0-0.9-0.3-1.8-0.9-2.4c-0.5-0.7-1.1-1-1.8-1c0,0,0,0,0,0c0,0,0,0,0,0l1.1,2.3H9L8.5,40H14z"/>
			<path class="st4" d="M6.3,36.3l-1.1,2.3H8l-0.7-1.8C6.9,36.8,6.6,36.6,6.3,36.3z"/>
			<path class="st4" d="M10.7,36.3c-0.3,0.2-0.6,0.4-0.9,0.6L9,38.7h2.7L10.7,36.3z"/>
			<g>
				<path class="st4" d="M11.5,29.8c-0.2-0.5-0.5-0.9-0.9-1.2c-0.5-1.1-1.2-1.6-2-1.6c-0.8,0-1.5,0.5-2,1.5c-0.4,0.3-0.7,0.7-1,1.2
					c-0.1,0.1-0.2,0.3-0.2,0.5l0.5,1.5c0.7-0.3,1.4-0.4,2.3-0.5c0.2,0,0.3,0,0.5,0c0.1,0,0.3,0,0.4,0c0.8,0.1,1.6,0.2,2.3,0.5
					l0.5-1.5C11.6,30.1,11.5,30,11.5,29.8z M8.5,27.6c0.2,0,0.4,0,0.5,0.1c0.2,0.1,0.5,0.2,0.6,0.4c0.3,0.3,0.5,0.7,0.5,1.2
					c0,0.5-0.1,0.8-0.5,1.2c-0.3,0.3-0.7,0.5-1.2,0.5c-0.4,0-0.8-0.2-1.2-0.5C7,30,6.8,29.7,6.8,29.2c0-0.5,0.1-0.8,0.5-1.2
					c0.2-0.2,0.4-0.3,0.6-0.4C8.1,27.6,8.3,27.6,8.5,27.6z"/>
				<path class="st4" d="M8.8,28H8.2v0.8H7.3v0.6h0.8v0.8h0.6v-0.8h0.8v-0.6H8.8V28z"/>
			</g>
		</g>
	</g>
	<g>
		<path class="st4" d="M21.5,46.9C20,45.2,19,43,19,40.5c0-2,0.6-3.8,1.7-5.4c-0.6-0.3-1.2-0.6-1.7-0.9c-0.3,4.5-3.4,8.2-7.6,9.4
			C14.3,45.4,17.8,46.6,21.5,46.9z"/>
		<path class="st4" d="M8.5,23c1.6,0,3.2,0.4,4.6,1.1c0.1-0.7,0.3-1.5,0.5-2.2C13.1,22,12.5,22,12,22c-4.6,0-8.6-2.6-10.6-6.4
			C0.5,18,0,20.7,0,23.5c0,1.2,0.1,2.4,0.3,3.5C2.2,24.6,5.2,23,8.5,23z"/>
		<path class="st4" d="M46,16.7V25c0,4.7-3.8,8.8-9.3,10.8c0.8,1.4,1.3,3,1.3,4.7c0,0.5-0.1,1.1-0.1,1.6c5.6-4.3,9.1-11,9.1-18.6
			C47,21.1,46.6,18.9,46,16.7z"/>
	</g>
	<path class="st4" d="M12,0C6.5,0,2,4.5,2,10c0,5.5,4.5,10,10,10s10-4.5,10-10C22,4.5,17.5,0,12,0z M12,18.5c-4.7,0-8.5-3.8-8.5-8.5
		c0-4.7,3.8-8.5,8.5-8.5s8.5,3.8,8.5,8.5C20.5,14.7,16.7,18.5,12,18.5z"/>
	<g>
		<defs>
			<circle id="SVGID_5_" cx="12" cy="10" r="7.5"/>
		</defs>
		<use xlink:href="#SVGID_5_"  style="overflow:visible;fill:#FFFFFF;"/>
		<clipPath id="SVGID_6_">
			<use xlink:href="#SVGID_5_"  style="overflow:visible;"/>
		</clipPath>
		<g id="REFES_14_" class="st1">
			<path class="st4" d="M11.7,3.1L11.6,3L4.8,8.4v4.1l6.9-2.3v0l4.6,2.1V7.6l-4.3-4.4L11.7,3.1z"/>
			<path class="st4" d="M16.2,7.1l0.4,0.5v9.2l1.7-0.1V8.3l-1.7-2h-0.4V7.1z"/>
			<path class="st4" d="M18.7,13.4l1,0.5l0.8,0.3v-2.2l-0.8-0.8l-1-1V13.4z"/>
			<path class="st4" d="M16.2,12.8l-4.6-2L4,13.3v3.5l7.6,0.3l4.6-0.2V12.8z"/>
			<path class="st4" d="M18.7,16.7l2.1-0.1v-1.7l-2.1-1V16.7z"/>
		</g>
	</g>
	<path class="st7" d="M46.9,5.3L46.9,5.3L47,5.1L47,5l0-0.1l0-0.1V4.7l0.1-0.2l0-0.2l0-0.1l0-0.1l0.1,0.1l0,0h0l0,0l0.1,0l0.1,0
		l0.1,0l0.1,0.1l0,0.1l0,0.2L48,4.8l0,0.1l-0.1,0.6l0,0.1l0,0.1l0,0.1l-0.1,0.1l-0.1,0l-0.1,0.1L47.4,6l0,0.1l-0.1,0h-0.1l0,0
		l-0.1,0H47l-0.2,0.1l-0.1,0.1l0,0.1l-0.1,0.1l-0.1,0.1l-0.1,0l-0.1,0.1l-0.1,0.1l-0.1,0L46,6.7l-0.1,0l0,0.1l0,0l0,0.1l-0.1,0
		l-0.1-0.1l0,0l0,0.1l-0.3,0.3l-0.1,0.1l0,0.1l-0.3,0.3L44.9,8l-0.1,0.1l-0.1,0.1l-0.1,0.1l-0.1,0l-0.1,0.1v0.1l-0.1,0.1l-0.2,0.2
		l0,0.1l-0.1,0.1L44,8.9L43.9,9l0,0.1l0,0.1l0,0.1l-0.1,0.1l0,0.3l-0.2,0.2l0,0.1l0.1,0.1l0,0.1l0,0.1l0,0.1h-0.1l0,0l0.1,0.1l0,0.2
		l0,0l0,0.1l0,0.1l0,0.1l0,0.1l0.1,0.5l-0.1,0.1l-0.1,0l-0.1,0l0,0v0.1l0,0.1l0,0.1l0,0.2l0,0.4l0,0.1l0,0l0,0.1l-0.1,0.1l0,0l0,0.1
		l0,0.2l0.1,0.2l0.4,0.2l0.2,0.1l0.2,0.2l0.1,0.1l0,0.1l-0.2,0.3l0,0.1l0,0.2l0.1,0.1l0.2,0.2l0,0l0,0l0,0h0l0,0.1v0.4l0,0.1
		l-0.1,0.1l-0.1,0.1L44.2,16l-0.3,0.3l-0.1,0.1l0,0.1l0,0.1l0,0.1l-0.3,0.2l-0.6,0.2l-1.2,0.2l-1.2,0.1l-0.1-0.1l-0.1-0.1l-0.1-0.1
		l-0.1,0l0,0.1l0,0.1l0,0.1l0,0.1l0,0.1l0.1,0.2l0.1,0.1l0.1,0.1l0,0.1V18l-0.1,0.2l-0.1,0.1l0,0l0,0.1l0,0.1l0,0.1l0,0l0,0l0,0.1
		l0,0.1l-0.1,0l0,0l0,0.1l0,0.1L40,19l0,0.1l0,0.1l-0.1,0.1l-0.5,0.2h-0.5l-0.1-0.1l-0.2-0.1l-0.1-0.1l-0.3-0.1l-0.1,0l0,0l0,0l0,0
		l0,0l0,0l-0.2,0.1l0,0.1l0,0.1l0,0.2L38,20l0,0.1l0,0l0,0.1l0,0.1v0l0.1,0.2l0.1,0.1l0.1,0l0.1,0h0l0,0l-0.1,0.1v0l0.1,0h0.1l0.1,0
		l0,0l0,0l0,0l0,0l0,0l0-0.1l0-0.1l-0.1,0h-0.1l0,0l0,0l0.1,0l0.1-0.1l0.1,0l0,0l0,0.1l0.1,0.1l0,0.2l0,0.2L39,21.2l-0.1,0.1l-0.2,0
		l-0.1,0l-0.1,0l-0.1-0.1l0,0l0,0l0-0.1l0,0l-0.1,0l-0.1,0l-0.2,0L38,21.1l0,0.1l0,0l0,0l0.4,0.2l0,0l0,0l0,0l-0.1,0l-0.3,0.1
		L38,21.7l0,0.1l0,0l0,0.1L37.8,22l0,0.1l0,0.1l0,0.1l0,0.1l0.1,0.1l0,0.1l0,0l0,0l0,0l0,0.1l0,0l0,0l0,0l0,0l0,0l0,0.1l0,0.1l0,0
		l0,0l-0.1,0.1l-0.1,0.1l0,0v0.1l0,0l0.1,0l0,0l0,0l0,0l0,0.1l0,0l0,0l-0.1,0l-0.1,0l-0.1,0h-0.1l-0.1,0.1l-0.1,0l-0.1,0l0,0.1l0,0
		l-0.1,0l-0.1,0l-0.1,0.1l-0.2,0.4l0,0.1v0.1l0,0.1l0,0l0,0l0,0.1l0,0.1v0.3l0,0.1l0.1,0.1l0.5,0.5l0.1,0l0.4,0l0.1,0l0.1,0.1l0,0.1
		l0,0.1l0,0.3l0,0.1l0,0l0,0.1l0,0.1l0,0.1l0,0l0,0.1l0,0l0,0l0,0l0.1,0.1v0.1l0,0l-0.1,0l-0.2,0.3l-0.1,0.1L37,27l-0.2,0.2l-0.1,0
		l-0.1,0.1l-0.1,0.1l-0.2,0.2l-0.1,0.1l0,0.2l0,0.1l0,0l0,0l0,0l0,0.3v0.1l0,0.1l0,0.1l-0.1,0.1l-0.1,0.1l-0.1,0l-0.1,0l0,0l0,0.1
		l-0.1,0.1l-0.1,0L35.7,29l-0.1,0.1l-0.1,0.1l0,0.1v0.3l0,0.1l-0.1,0.1v0l0.1-0.1l0,0l0.1,0.3l0,0.1l0,0.1l0,0.1l-0.1,0l0,0l0.1,0
		l0,0l0.1,0l0,0.1l0.1,0.2l0.3,0.4l0,0L36,31l-0.2,0l-0.1-0.1l-0.1,0l-0.1,0l-0.1,0l-0.1-0.1l-0.1,0l-1.1,0.1l-0.1,0l0-0.1l0-0.1
		l-0.2-0.1l-0.1-0.1l0.1-0.3L33.5,30l0-0.1l0.1-0.1l0-0.1l0-0.1l-0.1,0l0-0.1l0-0.1l0,0l-0.1,0l0,0l0,0l-0.1,0l0,0l0,0l-0.1,0
		L33,29.7h0l0,0l0-0.1l0,0l0,0l-0.1-0.3l0-0.1l-0.1-0.1l0-0.1v-0.1l0-0.1l0-0.2l0-0.1l0-0.1l0-0.1l0-0.1l0-0.1l0.2,0l0-0.1l0-0.1v0
		l0.1-0.2l0,0l0,0l0.1-0.1l0.1-0.1l0-0.1l0-0.1l0-0.1l0,0l0.1-0.1l0.1-0.1l0-0.1l0-0.2l0-0.1l-0.1-0.1l0-0.1l0-0.1l0-0.1l0.1-0.2
		l0-0.1l0-0.1h0.1l0.1,0l0-0.1l0,0l0,0l0-0.1l0,0l-0.1,0l0-0.1l0-0.1v-0.1l0.1-0.1l0-0.1l0-0.1l-0.1-0.2l0-0.1l-0.1-0.1l0-0.1l0.1,0
		l0-0.1l0-0.1l0-0.1l-0.1,0l0-0.1v-0.1l0-0.1l0,0l0.1,0l0,0l0-0.1l0,0l0.1,0l0-0.1v-0.1l-0.1-0.1l0-0.1l-0.1,0l-0.1,0l-0.1,0l-0.1,0
		l0-0.1l0-0.1l0.1,0l0.1,0l0.1,0l0.1,0l0.1,0l0,0v-0.1l0,0l0-0.1l0-0.1l0,0l-0.1,0l-0.3,0l-0.1,0l0-0.2l0-0.1l0-0.1l0.1-0.1l0-0.1
		l0,0l-0.1-0.1l0-0.1l0.1-0.1l0-0.1L33,22.2L33,22.1l0-0.1l0.1-0.1l0-0.1l0-0.1l-0.1,0l-0.1,0l-0.1,0l0-0.1v-0.1l0-0.1v-0.1l0-0.1
		l0-0.1l0-0.1v-0.1l0,0l0-0.1l0-0.1l0.1,0H33l0,0l0-0.1l0-0.1l-0.1-0.2l-0.1-0.1l0-0.1l0-0.1l0-0.1l0-0.3l0-0.3l0-0.1l-0.1-0.1
		l0-0.1l0.1-0.1l0-0.1v-0.1l0-0.1l0,0l0-0.1l0-0.1l0,0h-0.1l0,0v-0.1l0,0l0.1,0l0-0.1v-0.2l0-0.1l0-0.1l0-0.1l0,0l0.1,0l0,0l0.1-0.4
		l0-0.4l0.1-0.1l0.2-0.1l0.1-0.1l0-0.1l0-0.1l-0.1-0.1l0-0.1l0-0.3L33,16.4l0-0.1l0-0.2l0-0.1L33,16v-0.1l0-0.1l0-0.1l0-0.1l0-0.1
		l0-0.2l0,0l0,0l0-0.2l0,0l0,0l0,0l0,0h0.1l0,0l0-0.1l0-0.1l0-0.1l0,0h0.1l0.1-0.1l0-0.2l0-0.1l0-0.1l0-0.1l0-0.1l0-0.1l0-0.1l0,0
		h-0.1l-0.1,0l0-0.1l0.2-0.1l0-0.1l0-0.1l0-0.1l0,0l0.1-0.1v-0.1l0.1-0.2l0-0.1l0-0.1l0,0l0.1,0l0.1-0.1l0-0.1l0-0.1l0-0.1l0-0.2
		l0-0.2l0-0.2l0-0.1l-0.1,0l-0.1,0.1l-0.1-0.1l0-0.1l0-0.1l0-0.1l0-0.1l0,0l-0.1,0l0-0.1l0-0.2L33.4,11l-0.1-0.1l0-0.1l0-0.1
		l0.1-0.1v-0.1l0,0l-0.1,0l-0.1,0v-0.1l0-0.1l-0.1,0l0-0.1l0-0.3l0,0l0.1,0l0,0V9.6l0,0h0l0,0l0,0l0,0l0-0.1l0.1-0.4V9l0-0.1l0,0
		l0.1,0l0,0l0,0l0.1-0.2l0-0.1l-0.1,0l0-0.1l0-0.2l0-0.1l0-0.1l0-0.1l0-0.1l-0.1-0.2l0.1-0.1l0.1-0.1V7.6l0-0.1l0-0.1l0-0.1l0-0.2
		l0-0.1l0-0.1l0.1-0.1l0.2-0.2v0l0-0.1l0.1-0.1L34,6.4l0-0.1l0-0.1l0.1-0.3l0.1-0.1l0-0.1l0-0.1l0.1-0.1l0.1,0l0,0l0.1,0l0,0l0-0.1
		l0,0l0.2,0l0-0.1l0-0.1L34.4,5l0-0.1l0-0.1l0.1-0.1l0.1-0.1l0-0.1l-0.1-0.3l0-0.1l0-0.1l0-0.1l0-0.1l0-0.2l0-0.1l0.1-0.1l-0.1-0.1
		l0-0.1l-0.1,0l0-0.1l0-0.1l0-0.1l0.1-0.1l0.1-0.1l0.2-0.1L35,2.6l0.5-0.3l0.2-1l-0.2-0.2l0-0.1l0-0.1l0.1-0.1l0-0.1V0.8l0.1-0.1
		l0.1,0l0.1-0.1l0-0.1l0-0.1l0.4-0.1l0-0.1l0-0.2l0-0.1l0.1,0l0.1,0l0,0.1l0,0l0.1,0l0.1,0.1l0.1,0l0.7,0l0.3,0.1l0.1,0l0.1,0
		L38,0.5l0,0.1l0,0.1l0.1,0l0,0.1v0.1L38.2,1l0,0.1l0-0.3l0.1-0.2l0.1-0.2l0.1-0.2l0.1,0l0.1,0.1h0l0,0l0.1,0l0.7,0l0.1,0l0,0.1
		l0,0.1l0.1,0.1L40,0.6l0.1,0.1L40.3,1l0,0.1l0,0.1l0.1,0.1l0.2,0.1l0.1,0.1l0.1,0l0.4,0.3l0,0l0,0.1l0.1,0.1l0.2,0.1l0.2,0.1
		l0.3,0.1l0.1,0l0.1,0l1,0.7l0.1,0.1l0.1,0.1l0.1,0l0.1,0l0.1,0.1l0.1,0.1l0.1,0h0.1l0.2,0.1l0.1,0l0.1,0.1l0.2,0.2l0,0.1v0.1l0,0.1
		L44.3,4l-0.1,0.1l-0.1,0.3L44,4.5l-0.1,0.1l0,0.1l0,0.1l0,0.1l0,0.1l-0.1,0.1l-0.2,0.2l-0.1,0.1l-0.1,0l0,0.1l0.1,0.1l0,0l0.2,0
		l0.3,0l0.2,0l0.3,0.1l0.1,0l0.2,0.1l0.1,0l0.1,0l0.1,0l0.1,0h0.1l0.1,0l0.1,0L45.4,6l0.1,0L45.5,6l0.1-0.1l0.1,0l0.1,0l0.1,0.1l0,0
		l0,0l0,0.1L46,6l0.1-0.1l0.1-0.1l0-0.1l0.1-0.1l0.1,0l0.1-0.1l0.1,0l0.1,0h0.1l0.1-0.1l0-0.1l0.1,0L46.9,5.3L46.9,5.3z M36,31.9
		L36,31.9l0,0.2l0.1,0l0.1,0l0,0l0.1,0.2l0.1,0.1l0.4,0.5l0.1,0.1l0.1,0l0.3,0.2l0.1,0.2l0.4,0.2l0.1,0l0.1,0l0.2,0h0.1l0,0l0,0.1
		l0,0.1l-0.1,0.1l0,0l-0.1,0l0,0l-0.1,0l0,0l0,0l0,0l-0.1,0l0,0l0,0l-0.1,0l-0.1,0l-0.1,0l-0.1,0.1h0l-0.3-0.1l-0.1,0l-0.7,0l0,0
		l-0.1-0.1l0-0.3l0.3,0l0.4-0.1l0,0l-0.1,0l-0.3,0l-0.1,0l-0.3,0L36,31.4l0.2,0.3l0,0.1l0,0l0-0.1l0,0L36,31.9z M36.1,33.7
		L36.1,33.7L36.1,33.7L36.1,33.7L36.1,33.7z M41.8,29.9L41.8,29.9L41.8,29.9L41.8,29.9L41.8,29.9L41.8,29.9L41.8,29.9L41.8,29.9
		L41.8,29.9h-0.1h0l0,0h0l0,0h0l0,0l0,0v0h0v0h0v0h0v0l0,0h0v0l0,0h0v0l0,0l0,0L41.8,29.9L41.8,29.9L41.8,29.9L41.8,29.9L41.8,29.9
		L41.8,29.9L41.8,29.9L41.8,29.9L41.8,29.9L41.8,29.9L41.8,29.9L41.8,29.9L41.8,29.9L41.8,29.9L41.8,29.9L41.8,29.9L41.8,29.9
		L41.8,29.9L41.8,29.9z M41.8,29.9L41.8,29.9L41.8,29.9L41.8,29.9L41.8,29.9L41.8,29.9L41.8,29.9L41.8,29.9L41.8,29.9l0.1,0.1v0h0v0
		h0l0,0h0l0,0v0h0v0h0v0h0v0h0l0,0h0l0,0l0,0l0,0h0v0l0,0l0,0l0,0l0,0v0l0,0h0v0h0l0,0h0l0,0v0l0,0h0l0,0h0v0h0l0,0l0,0v0l0,0v0l0,0
		l0,0l0,0l0,0h0v0h0l0,0v0l0,0h0v0l0,0v0l0,0v0l0,0v0l0,0v0l0,0h0l0,0l0,0v0l0,0l0,0v0l0,0l0,0h0v0l0,0l0,0l0,0v0h0l0,0l0,0v0l0,0
		l0,0v0l0,0h0v0l0,0h0l0,0h0l0,0l0,0l0,0l0,0l0,0l0,0v0l0,0l0,0.1h0l0,0v0l0,0v0h0v0l0,0h0l0,0l0,0v0h0l0,0h0l0,0v0h-0.1v0l0,0v0h0
		v0h0l0,0h0l0,0v0l0,0h0l0,0v0h0l0,0v0h0v0l0,0l0,0v0l0,0v0l0,0h0v0.1h0l0,0l0,0l0,0v0l0,0v0l0,0l0,0v0l0,0v0l0,0v0l0,0v0h0l0,0h0
		l0,0v0l0,0h0v0h0v0h0l0,0h0l0,0h0v0h0l0,0l0,0h0l0,0v0l0,0h0v0l0,0h0l0,0l0,0h0v0h0v0h0v0l0,0l0,0v0l0,0v0h0l0,0v0l0,0h0v0l0,0v0
		l0,0h0l0,0v0h0v0h0v0h0l0,0v0h0v0h0l0,0h0v0l0,0h0v0h0l0,0v0h0l0,0h0l0,0v0h0v0h0v0l0,0v0h0l0,0v0l0,0h0v0h0l0,0l0,0v0h0v0h0l0,0h0
		v0h0v0h0v0l0,0v0h0v0h0l0,0l0,0v0h0l0,0v0l0,0l0,0h0v0h0v0h0v0l0,0h0v0l0,0h0l0,0h0l0,0h0v0h0l0,0v0h0v0l0,0v0h0v0h0v0h0v0h0v0h0v0
		l0,0h0l0,0v0l0,0h0v0h0v0l0,0v0h0l0,0h0l0,0h0l0,0h0v0h0l0,0v0l0,0v0h0v0h0l0,0l0,0h0l0,0h0v-0.1h0l0,0v0h0v0l0,0h0v0h0v0l0,0v0h0
		v0h0v0h0v0h0l0,0v0h0v0h0l0,0v0h0v0h0v0h0v0h0v0l0,0l0,0h0l0,0h0l0,0h0v0h0v0h0v0h0l0,0l0,0v0l0,0v0l0,0v0l0,0l0,0v-0.1h0v0l0,0h0
		v0h0v0l0,0v0h0v0h0v0h0l0,0v0h0v0h0v0l0,0h0v0h0l0,0l0,0h0v0h0l0,0l0,0h0v0h0v0h0l0,0l0,0h0l0,0h0l0,0l0,0h0v0h0l0,0v0h0v0h0l0,0h0
		l0,0h0v0h0v0l0,0h0l0,0l0,0v0l0,0h0v0l0,0v0l0,0h0l0,0v-0.1h0v0l0,0v0l0,0h0v0l0,0h0l0,0v0h0v0h0l0,0v0h0v0h0v0l0,0v0l0,0v0h0v0
		l0,0h0v0h0v0h0v0h0v0l0,0v0l0,0v0l0,0h0v0l0,0v0h0v0h0v0l0,0v0h0l0,0v0l0,0l0,0v-0.1h0l0,0h0l0,0h0l0,0v0h0l0,0l0,0h0v0h0l0,0h0
		l0,0v0h-0.1v0l0,0v0h0v0h0v0h0v0h0v0h0l0,0v0h0v0h0v0l0,0v0h0l0,0h0l0,0l0,0l0,0h0l0,0h0l0,0h0l0,0h0l0,0h0l0,0h0l0,0h0l0,0h0v0h0
		l0,0l0,0l0,0l0,0v0h0l0,0v0h0l0,0l0,0v0h0l0,0v0l0,0v0h0l0,0h0l0,0v0l0,0v0l0,0v0h0v0h0l0,0l0,0h0l0,0v0h0l0,0v0h0v0v0l0,0h0l0,0v0
		h0l0,0v0l0,0h0l0,0v0l0,0v0h0l0,0h0l0,0h0v0h0l0,0l0,0l0,0v0h0v0l0,0l0,0v0l0,0v0h0l0,0h0l0,0l0,0v0h0v0h0v0l0,0l0,0h-0.1l0,0h0v0
		l0,0v0h0l0,0l0,0h0v0l0,0v0l0,0v0l0,0h0l0,0h0l0,0v0h0l0,0h0l0,0h0l0,0l0,0l0,0h0l0,0v0h0l0,0v0h0l0,0v0h0v0h0v0h0l0,0h0l0,0v0l0,0
		h0v0l0,0h0v0h0v0h0v0h0v0h0l0,0h0l0,0h0l0,0h0v0l0,0h0v0l0,0h0v0l0,0l0,0h0v0l0,0h0v0l0,0v0h0v0h0l0,0h0v0h0l0,0h0v0h0l0,0v0h0v0h0
		v0h0l0,0h0v0l0,0h0v0h0v0h0v0h0v0h0l0,0l0,0h0v0h0l0,0h0l0,0h0l0,0L41.8,29.9L41.8,29.9L41.8,29.9L41.8,29.9L41.8,29.9L41.8,29.9
		L41.8,29.9L41.8,29.9L41.8,29.9L41.8,29.9L41.8,29.9L41.8,29.9L41.8,30h0l0,0h0l0,0h0l0,0v0h0l0,0h0v0h0v0h0v0h0v0h0V29.9
		L41.8,29.9L41.8,29.9L41.8,29.9L41.8,29.9L41.8,29.9L41.8,29.9L41.8,29.9L41.8,29.9L41.8,29.9L41.8,29.9L41.8,29.9L41.8,29.9
		L41.8,29.9z M41.9,30.1L41.9,30.1L41.9,30.1L41.9,30.1z M41.2,30.8L41.2,30.8L41.2,30.8L41.2,30.8z M42.1,30L42.1,30L42.1,30
		L42.1,30L42.1,30L42.1,30L42.1,30L42.1,30L42.1,30L42.1,30L42.1,30L42.1,30L42.1,30l0.1-0.1l0,0v0l0,0v0h0l0,0h0v0l0,0v0l0,0l0,0h0
		l0,0h0l0,0h0v0h0v0l0,0l0,0l0,0v0h0v0h0v0l0,0v0h0l0,0h0l0,0v0l0,0l0,0l0,0l0,0h0v0h0l0,0v0h0v0l0,0v0h0l0,0v0l0,0h0l0,0h0v0l0,0
		l0,0v0l0,0l0,0v0h0l0,0v0l0,0l0,0h0v0l0,0l0,0l0,0h0v0l0,0l0,0v0h0v0h0v0h0v0l0,0l0,0l0,0h0l0,0v0h0v0h0v0l0,0v0l0,0v0l0,0l0,0v0h0
		l0,0v0l0,0l0,0v0h0v0l0,0v0l0,0v0l0,0h0v0.1h0l0,0v0l0,0v0l0,0l0,0l0,0l0,0h0v0h0v0h0v0h0l0,0v0h0v0l0,0v0h0l0,0v0h0l0,0h0l0,0v0
		l0,0l0,0l0,0l0,0v0h0l0,0h0.1l0,0h0v0l0,0v0h0l0,0l0,0v0h0v0l0,0h0v0.1l0,0l0,0l0,0l0,0v0h0l0,0l0,0v0h0l0,0l0,0l0,0h0v0h0l0,0v0
		l0,0h0l0,0h0l0,0h0l0,0l0,0v0h0l0,0h0v0h0v0l0,0v0h0l0,0v0h0v0l0,0h0l0,0v0h0l0,0v0h0v0h0l0,0h0l0,0h0.1l0,0h0l0,0h0v0l0,0h0v0h0
		l0,0l0,0h0v0l0,0h0l0,0v0h0l0,0l0,0h0v0l0,0h0v0h0l0,0v0l0,0l0,0l0,0h0l0,0h0l0,0v0h0l0,0h0v0h0v0h0l0,0v0l0,0h0v0l0,0v0h0v0l0,0v0
		h0v0l0,0h0v0h0l0,0h0l0,0h0l0,0h0v0h0v0h0v0h0l0,0l0,0l0,0v0h0v0h0l0,0l0,0v0l0,0v0h0v0h0v0h0l0,0h0l0,0l0,0h0v0l0,0l0,0h0v0l0,0h0
		l0,0l0,0l0,0v0l0,0v0h0v0l0,0h0v0h0v0l0,0l0,0h0l0,0h0l0,0h0l0,0l0,0h0v0l0,0h0l0,0h0v0h0l0,0h0v0h0l0,0h0v0h0l0,0l0,0l0,0h0l0,0v0
		l0,0v0h0v0h0v0l0,0v0l0,0h0l0,0h0l0,0v0l0,0v0h0l0,0l0,0v0l0,0l0,0h0l0,0h0l0,0l0,0v0h0v0h0v0h0l0,0h0l0,0v0l0,0v0h0v0h0v0h0l0,0h0
		v0l0,0v0h0l0,0h0v0h0v0l0,0v0l0,0v0h0v0h0v0l0,0h0v0h0v0h0v0h0v0l0,0h0v0l0,0v0h0v0h0v0l0,0v0h0l0,0v0h0v0l0,0h0v0l0,0l0,0v0h0l0,0
		v0l0,0l0,0h0l0,0h0v0h0l0,0v0h0l0,0v0h0l0,0v0h0v0h0v0h0v0l0,0v0h0v0h0v0h0l0,0v0h0l0,0h0v0l0,0l0,0v0h0v0l0,0v0h0v0l0,0l0,0h0v0h0
		v0h0l0,0l0,0h0l0,0v0h0l0,0h0v0h0v0h0v0h0v0h0v0l0,0l0,0h0v0l0,0v0h0v0h0l0,0l0,0h0l0,0h0v0h0v0h0v0h0v0l0,0h0l0,0v0h0v0h0l0,0l0,0
		v0l0,0v0h0v0l0,0v0h0v0h0l0,0v0h0v0h0v0h0v0h0v0l0,0v0h0l0,0v0l0,0h0l0,0h0v0h0v0h0l0,0l0,0v0h0v0h0v0h0v0h0v0l0,0v0h0v0l0,0h0v0h0
		v0l0,0v0l0,0l0,0h0l0,0v0l0,0l0,0l0,0v0h0v0h0v0h0v0h0v0l0,0v0h0v0h0v0l0,0l0,0h0v0h0l0,0v0h0v0h0v0l0,0l0,0v0h0l0,0h0v0l0,0h0v0
		l0,0v0h0v0h0v0h0v0h0l0,0v0h0v0l0,0h0l0,0h0v0l0,0l0,0v0h0v0l0,0v0h0l0,0l0,0h0l0,0v0h0v0l0,0h0v0l0,0v0h0v0h0v0h0l0,0h0v0h0v0l0,0
		v0l0,0h0l0,0v0l0,0h0v0h0v0h0v0l0,0v0h0v0l0,0v0l0,0v0l0,0v0h0v0l0,0l0,0h0v0h0v0l0,0v0h0v0l0,0h0l0,0v0h0v0h0l0,0h0v0h0v0h0l0,0v0
		h0v0h0l0,0l0,0h0l0,0h0v0l0,0v0h0v0l0,0h0v0l0,0h0v0h0v0l0,0h0v0h0v0h0v0h0l0,0h0v0h0v0h0v0l0,0h0v0h0v0h0v0h0v0l0,0v0l0,0v0l0,0
		l0,0l0,0v0h0v0h0l0,0v0l0,0h0v0h0l0,0h0v0h0v0l0,0l0,0l0,0v0h0l0,0v0l0,0l0,0v0l0,0v0h0l0,0l0,0l0,0h0v0.1h0v0l0,0v0l0,0v0h0v0h0
		l0,0h0v0l0,0h0v0h0l0,0v0h0v0h0v0l0,0v0h0v0h0l0,0h0l0,0h0l0,0l0,0v0l0,0l0,0h0l0,0h0v0l0,0l0,0l0,0v0l0,0L42.1,30L42.1,30L42.1,30
		l0,0.1l0,0v0h0v0l0,0v0h0v0l0,0v0l0,0v0l0,0v0l0,0v0h0L42.1,30L42.1,30L42.1,30L42.1,30L42.1,30L42.1,30L42.1,30L42.1,30L42.1,30
		L42.1,30L42.1,30L42.1,30L42.1,30L42.1,30L42.1,30L42.1,30L42.1,30L42.1,30L42.1,30z M42.3,29.9L42.3,29.9L42.3,29.9L42.3,29.9
		L42.3,29.9z M41.7,30.7L41.7,30.7L41.7,30.7L41.7,30.7L41.7,30.7z M42.1,30.1L42.1,30.1L42.1,30.1L42.1,30.1L42.1,30.1L42.1,30.1
		L42.1,30.1L42.1,30.1L42.1,30.1z M42.2,30.1L42.2,30.1L42.2,30.1L42.2,30.1z M42,30.5L42,30.5L42,30.5L42,30.5L42,30.5L42,30.5
		L42,30.5L42,30.5L42,30.5L42,30.5L42,30.5z M41.8,30.5L41.8,30.5L41.8,30.5L41.8,30.5L41.8,30.5z M42,30.6L42,30.6L42,30.6L42,30.6
		z M42,30.7L42,30.7L42,30.7L42,30.7z M42.3,30.5L42.3,30.5L42.3,30.5L42.3,30.5L42.3,30.5z M42.1,30.6L42.1,30.6L42.1,30.6
		L42.1,30.6L42.1,30.6z M42.5,30.1L42.5,30.1L42.5,30.1L42.5,30.1L42.5,30.1z M42.6,30.2L42.6,30.2L42.6,30.2L42.6,30.2L42.6,30.2
		L42.6,30.2z M42.5,30.4L42.5,30.4L42.5,30.4L42.5,30.4L42.5,30.4z M42.5,30.4L42.5,30.4L42.5,30.4L42.5,30.4L42.5,30.4L42.5,30.4
		L42.5,30.4L42.5,30.4L42.5,30.4L42.5,30.4L42.5,30.4L42.5,30.4z M41.9,30.8L41.9,30.8L41.9,30.8L41.9,30.8L41.9,30.8z M41.3,29.8
		L41.3,29.8L41.3,29.8L41.3,29.8L41.3,29.8L41.3,29.8L41.3,29.8L41.3,29.8L41.3,29.8L41.3,29.8L41.3,29.8l0.1,0h0l0,0l0,0v0l0,0v0
		l0,0h0v0l0,0v0h0v0h0l0,0v0l0,0v0l0,0l0,0l0,0h0l0,0h0l0,0h0l0,0l0,0h0l0,0h0v0l0,0l0,0h0v0l0,0l0,0h0L41.3,29.8L41.3,29.8
		L41.3,29.8l0.1,0.1l0,0v0h0v0h0L41.3,29.8L41.3,29.8L41.3,29.8L41.3,29.8L41.3,29.8L41.3,29.8L41.3,29.8L41.3,29.8L41.3,29.8
		L41.3,29.8L41.3,29.8L41.3,29.8z M41.3,29.9L41.3,29.9L41.3,29.9L41.3,29.9L41.3,29.9z M41.2,29.9L41.2,29.9L41.2,29.9L41.2,29.9
		L41.2,29.9z M41.5,29.9L41.5,29.9L41.5,29.9L41.5,29.9L41.5,29.9L41.5,29.9L41.5,29.9L41.5,29.9L41.5,29.9L41.5,29.9L41.5,29.9
		L41.5,29.9L41.5,29.9L41.5,29.9L41.5,29.9L41.5,29.9L41.5,29.9L41.5,29.9L41.5,29.9L41.5,29.9L41.5,29.9z M41.5,29.8L41.5,29.8
		L41.5,29.8L41.5,29.8L41.5,29.8z M41.5,29.8L41.5,29.8L41.5,29.8L41.5,29.8L41.5,29.8L41.5,29.8L41.5,29.8L41.5,29.8L41.5,29.8
		L41.5,29.8L41.5,29.8L41.5,29.8L41.5,29.8z M41.6,30L41.6,30L41.6,30L41.6,30L41.6,30L41.6,30L41.6,30L41.6,30L41.6,30L41.6,30
		L41.6,30L41.6,30L41.6,30L41.6,30L41.6,30L41.6,30L41.6,30L41.6,30L41.6,30L41.6,30L41.6,30L41.6,30L41.6,30z M41.6,30L41.6,30
		L41.6,30L41.6,30L41.6,30L41.6,30L41.6,30L41.6,30L41.6,30L41.6,30L41.6,30L41.6,30L41.6,30z M41.6,30L41.6,30L41.6,30L41.6,30
		L41.6,30L41.6,30L41.6,30L41.6,30z M41.7,30L41.7,30L41.7,30L41.7,30L41.7,30L41.7,30L41.7,30L41.7,30L41.7,30z M41.8,30.4
		L41.8,30.4L41.8,30.4L41.8,30.4L41.8,30.4L41.8,30.4L41.8,30.4L41.8,30.4L41.8,30.4z M41.3,30.3L41.3,30.3L41.3,30.3L41.3,30.3
		L41.3,30.3L41.3,30.3L41.3,30.3z M41.3,30.2L41.3,30.2L41.3,30.2L41.3,30.2z M41.7,30.4L41.7,30.4L41.7,30.4L41.7,30.4L41.7,30.4
		L41.7,30.4L41.7,30.4L41.7,30.4L41.7,30.4L41.7,30.4L41.7,30.4L41.7,30.4L41.7,30.4L41.7,30.4L41.7,30.4L41.7,30.4L41.7,30.4
		L41.7,30.4z M41.7,30.4L41.7,30.4L41.7,30.4L41.7,30.4L41.7,30.4L41.7,30.4z M41.7,30.5L41.7,30.5L41.7,30.5L41.7,30.5L41.7,30.5z
		 M41.6,30.6L41.6,30.6L41.6,30.6L41.6,30.6L41.6,30.6L41.6,30.6L41.6,30.6L41.6,30.6L41.6,30.6L41.6,30.6L41.6,30.6z M41.6,30.7
		L41.6,30.7L41.6,30.7L41.6,30.7L41.6,30.7z M41.5,30.7L41.5,30.7L41.5,30.7L41.5,30.7L41.5,30.7z M41.6,30.7L41.6,30.7L41.6,30.7
		L41.6,30.7L41.6,30.7L41.6,30.7L41.6,30.7L41.6,30.7L41.6,30.7L41.6,30.7L41.6,30.7z M41.7,30.6L41.7,30.6L41.7,30.6L41.7,30.6
		L41.7,30.6L41.7,30.6L41.7,30.6L41.7,30.6z M42.3,30.6L42.3,30.6L42.3,30.6L42.3,30.6L42.3,30.6L42.3,30.6L42.3,30.6z M42.5,30.5
		L42.5,30.5L42.5,30.5L42.5,30.5L42.5,30.5z M42.4,30.6L42.4,30.6L42.4,30.6L42.4,30.6L42.4,30.6L42.4,30.6L42.4,30.6L42.4,30.6z
		 M42.2,30.9L42.2,30.9L42.2,30.9L42.2,30.9L42.2,30.9L42.2,30.9L42.2,30.9L42.2,30.9L42.2,30.9L42.2,30.9L42.2,30.9L42.2,30.9
		L42.2,30.9L42.2,30.9L42.2,30.9L42.2,30.9L42.2,30.9L42.2,30.9L42.2,30.9L42.2,30.9L42.2,30.9L42.2,30.9L42.2,30.9L42.2,30.9
		L42.2,30.9L42.2,30.9L42.2,30.9z M42.1,30.8L42.1,30.8L42.1,30.8L42.1,30.8L42.1,30.8z M41.6,30.8L41.6,30.8L41.6,30.8L41.6,30.8
		L41.6,30.8L41.6,30.8L41.6,30.8L41.6,30.8L41.6,30.8L41.6,30.8L41.6,30.8L41.6,30.8L41.6,30.8L41.6,30.8L41.6,30.8L41.6,30.8
		l0.1,0.1h0l0,0v0l0,0L41.6,30.8L41.6,30.8L41.6,30.8L41.6,30.8z M41.6,31L41.6,31L41.6,31L41.6,31L41.6,31L41.6,31L41.6,31L41.6,31
		L41.6,31L41.6,31L41.6,31L41.6,31L41.6,31L41.6,31L41.6,31L41.6,31L41.6,31L41.6,31L41.6,31L41.6,31L41.6,31L41.6,31z M41.6,31.1
		L41.6,31.1L41.6,31.1L41.6,31.1L41.6,31.1L41.6,31.1L41.6,31.1z M41.6,31.1L41.6,31.1L41.6,31.1L41.6,31.1L41.6,31.1L41.6,31.1
		L41.6,31.1L41.6,31.1L41.6,31.1L41.6,31.1L41.6,31.1L41.6,31.1z M41.2,29.8L41.2,29.8L41.2,29.8L41.2,29.8L41.2,29.8L41.2,29.8
		L41.2,29.8L41.2,29.8L41.2,29.8L41.2,29.8L41.2,29.8L41.2,29.8L41.2,29.8L41.2,29.8L41.2,29.8L41.2,29.8L41.2,29.8L41.2,29.8z
		 M41,29.9L41,29.9L41,29.9L41,29.9L41,29.9L41,29.9L41,29.9L41,29.9L41,29.9L41,29.9L41,29.9L41,29.9L41,29.9L41,29.9L41,29.9z
		 M41.2,29.9L41.2,29.9L41.2,29.9L41.2,29.9L41.2,29.9L41.2,29.9L41.2,29.9z M41.2,30.2L41.2,30.2L41.2,30.2L41.2,30.2L41.2,30.2
		L41.2,30.2L41.2,30.2L41.2,30.2z M41,30.1L41,30.1L41,30.1L41,30.1L41,30.1z M41,30.2L41,30.2L41,30.2L41,30.2L41,30.2L41,30.2
		L41,30.2L41,30.2L41,30.2L41,30.2z M41,30.2L41,30.2L41,30.2L41,30.2L41,30.2z M41,30.2L41,30.2L41,30.2L41,30.2L41,30.2L41,30.2
		L41,30.2L41,30.2z M41.2,30.2L41.2,30.2L41.2,30.2L41.2,30.2L41.2,30.2L41.2,30.2L41.2,30.2L41.2,30.2z M40.7,30.3L40.7,30.3
		L40.7,30.3L40.7,30.3L40.7,30.3L40.7,30.3L40.7,30.3L40.7,30.3z M40.7,30.3L40.7,30.3L40.7,30.3L40.7,30.3L40.7,30.3L40.7,30.3
		L40.7,30.3L40.7,30.3L40.7,30.3L40.7,30.3L40.7,30.3L40.7,30.3L40.7,30.3L40.7,30.3L40.7,30.3L40.7,30.3L40.7,30.3L40.7,30.3
		L40.7,30.3L40.7,30.3L40.7,30.3L40.7,30.3L40.7,30.3L40.7,30.3L40.7,30.3z M40.9,30.4L40.9,30.4L40.9,30.4L40.9,30.4L40.9,30.4
		L40.9,30.4L40.9,30.4L40.9,30.4l0,0.1h0v0l0,0v0h0l0,0l0,0v0h0v0h0v0h0v0h0l0,0h0v0h0v0h0l0,0v0h0v0h0v0h0v0h0v0h0v0h0l0,0v0l0,0v0
		h0v0l0,0h0v0l0,0h0v0h0v0h0v0h0v0l0,0h0v0h0v0h0v0h0l0,0h0v0h0l0,0v0l0,0l0,0l0,0h0v0h0v0l0,0h0v0h0v0L40.9,30.4L40.9,30.4
		L40.9,30.4L40.9,30.4L40.9,30.4L40.9,30.4L40.9,30.4L40.9,30.4L40.9,30.4L40.9,30.4L40.9,30.4L40.9,30.4L40.9,30.4L40.9,30.4
		L40.9,30.4L40.9,30.4l-0.1,0.1v0l0,0v0h0v0h0v0h0v0l0,0L40.9,30.4L40.9,30.4L40.9,30.4L40.9,30.4L40.9,30.4L40.9,30.4L40.9,30.4
		L40.9,30.4L40.9,30.4L40.9,30.4L40.9,30.4L40.9,30.4L40.9,30.4z M40.8,30.4L40.8,30.4L40.8,30.4L40.8,30.4L40.8,30.4L40.8,30.4z
		 M40.8,30.4L40.8,30.4L40.8,30.4L40.8,30.4L40.8,30.4z M40.7,30.4L40.7,30.4L40.7,30.4L40.7,30.4L40.7,30.4L40.7,30.4L40.7,30.4
		L40.7,30.4L40.7,30.4L40.7,30.4L40.7,30.4L40.7,30.4L40.7,30.4L40.7,30.4L40.7,30.4L40.7,30.4L40.7,30.4L40.7,30.4L40.7,30.4
		L40.7,30.4L40.7,30.4L40.7,30.4L40.7,30.4L40.7,30.4L40.7,30.4L40.7,30.4L40.7,30.4L40.7,30.4L40.7,30.4L40.7,30.4L40.7,30.4
		L40.7,30.4z M40.7,30.5L40.7,30.5L40.7,30.5L40.7,30.5L40.7,30.5z M40.7,30.5L40.7,30.5L40.7,30.5L40.7,30.5L40.7,30.5L40.7,30.5
		L40.7,30.5L40.7,30.5L40.7,30.5L40.7,30.5z M40.8,30.5L40.8,30.5L40.8,30.5L40.8,30.5L40.8,30.5L40.8,30.5L40.8,30.5L40.8,30.5
		L40.8,30.5L40.8,30.5z M40.9,30.7L40.9,30.7L40.9,30.7L40.9,30.7L40.9,30.7L40.9,30.7z M40.9,30.7L40.9,30.7L40.9,30.7L40.9,30.7z
		 M41.2,30.9L41.2,30.9L41.2,30.9L41.2,30.9L41.2,30.9z"/>
</g>
<g>
</g>
<g>
</g>
<g>
</g>
<g>
</g>
<g>
</g>
<g>
</g>
<g>
</g>
<g>
</g>
<g>
</g>
<g>
</g>
<g>
</g>
<g>
</g>
<g>
</g>
<g>
</g>
<g>
</g>
</svg>
