<?xml version="1.0" encoding="utf-8"?>
<!-- Generator: Adobe Illustrator 16.0.0, SVG Export Plug-In . SVG Version: 6.00 Build 0)  -->
<!DOCTYPE svg PUBLIC "-//W3C//DTD SVG 1.1//EN" "http://www.w3.org/Graphics/SVG/1.1/DTD/svg11.dtd">
<svg version="1.1" id="Capa_1" xmlns="http://www.w3.org/2000/svg" xmlns:xlink="http://www.w3.org/1999/xlink" x="0px" y="0px"
	 width="48px" height="48px" viewBox="0 0 48 48" style="enable-background:new 0 0 48 48;" xml:space="preserve">
<style type="text/css">
<![CDATA[
	.st0{fill:#80CFF5;}
	.st1{fill:#B4E1FA;}
	.st2{fill:#FFD851;}
]]>
</style>
<g>
	<path class="st0" d="M31.5,0c-1.4,0-2.6,0.1-3.9,0.4c1,0.7,1.9,1.4,2.7,2.3c2.8,2.8,4.6,6,5.3,9.7c3.7,0.7,6.9,2.5,9.7,5.3
		c0.9,0.8,1.6,1.7,2.3,2.7c0.3-1.3,0.4-2.6,0.4-3.9c0-4.6-1.6-8.4-4.8-11.7C40,1.6,36.1,0,31.5,0z"/>
	<path class="st0" d="M30.3,17.7c0.9,0.8,1.6,1.7,2.3,2.7c0.3-1.3,0.4-2.6,0.4-3.9c0-0.5,0-1,0-1.4c-0.5,0-1-0.1-1.5-0.1
		c-1.4,0-2.6,0.1-3.9,0.4C28.6,16.1,29.5,16.9,30.3,17.7z"/>
	<path class="st1" d="M31.5,12c0.3,0,0.6,0,1,0c-0.7-2.7-2.2-5.1-4.3-7.2c-1.3-1.3-2.7-2.3-4.2-3.1c-1.5,0.8-2.9,1.8-4.1,3.1
		c-2.1,2.1-3.5,4.5-4.3,7.2c0.3,0,0.6,0,0.9,0c2.7,0,5.2,0.5,7.5,1.4C26.3,12.5,28.8,12,31.5,12z"/>
	<path class="st1" d="M36,15.6c0,0.3,0,0.6,0,0.9c0,2.7-0.5,5.2-1.4,7.5c1,2.3,1.4,4.8,1.4,7.5c0,0.3,0,0.6,0,0.9
		c2.7-0.7,5.1-2.2,7.2-4.3h0c1.3-1.3,2.3-2.7,3.1-4.2c-0.8-1.5-1.8-2.9-3.1-4.2C41.1,17.7,38.7,16.3,36,15.6z"/>
	<path class="st0" d="M47.6,27.6c-0.7,0.9-1.4,1.8-2.3,2.7c-2.8,2.8-6,4.6-9.7,5.3c-0.8,3.6-2.5,6.9-5.3,9.7
		c-0.8,0.9-1.7,1.6-2.7,2.3c1.3,0.3,2.5,0.4,3.9,0.4c4.6,0,8.5-1.6,11.7-4.8l0,0c3.2-3.2,4.8-7.1,4.8-11.6
		C48,30.1,47.9,28.8,47.6,27.6z"/>
	<path class="st2" d="M28.2,28.2L28.2,28.2c1.3-1.3,2.3-2.7,3.1-4.2c-0.8-1.5-1.8-2.9-3.1-4.2c-1.3-1.3-2.7-2.3-4.2-3.1
		c-1.5,0.7-2.9,1.8-4.2,3.1c-1.3,1.3-2.3,2.7-3.1,4.2c0.8,1.5,1.8,2.9,3.1,4.1c1.3,1.3,2.6,2.3,4.1,3.1
		C25.5,30.5,26.9,29.5,28.2,28.2z"/>
	<path class="st0" d="M31.5,33c0.5,0,1,0,1.5-0.1c0-0.5,0-0.9,0-1.4c0-1.4-0.1-2.7-0.4-3.9c-0.7,0.9-1.4,1.8-2.3,2.7
		c-0.8,0.9-1.7,1.6-2.7,2.3C28.9,32.9,30.1,33,31.5,33z"/>
	<path class="st1" d="M28.2,43.2L28.2,43.2c2.1-2.1,3.5-4.5,4.3-7.2c-0.3,0-0.6,0-1,0c-2.7,0-5.2-0.5-7.5-1.4
		c-2.3,1-4.8,1.4-7.5,1.4c-0.3,0-0.6,0-0.9,0c0.8,2.7,2.2,5.1,4.3,7.2c1.3,1.3,2.6,2.3,4.1,3.1C25.5,45.5,26.9,44.5,28.2,43.2z"/>
	<path class="st0" d="M17.7,2.7c0.9-0.9,1.7-1.6,2.7-2.3C19.2,0.1,17.9,0,16.5,0C12,0,8.1,1.6,4.9,4.8C1.6,8.1,0,12,0,16.5
		c0,1.4,0.1,2.7,0.5,3.9c0.7-0.9,1.4-1.8,2.3-2.7l0,0c2.8-2.8,6-4.6,9.7-5.3C13.2,8.7,14.9,5.5,17.7,2.7L17.7,2.7z"/>
	<path class="st0" d="M15,16.5c0,1.4,0.1,2.7,0.5,3.9c0.7-0.9,1.4-1.8,2.3-2.7l0,0c0.9-0.9,1.7-1.6,2.7-2.3
		c-1.2-0.3-2.5-0.4-3.9-0.4c-0.5,0-1,0-1.4,0.1C15,15.5,15,16,15,16.5z"/>
	<path class="st1" d="M12.1,15.6c-2.7,0.8-5.1,2.2-7.2,4.3c-1.3,1.3-2.3,2.7-3.1,4.2c0.8,1.5,1.8,2.9,3.1,4.2
		c2.1,2.1,4.5,3.5,7.2,4.3c0-0.3-0.1-0.6-0.1-0.9c0-2.7,0.5-5.2,1.5-7.5c-1-2.3-1.5-4.8-1.5-7.5C12,16.2,12,15.9,12.1,15.6z"/>
	<path class="st0" d="M15.1,32.9c0.5,0,0.9,0.1,1.4,0.1c1.4,0,2.7-0.1,3.9-0.4c-0.9-0.7-1.8-1.4-2.7-2.3c-0.9-0.8-1.6-1.7-2.3-2.7
		c-0.3,1.2-0.5,2.5-0.5,3.9C15,32,15,32.5,15.1,32.9z"/>
	<path class="st0" d="M0.5,27.6C0.1,28.8,0,30.1,0,31.5c0,4.6,1.6,8.5,4.9,11.7C8.1,46.4,12,48,16.5,48c1.4,0,2.7-0.1,3.9-0.4
		c-0.9-0.7-1.8-1.4-2.7-2.3c-2.8-2.8-4.6-6-5.3-9.7c-3.7-0.7-6.9-2.5-9.7-5.3C1.9,29.4,1.1,28.5,0.5,27.6z"/>
</g>
</svg>
