<?xml version="1.0" encoding="utf-8"?>
<!-- Generator: Adobe Illustrator 16.0.0, SVG Export Plug-In . SVG Version: 6.00 Build 0)  -->
<!DOCTYPE svg PUBLIC "-//W3C//DTD SVG 1.1//EN" "http://www.w3.org/Graphics/SVG/1.1/DTD/svg11.dtd">
<svg version="1.1" id="puco" xmlns="http://www.w3.org/2000/svg" xmlns:xlink="http://www.w3.org/1999/xlink" x="0px" y="0px"
	 width="48px" height="48px" viewBox="0 0 48 48" style="enable-background:new 0 0 48 48;" xml:space="preserve">
<style type="text/css">
<![CDATA[
	.st0{fill:#FF9900;}
	.st1{fill:#FFFFFF;}
	.st2{fill:#000055;}
]]>
</style>
<g>
	<path class="st1" d="M24,0C10.8,0,0,10.8,0,24c0,13.2,10.8,24,24,24s24-10.8,24-24C48,10.8,37.2,0,24,0z M24,46
		C11.9,46,2,36.1,2,24c0-3.5,0.8-6.7,2.2-9.7C8.3,9,15.6,5.5,24,5.5c8.4,0,15.7,3.5,19.8,8.9c1.4,2.9,2.2,6.2,2.2,9.7
		C46,36.1,36.1,46,24,46z"/>
	<g>
		<path class="st2" d="M10.8,34.3c1.4-1.7,3.1-2.8,5-3.2c-1.2-1.9-2-4.1-2.2-6.6l-0.1-0.7c0-0.4,0-0.8,0.1-1.2c0,0,0,0-0.1,0
			c-0.1-0.1-0.2-0.2-0.4-0.2c0,0-0.1-0.1-0.1-0.1l0,0c-0.3-0.2-0.6-0.5-0.9-0.6c0.1-0.1,0.2-0.2,0.3-0.3h0l0.3-0.4
			c0.8-1,1.2-2.1,1.2-3.4v-0.2c0-1.2-0.4-2.3-1.2-3.1C12.1,13.4,11.1,13,10,13c-1.2,0-2.1,0.4-2.9,1.3c-0.8,0.8-1.3,1.9-1.3,3.1
			l0,0.2C5.9,18.9,6.3,20,7,20.9l0.3,0.4h0c0,0,0.2,0.2,0.3,0.3c-0.4,0.2-0.7,0.4-1,0.7h0l0,0c0,0-0.1,0.1-0.1,0.1
			c-0.1,0.1-0.3,0.2-0.4,0.2c-0.9,0-1.6,0.4-2.2,1.2c0,0.1,0,0.3,0,0.4c0,5.1,1.9,9.7,5,13.2C9.5,36.3,10.1,35.2,10.8,34.3z"/>
		<path class="st2" d="M41.8,22.6c-0.1-0.1-0.2-0.2-0.3-0.2c0,0-0.1-0.1-0.1-0.1l0,0c-0.3-0.2-0.6-0.5-0.9-0.6
			c0.1-0.1,0.2-0.2,0.3-0.3h0.1l0.3-0.4c0.8-1,1.2-2.1,1.2-3.4v-0.2c0-1.2-0.4-2.2-1.2-3.1c0,0,0,0-0.1-0.1
			c-0.8-0.8-1.7-1.2-2.8-1.2c-1.2,0-2.1,0.4-2.9,1.3c-0.8,0.8-1.3,1.9-1.3,3.1l0,0.2c0.1,1.3,0.5,2.5,1.2,3.4l0.3,0.4h0
			c0.1,0,0.2,0.2,0.3,0.3c-0.4,0.2-0.7,0.4-1,0.7h0l0,0c0,0-0.1,0.1-0.1,0.1c-0.1,0.1-0.2,0.2-0.3,0.2c-0.1,0-0.1,0-0.2,0
			c0,0.4,0.1,0.8,0.1,1.2v0.4c0,2.5-0.7,4.8-2.1,6.9c2,0.5,3.7,1.5,5,3.2c0.7,0.9,1.3,2,1.8,3.1c3.1-3.5,5-8.1,5-13.2
			c0-0.1,0-0.3,0-0.4C43.4,23,42.7,22.6,41.8,22.6z"/>
		<path class="st0" d="M36.9,39.4c-0.4-1.3-1-2.5-1.8-3.5c-1.1-1.4-2.5-2.2-4.2-2.4l-2.8,5.3h-2.4v-3.1l1.8,2.7l0.1-0.1v0.1l2.8-4.9
			l-0.1-0.1L30.1,33l-1,1.1l-0.7,0.5c-0.8,0.4-1.6,0.8-2.6,1l-1.7,3.2l-1.7-3.2c-1.1-0.2-2-0.5-2.6-1l-0.7-0.5L17.9,33l-0.3,0.4v0.1
			l2.7,4.9l0.1-0.1v0.1l2-2.7v3.1h-2.6l-2.6-5l-0.1-0.3c-1.7,0.2-3.1,1-4.3,2.4c-0.8,1-1.4,2.2-1.8,3.5c3,2.5,6.7,4.2,10.8,4.6h4.2
			C30.2,43.6,34,41.9,36.9,39.4z"/>
		<path class="st0" d="M16.2,23.8l0.1,0.4c0.2,2.5,0.9,4.6,2.3,6.3l0.6,0.7h0.1c0.2,0.2,0.6,0.5,1.3,1.2c1.1,0.7,2.3,1.1,3.5,1.1
			c1.2,0,2.3-0.4,3.4-1.1c0.6-0.3,1.1-0.7,1.4-1.2h0.1l0.5-0.7c1.5-1.9,2.2-4,2.2-6.3v-0.4c0-2.3-0.7-4.2-2.2-5.8
			c-1.4-1.6-3.2-2.4-5.4-2.4c-2.2,0-4,0.8-5.5,2.4C17,19.6,16.2,21.5,16.2,23.8z"/>
	</g>
</g>
</svg>
