<?xml version="1.0" encoding="utf-8"?>
<!-- Generator: Adobe Illustrator 16.0.0, SVG Export Plug-In . SVG Version: 6.00 Build 0)  -->
<!DOCTYPE svg PUBLIC "-//W3C//DTD SVG 1.1//EN" "http://www.w3.org/Graphics/SVG/1.1/DTD/svg11.dtd">
<svg version="1.1" id="Capa_1" xmlns="http://www.w3.org/2000/svg" xmlns:xlink="http://www.w3.org/1999/xlink" x="0px" y="0px"
	 width="48px" height="48px" viewBox="0 0 48 48" style="enable-background:new 0 0 48 48;" xml:space="preserve">
<style type="text/css">
<![CDATA[
	.st0{opacity:0.3;fill-rule:evenodd;clip-rule:evenodd;fill:#FFFFFF;}
	.st1{clip-path:url(#SVGID_2_);}
	.st2{fill:#FFFFFF;}
	.st3{opacity:0.1;fill-rule:evenodd;clip-rule:evenodd;fill:#FFFFFF;}
	.st4{fill-rule:evenodd;clip-rule:evenodd;fill:#FFFFFF;}
]]>
</style>
<g id="Biblioteca_1_">
	<g>
		<rect x="2" class="st4" width="27.6" height="36"/>
		<rect x="3" y="1" class="st4" width="25.6" height="36"/>
		<g>
			<polygon class="st4" points="0,38 0,2 25,2 25,3.7 27.6,8.3 27.6,17.4 25,22 25,38 			"/>
			<polygon class="st3" points="1,37 1,3 23,3 23,4.7 25.6,9.3 25.6,17.1 23,21.7 23,37 			"/>
		</g>
		<polygon class="st4" points="2,2 0,2 0,2 2,0 		"/>
	</g>
	<g>
		<g>
			<rect x="3" y="2" class="st2" width="30" height="40"/>
			<rect x="4" y="3" class="st2" width="28" height="38"/>
		</g>
		<g>
			<rect x="6" y="9" class="st2" width="2" height="2"/>
			<rect x="9" y="9" class="st2" width="2" height="2"/>
			<rect x="12" y="9" class="st2" width="2" height="2"/>
			<rect x="15" y="9" class="st2" width="4" height="2"/>
			<rect x="20" y="9" class="st2" width="4" height="2"/>
			<rect x="6" y="12" class="st2" width="2" height="2"/>
			<rect x="9" y="12" class="st2" width="2" height="2"/>
			<rect x="12" y="12" class="st2" width="2" height="2"/>
			<rect x="15" y="12" class="st2" width="4" height="2"/>
			<rect x="20" y="12" class="st2" width="4" height="2"/>
			<rect x="6" y="15" class="st2" width="2" height="2"/>
			<rect x="9" y="15" class="st2" width="2" height="2"/>
			<rect x="12" y="15" class="st2" width="2" height="2"/>
			<rect x="15" y="15" class="st2" width="4" height="2"/>
			<rect x="20" y="15" class="st2" width="4" height="2"/>
			<rect x="6" y="18" class="st2" width="2" height="2"/>
			<rect x="9" y="18" class="st2" width="2" height="2"/>
			<rect x="12" y="18" class="st2" width="2" height="2"/>
			<rect x="15" y="18" class="st2" width="4" height="2"/>
			<rect x="20" y="18" class="st2" width="4" height="2"/>
			<rect x="6" y="21" class="st2" width="2" height="2"/>
			<rect x="9" y="21" class="st2" width="2" height="2"/>
			<rect x="12" y="21" class="st2" width="2" height="2"/>
			<rect x="15" y="21" class="st2" width="4" height="2"/>
			<rect x="20" y="21" class="st2" width="4" height="2"/>
			<rect x="6" y="27" class="st2" width="18" height="1"/>
			<rect x="6" y="25" class="st2" width="5" height="1"/>
			<rect x="6" y="7" class="st2" width="22" height="1"/>
			<rect x="6" y="5" class="st2" width="7" height="1"/>
			<rect x="6" y="29" class="st2" width="2" height="2"/>
			<rect x="9" y="29" class="st2" width="2" height="2"/>
			<rect x="12" y="29" class="st2" width="2" height="2"/>
			<rect x="15" y="29" class="st2" width="4" height="2"/>
			<rect x="20" y="29" class="st2" width="4" height="2"/>
			<rect x="6" y="32" class="st2" width="2" height="2"/>
			<rect x="9" y="32" class="st2" width="2" height="2"/>
			<rect x="12" y="32" class="st2" width="2" height="2"/>
			<rect x="15" y="32" class="st2" width="4" height="2"/>
			<rect x="20" y="32" class="st2" width="4" height="2"/>
			<rect x="6" y="35" class="st2" width="2" height="2"/>
			<rect x="9" y="35" class="st2" width="2" height="2"/>
			<rect x="12" y="35" class="st2" width="2" height="2"/>
			<rect x="15" y="35" class="st2" width="4" height="2"/>
			<rect x="20" y="35" class="st2" width="4" height="2"/>
		</g>
	</g>
	<g>
		<rect x="10" y="4" class="st4" width="32" height="40"/>
		<rect x="11" y="5" class="st4" width="30" height="38"/>
		<rect x="13" y="20" class="st2" width="23" height="2"/>
		<rect x="13" y="24" class="st2" width="6" height="6"/>
		<rect x="13" y="32" class="st2" width="23" height="2"/>
		<rect x="13" y="36" class="st2" width="6" height="6"/>
		<rect x="24" y="8" class="st2" width="12" height="2"/>
		<rect x="24" y="12" class="st2" width="12" height="2"/>
		<rect x="24" y="16" class="st2" width="12" height="2"/>
		<rect x="21" y="24" class="st2" width="12" height="2"/>
		<rect x="21" y="28" class="st2" width="12" height="2"/>
		<rect x="21" y="36" class="st2" width="12" height="2"/>
		<rect x="21" y="40" class="st2" width="12" height="2"/>
		<g id="REFEPS_8_">
			<path class="st2" d="M19.3,12.2L19.3,12.2c-0.5-0.2-1.1-0.3-1.7-0.4c-0.1,0-0.2,0-0.3,0c-0.1,0-0.2,0-0.4,0
				c-0.6,0-1.2,0.1-1.7,0.3v0c0,0.1,0,0.1,0,0.2c0,0.8,0.2,1.5,0.6,2c0.1,0.1,0.1,0.2,0.2,0.2c0.4,0.4,0.8,0.7,1.3,0.7
				c0.5,0,0.9-0.2,1.3-0.7c0.1-0.1,0.1-0.1,0.2-0.2c0.4-0.6,0.6-1.2,0.6-2C19.3,12.3,19.3,12.2,19.3,12.2z"/>
			<path class="st2" d="M13.7,16.1C13.2,16.6,13,17.3,13,18h4.3l-0.4-0.9h-2.6l0.8-1.8l0.1-0.1c-0.1,0-0.1,0.1-0.1,0.1v0
				C14.5,15.4,14.1,15.6,13.7,16.1z"/>
			<path class="st2" d="M21.5,18c0-0.7-0.2-1.4-0.7-1.9c-0.4-0.5-0.9-0.8-1.4-0.8c0,0,0,0,0,0c0,0,0,0,0,0l0.8,1.8h-2.6L17.3,18
				H21.5z"/>
			<path class="st2" d="M15.6,15.2L14.8,17h2.1l-0.6-1.4C16,15.5,15.8,15.4,15.6,15.2z"/>
			<path class="st2" d="M18.9,15.2c-0.2,0.2-0.4,0.3-0.7,0.4L17.7,17h2.1L18.9,15.2z"/>
			<g>
				<path class="st2" d="M19.5,10.1c-0.2-0.4-0.4-0.7-0.7-0.9C18.4,8.4,17.9,8,17.3,8c-0.7,0-1.2,0.4-1.6,1.2
					c-0.3,0.2-0.6,0.5-0.8,0.9c-0.1,0.1-0.2,0.2-0.2,0.4l0.4,1.1c0.5-0.2,1.1-0.3,1.8-0.4c0.1,0,0.2,0,0.4,0c0.1,0,0.2,0,0.3,0
					c0.7,0,1.3,0.2,1.8,0.4l0.4-1.1C19.7,10.4,19.6,10.2,19.5,10.1z M17.2,8.4c0.1,0,0.3,0,0.4,0.1c0.2,0.1,0.4,0.1,0.5,0.3
					c0.3,0.3,0.4,0.5,0.4,0.9c0,0.4-0.1,0.7-0.4,0.9c-0.3,0.2-0.5,0.4-0.9,0.4c-0.3,0-0.6-0.1-0.9-0.4C16.1,10.3,16,10,16,9.6
					c0-0.4,0.1-0.6,0.4-0.9c0.1-0.2,0.3-0.2,0.5-0.3C17,8.4,17.1,8.4,17.2,8.4z"/>
				<path class="st2" d="M17.4,8.7H17v0.7h-0.6v0.5H17v0.6h0.5V9.8h0.7V9.4h-0.7V8.7z"/>
			</g>
		</g>
	</g>
	<g>
		<rect x="25" y="6.6" class="st2" width="22" height="29"/>
		<rect x="25.6" y="7.3" class="st2" width="21" height="27"/>
		<g>
			<defs>
				<rect id="SVGID_1_" x="25.6" y="7.3" width="21" height="27"/>
			</defs>
			<use xlink:href="#SVGID_1_"  style="overflow:visible;fill:#FFFFFF;"/>
			<clipPath id="SVGID_2_">
				<use xlink:href="#SVGID_1_"  style="overflow:visible;"/>
			</clipPath>
			<g class="st1">
				<path class="st4" d="M56.9,17.7c0,4.9,0,9.8,0,14.6c0,0.5-0.1,0.5-0.6,0.5c-11.3,0-22.5,0-33.8,0c-0.4,0-0.5-0.1-0.5-0.5
					c0-0.6,0-1.2,0-1.8c0.9-0.1,1.8-0.3,2.4-1c0.1,0.2,0,0.4-0.1,0.6c0,0.2-0.1,0.5,0.2,0.5c0.2,0,0.5-0.1,0.4-0.4
					c-0.1-0.4,0-0.9,0.1-1.3c0.1-0.4,0.1-0.7-0.2-0.9c-0.6-0.7-1-1.5-1-2.5c0-0.6,0.1-1.4-0.7-1.8c-0.3-0.2-0.2-0.5-0.1-0.7
					c0.5-1,1-2,1.4-3c0.1-0.3,0.3-0.5,0.6-0.6c0.7-0.4,1.4-0.6,2-1.1c0.8-0.6,1-1.3,0.6-1.8c-0.2-0.2-0.2-0.5-0.4-0.8
					c-0.5-0.8,0.1-1.8-0.2-2.6c0-0.1,0.1-0.1,0.2-0.1c0.3,0,0.4-0.2,0.6-0.3c0.7-0.8,2.1-1,2.7-0.2c0.3,0.4,0.6,0.7,1.2,0.7
					c-0.5,0.3-0.4,0.7-0.2,1c0.4,0.9-0.1,1.6-0.4,2.2c-0.5,0.9-0.4,1.5,0.6,1.8c0.5,0.1,1,0.3,1.4,0.6c0.2,0.1,0.3,0.3,0.5,0.1
					c0.2-0.2,0.3-0.4,0.2-0.6c-0.3-0.3-0.2-0.6-0.3-0.9c-0.6-1.1-0.3-2.3-0.2-3.5c0-0.1,0-0.3,0.2-0.2c0.3,0.2,0.6-0.1,0.7-0.3
					c0.3-0.4,0.8-0.4,1.2-0.3c0.3,0,0.6,0.1,0.8-0.2c0-0.1,0.4-0.2,0.3,0.2c0,0.2,0.2,0.2,0.3,0.3c0.8,0.5,1.3,1.1,1.3,2
					c0,0.3,0.1,0.5-0.1,0.8c-0.2,0.5-0.5,1.1-0.3,1.6c0.2,0.6-0.1,0.7-0.4,0.9c-0.3,0.3-0.3,0.7-0.1,1c0.2,0.2,0.4,0.5,0.7,0.6
					c0.4,0.1,0.5,0.3,0.2,0.6c-0.1,0.2-0.2,0.5,0,0.8c0.7-0.9,1.5-1.7,2.2-2.5c0.1-0.1,0.1-0.3,0-0.5c-0.2-1.1-1.1-1.7-1.4-2.6
					c0,0,0-0.1-0.1-0.1c-0.4-0.2-0.4-0.4-0.1-0.6c0.4-0.2,0.4-0.5,0.3-0.8c-0.3-1.4,1.1-3.4,2.7-3.4c0.1,0,0.3,0,0.4-0.1
					c0.4-0.2,0.9-0.1,1.1,0.1C44,11.7,44.8,12,45,13c0.2,0.8,0.3,1.6,0.6,2.4c0.3,0.6-0.2,1.1-0.5,1.5c-0.2,0.3-0.4,0.6-0.1,1
					c0,0,0.1,0.2,0,0.2c-0.6,0.4,0.1,0.6,0.1,0.9c-0.4,0.3-0.6,0-0.6-0.4c-0.4,0.6-0.2,1,0.1,1.4c0.2,0.2,0.3,0.4,0.5,0.6
					c0.2,0.4,0.9,0.5,1.3,0.4c0.3-0.1,0.8-1.1,0.9,0.1c0,0,0,0,0,0c0.2,0,0.1-0.3,0.4-0.2c0,0.3,0.1,0.6,0.1,0.9
					c0,0.1,0,0.3-0.1,0.2c-0.4-0.2-0.3,0.1-0.3,0.2c0,0.2,0.1,0.3,0.3,0.3c0.2,0,0.3-0.1,0.3-0.3c0-0.2,0-0.4,0-0.6
					c-0.1-1.2-0.1-2.4,0.6-3.5c0.3-0.6,0.5-1.2,0-1.8c-0.5-0.7-0.5-1.6-0.6-2.4c-0.1-1.3,0.6-2.1,1.9-2.3c0.5-0.1,0.9-0.2,1.4-0.2
					c0.1,0,0.3,0,0.3,0c0.2,0.5,0.9,0.5,1.2,0.9c0.1,0.1,0.1,0.4,0.4,0.3c0.2-0.1,0.1-0.3,0-0.4c-0.1-0.1-0.1-0.2,0-0.3
					c0.1-0.1,0.3-0.1,0.5,0c0.1,0.1,0.1,0.2,0.1,0.3c0,0.1-0.2,0.2-0.1,0.3c0.2,0,0.3-0.1,0.3-0.3c0.2-0.7,0.7-0.8,1.3-0.8
					c0.5,0,1.1,0,1.6,0c0,1.2,0,2.4,0,3.5c-1.9,0.2-1.9,0.2-2.7-0.7c-0.2,0.3-0.3,1-0.9,0.3c-0.1-0.1-0.3,0-0.3,0.1
					c-0.2,0.2-0.3,0.5-0.2,0.7c0.2,0.3-0.1,0.8,0.4,0.9c0.1,0,0.3,0,0.3,0.2c0,0.1-0.1,0.2-0.2,0.2c-0.1,0.1-0.3,0.1-0.4,0
					c-0.2-0.1-0.1-0.4-0.3-0.5c-0.1,0.3-0.3,0.7-0.4,1c-0.1,0.3,0.1,0.6,0.4,0.8c0.2,0.2,0.3-0.2,0.4-0.3c0.2-0.1,0.4-0.2,0.7-0.1
					c0.9,0.2,1.2,0,1.5-0.8c0.1-0.4,0.4-0.5,0.7-0.5c0.3,0,0.6,0.1,0.7,0.5C56.6,17.1,56.6,17.5,56.9,17.7z M35,22.4
					c-0.4,0-0.5,0.5-0.8,0.7c-0.6-0.9-0.9-1.9-0.6-3c-0.4,0.5-0.7,1-0.9,1.7c-0.2,0.8-0.2,1.5-0.3,2.3c-0.1,0.6,0.4,0.5,0.7,0.8
					c0.3-0.4,1.1,0,1.2-0.7c0-0.5,0.2-0.7,0.6-0.8c0.2-0.1,0.4-0.2,0.4-0.4c0.3,0,0.6,0.1,0.6-0.4c-0.1-0.5,0.5-0.8,0.9-0.7
					c0,0.2-0.5,0.1-0.3,0.4c0.1,0.2,0.2,0.2,0.4,0.2c0.2-0.1,0.7-1,0.6-1.3c-0.1-0.2-0.2-0.2-0.3-0.1C36.6,21.5,35.6,21.7,35,22.4z
					 M34.7,28.9c-1-0.4-1-0.4-0.3-1.1c0.1-0.1,0.3-0.2,0.1-0.4c-0.2-0.2-0.5-0.3-0.7-0.4c-0.3,0-0.2,0.3-0.3,0.5
					c0,0.1-0.1,0.2-0.1,0.4c-0.1,0.2-0.3,0.5,0,0.7C33.8,29,34.1,29.5,34.7,28.9z"/>
				<g>
					<path class="st4" d="M42.7,32.7c0-0.5,0-1,0.1-1.5c0-0.4-0.1-0.5-0.5-0.6c-0.4,0-0.9,0.1-1.3,0.1c-1.4,0.2-2.8-0.1-4.2-0.4
						c-1-0.2-1.5-0.9-2.5-1.2c0.1-0.1,0.2-0.2,0.2-0.2c0.6-0.1,0.7-0.4,0.5-0.9c-0.1-0.2-0.6-0.8,0.3-0.7c0.1,0,0-0.2,0-0.3
						c0-0.2,0-0.3,0.2-0.3c0.1,0,0.2,0.3,0.3,0c0.1-0.2,0-0.3-0.1-0.5c-0.2-0.2-0.4-0.3-0.5-0.5c-0.1-0.1-0.2-0.3-0.1-0.4
						c0.1-0.1,0.2-0.1,0.3,0c0.3,0.2,0.4,0,0.4-0.3c-0.1-0.3,0-0.6,0-0.9c0.1-0.1,0.2,0.1,0.2,0.1c0.2,0.2,0.2,0.7,0.6,0.5
						c0.4-0.2,0.9-0.4,0.8-0.9c-0.1-0.8,0.4-1.5,0.2-2.3c0-0.1,0-0.3,0.2-0.4c0.1,0.3,0.1,0.7,0.5,0.1c-0.2,1.2-0.4,2.3-0.3,3.5
						c0,0.5-0.2,0.8-0.4,1.2c-0.4,0.6-0.4,0.7,0.3,1c0.2,0.1,0.4,0.3,0.6,0.6c0.2-0.6,0.1-1.1,0.1-1.6c-0.1-1.8-0.2-3.7,0.5-5.4
						c0.3-0.6,0.6-1.1,1-1.5c0.2-0.2,0.3-0.4,0.2-0.7c-0.2-0.5-0.3-1.1-0.8-1.6c-0.4-0.4-1.1-1.1-0.4-1.9c0.1-0.1,0-0.3,0-0.4
						c-0.3-1.9,1-3.6,2.9-3.6c1.7,0,2.9,1.1,3,2.9c0,0.3,0,0.6,0.3,0.8c0.2,0.2,0.2,0.5,0.1,0.7c-0.4,1-0.8,2-1.1,3
						c-0.2,0.5-0.2,0.9,0.2,1.3c0.5,0.5,0.6,1.1,0.7,1.8c0,0.5,0.1,1,0.7,1.2c0.3,0.1,0.4,0.4,0.5,0.7c0.1-0.1,0.1-0.1,0.1-0.1
						c0-0.3-0.4-0.6,0-0.7c0.4-0.1,0.4,0.4,0.5,0.6c0.3,0.5,0.6,1,0.6,1.7c0,0.3,0.2,0.5,0.5,0.5c0.3,0,0.3-0.3,0.4-0.4
						c0.2-0.3,0.1-0.9,0.6-1c0.3-0.1,0.4-0.1,0.3,0.2c-0.1,0.6,0,1.1-0.4,1.6c-0.3,0.4-0.8,1-0.8,1.4c0.2,0.9-0.7,1.4-0.6,2.3
						c1.2-1.1,1.3-2.7,2-4.1c0.3,0.2,0.3,0.4,0.3,0.6c0,0.5,0,1,0.2,1.5c0.1,0.3,0,0.5-0.3,0.5c-0.2,0-0.4,0-0.5,0.1
						c-0.2,0.1-0.5,0.2-0.4,0.5c0.1,0.2,0.4,0.1,0.6,0.2c0.8,0.1,0.9,0.5,0.5,1.1c-0.3,0.4-0.5,0.4-0.8,0c-0.3-0.4-0.6-0.5-1-0.3
						c-0.2,0.1-0.5,0.3-0.2,0.6c0.3,0.3,0,0.5-0.2,0.6c-0.6,0.6-1.3,1.1-1.8,1.8C45.1,32.7,43.9,32.7,42.7,32.7z M43.7,23.9
						c-0.2,0.4-0.5,0.8-0.3,1.2c0.2,0.5-0.6,0.5-0.5,1c0,0.1,0,0.3-0.3,0.3c0-0.1-0.1-0.2-0.1-0.3c-0.4-1.5-0.9-3-1.6-4.4
						c-0.4-0.7-0.6-1.3-0.4-2c0,0,0-0.1-0.1-0.1c-0.5,0.6-0.9,1.4-0.9,2.2c0,0.6-0.2,1.1-0.3,1.7c-0.1,1.3,0,2.6,0.1,3.9
						c0.1,0.5,0.5,0.6,0.9,0.2c0.2-0.2,0.4-0.3,0.7-0.3c0.9,0,1.6,0.7,1.7,1.6c0,0.1,0,0.3,0.1,0.4c0.2-1-0.3-2.2,0.5-3.1
						c0.2,0.2,0.4,0.5,0.4,0.8c0,0.2-0.1,0.5,0.2,0.5c0.3,0,0.4-0.2,0.3-0.5c-0.2-0.9,0.3-1.9-0.4-2.8C43.7,24.1,43.7,24,43.7,23.9z
						 M44.3,25.2c0,0.8,0.1,1.5,0.4,2.3c0.1,0.4,0.5,0.3,0.7,0.3c0.6-0.2,1.2-1.2,1-1.8c-0.2-0.5-0.2-1-0.3-1.5
						c-0.1-0.6-0.7-0.8-1.2-0.5C44.3,24.3,44.3,24.7,44.3,25.2z"/>
					<path class="st4" d="M25.7,32.7c0-0.1-0.1-0.3-0.1-0.4c0.3-1.2-0.2-2.4-0.1-3.6c0-0.3-0.1-0.7-0.3-0.9c-1.1-0.8-1-2.1-1-3.2
						c0-0.4-0.1-0.6-0.4-0.8c-0.7-0.5-0.7-0.6-0.2-1.3c0.4-0.7,0.8-1.5,1-2.2c0.3-0.8,0.9-1.2,1.7-1.5c0.5-0.2,0.9-0.4,1.3-0.7
						c0.8-0.6,0.9-1.2,0.4-2c-0.7-1.1-0.8-2.2-0.1-3.3c0.7-1.1,2-1.2,3-0.3c1,0.9,1.1,2.6,0.4,3.5c-0.6,0.7-0.3,1.6,0.5,1.9
						c0.7,0.2,1.3,0.6,2,0.9c0.1,0.1,0.3,0.2,0.4,0.1c0.2-0.1,0.1-0.3,0.1-0.5c-0.1-0.3-0.1-0.7-0.3-0.9c-0.4-0.5-0.4-1.1-0.6-1.7
						c-0.2-1,0.1-1.8,0.8-2.4c0.8-0.6,1.7-0.7,2.6-0.2c0.9,0.4,1.3,1.3,1.3,2.2c0,1.1-0.2,2.2-0.9,3.1c-0.3,0.5-0.1,0.9,0.3,1.2
						c0.2,0.2,0.4,0.3,0.5,0.5c0.1,0.1,0.1,0.2,0,0.3c-0.1,0.1-0.2,0.1-0.3,0c-0.4-0.3-0.6-0.2-0.7,0.2c-0.1,0.2-0.2,0.4-0.4,0.4
						c-0.7,0.3-1.4,0.7-1.9,1.2c-0.3,0.3-0.4,0.1-0.5-0.1c-0.4-0.8-0.3-1.7-0.2-2.7c-0.9,1-1.3,2.1-1.3,3.4c0,0.6-0.3,1.1-0.2,1.7
						c0,0.1,0,0.2-0.2,0.2c-0.2,0-0.2-0.1-0.2-0.2c0-0.1,0-0.2,0-0.3c0.5-1.3,0.1-2.8,0.9-4c-1.4-0.1-3,1.5-3.2,3.1
						c-0.4,3.1-0.8,6.2-0.9,9.3C27.8,32.7,26.7,32.7,25.7,32.7z"/>
					<path class="st4" d="M47.8,32.7c0.5-0.8,1.3-1.2,2.1-1.6c0.1-0.1,0.3,0,0.4-0.1c0.7-0.8,1.7-0.6,2.6-0.8c0.1,0,0.3,0,0.4-0.1
						c0.1-0.2-0.2-0.3-0.3-0.3c-0.3-0.2-0.6-0.4-0.6-0.8c-0.1-0.4-0.3-0.4-0.6-0.1c-0.1,0.1-0.1,0.2-0.2,0.3c-0.2,0.2-0.4,0.3-0.6,0
						c-0.2-0.2-0.1-0.5,0.2-0.6c0.6-0.2,0.6-0.4,0.3-0.9c-0.2-0.5-0.2-1.1-0.7-1.5c-0.3-0.2,0.1-0.4,0.3-0.6c0.2-0.2,0.3,0,0.4,0.2
						c0.1,0.2,0,0.7,0.4,0.6c0.4,0,0.2-0.5,0.3-0.7c0-0.5,0.2-0.9,0.5-1.3c0.3-0.4,0.5-0.8,0.2-1.3c-0.1-0.2-0.1-0.5-0.1-0.7
						c0-0.4,0-0.8-0.1-1.1c-0.2-0.5-0.2-0.8,0.2-1.2c0.3-0.3,0.1-0.7-0.2-1.1c-0.3,0.8-0.6,1.4-0.8,2.1c-0.2,0.5-0.3,1.1-0.5,1.6
						c-0.1,0.2-0.3,0.5,0,0.7c0.1,0.1,0.1,0.2,0,0.3c-0.1,0.1-0.2,0.1-0.2,0.1c-0.2-0.3-0.8-0.4-0.6-0.9c0.1-0.3,0-0.6-0.1-0.8
						c-0.4-0.5-0.4-1.1-0.8-1.6c-0.2-0.3,0-0.5,0.1-0.7c0.1-0.2,0.3-0.4-0.1-0.4c-0.2,0-0.3-0.3-0.2-0.5c0-0.2,0-0.3-0.2-0.3
						c-0.2,0-0.3,0.1-0.3,0.2c-0.2,0.4-0.3,0.9-0.3,1.3c-0.1,0.7,0,1.3,0.1,1.9c0,0.2,0.1,0.4-0.2,0.4c-0.2,0-0.2-0.2-0.2-0.4
						c-0.2-1-0.2-2,0.1-3.1c0.1-0.3,0.2-0.6,0.4-0.8c0.5-0.5,0.4-1.1,0.2-1.6c-0.4-0.7-0.6-1.5-0.7-2.3c-0.1-0.9,0.2-1.8,0.9-2.3
						c0.8-0.5,1.7-0.5,2.6,0c1.1,0.6,1.4,1.6,1.1,2.9c-0.2,0.6-0.3,1.3-0.6,1.9c-0.2,0.6-0.2,1.1,0.4,1.5c0.2,0.1,0.3,0.3,0.4,0.6
						c0.2,0.7,0.5,1.2,1,1.8c0.5,0.5,0.2,1.3,0.2,2c0,0.1-0.1,0.2-0.2,0.1c-0.1,0-0.1-0.1-0.1-0.2c0,0,0,0,0-0.1
						c0.2-0.9-0.1-1.5-1-1.8c-0.2,1,0.2,1.9,0.5,2.7c0.2,0.4,0.3,0.1,0.5,0c0.2-0.1,0.3-0.7,0.7-0.2c0.1,0.1,0.2-0.1,0.2-0.2
						c0-0.2,0.1-0.5,0-0.7c-0.2-0.7,0.3-0.8,0.8-0.8c0.6-0.1,0.8,0.2,0.9,0.8c0.1,1.7,0.2,3.4-0.1,5.1c-0.1,0.5-0.4,1-0.7,1.4
						c-0.2,0.4-0.3,0.7-0.2,1.1c0.2,1,0.3,2,0.3,2.9C53.3,32.7,50.5,32.7,47.8,32.7z"/>
					<path class="st4" d="M30.4,32.7c-0.3-0.5,0.1-0.7,0.4-0.8c0.4-0.1,0.4-0.3,0.1-0.5c-0.2-0.2-0.2-0.4-0.2-0.7
						c0-0.4,0.1-0.9-0.5-1.2c-0.4-0.3-0.4-1-0.3-1.5c0.2-0.8-0.1-1.6,0.2-2.4c0.1-0.3-0.2-0.7-0.1-1.1c0.1-0.3,0.3-0.4,0.6-0.5
						c0.3,0,0.3,0.3,0.3,0.5c0,0.3,0,0.7,0.1,1c0,0.3-0.1,0.5,0.4,0.4c0.6-0.1,1,0,1.3-0.7c0.1,0.4,0,0.7-0.1,0.9
						c-0.4,0.6-0.4,1.3-0.6,2c-0.1,0.2-0.1,0.4,0.1,0.5c0.2,0.1,0.2-0.2,0.2-0.4c0-0.1,0-0.2,0.1-0.3c0.1-0.1,0.1-0.3,0.3-0.3
						c0.2,0,0.2,0.2,0.2,0.3c0.1,0.7-0.2,1.3-0.3,2c0,0.4-0.2,0.7,0.2,1c0.1,0.1,0.1,0.3,0,0.5c-0.2,0.4-0.2,0.9-0.2,1.3
						C31.9,32.7,31.1,32.7,30.4,32.7z"/>
					<path class="st4" d="M33.3,32.7c0-0.5-0.1-0.9,0.7-1c1.6-0.4,1.6-0.4,2.6,0.8c0,0.1,0.1,0.1,0.1,0.2
						C35.5,32.7,34.4,32.7,33.3,32.7z"/>
					<path class="st4" d="M37.7,32.7c-0.1-0.2-0.3-0.3-0.5-0.4c-0.2-0.1-0.3-0.1-0.3-0.3c0-0.2,0.2-0.2,0.3-0.3
						c0.4-0.2,0.8-0.2,1.1,0.1c0.2,0.2,0.4,0.3,0.6,0.2c0.8-0.4,1,0.1,1.2,0.7C39.3,32.7,38.5,32.7,37.7,32.7z"/>
				</g>
				<g>
					<path class="st4" d="M26.6,32.7c0.3-0.1,0.5-0.2,0.8-0.3c0.9-0.1,0.9-0.1,1.1-1c0,0.4,0,0.8,0,1.2
						C27.9,32.7,27.2,32.7,26.6,32.7z"/>
					<path class="st4" d="M30.8,15.6c-0.1-0.2-0.1-0.3-0.2-0.4c-0.4,0-0.7,0.1-1.1,0.1c0-0.1-0.1-0.2-0.1-0.2
						c0.3-0.1,0.7-0.3,1.1-0.4c-0.5-0.8-1.7-0.5-2.2-1.5c-0.8,0.6-0.1,1.5-0.6,2.2c-0.6-0.5-0.5-1.9,0.2-2.7
						c0.5-0.7,1.7-0.7,2.4-0.2C31.3,13.1,31.8,14.6,30.8,15.6z"/>
					<path class="st4" d="M37.6,16.3c-0.2-0.5-0.3-1-0.6-1.4c-0.6-0.9-1.3-0.9-2.1-0.2c-0.5,0.5-0.9,1-1.4,1.5
						c-0.5-0.7-0.4-1.7,0.3-2.4c0.7-0.7,2.1-0.9,2.9-0.4C37.7,14,38,15.1,37.6,16.3z"/>
					<path class="st4" d="M48.5,14.9C48,13.7,48.2,12.5,49,12c0.6-0.5,2.1-0.6,2.5-0.2c1.3,1.1,1.5,1.7,0.8,3.1
						c-0.1-0.5-0.2-0.9-0.2-1.3c-0.1-0.6-0.5-0.8-1-0.8c-0.1,0-0.2,0-0.4,0.1c-0.5,0.1-1.2,0-1.5,0.4c-0.3,0.3-0.3,1-0.4,1.5
						C48.7,14.7,48.6,14.7,48.5,14.9z"/>
					<path class="st4" d="M40.1,19.6c-0.2,0.5-0.5,0.9-0.7,1.4c-0.6,1.4-0.7,2.8-0.6,4.3C39,26.1,39,27,39,28c0,0.1,0,0.3-0.1,0.5
						c-0.1-0.2-0.2-0.3-0.2-0.4c0-1.8-0.1-3.6,0-5.3c0.1-1,0.7-2,1-2.9c0.1-0.1,0.1-0.3,0.2-0.4C40,19.4,40.1,19.5,40.1,19.6z"/>
					<path class="st4" d="M46.2,24.2c-0.1-0.8-0.4-1.6-1.4-1.5c-0.5,0.1-0.6,0.1-0.9,1.3c-0.3-0.6-0.1-1.3,0.5-1.5
						c0.3-0.1,0.4-0.3,0.4-0.6c-0.1-0.7-0.1-1.4-0.6-2c-0.1-0.1-0.1-0.3-0.1-0.6c0.8,0.6,1,1.3,1,2.1c0,0.6,0.1,1,0.7,1.3
						C46.4,23,46.4,23.6,46.2,24.2z"/>
					<path class="st4" d="M43.6,15c0.2,0.3,0.3,0.5,0.5,0.7c-0.3,0.1-0.5,0.3-0.8,0.4c-0.2,0-0.4-0.1-0.6-0.2
						c0.1-0.3,0.2-0.5,0.4-0.7C43.2,15.1,43.5,15.1,43.6,15z"/>
					<path class="st4" d="M29.5,16.1c0.3,0.1,0.8,0.1,0.8,0.2c0,0.4,0,0.9-0.2,1.2c-0.1,0.2-0.5,0.3-0.7,0.4c0-0.1-0.1-0.1-0.1-0.2
						c0.3-0.4,0.7-0.8,1.1-1.2c-0.4-0.1-0.7-0.1-0.9-0.2C29.5,16.3,29.5,16.2,29.5,16.1z"/>
					<path class="st4" d="M40.4,16.1c0.2-0.4,0.4-0.5,0.6-0.9c0.2,0.1,0.5,0.3,0.7,0.6c0.1,0,0,0.4-0.1,0.4
						C41.2,16.2,40.9,16.1,40.4,16.1z"/>
					<path class="st4" d="M42.5,26.3c-0.3-0.9-0.5-1.7-0.8-2.5C42.1,24.6,43,25.2,42.5,26.3z"/>
					<path class="st4" d="M32.1,20.2c-0.4,0.2-0.7,0.3-1.1,0.5c-0.1,0-0.1-0.1-0.2-0.1c0.2-0.3,0.3-0.6,0.6-0.8
						c0.2-0.1,0.5,0.2,0.8,0.3C32.1,20,32.1,20.1,32.1,20.2z"/>
					<path class="st4" d="M25.3,24.6c0-0.6,0-1.2,0-1.8c0,0,0.1-0.1,0.2-0.1c0.1,0.1,0.3,0.3,0.3,0.4c-0.1,0.5-0.2,1-0.3,1.4
						C25.4,24.6,25.3,24.6,25.3,24.6z"/>
					<path class="st4" d="M43.6,22.6c-0.2,0.4-0.3,0.9-0.5,1.3c0,0.1-0.2,0.1-0.3,0.2c0-0.1-0.1-0.2-0.1-0.2
						c0.2-0.5,0.5-0.9,0.7-1.4C43.5,22.6,43.6,22.6,43.6,22.6z"/>
					<path class="st4" d="M37,16.4c-0.3,0-0.6-0.1-0.9-0.2c0,0,0-0.3,0-0.4c0.1-0.1,0.3-0.1,0.4-0.1c0.2,0.1,0.3,0.3,0.5,0.4
						C37,16.3,37,16.3,37,16.4z"/>
					<path class="st4" d="M51.7,17.2c0.3,0.8,0,1.1-0.8,0.9C51.2,17.8,51.4,17.5,51.7,17.2z"/>
					<path class="st4" d="M35.1,15.6c0.1,0.3,0.1,0.5,0.1,0.7c-0.3,0-0.5,0.1-0.8,0.1c0-0.1,0-0.1-0.1-0.2
						C34.6,16.1,34.7,15.9,35.1,15.6z"/>
					<path class="st4" d="M41.8,12.2c-0.2,0.2-0.5,0.4-0.8,0.7c-0.1-0.2-0.2-0.4-0.3-0.6c0.3-0.1,0.7-0.2,1-0.3
						C41.7,12.1,41.7,12.2,41.8,12.2z"/>
				</g>
			</g>
		</g>
		<path class="st2" d="M25,6.6v29h22v-29H25z M46,34.6H26v-27h20V34.6z"/>
	</g>
	<g>
		<polygon class="st4" points="48,47 47,48 25,48 24,47 24,26 26,24 46,24 48,26 		"/>
		<polygon class="st0" points="28,24 28,28 30,30 42,30 44,28 44,24 		"/>
		<polygon class="st4" points="33,24 33,28 35,30 42,30 44,28 44,24 		"/>
		<circle class="st0" cx="36" cy="37" r="5"/>
		<circle class="st4" cx="36" cy="37" r="4"/>
		<circle class="st0" cx="36" cy="37" r="1"/>
	</g>
</g>
<g>
</g>
<g>
</g>
<g>
</g>
<g>
</g>
<g>
</g>
<g>
</g>
<g>
</g>
<g>
</g>
<g>
</g>
<g>
</g>
<g>
</g>
<g>
</g>
<g>
</g>
<g>
</g>
<g>
</g>
</svg>
