<?xml version="1.0" encoding="utf-8"?>
<!-- Generator: Adobe Illustrator 16.0.0, SVG Export Plug-In . SVG Version: 6.00 Build 0)  -->
<!DOCTYPE svg PUBLIC "-//W3C//DTD SVG 1.1//EN" "http://www.w3.org/Graphics/SVG/1.1/DTD/svg11.dtd">
<svg version="1.1" id="Capa_1" xmlns="http://www.w3.org/2000/svg" xmlns:xlink="http://www.w3.org/1999/xlink" x="0px" y="0px"
	 width="48px" height="48px" viewBox="0 0 48 48" style="enable-background:new 0 0 48 48;" xml:space="preserve">
<style type="text/css">
<![CDATA[
	.st0{fill:#FF9900;}
	.st1{fill:#FFFFFF;}
	.st2{fill:#000055;}
]]>
</style>
<g id="GEOSISA">
	<g>
		<circle class="st0" cx="24" cy="14" r="4"/>
		<path class="st2" d="M24,0L24,0c-7.7,0-14,6.2-14,13.9c0,2.2,1.4,5.9,4.3,9.6c5.5,6.9,9.2,17.8,9.6,24.5H24
			c0.3-6.7,4.1-17.6,9.6-24.5c3-3.7,4.3-7.4,4.3-9.6C38,6.2,31.7,0,24,0z M35,13.9c0,1.5-1.2,4.5-3.7,7.7c-2.8,3.5-5.4,8.3-7.3,13.5
			c-1.9-5.2-4.5-10-7.3-13.5c-2.5-3.2-3.7-6.2-3.7-7.7C13,7.9,17.9,3,24,3C30.1,3,35,7.9,35,13.9z"/>
		<g>
			<path class="st1" d="M14.3,23.5c-3-3.7-4.3-7.4-4.3-9.6C10,6.2,16.3,0,24,0C10.7,0,0,10.7,0,24c0,13.2,10.7,24,23.9,24
				C23.6,41.3,19.8,30.4,14.3,23.5z"/>
			<path class="st1" d="M24,0c7.7,0,14,6.2,14,13.9c0,2.2-1.4,5.9-4.3,9.6c-5.5,6.9-9.2,17.8-9.6,24.5C37.3,48,48,37.2,48,24
				C48,10.7,37.3,0,24,0z"/>
		</g>
	</g>
</g>
</svg>
