<?xml version="1.0" encoding="utf-8"?>
<!-- Generator: Adobe Illustrator 16.0.0, SVG Export Plug-In . SVG Version: 6.00 Build 0)  -->
<!DOCTYPE svg PUBLIC "-//W3C//DTD SVG 1.1//EN" "http://www.w3.org/Graphics/SVG/1.1/DTD/svg11.dtd">
<svg version="1.1" id="Capa_1" xmlns="http://www.w3.org/2000/svg" xmlns:xlink="http://www.w3.org/1999/xlink" x="0px" y="0px"
	 width="48px" height="48px" viewBox="0 0 48 48" style="enable-background:new 0 0 48 48;" xml:space="preserve">
<style type="text/css">
<![CDATA[
	.st0{opacity:0.5;fill-rule:evenodd;clip-rule:evenodd;fill:#FFFFFF;}
	.st1{fill-rule:evenodd;clip-rule:evenodd;fill:#FFFFFF;}
	.st2{opacity:0.2;fill-rule:evenodd;clip-rule:evenodd;fill:#FFFFFF;}
]]>
</style>
<g id="_lupa_96">
	<circle class="st0" cx="30.9" cy="16.9" r="12"/>
	<path class="st1" d="M42,5.8c-6.1-6.1-16-6.1-22.1,0c-6.1,6.1-6.1,16,0,22.1c6.1,6.1,16,6.1,22.1,0C48.1,21.8,48.1,11.9,42,5.8z
		 M21.6,26.2c-5.2-5.2-5.2-13.6,0-18.7c5.2-5.2,13.6-5.2,18.7,0c5.2,5.2,5.2,13.6,0,18.7C35.1,31.4,26.7,31.4,21.6,26.2z M42.8,4.9
		c-6.6-6.6-17.3-6.6-23.8,0c-6.6,6.6-6.6,17.3,0,23.8c6.6,6.6,17.3,6.6,23.8,0C49.4,22.2,49.4,11.5,42.8,4.9z M19.4,28.4
		c-6.3-6.3-6.3-16.6,0-23c6.3-6.3,16.6-6.3,23,0c6.3,6.3,6.3,16.6,0,23C36.1,34.7,25.8,34.7,19.4,28.4z M19,30.5l-1.7-1.7l0.4-0.4
		l1.7,1.7L19,30.5z M16.4,33l-1.7-1.7l0.9-0.9l1.7,1.7L16.4,33z M17.3,32.2l-1.7-1.7v-0.9l0.9-0.8h0.9l1.7,1.7v0.9l-0.9,0.9H17.3z
		 M3.7,47.5l-3.4-3.4L13,31.3h1.7l1.7,1.7v1.7L3.7,47.5z"/>
	<path class="st2" d="M42,5.8c-6.1-6.1-16-6.1-22.1,0c-6.1,6.1-6.1,16,0,22.1c6.1,6.1,16,6.1,22.1,0C48.1,21.8,48.1,11.9,42,5.8z
		 M20.3,27.5c-5.9-5.9-5.9-15.4,0-21.3c5.9-5.9,15.4-5.9,21.3,0c5.9,5.9,5.9,15.4,0,21.3C35.7,33.4,26.2,33.4,20.3,27.5z"/>
	<path class="st0" d="M42.8,4.9c-6.6-6.6-17.3-6.6-23.8,0c-6.6,6.6-6.6,17.3,0,23.8c6.6,6.6,17.3,6.6,23.8,0
		C49.4,22.2,49.4,11.5,42.8,4.9z M19.4,28.4c-6.3-6.3-6.3-16.6,0-23c6.3-6.3,16.6-6.3,23,0c6.3,6.3,6.3,16.6,0,23
		C36.1,34.7,25.8,34.7,19.4,28.4z"/>
	<rect x="17.2" y="29.1" transform="matrix(0.7078 0.7064 -0.7064 0.7078 26.1423 -4.3757)" class="st0" width="2.4" height="0.6"/>
	<polygon class="st0" points="3.7,47.5 2.4,46.2 15.2,33.5 15.6,32.2 16.4,31.3 16.4,31.3 17.3,31.3 18.1,30.5 18.1,29.6 18.6,29.2 
		19.4,30.1 19,30.5 19,31.3 18.1,32.2 17.3,32.2 16.4,33 16.4,34.7 	"/>
	<polygon class="st0" points="19,30.5 17.3,28.8 16.4,28.8 19,31.3 	"/>
	<polygon class="st0" points="16.4,33 14.7,31.3 13,31.3 16.4,34.7 	"/>
	<polygon class="st0" points="15.6,30.5 17.3,32.2 18.1,32.2 15.6,29.6 	"/>
</g>
<g>
</g>
<g>
</g>
<g>
</g>
<g>
</g>
<g>
</g>
<g>
</g>
<g>
</g>
<g>
</g>
<g>
</g>
<g>
</g>
<g>
</g>
<g>
</g>
<g>
</g>
<g>
</g>
<g>
</g>
</svg>
