<?xml version="1.0" encoding="utf-8"?>
<!-- Generator: Adobe Illustrator 16.0.0, SVG Export Plug-In . SVG Version: 6.00 Build 0)  -->
<!DOCTYPE svg PUBLIC "-//W3C//DTD SVG 1.1//EN" "http://www.w3.org/Graphics/SVG/1.1/DTD/svg11.dtd">
<svg version="1.1" id="Capa_1" xmlns="http://www.w3.org/2000/svg" xmlns:xlink="http://www.w3.org/1999/xlink" x="0px" y="0px"
	 width="48px" height="48px" viewBox="0 0 48 48" style="enable-background:new 0 0 48 48;" xml:space="preserve">
<style type="text/css">
<![CDATA[
	.st0{fill-rule:evenodd;clip-rule:evenodd;fill:#FFFFFF;}
]]>
</style>
<path id="Usuario_2_" class="st0" d="M46,36c0,4.4-3.6,8-8,8c-0.2,0-0.4,0-0.5-0.1C34.2,46.4,29.4,48,24,48s-10.2-1.6-13.5-4.1
	C10.4,44,10.2,44,10,44c-4.4,0-8-3.6-8-8s3.6-8,8-8c0.2,0,0.4,0,0.5,0.1c0.7-0.5,1.4-0.9,2.1-1.3C15.6,30,19.6,32,24,32
	s8.4-2,11.3-5.3c0.8,0.4,1.5,0.9,2.1,1.3c0.2,0,0.4-0.1,0.5-0.1C42.4,28,46,31.6,46,36z M36,11.7C36,11.7,36,11.7,36,11.7L36,11.7
	C36,5.2,30.6,0,24,0S12,5.2,12,11.7l0,0c0,0,0,0,0,0l0,0l0,0c0,9,5.4,16.3,12,16.3S36,20.7,36,11.7L36,11.7L36,11.7z"/>
</svg>
