<?xml version="1.0" encoding="utf-8"?>
<!-- Generator: Adobe Illustrator 16.0.0, SVG Export Plug-In . SVG Version: 6.00 Build 0)  -->
<!DOCTYPE svg PUBLIC "-//W3C//DTD SVG 1.1//EN" "http://www.w3.org/Graphics/SVG/1.1/DTD/svg11.dtd">
<svg version="1.1" id="Capa_1" xmlns="http://www.w3.org/2000/svg" xmlns:xlink="http://www.w3.org/1999/xlink" x="0px" y="0px"
	 width="48px" height="48px" viewBox="0 0 48 48" enable-background="new 0 0 48 48" xml:space="preserve">
<g id="Servicios_web_4_">
	<path fill="#FFFFFF" d="M36,17.053c-0.704-0.705-1.59-1.11-2.507-1.244l-0.02-0.02c-0.349,0.349-0.914,0.349-1.263,0
		c-0.35-0.349-0.35-0.914,0-1.263l3.157-3.158L24,0L12.631,11.369l1.696,1.696c0.301-0.85,0.783-1.649,1.462-2.328
		c2.438-2.438,6.404-2.438,8.842,0c2.438,2.438,2.438,6.405,0,8.842c-0.679,0.679-1.479,1.161-2.328,1.462L24,22.737l3.157-3.158
		c0.35-0.349,0.914-0.35,1.265,0c0.349,0.349,0.348,0.915,0,1.263l0.019,0.021c0.135,0.917,0.539,1.802,1.244,2.506
		c1.741,1.741,4.574,1.741,6.315,0C37.741,21.627,37.741,18.794,36,17.053z"/>
	<path fill="#FF9900" d="M36.632,12.631l-1.696,1.696c0.851,0.301,1.649,0.783,2.328,1.462c2.437,2.438,2.437,6.404,0,8.842
		c-2.438,2.438-6.405,2.438-8.842,0c-0.679-0.679-1.162-1.478-1.463-2.328L25.263,24l3.159,3.157c0.349,0.35,0.349,0.914,0,1.265
		c-0.351,0.349-0.914,0.349-1.265,0l-0.019,0.019c-0.918,0.135-1.803,0.539-2.507,1.244c-1.741,1.741-1.741,4.574,0,6.315
		c1.74,1.741,4.574,1.741,6.315,0c0.704-0.704,1.109-1.59,1.243-2.507l0.021-0.02c-0.35-0.348-0.35-0.914,0-1.263
		c0.349-0.35,0.915-0.349,1.263,0l3.158,3.157L48,24L36.632,12.631z"/>
	<path fill="#FFFFFF" d="M33.673,34.936c-0.302,0.85-0.784,1.649-1.462,2.328c-2.438,2.437-6.404,2.438-8.842,0
		c-2.438-2.438-2.438-6.405,0-8.842c0.678-0.679,1.478-1.162,2.328-1.462L24,25.263l-3.158,3.159c-0.349,0.349-0.914,0.349-1.263,0
		c-0.35-0.351-0.35-0.915,0-1.265l-0.02-0.019c-0.134-0.918-0.539-1.803-1.244-2.507c-1.741-1.741-4.575-1.741-6.316,0
		c-1.741,1.74-1.741,4.574,0,6.315c0.704,0.704,1.59,1.109,2.506,1.243l0.02,0.021c0.349-0.349,0.914-0.35,1.263,0
		c0.349,0.349,0.349,0.915,0,1.263l-3.158,3.158L24,48l11.368-11.368L33.673,34.936z"/>
	<path fill="#000055" d="M19.579,23.369c0.679,0.678,1.161,1.476,1.462,2.328L22.737,24l-3.158-3.158
		c-0.35-0.349-0.35-0.914,0-1.263c0.349-0.35,0.914-0.35,1.263,0l0.02-0.02c0.917-0.134,1.802-0.539,2.507-1.244
		c1.741-1.741,1.741-4.575,0-6.316c-1.741-1.741-4.575-1.741-6.316,0c-0.705,0.704-1.11,1.59-1.244,2.506l-0.02,0.02
		c0.349,0.349,0.349,0.914,0,1.263c-0.349,0.349-0.915,0.349-1.263,0l-3.158-3.158L0,24l11.369,11.368l1.696-1.695
		c-0.85-0.302-1.649-0.784-2.328-1.462c-2.438-2.438-2.438-6.404,0-8.842C13.174,20.931,17.142,20.931,19.579,23.369z"/>
</g>
</svg>
