<?xml version="1.0" encoding="utf-8"?>
<!-- Generator: Adobe Illustrator 16.0.0, SVG Export Plug-In . SVG Version: 6.00 Build 0)  -->
<!DOCTYPE svg PUBLIC "-//W3C//DTD SVG 1.1//EN" "http://www.w3.org/Graphics/SVG/1.1/DTD/svg11.dtd">
<svg version="1.1" id="Capa_1" xmlns="http://www.w3.org/2000/svg" xmlns:xlink="http://www.w3.org/1999/xlink" x="0px" y="0px"
	 width="48px" height="48px" viewBox="0 0 48 48" enable-background="new 0 0 48 48" xml:space="preserve">
<g id="Capacitacion_SISA">
	<path fill="#F9C213" d="M24,13.8L43,6L24,0L5,6L24,13.8z"/>
	<path fill="#000055" d="M24,13.8L43,6L24,0L5,6L24,13.8z"/>
	<g>
		<path fill="#FFFFFF" d="M24,15.8c-0.3,0-0.5,0-0.8-0.1L14.4,12c-0.6,1.3-0.9,2.7-0.9,4.2c0,0,0,0,0,0c0,7.9,4.7,14.3,10.5,14.3
			s10.5-6.4,10.5-14.3c0,0,0,0,0,0c0-1.5-0.3-2.9-0.9-4.2l-8.8,3.6C24.5,15.7,24.3,15.8,24,15.8z"/>
		<path fill="#FFFFFF" d="M36.3,30.5c-0.2,0-0.3,0-0.5,0c-0.6-0.4-1.2-0.8-1.9-1.2c-2.5,2.9-6,4.6-9.9,4.6s-7.4-1.8-9.9-4.6
			c-0.7,0.4-1.3,0.7-1.9,1.2c-0.2,0-0.3,0-0.5,0c-3.9,0-7,3.1-7,7s3.1,7,7,7c0.2,0,0.3,0,0.5,0C15.1,46.6,19.3,48,24,48
			s8.9-1.4,11.8-3.5c0.2,0,0.3,0,0.5,0c3.9,0,7-3.1,7-7S40.1,30.5,36.3,30.5z"/>
	</g>
	<g>
		<polygon fill="#FF9900" points="41.1,8.9 39,9.8 39,15 37,15 37,28 43,22 43,15 41.1,15 		"/>
	</g>
</g>
</svg>
