<?xml version="1.0" encoding="utf-8"?>
<!-- Generator: Adobe Illustrator 19.2.1, SVG Export Plug-In . SVG Version: 6.00 Build 0)  -->
<svg version="1.1" id="Layer_1" xmlns="http://www.w3.org/2000/svg" xmlns:xlink="http://www.w3.org/1999/xlink" x="0px" y="0px"
	 viewBox="0 0 48 48" style="enable-background:new 0 0 48 48;" xml:space="preserve">
<style type="text/css">
	.st0{fill-rule:evenodd;clip-rule:evenodd;fill:#FFFFFF;}
	.st1{fill:#000055;}
	.st2{fill-rule:evenodd;clip-rule:evenodd;fill:#FF9900;}
</style>
<path class="st0" d="M26.5,20H7.5C3.4,20,0,23.4,0,27.5v6.5c0,4,2.4,7.5,5.9,9.1v1.7c0,1.8-1.4,3.2-3.2,3.2v0h0.8v0
	c2.9,0,5.3-1.6,6.6-4h16.4c4.1,0,7.5-3.4,7.5-7.5v-8.9C34,23.4,30.6,20,26.5,20z"/>
<g>
	<path class="st1" d="M48,13.3v-3C48,4.6,43.4,0,37.7,0H23.3C17.6,0,13,4.6,13,10.3v3c0,0.9,0.1,1.8,0.4,2.7h2.1
		c-0.3-0.8-0.5-1.8-0.5-2.7v-3C15,5.7,18.7,2,23.3,2h14.3c4.6,0,8.3,3.7,8.3,8.3v3c0,3.4-2,6.3-4.9,7.6v1.4c0,1.5,1.2,2.7,2.7,2.7v0
		h-0.7v0c-2.4,0-4.5-1.4-5.5-3.3h-1.2c0.6,1,1.1,2.1,1.3,3.3c1.4,1.2,3.3,2,5.2,2c0.1,0,0.1,0,0.2,0h0.7c1.1,0,2-0.9,2-2
		c0-1.1-0.9-2-2-2c-0.4,0-0.7-0.3-0.7-0.7v-0.2C46.1,20.2,48,16.9,48,13.3z"/>
</g>
<path class="st2" d="M13,32c0,1.1-0.9,2-2,2s-2-0.9-2-2c0-1.1,0.9-2,2-2S13,30.9,13,32z M17,30c-1.1,0-2,0.9-2,2c0,1.1,0.9,2,2,2
	s2-0.9,2-2C19,30.9,18.1,30,17,30z M23,30c-1.1,0-2,0.9-2,2c0,1.1,0.9,2,2,2s2-0.9,2-2C25,30.9,24.1,30,23,30z"/>
</svg>
