<?xml version="1.0" encoding="utf-8"?>
<!-- Generator: Adobe Illustrator 16.0.0, SVG Export Plug-In . SVG Version: 6.00 Build 0)  -->
<!DOCTYPE svg PUBLIC "-//W3C//DTD SVG 1.1//EN" "http://www.w3.org/Graphics/SVG/1.1/DTD/svg11.dtd">
<svg version="1.1" id="Capa_1" xmlns="http://www.w3.org/2000/svg" xmlns:xlink="http://www.w3.org/1999/xlink" x="0px" y="0px"
	 width="48px" height="48px" viewBox="0 0 48 48" style="enable-background:new 0 0 48 48;" xml:space="preserve">
<style type="text/css">
<![CDATA[
	.st0{fill-rule:evenodd;clip-rule:evenodd;fill:#44C4E1;}
	.st1{fill-rule:evenodd;clip-rule:evenodd;fill:url(#SVGID_1_);}
	.st2{fill-rule:evenodd;clip-rule:evenodd;fill:url(#SVGID_2_);}
	.st3{fill-rule:evenodd;clip-rule:evenodd;fill:url(#SVGID_3_);}
	.st4{fill-rule:evenodd;clip-rule:evenodd;fill:url(#SVGID_4_);}
	.st5{fill-rule:evenodd;clip-rule:evenodd;fill:url(#SVGID_5_);}
]]>
</style>
<g>
	<path class="st0" d="M7.3,22.9c-2.5-8.5-2.8-12.5,4.5-15.6c2.6-1.1,9.9-2.7,14-3.5c4-0.7,8-1.6,11.1-3.8c0.3,0.7,0.6,2.2,0.6,3.1
		c-1.2,0.3-2.4,0.5-3.6,0.6c-0.2,0-0.3,0.1-0.3,0.3c0,0.1,0.2,0.3,0.3,0.2c1.6-0.2,3.3-0.5,4.9-0.9C40,3,41.1,2.6,42.1,2.1
		c0.1,1,0.1,2,0.1,2.9c-0.9,0.4-1.9,0.8-3,1.1c-1.7,0.5-3.5,0.8-5.1,1c-0.2,0-0.3,0.1-0.3,0.3c0,0.1,0.2,0.3,0.3,0.2
		c1.7-0.2,3.5-0.5,5.2-1c1-0.3,2-0.6,2.8-1C42,6.9,41.8,8,41.4,8.9c-0.7,0.3-1.5,0.5-2.3,0.7c-1.7,0.5-3.6,0.8-5.2,1
		c-0.2,0-0.3,0.1-0.3,0.3c0,0.1,0.2,0.3,0.3,0.2c1.7-0.2,3.5-0.5,5.3-1c0.6-0.2,1.2-0.3,1.8-0.5c-0.3,0.6-0.6,1-1,1.5l0,0
		c0,0.1-0.1,0.1-0.1,0.2l0,0c0,0.1-0.1,0.1-0.1,0.2l0,0c-0.1,0-0.1,0.1-0.2,0.1l0,0c-0.1,0-0.1,0.1-0.2,0.1l0,0
		c-0.1,0-0.1,0.1-0.2,0.1l0,0c-0.1,0-0.1,0.1-0.2,0.1l0,0c-0.1,0-0.1,0.1-0.2,0.1l0,0c-0.1,0-0.1,0.1-0.2,0.1l0,0
		c-0.1,0-0.1,0.1-0.2,0.1l0,0c-0.1,0-0.1,0.1-0.2,0.1l0,0c-0.1,0-0.1,0.1-0.2,0.1l0,0c-0.1,0-0.1,0.1-0.2,0.1l0,0
		c-0.1,0-0.1,0.1-0.2,0.1l0,0c-0.1,0-0.1,0.1-0.2,0.1l0,0c-0.1,0-0.1,0.1-0.2,0.1l0,0c-0.1,0-0.1,0.1-0.2,0.1l0,0
		c-0.1,0-0.1,0.1-0.2,0.1l0,0c-0.1,0-0.2,0.1-0.2,0.1l0,0c-0.1,0-0.2,0.1-0.2,0.1l0,0c-0.1,0-0.2,0.1-0.2,0.1l0,0l0,0
		c-0.1,0-0.2,0.1-0.2,0.1l0,0l0,0c-0.1,0-0.2,0-0.3,0.1h0l0,0c-0.1,0-0.2,0-0.3,0.1l0,0h0l0,0c-0.1,0-0.2,0-0.3,0.1l0,0h0l0,0
		c-0.1,0-0.2,0-0.3,0.1h0l0,0c-0.1,0-0.2,0-0.3,0.1h0v0l0,0c-0.1,0-0.2,0-0.3,0.1v0h0c-0.1,0-0.2,0-0.3,0.1l0,0h0l0,0
		c-0.1,0-0.2,0-0.3,0h0l0,0c-0.1,0-0.2,0-0.3,0h0h0c-0.1,0-0.2,0-0.3,0l0,0c-0.1,0-0.2,0-0.3,0l-0.1,0l-0.1,0l-0.1,0l0,0l0,0l-0.1,0
		l-0.1,0l-0.1,0l0,0l-0.1,0l-0.1,0l-0.1,0l0,0l0,0l-0.1,0l-0.1,0l-0.1,0l0,0l0,0l-0.1,0l-0.1,0l0,0l-0.1,0l-0.2,0l0,0l-0.1,0l-0.1,0
		l-0.1,0l0,0l-0.1,0l-0.1,0l-0.1,0l-0.1,0l0,0l-0.1,0l-0.1,0l-0.1,0l0,0l-0.1,0l-0.1,0l-0.2,0l-0.1,0l-0.1,0l-0.1,0l0,0l-0.1,0
		l-0.1,0l-0.1,0l0,0l0,0l-0.1,0l-0.1,0l-0.1,0h0l-0.1,0l-0.1,0l-0.1,0l-0.1,0l0,0l-0.1,0l-0.1,0l-0.1,0l-0.1,0l-0.1,0l-0.2,0L28,15
		L28,15l-0.1,0l-0.1,0l-0.1,0l-0.1,0l-0.1,0c-3.9,0.5-7.8,1-11.1,1.9C12.8,17.9,9.3,19.8,7.3,22.9z"/>
	<linearGradient id="SVGID_1_" gradientUnits="userSpaceOnUse" x1="11.918" y1="18.8135" x2="33.4143" y2="1.2526">
		<stop  offset="0" style="stop-color:#8DD7F7"/>
		<stop  offset="0.55" style="stop-color:#44C4E1"/>
		<stop  offset="1" style="stop-color:#44C4E1"/>
	</linearGradient>
	<path class="st1" d="M7.3,22.9c-2.5-8.5-2.8-12.5,4.5-15.6c2.6-1.1,9.9-2.7,14-3.5c4-0.7,8-1.6,11.1-3.8c0.3,0.7,0.6,2.2,0.6,3.1
		c-1.2,0.3-2.4,0.5-3.6,0.6c-0.2,0-0.3,0.1-0.3,0.3c0,0.1,0.2,0.3,0.3,0.2c1.6-0.2,3.3-0.5,4.9-0.9c1.1-0.3,2.2-0.7,3.2-1.2
		C42.3,2.9,42.4,4,42.3,5c-0.9,0.4-2,0.8-3.1,1.2c-1.7,0.5-3.5,0.8-5.1,1c-0.2,0-0.3,0.1-0.3,0.3c0,0.1,0.2,0.3,0.3,0.2
		c1.7-0.2,3.5-0.5,5.2-1c1-0.3,2-0.6,2.9-1c-0.1,0.4-0.1,0.8-0.2,1c-2.4,1.4-5.7,2.2-11.1,2.9c-4.7,0.5-12,0.8-18,3.3
		c-5,2.1-6,5.8-5.5,9.8C7.4,22.8,7.3,22.8,7.3,22.9z"/>
	<linearGradient id="SVGID_2_" gradientUnits="userSpaceOnUse" x1="8.9185" y1="27.4668" x2="36.4037" y2="17.5316">
		<stop  offset="0" style="stop-color:#DFE0E1"/>
		<stop  offset="0.58" style="stop-color:#FFFFFF"/>
		<stop  offset="1" style="stop-color:#FFFFFF"/>
	</linearGradient>
	<path class="st2" d="M32.1,25.4c-2.9,1.7-5.6,1.6-9.7,2.8c-3.9,1.1-11,3.7-11.5,6.5c-0.4-0.7-1.1-2.9-1.2-3.9c0,0,0.1,0,0.1-0.1
		c1.5-0.6,3-1.1,4.6-1.4c0.2,0,0.3-0.2,0.2-0.3c0-0.1-0.2-0.2-0.4-0.2c-1.6,0.3-3.2,0.8-4.7,1.4c-1.1,0.4-2.1,0.9-3,1.5
		c-0.2-1-0.4-2-0.5-2.9c0.8-0.5,1.8-1,2.9-1.4c1.6-0.6,3.3-1.1,4.9-1.5c0.2,0,0.3-0.2,0.2-0.3c0-0.1-0.2-0.2-0.4-0.2
		c-1.6,0.3-3.4,0.9-5,1.5c-1,0.4-1.9,0.8-2.7,1.3c0-1.2,0.1-2.3,0.4-3.3c0.7-0.3,1.4-0.7,2.1-1c1.7-0.7,3.5-1.2,5-1.5
		c0.2,0,0.3-0.2,0.2-0.3c0-0.1-0.2-0.2-0.4-0.2c-1.6,0.3-3.4,0.8-5.1,1.5c-0.6,0.2-1.1,0.5-1.7,0.7c0.2-0.4,0.4-0.8,0.6-1.2
		c4-6.3,13.2-6.9,20.3-7.9c1.6-0.2,3.2-0.4,4.8-0.6c2.3-0.3,4.4-0.9,6-2C38,18.6,35.3,23.6,32.1,25.4z"/>
	<linearGradient id="SVGID_3_" gradientUnits="userSpaceOnUse" x1="20.2026" y1="46.6602" x2="18.6447" y2="37.5085">
		<stop  offset="0" style="stop-color:#44C4E1"/>
		<stop  offset="0.32" style="stop-color:#46B5D1"/>
		<stop  offset="1" style="stop-color:#20155B"/>
	</linearGradient>
	<path class="st3" d="M14,46.5c0.6,2.2,3.8,1.9,4.9,0.1l6.1-9.5l-10.4,0.5l-1.3,6.2L14,46.5z"/>
	<path class="st0" d="M13.8,45.7c-1.6-6-2.9-9.5-2.8-11.2c0.8-2.7,7.7-5.2,11.5-6.3c4-1.2,7.5-1.2,10.3-3.2c0.1,1,0.1,2.1,0.1,2.8
		c-1,0.3-2,0.4-3,0.6c-0.2,0-0.3,0.2-0.3,0.3c0,0.1,0.2,0.2,0.3,0.2c1.4-0.2,2.8-0.5,4.2-0.9c0.7-0.2,1.5-0.5,2.1-0.8
		c0.1,0.8,0.2,1.5,0.2,2.2c-0.6,0.3-1.3,0.6-2.1,0.8c-1.4,0.4-2.9,0.8-4.3,0.9c-0.2,0-0.3,0.2-0.3,0.3c0,0.1,0.2,0.2,0.3,0.2
		c1.4-0.2,3-0.5,4.4-1c0.7-0.2,1.3-0.4,1.9-0.7c0,0.8-0.2,1.6-0.4,2.2c-0.5,0.2-1.1,0.4-1.7,0.6c-1.5,0.5-3,0.8-4.4,0.9
		c-0.2,0-0.3,0.2-0.3,0.3c0,0.1,0.2,0.2,0.3,0.2c1.4-0.2,3-0.5,4.5-1c0.4-0.1,0.8-0.3,1.2-0.4c-1.2,2.7-4,3.7-7.4,4.1
		c-2.7,0.3-4.9,0.4-7.5,1C16.9,38.8,12.7,40.5,13.8,45.7z"/>
	<linearGradient id="SVGID_4_" gradientUnits="userSpaceOnUse" x1="32.0322" y1="27.3896" x2="14.9771" y2="37.5506">
		<stop  offset="0" style="stop-color:#44C4E1"/>
		<stop  offset="0.48" style="stop-color:#44C4E1"/>
		<stop  offset="0.65" style="stop-color:#85CDEA"/>
		<stop  offset="1" style="stop-color:#8DD7F7"/>
	</linearGradient>
	<path class="st4" d="M12.2,40.3c-0.8-2.9-1.4-4.7-1.3-5.9c0.8-2.7,7.7-5.2,11.5-6.3c4-1.2,7.5-1.2,10.3-3.2c0.1,1,0.1,2.1,0.1,2.8
		c-1,0.3-2,0.4-3,0.6c-0.2,0-0.3,0.2-0.3,0.3c0,0.1,0.2,0.2,0.3,0.2c1.4-0.2,2.8-0.5,4.2-0.9c0.7-0.2,1.5-0.5,2.1-0.8
		c0.1,0.8,0.2,1.5,0.2,2.2c-0.6,0.3-1.3,0.6-2.1,0.8c-1.4,0.4-2.9,0.8-4.3,0.9c-0.2,0-0.3,0.2-0.3,0.3c0,0.1,0.2,0.2,0.3,0.2
		c1.4-0.2,3-0.5,4.4-1c0.7-0.2,1.3-0.4,1.9-0.7c0,0.6-0.1,1.2-0.2,1.7c-2.6,0.5-5.9,0.9-9.7,1.3C18.2,33.8,13.2,36.4,12.2,40.3z"/>
	<linearGradient id="SVGID_5_" gradientUnits="userSpaceOnUse" x1="28.708" y1="22.6787" x2="22.1014" y2="15.6808">
		<stop  offset="0" style="stop-color:#DFE0E1"/>
		<stop  offset="0.68" style="stop-color:#FFFFFF"/>
		<stop  offset="1" style="stop-color:#FFFFFF"/>
	</linearGradient>
	<path class="st5" d="M37.8,16.6c-3.3,2.9-9.1,4.7-15,5.8c-2.5,0.5-5.1,1-7.6,1.6C22.9,21.9,32.3,19.5,37.8,16.6z"/>
</g>
</svg>
