<?xml version="1.0" encoding="utf-8"?>
<!-- Generator: Adobe Illustrator 16.0.0, SVG Export Plug-In . SVG Version: 6.00 Build 0)  -->
<!DOCTYPE svg PUBLIC "-//W3C//DTD SVG 1.1//EN" "http://www.w3.org/Graphics/SVG/1.1/DTD/svg11.dtd">
<svg version="1.1" id="Capa_1" xmlns="http://www.w3.org/2000/svg" xmlns:xlink="http://www.w3.org/1999/xlink" x="0px" y="0px"
	 width="48px" height="48px" viewBox="0 0 48 48" style="enable-background:new 0 0 48 48;" xml:space="preserve">
<style type="text/css">
<![CDATA[
	.st0{fill:#ACACAC;}
	.st1{fill:#ADADAD;}
	.st2{fill:#E0E0E0;}
	.st3{clip-path:url(#SVGID_1_);enable-background:new    ;}
	.st4{fill:#B3B3B3;}
	.st5{fill:#858585;}
	.st6{fill:#B8B8B8;}
	.st7{enable-background:new    ;}
	.st8{fill:#8A8A8A;}
	.st9{fill:#8F8F8F;}
	.st10{fill:#949494;}
	.st11{fill:#999999;}
	.st12{fill:#FFFFFF;}
	.st13{fill:#9E9E9E;}
	.st14{clip-path:url(#SVGID_2_);enable-background:new    ;}
	.st15{fill:#A3A3A3;}
	.st16{fill:#A8A8A8;}
]]>
</style>
<g id="Centreal_de_reportes_1_">
	<polygon class="st12" points="1,42 1,3 0,3 0,42 0,43 1,43 30,43 30,42 	"/>
	<rect x="1" y="3" class="st12" width="31" height="39"/>
	<g>
		<rect x="3" class="st12" width="30" height="40"/>
		<rect x="4" y="1" class="st12" width="28" height="38"/>
	</g>
	<g>
		<rect x="6" y="27" class="st12" width="4" height="2"/>
		<rect x="11" y="27" class="st12" width="4" height="2"/>
		<rect x="16" y="27" class="st12" width="4" height="2"/>
		<rect x="21" y="27" class="st12" width="4" height="2"/>
		<rect x="26" y="27" class="st12" width="4" height="2"/>
		<rect x="6" y="30" class="st12" width="4" height="2"/>
		<rect x="11" y="30" class="st12" width="4" height="2"/>
		<rect x="16" y="30" class="st12" width="4" height="2"/>
		<rect x="21" y="30" class="st12" width="4" height="2"/>
		<rect x="26" y="30" class="st12" width="4" height="2"/>
		<rect x="6" y="33" class="st12" width="4" height="2"/>
		<rect x="11" y="33" class="st12" width="4" height="2"/>
		<rect x="16" y="33" class="st12" width="4" height="2"/>
		<rect x="21" y="33" class="st12" width="4" height="2"/>
		<rect x="26" y="33" class="st12" width="4" height="2"/>
		<rect x="6" y="25" class="st12" width="24" height="1"/>
		<rect x="6" y="23" class="st12" width="9" height="1"/>
		<g>
			<rect x="6" y="5" class="st12" width="24" height="1"/>
			<rect x="6" y="3" class="st12" width="9" height="1"/>
			<rect x="6" y="7" class="st12" width="4" height="2"/>
			<rect x="11" y="7" class="st12" width="4" height="2"/>
			<rect x="16" y="7" class="st12" width="4" height="2"/>
			<rect x="21" y="7" class="st12" width="4" height="2"/>
			<rect x="26" y="7" class="st12" width="4" height="2"/>
			<rect x="6" y="10" class="st12" width="4" height="2"/>
			<rect x="11" y="10" class="st12" width="4" height="2"/>
			<rect x="16" y="10" class="st12" width="4" height="2"/>
			<rect x="21" y="10" class="st12" width="4" height="2"/>
			<rect x="26" y="10" class="st12" width="4" height="2"/>
			<rect x="6" y="13" class="st12" width="4" height="2"/>
			<rect x="11" y="13" class="st12" width="4" height="2"/>
			<rect x="16" y="13" class="st12" width="4" height="2"/>
			<rect x="21" y="13" class="st12" width="4" height="2"/>
			<rect x="26" y="13" class="st12" width="4" height="2"/>
			<rect x="6" y="16" class="st12" width="4" height="2"/>
			<rect x="11" y="16" class="st12" width="4" height="2"/>
			<rect x="16" y="16" class="st12" width="4" height="2"/>
			<rect x="21" y="16" class="st12" width="4" height="2"/>
			<rect x="26" y="16" class="st12" width="4" height="2"/>
			<rect x="6" y="19" class="st12" width="4" height="2"/>
			<rect x="11" y="19" class="st12" width="4" height="2"/>
			<rect x="16" y="19" class="st12" width="4" height="2"/>
			<rect x="21" y="19" class="st12" width="4" height="2"/>
			<rect x="26" y="19" class="st12" width="4" height="2"/>
		</g>
	</g>
	<g>
		<rect x="37" y="19" class="st12" width="2" height="2"/>
		<rect x="40" y="19" class="st12" width="2" height="2.6"/>
		<rect x="43" y="19" class="st12" width="2" height="3.3"/>
		<rect x="46" y="19" class="st12" width="2" height="6"/>
		<rect x="37" y="12" class="st12" width="2" height="6"/>
		<rect x="34" y="19" class="st12" width="2" height="1"/>
		<rect x="34" y="15" class="st12" width="2" height="3"/>
		<rect x="40" y="10" class="st12" width="2" height="8"/>
		<rect x="43" y="8" class="st12" width="2" height="10"/>
		<rect x="46" y="4" class="st12" width="2" height="14"/>
	</g>
	<path class="st12" d="M33,40V23.1c-0.1,0-0.2,0-0.3,0c-8.4,0-15.2,4.5-15.6,10.2h0V40l0.1,0c0.1,1,0.4,2,1,3h12v-1h2v-2H33z"/>
	<g>
		<g>
			<g class="st7">
				<g>
					<path class="st2" d="M34,22.6c5.4,0,10,2.2,11.5,5.3L34,30.1V22.6z"/>
				</g>
				<g>
					<polygon class="st6" points="45.5,27.9 45.5,32.6 34,34.8 34,30.1 					"/>
				</g>
				<g>
					<rect x="35" y="31.4" class="st0" width="12" height="4.7"/>
				</g>
				<g>
					<path class="st2" d="M46.5,29.2c0.3,0.7,0.5,1.4,0.5,2.2H35L46.5,29.2z"/>
				</g>
				<g>
					<polygon class="st13" points="47.5,35.2 47.5,39.8 36,37.6 36,33 					"/>
				</g>
				<g>
					<path class="st2" d="M48,33c0,0.8-0.2,1.5-0.5,2.2L36,33H48z"/>
				</g>
				<g class="st7">
					<defs>
						<path id="SVGID_7_" class="st7" d="M48,33v4.7c0,0.8-0.2,1.5-0.5,2.2v-4.7C47.8,34.5,48,33.7,48,33z"/>
					</defs>
					<clipPath id="SVGID_1_">
						<use xlink:href="#SVGID_7_"  style="overflow:visible;"/>
					</clipPath>
					<g class="st3">
						<path class="st10" d="M48,33v4.7c0,0,0,0.1,0,0.1v-4.7C48,33,48,33,48,33"/>
						<path class="st11" d="M48,33.1v4.7c0,0.3,0,0.6-0.1,0.8v-4.7C48,33.7,48,33.4,48,33.1"/>
						<path class="st13" d="M47.9,33.9v4.7c-0.1,0.3-0.1,0.6-0.2,0.8v-4.7C47.8,34.5,47.8,34.2,47.9,33.9"/>
						<path class="st15" d="M47.7,34.8v4.7c-0.1,0.1-0.1,0.3-0.2,0.4v-4.7C47.5,35,47.6,34.9,47.7,34.8"/>
					</g>
				</g>
				<g class="st7">
					<defs>
						<path id="SVGID_9_" class="st7" d="M46.4,36.5v4.7c-1.8,3.6-7.1,6.2-13.4,6.2c-7.7,0-14-3.9-14-8.8v-4.7c0,4.9,6.3,8.8,14,8.8
							C39.3,42.7,44.6,40.1,46.4,36.5z"/>
					</defs>
					<clipPath id="SVGID_2_">
						<use xlink:href="#SVGID_9_"  style="overflow:visible;"/>
					</clipPath>
					<g class="st14">
						<path class="st15" d="M46.4,36.5v4.7c-0.1,0.2-0.2,0.3-0.3,0.5V37C46.2,36.9,46.3,36.7,46.4,36.5"/>
						<path class="st16" d="M46.1,37v4.7c-0.2,0.4-0.5,0.8-0.9,1.2v-4.7C45.6,37.8,45.9,37.4,46.1,37"/>
						<path class="st1" d="M45.2,38.2v4.7c-0.6,0.7-1.3,1.3-2.2,1.9v-4.7C43.9,39.5,44.6,38.9,45.2,38.2"/>
						<path class="st4" d="M43,40.1v4.7c-0.6,0.4-1.2,0.7-1.9,1v-4.7C41.8,40.8,42.5,40.4,43,40.1"/>
						<path class="st1" d="M41.1,41.1v4.7c-1,0.4-2.1,0.8-3.2,1.1v-4.7C39.1,41.9,40.2,41.5,41.1,41.1"/>
						<path class="st16" d="M37.9,42.2v4.7c-0.6,0.2-1.3,0.3-2,0.4v-4.7C36.6,42.5,37.3,42.3,37.9,42.2"/>
						<path class="st15" d="M36,42.5v4.7c-0.6,0.1-1.1,0.1-1.7,0.2v-4.7C34.8,42.7,35.4,42.6,36,42.5"/>
						<path class="st13" d="M34.3,42.7v4.7c-0.4,0-0.8,0-1.3,0c-0.1,0-0.2,0-0.3,0v-4.7c0.1,0,0.2,0,0.3,0
							C33.4,42.7,33.9,42.7,34.3,42.7"/>
						<path class="st11" d="M32.7,42.7v4.7c-0.5,0-1,0-1.6-0.1v-4.7C31.6,42.7,32.1,42.7,32.7,42.7"/>
						<path class="st10" d="M31.1,42.7v4.7c-0.5,0-1-0.1-1.6-0.2v-4.7C30.1,42.6,30.6,42.6,31.1,42.7"/>
						<path class="st9" d="M29.6,42.5v4.7c-0.6-0.1-1.1-0.2-1.6-0.3v-4.7C28.4,42.3,29,42.4,29.6,42.5"/>
						<path class="st8" d="M27.9,42.1v4.7c-0.7-0.2-1.3-0.4-1.9-0.6v-4.7C26.6,41.8,27.3,42,27.9,42.1"/>
						<path class="st5" d="M26,41.6v4.7c-4.2-1.5-7-4.4-7-7.6v-4.7C19,37.2,21.8,40,26,41.6"/>
					</g>
				</g>
				<g>
					<path class="st2" d="M33,25.1v8.8l13.4,2.6c-1.8,3.6-7.1,6.2-13.4,6.2c-7.7,0-14-3.9-14-8.8S25.3,25.1,33,25.1z"/>
				</g>
			</g>
		</g>
	</g>
</g>
<g>
</g>
<g>
</g>
<g>
</g>
<g>
</g>
<g>
</g>
<g>
</g>
<g>
</g>
<g>
</g>
<g>
</g>
<g>
</g>
<g>
</g>
<g>
</g>
<g>
</g>
<g>
</g>
<g>
</g>
</svg>
